<svg width="57" height="51" viewBox="0 0 57 51" fill="none" xmlns="http://www.w3.org/2000/svg">
<path d="M52.4025 1.79356C49.3362 -1.27281 39.5671 4.30492 35.2647 7.00904C33.1351 6.65504 30.3882 6.50954 27.2427 6.52379C24.0965 6.50954 21.3496 6.65504 19.2196 7.00941C14.9158 4.30305 5.14744 -1.27093 2.08295 1.79356C-0.960538 4.83705 2.51457 13.1928 4.29919 16.9161C2.1887 20.4809 1.41808 24.385 1.41808 27.7468C1.41808 30.6538 1.76458 33.5574 2.46057 36.4607C3.82032 42.1273 8.30043 46.4788 14.0117 47.6357C18.422 48.5274 22.8324 48.9733 27.2427 48.9733C31.6531 48.9733 36.0635 48.5274 40.4738 47.6357C46.1847 46.4788 50.6652 42.1273 52.0249 36.4607C52.7213 33.5571 53.0678 30.6538 53.0678 27.7468C53.0678 24.3857 52.2975 20.4827 50.1882 16.9188C51.9683 13.1991 55.4471 4.83817 52.4025 1.79356Z" fill="#B1B9C6"/>
<path d="M48.81 9.19594C48.81 9.19594 49.3073 10.3236 49.3883 11.5873C49.4655 12.7554 48.762 13.6468 47.8406 14.0188C45.9064 11.8191 43.5188 10.0213 40.8218 8.77219C40.8477 8.13844 41.1128 7.51595 41.6288 7.04795C43.6995 5.16508 46.5623 3.13483 48.5888 3.96021C52.119 5.40095 48.81 9.19594 48.81 9.19594Z" fill="white"/>
<path d="M5.67269 9.19594C5.67269 9.19594 5.17507 10.3236 5.09407 11.5873C5.01682 12.7554 5.72032 13.6468 6.64169 14.0188C8.57631 11.8191 10.9636 10.0213 13.6609 8.77219C13.635 8.13844 13.3699 7.51595 12.8539 7.04795C10.7832 5.16508 7.92044 3.13483 5.89394 3.96021C2.36408 5.40095 5.67269 9.19594 5.67269 9.19594Z" fill="white"/>
<path d="M53.0309 1.16276C51.4031 -0.465107 48.4376 -0.384486 43.9653 1.40951C40.7385 2.704 37.3991 4.62813 35.0741 6.07862C33.0322 5.76888 30.4136 5.61812 27.2468 5.63312C24.0754 5.61962 21.4538 5.76962 19.4104 6.07937C12.9151 2.02751 4.64033 -2.02623 1.45172 1.16276C-1.7924 4.40725 1.10747 12.2147 3.29221 16.8718C0.956345 21.0294 0.527346 25.2332 0.527346 27.7468C0.527346 30.7142 0.88622 33.7157 1.59459 36.6684C3.02859 42.6455 7.83345 47.2929 13.8353 48.5086C18.2828 49.4078 22.794 49.8638 27.2426 49.8635C31.6912 49.8635 36.2025 49.4075 40.6507 48.5082C46.6526 47.2925 51.4571 42.6448 52.891 36.668C53.599 33.7149 53.9583 30.713 53.9583 27.7464C53.9583 25.2328 53.5289 21.0298 51.1934 16.8722C53.3744 12.2136 56.2709 4.40275 53.0309 1.16276ZM51.1586 36.2529C49.8854 41.5588 45.6221 45.6841 40.2971 46.7626C35.9651 47.6382 31.5727 48.0826 27.2423 48.0826C22.9118 48.0826 18.5194 47.6386 14.1882 46.763C8.86282 45.6841 4.59946 41.5588 3.32634 36.2529C2.65059 33.4359 2.30822 30.5743 2.30822 27.7468C2.30822 24.6189 3.02334 18.649 7.81132 13.8122C8.15744 13.4627 8.15445 12.8987 7.80495 12.5526C7.45545 12.2065 6.89145 12.2091 6.54533 12.559C5.73833 13.3742 5.03821 14.218 4.42921 15.0745C1.64372 8.81761 0.992344 4.14101 2.71096 2.42239C4.36621 0.767517 9.71894 2.38114 16.8882 6.63137C15.6293 7.003 14.4199 7.44436 13.2938 7.95099C12.8453 8.15274 12.6451 8.67998 12.8468 9.12885C12.9953 9.45885 13.3197 9.65423 13.6594 9.65423C13.7817 9.65423 13.9058 9.62873 14.0243 9.57548C15.1583 9.06548 16.3827 8.62186 17.6625 8.25773C19.701 7.67911 22.923 7.39374 27.246 7.41474C31.563 7.39637 34.7831 7.67911 36.8212 8.25773C38.1022 8.62223 39.3266 9.06586 40.4598 9.57548C40.908 9.77723 41.4356 9.57736 41.6377 9.12849C41.8395 8.67999 41.6396 8.15274 41.1911 7.95099C40.0646 7.44399 38.8541 7.00262 37.5937 6.63062C44.7607 2.37813 50.1138 0.765258 51.7709 2.42275C53.4865 4.13875 52.8363 8.81499 50.0549 15.0745C49.4463 14.218 48.7458 13.3742 47.9392 12.5593C47.5931 12.2095 47.0291 12.2068 46.6796 12.553C46.3301 12.8991 46.3271 13.4627 46.6732 13.8126C51.4616 18.6497 52.1763 24.6193 52.1763 27.7472C52.1771 30.5735 51.8343 33.4355 51.1586 36.2529Z" fill="#678490"/>
<path fill-rule="evenodd" clip-rule="evenodd" d="M53.5952 30.7798C58.1349 35.3197 58.1349 42.6803 53.5952 47.2202C49.0553 51.7599 41.6947 51.7599 37.1548 47.2202C32.6151 42.6803 32.6151 35.3197 37.1548 30.7798C41.6947 26.2401 49.0553 26.2401 53.5952 30.7798ZM51.4613 38.3395C51.8261 38.3395 52.1217 38.6352 52.1217 38.9998C52.1217 39.3646 51.8259 39.6602 51.4613 39.6602H46.0354V45.0863C46.0354 45.4511 45.7396 45.7467 45.375 45.7467C45.0104 45.7467 44.7149 45.4509 44.7149 45.0863V39.6604H39.2885C38.9237 39.6604 38.628 39.3646 38.628 39C38.628 38.6354 38.9237 38.3397 39.2885 38.3397H44.7147V32.9133C44.7147 32.5487 45.0104 32.253 45.3748 32.253C45.7396 32.253 46.0352 32.5487 46.0352 32.9133V38.3395H51.4613Z" fill="white"/>
</svg>
