<svg width="14" height="15" viewBox="0 0 14 15" fill="none" xmlns="http://www.w3.org/2000/svg">
<g clip-path="url(#clip0_37_439)">
<path d="M4.97044 7.1582C4.96671 7.08006 4.97945 7.00201 5.00789 6.92875C5.03633 6.8555 5.07987 6.78856 5.13589 6.732C5.19191 6.67543 5.25924 6.6304 5.33381 6.59964C5.40838 6.56888 5.48864 6.55302 5.56975 6.55302C5.65086 6.55302 5.73112 6.56888 5.80569 6.59964C5.88026 6.6304 5.94759 6.67543 6.00361 6.732C6.05962 6.78856 6.10317 6.8555 6.13161 6.92875C6.16004 7.00201 6.17279 7.08006 6.16906 7.1582V11.4404C6.17279 11.5186 6.16004 11.5966 6.13161 11.6699C6.10317 11.7431 6.05962 11.8101 6.00361 11.8666C5.94759 11.9232 5.88026 11.9682 5.80569 11.999C5.73112 12.0298 5.65086 12.0456 5.56975 12.0456C5.48864 12.0456 5.40838 12.0298 5.33381 11.999C5.25924 11.9682 5.19191 11.9232 5.13589 11.8666C5.07987 11.8101 5.03633 11.7431 5.00789 11.6699C4.97945 11.5966 4.96671 11.5186 4.97044 11.4404V7.1582ZM13.0203 4.73389L12.4039 12.5732C12.3583 13.2208 12.0741 13.8312 11.6027 14.2944C11.3733 14.5188 11.0997 14.6968 10.7981 14.8179C10.4964 14.9391 10.1727 15.001 9.84595 15H4.15026C3.82391 15.0007 3.50068 14.9387 3.19947 14.8176C2.89825 14.6964 2.62511 14.5186 2.39599 14.2944C1.92435 13.8313 1.63976 13.2209 1.59353 12.5732L0.979658 4.73389H0V3.05176C0 2.64648 0.20631 2.49268 0.612603 2.49268H3.49082V1.31714C3.49183 0.968109 3.63603 0.633651 3.89193 0.386849C4.14784 0.140046 4.49463 0.000966401 4.85652 0L9.14348 0C9.50472 0.00193065 9.85053 0.141436 10.1056 0.388134C10.3607 0.634833 10.5044 0.968741 10.5054 1.31714V2.49146H13.4608C13.5031 2.49059 13.5455 2.49304 13.5874 2.49878C13.6961 2.51555 13.7957 2.56723 13.8701 2.64544C13.9446 2.72365 13.9894 2.82381 13.9975 2.92969C13.9975 2.9541 13.9975 2.97607 13.9975 2.99927V4.73389H13.0203ZM11.8179 4.75464H2.18208L2.78456 12.4878C2.80868 12.8587 2.96885 13.2092 3.23642 13.4766C3.35498 13.5932 3.49662 13.6858 3.65294 13.7487C3.80926 13.8116 3.97708 13.8436 4.14646 13.8428H9.84215C10.0115 13.8432 10.1792 13.811 10.3354 13.7481C10.4917 13.6852 10.6334 13.5929 10.7522 13.4766C11.0209 13.2097 11.182 12.859 11.2066 12.4878L11.8179 4.76074V4.75464ZM8.98653 2.49146V1.47095H5.01727V2.49146H8.98653ZM7.83094 7.1582C7.82721 7.08006 7.83996 7.00201 7.86839 6.92875C7.89683 6.8555 7.94038 6.78856 7.99639 6.732C8.05241 6.67543 8.11974 6.6304 8.19431 6.59964C8.26888 6.56888 8.34915 6.55302 8.43025 6.55302C8.51136 6.55302 8.59162 6.56888 8.66619 6.59964C8.74076 6.6304 8.80809 6.67543 8.86411 6.732C8.92013 6.78856 8.96367 6.8555 8.99211 6.92875C9.02055 7.00201 9.03329 7.08006 9.02956 7.1582V11.4404C9.03329 11.5186 9.02055 11.5966 8.99211 11.6699C8.96367 11.7431 8.92013 11.8101 8.86411 11.8666C8.80809 11.9232 8.74076 11.9682 8.66619 11.999C8.59162 12.0298 8.51136 12.0456 8.43025 12.0456C8.34915 12.0456 8.26888 12.0298 8.19431 11.999C8.11974 11.9682 8.05241 11.9232 7.99639 11.8666C7.94038 11.8101 7.89683 11.7431 7.86839 11.6699C7.83996 11.5966 7.82721 11.5186 7.83094 11.4404V7.1582Z" fill="black"/>
</g>
<defs>
<clipPath id="clip0_37_439">
<rect width="14" height="15" fill="white"/>
</clipPath>
</defs>
</svg>
