<svg width="14" height="15" viewBox="0 0 14 15" fill="none" xmlns="http://www.w3.org/2000/svg">
<path d="M0.758054 14.9942C0.818089 15.0019 0.87878 15.0019 0.938815 14.9942L3.9515 14.1874C4.08515 14.1534 4.20756 14.0809 4.30549 13.9777L13.562 4.03084C13.8425 3.72854 14 3.31961 14 2.89336C14 2.46711 13.8425 2.05818 13.562 1.75589L12.372 0.473201C12.2321 0.323189 12.0659 0.204183 11.8831 0.122988C11.7002 0.0417924 11.5042 0 11.3062 0C11.1083 0 10.9122 0.0417924 10.7294 0.122988C10.5465 0.204183 10.3804 0.323189 10.2405 0.473201L0.984006 10.3878C0.886687 10.4932 0.816611 10.6238 0.780649 10.767L0.027478 13.9938C0.000407416 14.0982 -0.00675754 14.2074 0.00641047 14.3148C0.0195785 14.4222 0.0528098 14.5257 0.104122 14.619C0.155434 14.7124 0.223776 14.7937 0.30507 14.8582C0.386365 14.9226 0.478947 14.9689 0.577293 14.9942C0.637328 15.0019 0.698019 15.0019 0.758054 14.9942ZM11.3025 1.61068L12.5 2.89336L11.3025 4.17605L10.1124 2.89336L11.3025 1.61068ZM2.19661 11.372L9.04294 4.03084L10.2405 5.31352L3.38662 12.6547L1.79743 13.0742L2.19661 11.372Z" fill="black"/>
</svg>
