<svg width="194" height="221" viewBox="0 0 194 221" fill="none" xmlns="http://www.w3.org/2000/svg">
<path d="M17.46 91.3298C16.13 91.3298 15.06 90.2498 15.06 88.9298V80.7299C15.06 79.3999 16.14 78.3298 17.46 78.3298C18.78 78.3298 19.86 79.4099 19.86 80.7299V88.9298C19.86 90.2598 18.78 91.3298 17.46 91.3298Z" fill="#A484D8"/>
<path d="M17.46 115.73C16.13 115.73 15.06 114.65 15.06 113.33V105.13C15.06 103.8 16.14 102.73 17.46 102.73C18.78 102.73 19.86 103.81 19.86 105.13V113.33C19.86 114.66 18.78 115.73 17.46 115.73Z" fill="#A484D8"/>
<path d="M10.45 95.3798C10.04 95.3798 9.63 95.2798 9.25 95.0598L2.14 90.9598C0.989998 90.2998 0.599997 88.8298 1.26 87.6798C1.92 86.5298 3.39 86.1398 4.54 86.7998L11.65 90.8998C12.8 91.5598 13.19 93.0298 12.53 94.1798C12.09 94.9498 11.28 95.3798 10.45 95.3798Z" fill="#A484D8"/>
<path d="M31.58 107.58C31.17 107.58 30.76 107.48 30.38 107.26L23.27 103.16C22.12 102.5 21.73 101.03 22.39 99.8797C23.05 98.7297 24.52 98.3397 25.67 98.9997L32.78 103.1C33.93 103.76 34.32 105.23 33.66 106.38C33.22 107.15 32.41 107.58 31.58 107.58Z" fill="#A484D8"/>
<path d="M3.35 107.58C2.52 107.58 1.71001 107.15 1.27001 106.38C0.610007 105.23 1.00001 103.76 2.15001 103.1L9.26 98.9997C10.41 98.3397 11.88 98.7297 12.54 99.8797C13.2 101.03 12.81 102.5 11.66 103.16L4.55001 107.26C4.17001 107.48 3.76 107.58 3.35 107.58Z" fill="#A484D8"/>
<path d="M24.48 95.3798C23.65 95.3798 22.84 94.9498 22.4 94.1798C21.74 93.0298 22.13 91.5598 23.28 90.8998L30.39 86.7998C31.54 86.1398 33.01 86.5298 33.67 87.6798C34.33 88.8298 33.94 90.2998 32.79 90.9598L25.68 95.0598C25.3 95.2798 24.89 95.3798 24.48 95.3798Z" fill="#A484D8"/>
<path d="M170.51 35.1499C169.18 35.1499 168.11 34.0799 168.11 32.7499V24.5499C168.11 23.2199 169.19 22.1499 170.51 22.1499C171.83 22.1499 172.91 23.2199 172.91 24.5499V32.7499C172.91 34.0799 171.83 35.1499 170.51 35.1499Z" fill="#DD528B"/>
<path d="M170.51 59.5498C169.18 59.5498 168.11 58.4798 168.11 57.1498V48.9498C168.11 47.6198 169.19 46.5498 170.51 46.5498C171.83 46.5498 172.91 47.6198 172.91 48.9498V57.1498C172.91 58.4798 171.83 59.5498 170.51 59.5498Z" fill="#DD528B"/>
<path d="M163.5 39.1999C163.09 39.1999 162.68 39.0999 162.3 38.8799L155.19 34.7799C154.04 34.1199 153.65 32.6499 154.31 31.4999C154.97 30.3499 156.44 29.9599 157.59 30.6199L164.7 34.7199C165.85 35.3799 166.24 36.8499 165.58 37.9999C165.14 38.7699 164.33 39.1999 163.5 39.1999Z" fill="#DD528B"/>
<path d="M184.63 51.3998C184.22 51.3998 183.81 51.2998 183.43 51.0798L176.32 46.9798C175.17 46.3198 174.78 44.8498 175.44 43.6998C176.1 42.5498 177.57 42.1598 178.72 42.8198L185.83 46.9198C186.98 47.5798 187.37 49.0498 186.71 50.1998C186.27 50.9698 185.46 51.3998 184.63 51.3998Z" fill="#DD528B"/>
<path d="M156.39 51.3998C155.56 51.3998 154.75 50.9698 154.31 50.1998C153.65 49.0498 154.04 47.5798 155.19 46.9198L162.3 42.8198C163.45 42.1598 164.92 42.5498 165.58 43.6998C166.24 44.8498 165.85 46.3198 164.7 46.9798L157.59 51.0798C157.21 51.2998 156.8 51.3998 156.39 51.3998Z" fill="#DD528B"/>
<path d="M177.52 39.1999C176.69 39.1999 175.88 38.7699 175.44 37.9999C174.78 36.8499 175.17 35.3799 176.32 34.7199L183.43 30.6199C184.58 29.9599 186.05 30.3499 186.71 31.4999C187.37 32.6499 186.98 34.1199 185.83 34.7799L178.72 38.8799C178.34 39.0999 177.93 39.1999 177.52 39.1999Z" fill="#DD528B"/>
<path d="M173.9 86.5598C172.57 86.5598 171.5 85.4899 171.5 84.1599V74.2299C171.5 72.8999 172.58 71.8298 173.9 71.8298C175.22 71.8298 176.3 72.8999 176.3 74.2299V84.1599C176.3 85.4899 175.22 86.5598 173.9 86.5598Z" fill="#F9CB71"/>
<path d="M173.9 116.09C172.57 116.09 171.5 115.01 171.5 113.69V103.76C171.5 102.43 172.58 101.36 173.9 101.36C175.22 101.36 176.3 102.43 176.3 103.76V113.69C176.3 115.02 175.22 116.09 173.9 116.09Z" fill="#F9CB71"/>
<path d="M165.41 91.4597C165 91.4597 164.59 91.3598 164.21 91.1398L155.61 86.1698C154.46 85.5098 154.07 84.0398 154.73 82.8898C155.39 81.7398 156.86 81.3498 158.01 82.0098L166.61 86.9798C167.76 87.6398 168.15 89.1098 167.49 90.2598C167.05 91.0298 166.24 91.4597 165.41 91.4597Z" fill="#F9CB71"/>
<path d="M190.99 106.22C190.58 106.22 190.17 106.12 189.79 105.9L181.19 100.93C180.04 100.27 179.65 98.7998 180.31 97.6498C180.97 96.4998 182.44 96.1098 183.59 96.7698L192.19 101.74C193.34 102.4 193.73 103.87 193.07 105.02C192.63 105.79 191.82 106.22 190.99 106.22Z" fill="#F9CB71"/>
<path d="M156.82 106.22C155.99 106.22 155.18 105.79 154.74 105.02C154.08 103.87 154.47 102.4 155.62 101.74L164.22 96.7698C165.37 96.1098 166.84 96.4998 167.5 97.6498C168.16 98.7998 167.77 100.27 166.62 100.93L158.02 105.9C157.64 106.12 157.23 106.22 156.82 106.22Z" fill="#F9CB71"/>
<path d="M182.39 91.4597C181.56 91.4597 180.75 91.0298 180.31 90.2598C179.65 89.1098 180.04 87.6398 181.19 86.9798L189.79 82.0098C190.94 81.3498 192.41 81.7398 193.07 82.8898C193.73 84.0398 193.34 85.5098 192.19 86.1698L183.59 91.1398C183.21 91.3598 182.8 91.4597 182.39 91.4597Z" fill="#F9CB71"/>
<path d="M36.07 28.5498C34.74 28.5498 33.67 27.4698 33.67 26.1498V16.2198C33.67 14.8898 34.75 13.8198 36.07 13.8198C37.39 13.8198 38.47 14.8898 38.47 16.2198V26.1498C38.47 27.4798 37.39 28.5498 36.07 28.5498Z" fill="#87B758"/>
<path d="M36.07 58.0798C34.74 58.0798 33.67 56.9998 33.67 55.6798V45.7498C33.67 44.4198 34.75 43.3499 36.07 43.3499C37.39 43.3499 38.47 44.4298 38.47 45.7498V55.6798C38.47 57.0098 37.39 58.0798 36.07 58.0798Z" fill="#87B758"/>
<path d="M27.58 33.4498C27.17 33.4498 26.76 33.3497 26.38 33.1297L17.78 28.1597C16.63 27.4997 16.24 26.0297 16.9 24.8797C17.56 23.7297 19.03 23.3397 20.18 23.9997L28.78 28.9697C29.93 29.6297 30.32 31.0997 29.66 32.2497C29.22 33.0197 28.41 33.4498 27.58 33.4498Z" fill="#87B758"/>
<path d="M53.16 48.2097C52.75 48.2097 52.34 48.1098 51.96 47.8898L43.36 42.9198C42.21 42.2598 41.82 40.7898 42.48 39.6398C43.14 38.4898 44.61 38.0998 45.76 38.7598L54.36 43.7298C55.51 44.3898 55.9 45.8598 55.24 47.0098C54.8 47.7798 53.99 48.2097 53.16 48.2097Z" fill="#87B758"/>
<path d="M18.99 48.2097C18.16 48.2097 17.35 47.7798 16.91 47.0098C16.25 45.8598 16.64 44.3898 17.79 43.7298L26.39 38.7598C27.54 38.0998 29.01 38.4898 29.67 39.6398C30.33 40.7898 29.94 42.2598 28.79 42.9198L20.19 47.8898C19.81 48.1098 19.4 48.2097 18.99 48.2097Z" fill="#87B758"/>
<path d="M44.56 33.4498C43.73 33.4498 42.92 33.0197 42.48 32.2497C41.82 31.0997 42.21 29.6297 43.36 28.9697L51.96 23.9997C53.11 23.3397 54.58 23.7297 55.24 24.8797C55.9 26.0297 55.51 27.4997 54.36 28.1597L45.76 33.1297C45.38 33.3497 44.97 33.4498 44.56 33.4498Z" fill="#87B758"/>
<path d="M104.04 25.1098C102.71 25.1098 101.64 24.0298 101.64 22.7098V2.71982C101.64 1.38982 102.72 0.319824 104.04 0.319824C105.36 0.319824 106.44 1.39982 106.44 2.71982V22.7098C106.44 24.0398 105.36 25.1098 104.04 25.1098Z" fill="#A484D8"/>
<path d="M104.04 84.5598C102.71 84.5598 101.64 83.4898 101.64 82.1598V62.1698C101.64 60.8398 102.72 59.7698 104.04 59.7698C105.36 59.7698 106.44 60.8398 106.44 62.1698V82.1598C106.44 83.4898 105.36 84.5598 104.04 84.5598Z" fill="#A484D8"/>
<path d="M97.48 33.4697C96.65 33.4697 95.84 33.0397 95.4 32.2697L88.75 20.7497C88.09 19.5997 88.48 18.1297 89.63 17.4697C90.78 16.8097 92.25 17.1997 92.91 18.3497L99.56 29.8697C100.22 31.0197 99.83 32.4897 98.68 33.1497C98.3 33.3697 97.89 33.4697 97.48 33.4697Z" fill="#F9CB71"/>
<path d="M117.25 67.7197C116.42 67.7197 115.61 67.2897 115.17 66.5197L108.52 54.9997C107.86 53.8497 108.25 52.3797 109.4 51.7197C110.55 51.0597 112.02 51.4497 112.68 52.5997L119.33 64.1197C119.99 65.2697 119.6 66.7397 118.45 67.3997C118.07 67.6197 117.66 67.7197 117.25 67.7197Z" fill="#F9CB71"/>
<path d="M90.92 44.8398H77.62C76.29 44.8398 75.22 43.7598 75.22 42.4398C75.22 41.1198 76.3 40.0398 77.62 40.0398H90.92C92.25 40.0398 93.32 41.1198 93.32 42.4398C93.32 43.7598 92.24 44.8398 90.92 44.8398Z" fill="#F9CB71"/>
<path d="M130.46 44.8398H117.16C115.83 44.8398 114.76 43.7598 114.76 42.4398C114.76 41.1198 115.84 40.0398 117.16 40.0398H130.46C131.79 40.0398 132.86 41.1198 132.86 42.4398C132.86 43.7598 131.78 44.8398 130.46 44.8398Z" fill="#F9CB71"/>
<path d="M90.83 67.7197C90.42 67.7197 90.01 67.6197 89.63 67.3997C88.48 66.7397 88.09 65.2697 88.75 64.1197L95.4 52.5997C96.06 51.4497 97.53 51.0597 98.68 51.7197C99.83 52.3797 100.22 53.8497 99.56 54.9997L92.91 66.5197C92.47 67.2897 91.66 67.7197 90.83 67.7197Z" fill="#F9CB71"/>
<path d="M110.6 33.4697C110.19 33.4697 109.78 33.3697 109.4 33.1497C108.25 32.4897 107.86 31.0197 108.52 29.8697L115.17 18.3497C115.83 17.1997 117.3 16.8097 118.45 17.4697C119.6 18.1297 119.99 19.5997 119.33 20.7497L112.68 32.2697C112.24 33.0397 111.43 33.4697 110.6 33.4697Z" fill="#F9CB71"/>
<path d="M86.95 34.9697C86.54 34.9697 86.13 34.8697 85.75 34.6497L68.44 24.6497C67.29 23.9897 66.9 22.5197 67.56 21.3697C68.22 20.2197 69.69 19.8297 70.84 20.4897L88.15 30.4897C89.3 31.1497 89.69 32.6197 89.03 33.7697C88.59 34.5397 87.78 34.9697 86.95 34.9697Z" fill="#A484D8"/>
<path d="M138.44 64.6997C138.03 64.6997 137.62 64.5997 137.24 64.3797L119.93 54.3797C118.78 53.7197 118.39 52.2497 119.05 51.0997C119.71 49.9497 121.18 49.5597 122.33 50.2197L139.64 60.2197C140.79 60.8797 141.18 62.3497 140.52 63.4997C140.08 64.2697 139.27 64.6997 138.44 64.6997Z" fill="#A484D8"/>
<path d="M69.64 64.6997C68.81 64.6997 68 64.2697 67.56 63.4997C66.9 62.3497 67.29 60.8797 68.44 60.2197L85.75 50.2197C86.9 49.5597 88.37 49.9497 89.03 51.0997C89.69 52.2497 89.3 53.7197 88.15 54.3797L70.84 64.3797C70.46 64.5997 70.05 64.6997 69.64 64.6997Z" fill="#A484D8"/>
<path d="M121.13 34.9697C120.3 34.9697 119.49 34.5397 119.05 33.7697C118.39 32.6197 118.78 31.1497 119.93 30.4897L137.24 20.4897C138.39 19.8297 139.86 20.2197 140.52 21.3697C141.18 22.5197 140.79 23.9897 139.64 24.6497L122.33 34.6497C121.95 34.8697 121.54 34.9697 121.13 34.9697Z" fill="#A484D8"/>
<path d="M159.55 144.06C159.42 143.98 159.29 143.91 159.16 143.84C160 138.77 160.42 133.69 160.42 128.61C160.42 120.09 158.47 110.19 153.12 101.15C157.63 91.7199 166.46 70.5199 158.74 62.7999C150.96 55.0199 126.19 69.17 115.28 76.03C109.88 75.13 102.91 74.7599 94.94 74.7999C86.96 74.7599 80 75.13 74.6 76.03C63.69 69.17 38.92 55.0299 31.14 62.7999C23.42 70.5199 32.23 91.7099 36.76 101.15C31.41 110.19 29.45 120.09 29.45 128.61C29.45 134.07 29.93 139.53 30.9 144.98C19.78 155.5 48.28 190.23 55.45 198.61C59.68 211.44 76.09 221 95.7 221C115.31 221 131.41 211.62 135.82 198.97C142.62 191.07 173.82 153.44 159.54 144.06H159.55Z" fill="#B2B8C4"/>
<path d="M102.86 80.0501C102.86 92.2501 99.31 102.14 94.95 102.14C90.59 102.14 87.03 92.2501 87.03 80.0501C87.03 78.3801 87.1 76.7501 87.23 75.1901C92.38 74.9601 97.53 74.9601 102.67 75.1901C102.8 76.7501 102.87 78.3801 102.87 80.0401L102.86 80.0501Z" fill="#95A1B3"/>
<path d="M85.85 76.04C85.85 88.23 82.31 98.13 77.94 98.13C73.57 98.13 70.28 88.93 70.04 77.34C72.76 76.63 75.57 76.13 78.45 75.84C80.92 75.6 83.38 75.4 85.85 75.27C85.85 75.53 85.85 75.78 85.85 76.05V76.04Z" fill="#95A1B3"/>
<path d="M119.85 77.24C119.63 88.87 116.17 98.13 111.95 98.13C107.73 98.13 104.04 88.24 104.04 76.04C104.04 75.78 104.04 75.53 104.04 75.26C106.87 75.41 109.71 75.64 112.54 75.94C115.03 76.2 117.47 76.64 119.85 77.23V77.24Z" fill="#95A1B3"/>
<path d="M149.63 81.5698C149.63 81.5698 150.89 84.4298 151.1 87.6298C151.3 90.5898 149.51 92.8498 147.18 93.7998C142.27 88.2198 136.22 83.6598 129.38 80.4998C129.45 78.8898 130.12 77.3098 131.43 76.1298C136.68 71.3598 143.94 66.2098 149.08 68.2998C158.03 71.9498 149.64 81.5798 149.64 81.5798L149.63 81.5698Z" fill="white"/>
<path d="M40.24 81.5698C40.24 81.5698 38.98 84.4298 38.77 87.6298C38.57 90.5898 40.36 92.8498 42.69 93.7998C47.6 88.2198 53.65 83.6598 60.49 80.4998C60.42 78.8898 59.75 77.3098 58.44 76.1298C53.19 71.3598 45.93 66.2098 40.79 68.2998C31.84 71.9498 40.23 81.5798 40.23 81.5798L40.24 81.5698Z" fill="white"/>
<path d="M141.28 135.33H129.67C128.34 135.33 127.27 134.25 127.27 132.93C127.27 131.61 128.35 130.53 129.67 130.53H141.28C142.61 130.53 143.68 131.61 143.68 132.93C143.68 134.25 142.6 135.33 141.28 135.33Z" fill="#95A1B3"/>
<path d="M139.17 146.23C138.89 146.23 138.61 146.18 138.34 146.08L128.84 142.56C127.6 142.1 126.96 140.72 127.42 139.47C127.88 138.23 129.26 137.59 130.51 138.05L140.01 141.57C141.25 142.03 141.89 143.41 141.43 144.66C141.07 145.63 140.15 146.23 139.18 146.23H139.17Z" fill="#95A1B3"/>
<path d="M60.21 135.33H48.6C47.27 135.33 46.2 134.25 46.2 132.93C46.2 131.61 47.28 130.53 48.6 130.53H60.21C61.54 130.53 62.61 131.61 62.61 132.93C62.61 134.25 61.53 135.33 60.21 135.33Z" fill="#95A1B3"/>
<path d="M50.71 146.23C49.73 146.23 48.82 145.63 48.46 144.66C48 143.42 48.63 142.04 49.88 141.57L59.38 138.05C60.62 137.59 62.01 138.22 62.47 139.47C62.93 140.71 62.3 142.09 61.05 142.56L51.55 146.08C51.28 146.18 50.99 146.23 50.72 146.23H50.71Z" fill="#95A1B3"/>
<path d="M118.03 108.28H111.94C110.61 108.28 109.54 107.2 109.54 105.88C109.54 104.56 110.62 103.48 111.94 103.48H118.03C119.36 103.48 120.43 104.56 120.43 105.88C120.43 107.2 119.35 108.28 118.03 108.28Z" fill="white"/>
<path d="M77.94 108.28H71.85C70.52 108.28 69.45 107.2 69.45 105.88C69.45 104.56 70.53 103.48 71.85 103.48H77.94C79.27 103.48 80.34 104.56 80.34 105.88C80.34 107.2 79.26 108.28 77.94 108.28Z" fill="white"/>
<path d="M77.4 145.61C79.73 148.34 83.15 150.69 87.16 152.08C89.7 152.96 92.47 153.45 95.34 153.42C102.78 153.32 109.25 149.68 112.91 145.11C113.57 144.29 114.13 143.45 114.59 142.59C115.57 140.78 116.09 138.89 116.07 137.08C115.93 126.39 106.54 126.27 94.97 126.42C83.39 126.58 74.49 128.11 74.16 137.64C74.07 140.31 75.27 143.11 77.39 145.6L77.4 145.61Z" fill="#6F818C"/>
<path d="M114.6 142.59C111.55 148.27 104.11 153.3 95.35 153.42C87.92 153.52 81.2 150.06 77.4 145.61C82.76 140.78 95.07 133.42 114.6 142.59Z" fill="#E27FA3"/>
<path d="M110.75 125.48C110.75 125.48 110.67 125.44 110.63 125.43C107.1 124.18 102.69 123.98 97.39 124.01V121.27H98.21C99.54 121.27 100.61 120.19 100.61 118.87C100.61 117.55 99.53 116.47 98.21 116.47H91.69C90.36 116.47 89.29 117.55 89.29 118.87C89.29 120.19 90.37 121.27 91.69 121.27H92.57V124.09C87.51 124.26 82.16 124.83 78.28 126.87C74.14 129.04 71.95 132.64 71.78 137.57C71.65 141.17 73.35 144.96 76.56 148.24C81.22 153 88.11 155.83 95.04 155.83C95.15 155.83 95.27 155.83 95.38 155.83C101.33 155.75 107.11 153.62 111.64 149.84C116.06 146.15 118.55 141.5 118.5 137.06C118.42 131.21 115.82 127.32 110.76 125.48H110.75ZM108.55 146.15C104.92 149.18 100.09 150.96 95.31 151.02C89.63 151.1 83.77 148.74 79.99 144.88C77.74 142.58 76.5 139.98 76.57 137.73C76.68 134.52 77.9 132.48 80.5 131.11C84.09 129.22 89.85 128.9 95.01 128.83C100.9 128.75 105.68 128.78 108.99 129.94C108.99 129.94 109.01 129.94 109.02 129.95C112.24 131.09 113.63 133.23 113.68 137.11C113.72 140.05 111.8 143.42 108.55 146.14V146.15Z" fill="#6F818C"/>
<path d="M73.85 126.28C73.24 126.28 72.62 126.05 72.15 125.58C68.82 122.25 63.41 122.25 60.09 125.58C59.15 126.52 57.63 126.52 56.69 125.58C55.75 124.64 55.75 123.12 56.69 122.18C61.89 116.98 70.35 116.98 75.55 122.18C76.49 123.12 76.49 124.64 75.55 125.58C75.08 126.05 74.47 126.28 73.85 126.28Z" fill="#5F5C5D"/>
<path d="M131.49 126.28C130.88 126.28 130.26 126.05 129.79 125.58C126.46 122.25 121.05 122.25 117.73 125.58C116.79 126.52 115.27 126.52 114.33 125.58C113.39 124.64 113.39 123.12 114.33 122.18C119.53 116.98 127.99 116.98 133.19 122.18C134.13 123.12 134.13 124.64 133.19 125.58C132.72 126.05 132.11 126.28 131.49 126.28Z" fill="#5F5C5D"/>
<path d="M165.52 149.71C165.13 146.77 163.87 144.43 161.77 142.72C162.47 138.02 162.83 133.3 162.83 128.61C162.83 122.24 161.74 111.58 155.84 101.03C161.38 89.1697 168.7 69.3597 160.44 61.0997C152.28 52.9397 131.27 63.2197 114.77 73.5197C109.59 72.7397 102.97 72.3597 94.95 72.3997C86.93 72.3697 80.29 72.7397 75.11 73.5297C58.6 63.2397 37.59 52.9697 29.44 61.1097C21.17 69.3797 28.5 89.1897 34.05 101.04C28.14 111.59 27.06 122.24 27.06 128.62C27.06 133.8 27.5 139.02 28.35 144.21C27.13 145.71 26.36 147.56 26.08 149.72C25.13 156.99 29.81 168.06 40 182.64C47.41 193.23 55.18 201.97 55.26 202.05C55.73 202.58 56.39 202.85 57.05 202.85C57.62 202.85 58.19 202.65 58.65 202.24C59.64 201.36 59.72 199.84 58.84 198.85C50.51 189.52 29.23 162.61 30.84 150.34C31.09 148.4 31.9 147.05 33.37 146.08C34.77 145.16 36.38 144.95 38.28 145.44C50.89 148.69 69.66 179.7 75.83 191.37C76.45 192.54 77.9 192.99 79.07 192.37C80.24 191.75 80.69 190.3 80.07 189.13C80.01 189.02 74.25 178.15 66.54 166.91C55.96 151.48 46.85 142.69 39.47 140.79C37.03 140.16 34.77 140.25 32.7 141.05C32.13 136.9 31.84 132.75 31.84 128.62C31.84 120.71 33.65 105.62 45.75 93.3797C46.68 92.4397 46.68 90.9197 45.73 89.9897C44.79 89.0597 43.27 89.0597 42.33 90.0097C40.34 92.0197 38.61 94.0997 37.1 96.2097C30.15 80.5197 28.52 68.8097 32.81 64.5097C37.1 60.2097 50.33 64.4197 68.31 75.0397C65.22 75.9697 62.25 77.0497 59.49 78.2997C58.28 78.8497 57.74 80.2597 58.29 81.4697C58.69 82.3597 59.56 82.8897 60.48 82.8897C60.81 82.8897 61.15 82.8197 61.47 82.6797C64.34 81.3897 67.43 80.2697 70.67 79.3397C75.83 77.8797 83.98 77.1597 94.93 77.2097C105.85 77.1697 114.02 77.8797 119.17 79.3397C122.41 80.2697 125.51 81.3897 128.38 82.6797C129.59 83.2297 131.01 82.6797 131.55 81.4797C132.1 80.2697 131.55 78.8497 130.35 78.3097C127.58 77.0697 124.61 75.9697 121.52 75.0497C139.49 64.4197 152.88 60.3897 157.02 64.5197C161.16 68.6497 159.68 80.5197 152.74 96.2197C151.23 94.1097 149.49 92.0397 147.51 90.0297C146.58 89.0897 145.06 89.0797 144.11 90.0097C143.17 90.9397 143.16 92.4597 144.09 93.3997C156.2 105.63 158 120.73 158 128.64C158 132.61 157.73 136.6 157.2 140.59C155.6 140.28 153.89 140.35 152.09 140.81C144.7 142.71 135.59 151.5 125.02 166.93C117.31 178.17 111.55 189.04 111.49 189.15C110.87 190.32 111.32 191.77 112.49 192.39C113.66 193.01 115.11 192.56 115.73 191.39C121.9 179.71 140.67 148.7 153.28 145.46C155.18 144.97 156.79 145.18 158.19 146.1C159.66 147.07 160.47 148.42 160.72 150.36C162.33 162.62 141.05 189.53 132.72 198.87C131.84 199.86 131.92 201.38 132.91 202.26C133.37 202.67 133.94 202.87 134.51 202.87C135.17 202.87 135.83 202.6 136.3 202.07C136.38 201.98 144.15 193.25 151.56 182.66C161.75 168.09 166.43 157.01 165.48 149.74L165.52 149.71Z" fill="#6F818C"/>
</svg>
