<svg width="31" height="31" viewBox="0 0 31 31" fill="none" xmlns="http://www.w3.org/2000/svg">
<path fill-rule="evenodd" clip-rule="evenodd" d="M16.0322 1.30401C16.2647 1.09617 16.5722 0.987221 16.8869 1.0012C23.5407 1.1996 29.1016 6.01091 30.1094 12.4414C30.1158 12.4798 30.1158 12.519 30.1094 12.5574C30.1311 12.8616 30.0278 13.1618 29.8225 13.3915C29.6172 13.6212 29.3266 13.7614 29.0152 13.7813L17.8361 14.5156C17.4664 14.5483 17.0998 14.4271 16.8262 14.1818C16.5527 13.9366 16.3977 13.59 16.3992 13.2273L15.6477 2.28951V2.10915C15.6614 1.80153 15.7997 1.51186 16.0322 1.30401ZM15.2654 17.3756L24.9549 16.7573L25.0208 16.783C25.4369 16.7898 25.8331 16.9579 26.1224 17.2502C26.4117 17.5426 26.5702 17.9353 26.5632 18.3419C26.1814 23.8839 22.1022 28.5145 16.551 29.7074C10.9998 30.9004 5.30915 28.3694 2.58349 23.4951C1.78203 22.0913 1.27557 20.5451 1.09383 18.9474C1.02334 18.474 0.992475 17.9957 1.00155 17.5174C1.01992 11.6242 5.23215 6.53763 11.126 5.29126C11.8395 5.15824 12.5549 5.51308 12.8662 6.15443C12.9436 6.27081 13.0057 6.39636 13.0507 6.52804C13.1612 8.22683 13.2758 9.90954 13.3899 11.5851C13.48 12.9085 13.5699 14.2273 13.6571 15.5462C13.6526 15.8569 13.7016 16.1661 13.8021 16.4609C14.0387 17.041 14.6274 17.409 15.2654 17.3756Z" fill="#212529"/>
</svg>
