<svg width="55" height="55" viewBox="0 0 55 55" fill="none" xmlns="http://www.w3.org/2000/svg">
<g clip-path="url(#clip0_51_261)">
<path fill-rule="evenodd" clip-rule="evenodd" d="M27.5 6.39697C39.1553 6.39697 48.603 15.8458 48.603 27.5C48.603 39.1542 39.1553 48.603 27.5 48.603C15.8458 48.603 6.39697 39.1542 6.39697 27.5C6.39697 15.8458 15.8458 6.39697 27.5 6.39697ZM27.5 0C35.0926 0 41.9687 3.07871 46.9455 8.05449C51.9213 13.0313 55 19.9063 55 27.5C55 35.0937 51.9213 41.9697 46.9455 46.9455C41.9697 51.9213 35.0937 55 27.5 55C19.9063 55 13.0313 51.9213 8.05449 46.9455C3.07871 41.9687 0 35.0926 0 27.5C0 19.9063 3.07871 13.0313 8.05449 8.05449C13.0313 3.07871 19.9063 0 27.5 0ZM45.0398 9.96016C40.5507 5.47207 34.3492 2.69521 27.5 2.69521C20.6497 2.69521 14.4482 5.47207 9.96016 9.96016C5.47207 14.4482 2.69521 20.6497 2.69521 27.5C2.69521 34.3492 5.47207 40.5507 9.96016 45.0398C14.4482 49.5279 20.6497 52.3048 27.5 52.3048C34.3503 52.3048 40.5518 49.5279 45.0398 45.0398C49.5279 40.5518 52.3048 34.3503 52.3048 27.5C52.3048 20.6497 49.5279 14.4482 45.0398 9.96016ZM30.7388 23.5007C30.6754 22.781 30.3864 22.2267 29.8729 21.8238C29.5174 21.5456 29.0533 21.363 28.4851 21.2781V25.4515L29.5206 25.6856C30.5057 25.9016 31.3801 26.1852 32.1406 26.5429C32.8969 26.9006 33.5339 27.3303 34.0517 27.8255C34.5694 28.3153 34.9626 28.8879 35.2279 29.5303C35.4943 30.1759 35.6318 30.8999 35.6404 31.6959C35.6318 32.9603 35.3117 34.042 34.6833 34.9486C34.0517 35.8521 33.1439 36.5481 31.9623 37.0294C30.9762 37.4322 29.816 37.6653 28.4851 37.7298V39.9932H26.8813V37.7287C25.546 37.66 24.359 37.4172 23.3224 36.9972C22.0763 36.4977 21.1095 35.7371 20.422 34.7155C19.7302 33.6939 19.3778 32.4017 19.3585 30.8397H23.9862C24.0228 31.4811 24.1968 32.0214 24.4986 32.4479C24.8059 32.8786 25.228 33.2041 25.763 33.4232C26.1035 33.565 26.4763 33.6606 26.8813 33.7122V29.3079L25.4472 28.9749C23.7166 28.5774 22.3556 27.9351 21.3565 27.0467C20.3618 26.1583 19.8677 24.9573 19.872 23.4405C19.8677 22.2041 20.2018 21.1181 20.871 20.1878C21.5402 19.2586 22.4651 18.5346 23.6521 18.0125C24.62 17.5893 25.6953 17.3379 26.8813 17.2595V15.0068H28.4851V17.2563C29.7086 17.3304 30.7936 17.585 31.7378 18.0168C32.8829 18.5432 33.767 19.2769 34.3997 20.22C35.0324 21.1643 35.3525 22.2546 35.3665 23.5007H30.7388ZM26.8813 21.2781C26.602 21.3189 26.3517 21.3813 26.1304 21.4661C25.7136 21.6315 25.4021 21.8561 25.1958 22.1354C24.9853 22.4189 24.88 22.7444 24.8703 23.1064C24.8606 23.4094 24.9208 23.6704 25.054 23.8992C25.1861 24.128 25.3838 24.3257 25.6395 24.4986C25.8973 24.6737 26.2088 24.8241 26.5697 24.953C26.6707 24.9885 26.7749 25.0229 26.8813 25.0551V21.2781ZM28.4851 33.7004C28.7826 33.6563 29.0544 33.5876 29.3004 33.492C29.758 33.318 30.1114 33.0752 30.3585 32.7637C30.6066 32.4479 30.7345 32.0901 30.7388 31.6873C30.7345 31.3113 30.6152 30.9869 30.3864 30.7162C30.1576 30.4455 29.8085 30.2124 29.3369 30.0147C29.0888 29.9095 28.8041 29.8085 28.4851 29.7118V33.7004Z" fill="white"/>
</g>
<defs>
<clipPath id="clip0_51_261">
<rect width="55" height="55" fill="white"/>
</clipPath>
</defs>
</svg>
