<svg width="31" height="31" viewBox="0 0 31 31" fill="none" xmlns="http://www.w3.org/2000/svg">
<path fill-rule="evenodd" clip-rule="evenodd" d="M25.6287 3.70856L27.8533 5.93344C28.4389 6.51899 28.4389 7.4769 27.8533 8.06245L26.0619 9.85391C26.5561 10.7768 26.9333 11.7715 27.1732 12.8187H29.4939C30.3221 12.8187 30.9997 13.4964 30.9997 14.3244V17.4706C30.9997 18.2988 30.3221 18.9765 29.4939 18.9765H26.9613C26.6507 20.0015 26.2065 20.9685 25.6484 21.857L27.2913 23.4994C27.8768 24.0854 27.8768 25.0434 27.2913 25.6286L25.0667 27.8535C24.4811 28.4388 23.523 28.4388 22.9377 27.8535L21.146 26.0618C20.2234 26.5563 19.2284 26.9337 18.181 27.1734V29.4941C18.181 30.3221 17.5036 30.9997 16.6754 30.9997H13.5295C12.7012 30.9997 12.0236 30.3221 12.0236 29.4941V26.9615C10.9986 26.6506 10.0316 26.2064 9.14334 25.6483L7.50075 27.2912C6.91471 27.8767 5.9568 27.8767 5.37126 27.2912L3.14667 25.0666C2.56113 24.481 2.56113 23.5231 3.14667 22.9375L4.93835 21.1458C4.44389 20.2232 4.06648 19.2285 3.82707 18.1813H1.5056C0.67762 18.1813 0 17.5039 0 16.6756V13.5294C0 12.7012 0.67762 12.0238 1.5056 12.0238H4.03822C4.34903 10.9988 4.79329 10.0318 5.35108 9.14323L3.7085 7.50087C3.12296 6.91507 3.12296 5.9569 3.7085 5.3716L5.93334 3.14672C6.51888 2.56117 7.47678 2.56117 8.06232 3.14672L9.85375 4.93818C10.7766 4.44371 11.7713 4.06629 12.8188 3.82663V1.50588C12.8188 0.677631 13.4964 0 14.3244 0H17.4705C18.2985 0 18.9761 0.677631 18.9761 1.50588V4.03779C20.0014 4.34835 20.9686 4.79262 21.8577 5.35067L23.4993 3.70856C24.0853 3.12301 25.0432 3.12301 25.6287 3.70856ZM15.5 9.31428C18.9159 9.31428 21.6856 12.0843 21.6856 15.5C21.6856 18.9154 18.9159 21.6857 15.5 21.6857C12.0844 21.6857 9.31438 18.9157 9.31438 15.5C9.31438 12.0843 12.0844 9.31428 15.5 9.31428Z" fill="#212529"/>
</svg>
