<svg width="367" height="240" viewBox="0 0 367 240" fill="none" xmlns="http://www.w3.org/2000/svg">
<g clip-path="url(#clip0_2_5370)">
<path d="M156.351 159.882L156.673 152.059C157.252 137.937 160.361 124.777 168.931 124.707C173.979 124.666 176.559 128.992 177.824 134.263L193.687 134.913C203.982 135.336 211.977 144.013 211.555 154.308L211.236 162.13C210.815 172.41 202.136 180.42 191.841 179.998L174.205 179.276C163.924 178.854 155.929 170.161 156.351 159.882Z" fill="#B1B9C6"/>
<path d="M176.383 256L150.383 292H84.3831L136.383 227L164.383 181L193.883 183.5L176.383 256Z" fill="#B1B9C6" stroke="#678490"/>
<path d="M210.107 137.715C205.88 133.129 200.119 130.462 193.883 130.206L181.343 129.692C180.394 127.2 179.158 125.163 177.632 123.611C175.306 121.247 172.319 120 168.988 120C168.954 120 168.919 120 168.885 120C155.969 120.109 152.556 137.39 151.969 151.867C151.969 151.877 151.971 151.887 151.971 151.897L151.652 159.689C151.352 166.994 154.458 173.661 159.55 178.158C148.37 203.927 94.2107 275.62 76.9597 288.019C74.8479 289.54 74.37 292.481 75.883 294.592C77.4039 296.704 80.3445 297.182 82.4562 295.669C101.303 282.112 156.189 209.505 167.804 182.869C169.771 183.506 171.853 183.894 174.019 183.983L190.951 184.678C183.467 243.28 150.764 288.424 150.333 289.005C148.795 291.099 149.239 294.047 151.333 295.594C152.169 296.209 152.974 296.507 154.119 296.508C155.779 296.509 156.99 295.842 157.914 294.592C159.445 292.512 193.52 245.611 200.599 183.319C203.466 182.276 206.127 180.67 208.438 178.538C213.024 174.311 215.689 168.551 215.945 162.321L216.266 154.498C216.52 148.262 214.333 142.301 210.107 137.715ZM202.051 171.612C199.312 174.137 195.759 175.453 192.035 175.291L174.399 174.569C166.732 174.256 160.747 167.752 161.061 160.074L161.382 152.251C161.382 152.232 161.38 152.21 161.382 152.19C161.85 140.874 164.372 129.458 168.96 129.421C169.793 129.389 170.352 129.645 170.916 130.22C172.389 131.719 173.884 135.794 174.187 142.898C170.916 143.069 167.832 143.753 165.538 144.54C163.077 145.385 161.769 148.064 162.613 150.524C163.458 152.983 166.135 154.292 168.598 153.449C168.717 153.408 180.55 149.654 182.87 155.751C183.38 157.09 183.071 157.597 182.922 157.841C181.633 159.963 176.17 161.648 172.73 162.047C170.144 162.336 168.284 164.666 168.574 167.252C168.843 169.659 170.882 171.438 173.249 171.438C173.424 171.438 173.602 171.428 173.779 171.408C175.912 171.17 186.765 169.629 190.962 162.751C190.982 162.717 191.004 162.679 191.024 162.646C193.913 163.29 196.649 163.617 199.211 163.617C201.821 163.617 204.24 163.266 206.473 162.6C206.167 166.058 204.623 169.241 202.051 171.612ZM191.946 153.183C191.863 152.926 191.775 152.666 191.674 152.4C190.048 148.129 187.092 145.607 183.652 144.239C183.624 142.468 183.537 140.787 183.388 139.204L193.499 139.619C197.22 139.771 200.659 141.362 203.181 144.098C205.255 146.348 206.488 149.16 206.782 152.156C202.705 154.909 196.931 154.452 191.946 153.183Z" fill="#678490"/>
<path d="M80.6779 296H153.883L155.383 291.5L150.883 290H87.883L80.6779 296Z" fill="#678490"/>
<path d="M210.107 137.715C205.88 133.129 200.119 130.462 193.883 130.206L181.343 129.692C180.394 127.2 179.158 125.163 177.632 123.611C175.306 121.247 172.319 120 168.988 120C168.954 120 168.919 120 168.885 120C155.969 120.109 152.556 137.39 151.969 151.867C151.969 151.877 151.971 151.887 151.971 151.897L151.652 159.689C151.352 166.994 154.458 173.661 159.55 178.158C148.37 203.927 94.2107 275.62 76.9597 288.019C74.8479 289.54 74.37 292.481 75.883 294.592C77.4039 296.704 80.3445 297.182 82.4562 295.669C101.303 282.112 156.189 209.505 167.804 182.869C169.771 183.506 171.853 183.894 174.019 183.983L190.951 184.678C183.467 243.28 150.764 288.424 150.333 289.005C148.795 291.099 149.239 294.047 151.333 295.594C152.169 296.209 152.974 296.507 154.119 296.508C155.779 296.509 156.99 295.842 157.914 294.592C159.445 292.512 193.52 245.611 200.599 183.319C203.466 182.276 206.127 180.67 208.438 178.538C213.024 174.311 215.689 168.551 215.945 162.321L216.266 154.498C216.52 148.262 214.333 142.301 210.107 137.715ZM202.051 171.612C199.312 174.137 195.759 175.453 192.035 175.291L174.399 174.569C166.732 174.256 160.747 167.752 161.061 160.074L161.382 152.251C161.382 152.232 161.38 152.21 161.382 152.19C161.85 140.874 164.372 129.458 168.96 129.421C169.793 129.389 170.352 129.645 170.916 130.22C172.389 131.719 173.884 135.794 174.187 142.898C170.916 143.069 167.832 143.753 165.538 144.54C163.077 145.385 161.769 148.064 162.613 150.524C163.458 152.983 166.135 154.292 168.598 153.449C168.717 153.408 180.55 149.654 182.87 155.751C183.38 157.09 183.071 157.597 182.922 157.841C181.633 159.963 176.17 161.648 172.73 162.047C170.144 162.336 168.284 164.666 168.574 167.252C168.843 169.659 170.882 171.438 173.249 171.438C173.424 171.438 173.602 171.428 173.779 171.408C175.912 171.17 186.765 169.629 190.962 162.751C190.982 162.717 191.004 162.679 191.024 162.646C193.913 163.29 196.649 163.617 199.211 163.617C201.821 163.617 204.24 163.266 206.473 162.6C206.167 166.058 204.623 169.241 202.051 171.612ZM191.946 153.183C191.863 152.926 191.775 152.666 191.674 152.4C190.048 148.129 187.092 145.607 183.652 144.239C183.624 142.468 183.537 140.787 183.388 139.204L193.499 139.619C197.22 139.771 200.659 141.362 203.181 144.098C205.255 146.348 206.488 149.16 206.782 152.156C202.705 154.909 196.931 154.452 191.946 153.183Z" stroke="#678490"/>
<path d="M80.6779 296H153.883L155.383 291.5L150.883 290H87.883L80.6779 296Z" stroke="#678490"/>
<path d="M197.139 88.1429C193.598 95.5899 197.622 109.56 184.107 109.752C170.592 109.944 174.218 95.8649 170.466 88.5219L197.139 88.1429Z" fill="#777677"/>
<path d="M183.846 112.134C172.655 112.134 171.231 103.314 170.189 96.8589C169.97 95.5059 169.764 94.2269 169.492 93.0189C169.204 91.7389 170.008 90.4679 171.288 90.1799C172.569 89.8919 173.839 90.6959 174.127 91.9759C174.431 93.3259 174.658 94.7369 174.879 96.1009C176.052 103.369 177.051 107.474 184.075 107.381C191.097 107.28 191.984 103.144 192.947 95.8429C193.127 94.4779 193.313 93.0659 193.576 91.7129C193.582 91.6799 193.589 91.6479 193.597 91.6159C193.901 90.3399 195.181 89.5469 196.459 89.8509C197.717 90.1499 198.502 91.3939 198.233 92.6519C198.001 93.8539 197.834 95.1229 197.656 96.4649C196.793 103.007 195.611 111.966 184.141 112.132C184.043 112.133 183.944 112.134 183.846 112.134Z" fill="#605C5D"/>
<path d="M207.31 77.735C207.495 90.799 196.938 93.2539 183.875 93.4389C170.811 93.625 160.189 91.47 160.003 78.406C159.818 65.343 170.257 54.602 183.321 54.416C196.384 54.232 207.125 64.672 207.31 77.735Z" fill="#FFFF9D"/>
<path d="M183.663 52.0399C183.538 52.0399 183.413 52.0409 183.288 52.0429C176.335 52.1419 169.838 54.9419 164.991 59.9279C160.144 64.9139 157.53 71.4889 157.629 78.4409C157.859 94.6479 173.096 95.8349 181.668 95.8349C182.481 95.8349 183.235 95.8239 183.909 95.8149C191.698 95.7039 209.937 95.4449 209.685 77.7019C209.483 63.4749 197.845 52.0399 183.663 52.0399ZM186.216 90.9989L186.104 83.1369C187.697 82.6989 189.154 81.8539 190.335 80.6379C192.084 78.8389 193.027 76.4669 192.991 73.9579C192.972 72.6579 191.913 71.6169 190.617 71.6169C190.605 71.6169 190.594 71.6169 190.582 71.6169C189.27 71.6359 188.222 72.7139 188.241 74.0259C188.258 75.2659 187.792 76.4379 186.928 77.3269C186.064 78.2159 184.905 78.7149 183.666 78.7329C183.644 78.7329 183.621 78.7329 183.598 78.7329C182.384 78.7329 181.237 78.2679 180.365 77.4199C179.476 76.5559 178.977 75.3969 178.959 74.1579C178.94 72.8459 177.868 71.7939 176.55 71.8159C175.238 71.8349 174.19 72.9129 174.209 74.2249C174.244 76.7339 175.255 79.0779 177.054 80.8269C178.27 82.0089 179.75 82.8119 181.354 83.2049L181.466 91.0659C167.741 90.8969 162.506 87.3449 162.378 78.3739C162.297 72.6899 164.435 67.3149 168.397 63.2389C172.359 59.1629 177.671 56.8739 183.355 56.7929C183.458 56.7919 183.559 56.7909 183.662 56.7909C195.255 56.7909 204.77 66.1399 204.936 77.7689C205.063 86.7399 199.935 90.4439 186.216 90.9989Z" fill="#FFCC6B"/>
<path d="M151.171 71.6308C150.963 71.6308 150.751 71.6029 150.541 71.5459L142.885 69.4428C141.62 69.0948 140.876 67.7878 141.224 66.5228C141.572 65.2578 142.876 64.5139 144.144 64.8609L151.8 66.9639C153.065 67.3119 153.809 68.6188 153.461 69.8838C153.17 70.9378 152.214 71.6308 151.171 71.6308Z" fill="#FFCC6B"/>
<path d="M143.374 91.4618C142.32 91.4618 141.356 90.7538 141.078 89.6858C140.746 88.4168 141.506 87.1188 142.776 86.7868L150.458 84.7798C151.73 84.4478 153.025 85.2078 153.357 86.4778C153.689 87.7468 152.929 89.0448 151.66 89.3768L143.978 91.3838C143.775 91.4368 143.573 91.4618 143.374 91.4618Z" fill="#FFCC6B"/>
<path d="M217.69 72.0468C216.636 72.0468 215.673 71.3388 215.394 70.2708C215.063 69.0018 215.822 67.7039 217.092 67.3729L224.774 65.3658C226.046 65.0338 227.341 65.7938 227.673 67.0638C228.005 68.3328 227.245 69.6309 225.975 69.9619L218.294 71.9688C218.09 72.0218 217.888 72.0468 217.69 72.0468Z" fill="#FFCC6B"/>
<path d="M225.375 91.4619C225.176 91.4619 224.974 91.4369 224.773 91.3839L217.091 89.3769C215.822 89.0449 215.062 87.7479 215.393 86.4779C215.724 85.2089 217.023 84.4489 218.292 84.7799L225.973 86.7869C227.242 87.1189 228.002 88.4159 227.671 89.6859C227.392 90.7549 226.429 91.4619 225.375 91.4619Z" fill="#FFCC6B"/>
<path d="M208.875 56.5539C208.262 56.5539 207.65 56.3179 207.185 55.8479C206.263 54.9139 206.272 53.4109 207.206 52.4889L212.855 46.9099C213.787 45.9889 215.291 45.9969 216.214 46.9309C217.136 47.8649 217.127 49.3679 216.193 50.2899L210.544 55.8689C210.082 56.3259 209.479 56.5539 208.875 56.5539Z" fill="#FFCC6B"/>
<path d="M193.496 47.546C193.288 47.546 193.076 47.5179 192.865 47.4609C191.6 47.1129 190.856 45.8059 191.204 44.5409L193.307 36.8849C193.655 35.6199 194.96 34.8769 196.227 35.2229C197.492 35.5709 198.236 36.8779 197.888 38.1429L195.785 45.7989C195.496 46.8539 194.539 47.546 193.496 47.546Z" fill="#FFCC6B"/>
<path d="M175.669 47.4339C174.615 47.4339 173.651 46.7269 173.373 45.6579L171.366 37.9759C171.034 36.7069 171.794 35.4089 173.064 35.0779C174.337 34.7459 175.631 35.5059 175.963 36.7759L177.97 44.4579C178.302 45.7269 177.542 47.0249 176.272 47.3559C176.069 47.4089 175.867 47.4339 175.669 47.4339Z" fill="#FFCC6B"/>
<path d="M160.178 56.2499C159.565 56.2499 158.953 56.0139 158.488 55.5439L152.909 49.8949C151.987 48.9619 151.996 47.4579 152.93 46.5359C153.863 45.6139 155.366 45.6229 156.289 46.5569L161.868 52.2059C162.79 53.1389 162.781 54.6429 161.847 55.5649C161.385 56.0209 160.781 56.2499 160.178 56.2499Z" fill="#FFCC6B"/>
<path d="M300.263 86H261.737C243.657 86 229 101.163 229 119.867V137.339C229 153.083 239.384 166.315 253.454 170.11C248.63 177.489 243.702 187.608 250.691 190.355C259.564 193.842 278.809 182.582 288.433 171.206H300.263C318.343 171.206 333 156.043 333 137.339V119.867C333 101.162 318.343 86 300.263 86Z" fill="white"/>
<path d="M247.896 111.259C244.861 116.384 243.749 122.006 243.749 126.847C243.749 131.025 244.253 135.204 245.255 139.383C247.21 147.543 253.66 153.803 261.883 155.475C268.23 156.752 274.577 157.399 280.924 157.399C287.271 157.399 293.618 156.752 299.972 155.475C308.188 153.803 314.637 147.543 316.593 139.383C317.602 135.204 318.099 131.025 318.099 126.847C318.099 122.006 316.986 116.384 313.951 111.252C315.442 108.145 317.751 102.792 318.564 97.9982C315.623 94.1661 311.649 91.5092 306.501 89.7358C301.368 91.6441 295.794 94.9077 292.475 96.9969C289.407 96.4846 285.45 96.2717 280.924 96.2951C276.398 96.2717 272.44 96.4846 269.381 96.9969C266.062 94.9077 260.488 91.6355 255.347 89.7358C250.199 91.51 246.225 94.1669 243.284 97.9982C244.104 102.8 246.406 108.153 247.896 111.259Z" fill="#FFBE8D"/>
<path d="M249.88 100.141C249.88 100.141 249.164 101.764 249.047 103.584C248.935 105.265 249.948 106.549 251.274 107.084C254.059 103.918 257.496 101.33 261.378 99.5315C261.34 98.6191 260.959 97.7231 260.216 97.0493C257.236 94.3394 253.115 91.4165 250.198 92.605C245.117 94.6786 249.88 100.141 249.88 100.141Z" fill="white"/>
<path d="M311.973 100.141C311.973 100.141 312.689 101.764 312.806 103.584C312.917 105.265 311.904 106.549 310.578 107.084C307.794 103.918 304.357 101.33 300.475 99.5315C300.512 98.6191 300.894 97.7231 301.636 97.0493C304.617 94.3394 308.737 91.4165 311.655 92.605C316.735 94.6786 311.973 100.141 311.973 100.141Z" fill="white"/>
<path d="M320.39 98.3104L316.738 97.6865C316.169 101.017 314.833 104.651 313.633 107.469C312.884 106.488 312.052 105.522 311.121 104.582C310.401 103.855 309.229 103.849 308.502 104.569C307.775 105.288 307.769 106.461 308.488 107.188C315.237 114.005 316.245 122.429 316.245 126.845C316.245 130.869 315.757 134.944 314.795 138.956C313.014 146.378 307.05 152.149 299.602 153.658C293.404 154.911 287.12 155.547 280.924 155.547C274.729 155.547 268.445 154.911 262.246 153.658C254.797 152.149 248.834 146.378 247.054 138.956C246.091 134.944 245.604 130.869 245.604 126.845C245.604 122.43 246.611 114.005 253.36 107.188C254.08 106.461 254.074 105.288 253.347 104.569C252.62 103.849 251.447 103.854 250.727 104.582C249.796 105.522 248.963 106.489 248.215 107.47C247.014 104.652 245.678 101.019 245.11 97.6943L241.458 98.3182C242.254 102.981 244.373 108.079 245.807 111.171C242.51 117.18 241.899 123.215 241.899 126.844C241.899 131.16 242.421 135.525 243.451 139.819C245.566 148.637 252.655 155.494 261.512 157.288C267.952 158.59 274.483 159.25 280.924 159.25C287.367 159.25 293.898 158.59 300.337 157.288C309.193 155.494 316.281 148.637 318.397 139.819C319.427 135.525 319.949 131.16 319.949 126.844C319.949 123.215 319.338 117.179 316.04 111.171C317.475 108.079 319.593 102.981 320.39 98.3104Z" fill="#EA9C71"/>
<path d="M260.613 97.8291C259.679 98.2486 259.264 99.3451 259.683 100.279C260.103 101.211 261.199 101.628 262.133 101.208C263.738 100.486 265.474 99.8567 267.291 99.3396C270.174 98.5216 274.756 98.1207 280.933 98.148C287.089 98.1246 291.674 98.5216 294.557 99.3396C296.375 99.8567 298.111 100.486 299.717 101.208C299.963 101.319 300.222 101.372 300.476 101.372C301.182 101.372 301.858 100.966 302.166 100.279C302.586 99.3459 302.17 98.2494 301.238 97.8299C299.97 97.2598 298.631 96.7467 297.243 96.2912C300.145 94.6232 303.755 92.7305 307.139 91.4726L305.849 88C300.956 89.8186 295.762 92.7726 292.08 95.0607C289.139 94.6317 285.408 94.4259 280.934 94.4438C276.451 94.4243 272.718 94.631 269.776 95.0599C266.093 92.7711 260.897 89.817 256 88L254.711 91.4734C258.097 92.7305 261.708 94.6216 264.612 96.2905C263.221 96.7443 261.881 97.2582 260.613 97.8291Z" fill="#EA9C71"/>
<path d="M261 129.558C261 126.93 262.867 124.8 265.17 124.8C267.473 124.8 269.34 126.93 269.34 129.558C269.34 132.186 267.473 134.316 265.17 134.316C262.867 134.316 261 132.186 261 129.558Z" fill="#5F5C5D"/>
<path d="M292.508 129.558C292.508 126.93 294.375 124.8 296.678 124.8C298.981 124.8 300.848 126.93 300.848 129.558C300.848 132.186 298.981 134.316 296.678 134.316C294.375 134.316 292.508 132.186 292.508 129.558Z" fill="#5F5C5D"/>
<path d="M261.208 138.044H254.619C253.596 138.044 252.767 137.215 252.767 136.192C252.767 135.169 253.596 134.34 254.619 134.34H261.208C262.231 134.34 263.06 135.169 263.06 136.192C263.06 137.214 262.231 138.044 261.208 138.044Z" fill="white"/>
<path d="M255.817 145.81C255.064 145.81 254.356 145.348 254.079 144.601C253.723 143.641 254.213 142.575 255.173 142.221L260.564 140.224C261.523 139.869 262.589 140.358 262.944 141.318C263.299 142.277 262.81 143.344 261.85 143.699L256.459 145.696C256.248 145.773 256.03 145.81 255.817 145.81Z" fill="white"/>
<path d="M307.23 138.044H300.641C299.618 138.044 298.789 137.215 298.789 136.192C298.789 135.169 299.618 134.34 300.641 134.34H307.23C308.253 134.34 309.082 135.169 309.082 136.192C309.083 137.214 308.253 138.044 307.23 138.044Z" fill="white"/>
<path d="M306.032 145.81C305.818 145.81 305.601 145.773 305.389 145.694L299.998 143.698C299.038 143.342 298.549 142.276 298.904 141.317C299.259 140.357 300.325 139.867 301.284 140.223L306.675 142.219C307.635 142.575 308.124 143.64 307.769 144.599C307.493 145.348 306.785 145.81 306.032 145.81Z" fill="white"/>
<path d="M271.276 122.687H267.82C266.797 122.687 265.968 121.858 265.968 120.835C265.968 119.812 266.797 118.983 267.82 118.983H271.276C272.299 118.983 273.128 119.812 273.128 120.835C273.129 121.858 272.299 122.687 271.276 122.687Z" fill="white"/>
<path d="M294.029 122.687H290.572C289.548 122.687 288.719 121.858 288.719 120.835C288.719 119.812 289.549 118.983 290.572 118.983H294.029C295.052 118.983 295.881 119.812 295.881 120.835C295.882 121.858 295.052 122.687 294.029 122.687Z" fill="white"/>
<path d="M288.372 130.279C287.379 130.031 286.373 130.632 286.124 131.625C285.935 132.379 285.257 132.905 284.476 132.905C283.539 132.905 282.777 132.144 282.777 131.207V130.321C283.8 130.319 284.628 129.491 284.628 128.469C284.628 127.446 283.799 126.617 282.776 126.617H279.075C278.052 126.617 277.223 127.446 277.223 128.469C277.223 129.491 278.051 130.32 279.074 130.321V131.207C279.074 132.144 278.311 132.905 277.373 132.905C276.593 132.905 275.916 132.379 275.727 131.625C275.478 130.633 274.471 130.032 273.479 130.279C272.487 130.528 271.884 131.534 272.134 132.526C272.738 134.931 274.892 136.61 277.374 136.61C278.732 136.61 279.976 136.106 280.927 135.275C281.877 136.106 283.12 136.61 284.478 136.61C286.96 136.61 289.116 134.931 289.72 132.526C289.967 131.535 289.364 130.528 288.372 130.279Z" fill="#EA9C71"/>
<path d="M256.07 194C254.385 194 252.815 193.729 251.406 193.14C248.947 192.111 247.26 190.215 246.525 187.657C245.388 183.696 246.625 178.4 250.309 171.537C237.578 165.938 229 152.271 229 136.844V119.354C229 98.7574 244.207 82 262.899 82H299.101C317.793 82 333 98.7574 333 119.354V136.844C333 157.44 317.793 174.198 299.101 174.198H289.375C281.415 183.569 266.529 193.999 256.07 194ZM262.901 88.9146C247.669 88.9146 235.276 102.571 235.276 119.356V136.845C235.276 150.698 243.761 162.809 255.909 166.301C256.894 166.585 257.693 167.376 258.052 168.426C258.411 169.477 258.286 170.653 257.715 171.583C253.081 179.133 251.986 183.76 252.508 185.572C252.58 185.824 252.714 186.291 253.634 186.676C259.904 189.302 276.646 179.769 285.624 168.465C286.22 167.716 287.079 167.285 287.984 167.285H299.101C314.333 167.285 326.725 153.629 326.725 136.844V119.354C326.725 102.569 314.333 88.9131 299.101 88.9131H262.901V88.9146Z" fill="black"/>
<path d="M239.274 149.229H246.792V141.711C246.792 139.805 248.337 138.26 250.243 138.26H253.619C255.525 138.26 257.07 139.805 257.07 141.711V149.229H264.588C266.494 149.229 268.04 150.774 268.04 152.68V156.056C268.04 157.962 266.494 159.507 264.588 159.507H257.07V167.026C257.07 168.932 255.525 170.477 253.619 170.477H250.243C248.337 170.477 246.792 168.932 246.792 167.026V159.507H239.274C237.368 159.507 235.823 157.962 235.823 156.056V152.679C235.823 150.773 237.368 149.229 239.274 149.229Z" fill="#FFFFA1"/>
<path d="M253.619 172.298H250.243C247.335 172.298 244.969 169.932 244.969 167.024V161.329H239.274C236.366 161.329 234 158.963 234 156.055V152.679C234 149.771 236.366 147.406 239.274 147.406H244.969V141.71C244.969 138.802 247.335 136.436 250.243 136.436H253.619C256.527 136.436 258.892 138.802 258.892 141.71V147.406H264.588C267.496 147.406 269.862 149.771 269.862 152.679V156.055C269.862 158.963 267.496 161.329 264.588 161.329H258.892V167.024C258.892 169.932 256.527 172.298 253.619 172.298ZM239.274 151.051C238.376 151.051 237.646 151.782 237.646 152.679V156.055C237.646 156.953 238.376 157.683 239.274 157.683H246.793C247.799 157.683 248.615 158.499 248.615 159.505V167.024C248.615 167.922 249.345 168.653 250.243 168.653H253.619C254.516 168.653 255.247 167.922 255.247 167.024V159.505C255.247 158.499 256.063 157.683 257.069 157.683H264.588C265.486 157.683 266.216 156.953 266.216 156.055V152.679C266.216 151.782 265.486 151.051 264.588 151.051H257.069C256.063 151.051 255.247 150.236 255.247 149.229V141.711C255.247 140.813 254.516 140.082 253.619 140.082H250.243C249.345 140.082 248.615 140.813 248.615 141.711V149.229C248.615 150.236 247.799 151.051 246.793 151.051H239.274Z" fill="#F9CB71"/>
</g>
<defs>
<clipPath id="clip0_2_5370">
<rect width="367" height="240" fill="white"/>
</clipPath>
</defs>
</svg>
