<svg width="367" height="240" viewBox="0 0 367 240" fill="none" xmlns="http://www.w3.org/2000/svg">
<g clip-path="url(#clip0_2_673)">
<path d="M127.092 38.2242L134.27 41.3491C147.23 46.9899 158.379 54.6426 155.348 62.6591C153.563 67.3818 148.597 68.2245 143.225 67.5005L136.889 82.0577C132.777 91.5053 121.798 95.8264 112.35 91.714L105.171 88.5909C95.7379 84.4861 91.4027 73.4994 95.515 64.0519L102.558 47.8675C106.665 38.4329 117.659 34.1175 127.092 38.2242Z" fill="#B1B9C6"/>
<path d="M30.2273 22.1858L6.04873 -15.0619L29.8877 -76.6063L71.7173 -4.63908L104.498 38.0856L91.5119 64.6911L30.2273 22.1858Z" fill="#B1B9C6" stroke="#678490"/>
<path d="M128.346 96.3574C134.15 94.0718 138.717 89.6638 141.208 83.941L146.216 72.4333C148.884 72.4479 151.229 72.0315 153.228 71.1686C156.272 69.8534 158.514 67.5193 159.717 64.4129C159.729 64.3815 159.742 64.3482 159.754 64.3168C164.318 52.2329 149.436 42.809 136.149 37.0327C136.139 37.0291 136.129 37.0274 136.12 37.0238L128.969 33.9114C122.265 30.9937 114.927 31.4813 108.894 34.6053C88.9027 14.8727 41.6119 -61.5257 36.281 -82.0905C35.6255 -84.6091 33.0561 -86.1168 30.5404 -85.4688C28.0218 -84.8134 26.5141 -82.2439 27.1621 -79.7282C32.9963 -57.2566 80.8774 20.1487 101.52 40.601C100.216 42.2053 99.1012 44.0064 98.2359 45.9933L91.4731 61.5314C39.5303 33.3864 9.2461 -13.4153 8.85976 -14.0264C7.46298 -16.2175 4.55307 -16.8683 2.35453 -15.4744C1.4791 -14.9162 0.910129 -14.2742 0.495861 -13.2067C-0.104792 -11.659 0.0800683 -10.2887 0.911189 -8.97586C2.2979 -6.79711 33.7246 41.9186 89.2546 71.0192C89.1915 74.0697 89.7281 77.1312 90.8814 80.0552C93.1669 85.8589 97.5757 90.4246 103.293 92.9135L110.471 96.0384C116.195 98.5276 122.543 98.641 128.346 96.3574ZM99.6469 76.6013C98.2822 73.136 98.3379 69.347 99.8345 65.9333L106.878 49.7489C109.939 42.7119 118.165 39.4808 125.212 42.5461L132.39 45.671C132.409 45.6782 132.43 45.6842 132.447 45.6932C142.831 50.217 152.564 56.6921 150.942 60.9843C150.671 61.7724 150.231 62.2014 149.491 62.5189C147.561 63.3512 143.221 63.2736 136.487 60.9903C137.509 57.8778 137.985 54.7555 138.08 52.3319C138.181 49.7322 136.156 47.5442 133.556 47.4431C130.958 47.3427 128.771 49.3661 128.667 51.967C128.663 52.093 127.889 64.4837 121.365 64.4447C119.933 64.4364 119.571 63.9646 119.398 63.7379C117.885 61.7697 118.286 56.0668 119.157 52.7148C119.821 50.1991 118.32 47.6233 115.805 46.9593C113.462 46.3413 111.068 47.5996 110.213 49.8073C110.15 49.97 110.094 50.1401 110.049 50.3118C109.5 52.3873 107.017 63.0634 111.915 69.4623C111.939 69.4929 111.967 69.5269 111.991 69.5576C110.347 72.0188 109.053 74.4523 108.128 76.8412C107.185 79.2745 106.639 81.6571 106.454 83.9797C103.339 82.4459 100.929 79.856 99.6469 76.6013ZM120.481 73.8351C120.752 73.8505 121.026 73.863 121.31 73.8647C125.88 73.8912 129.3 72.0453 131.818 69.3314C133.479 69.9451 135.079 70.4711 136.608 70.904L132.57 80.1824C131.083 83.5979 128.358 86.2297 124.896 87.5932C122.048 88.7144 118.98 88.849 116.081 88.0404C114.987 83.2448 117.498 78.0251 120.481 73.8351Z" fill="#678490"/>
<path d="M27.496 -81.506L1.0546 -13.243L4.70901 -10.2188L7.73313 -13.8733L30.4885 -72.6201L27.496 -81.506Z" fill="#678490"/>
<path d="M128.346 96.3574C134.15 94.0718 138.717 89.6638 141.208 83.941L146.216 72.4333C148.884 72.4479 151.229 72.0315 153.228 71.1686C156.272 69.8534 158.514 67.5193 159.717 64.4129C159.729 64.3815 159.742 64.3482 159.754 64.3168C164.318 52.2329 149.436 42.809 136.149 37.0327C136.139 37.0291 136.129 37.0274 136.12 37.0238L128.969 33.9114C122.265 30.9937 114.927 31.4813 108.894 34.6053C88.9027 14.8727 41.6119 -61.5257 36.281 -82.0905C35.6255 -84.6091 33.0561 -86.1168 30.5404 -85.4688C28.0218 -84.8134 26.5141 -82.2439 27.1621 -79.7282C32.9963 -57.2566 80.8774 20.1487 101.52 40.601C100.216 42.2053 99.1012 44.0064 98.2359 45.9933L91.4731 61.5314C39.5303 33.3864 9.2461 -13.4153 8.85976 -14.0264C7.46298 -16.2175 4.55307 -16.8683 2.35453 -15.4744C1.4791 -14.9162 0.910129 -14.2742 0.495861 -13.2067C-0.104792 -11.659 0.0800683 -10.2887 0.911189 -8.97586C2.2979 -6.79711 33.7246 41.9186 89.2546 71.0192C89.1915 74.0697 89.7281 77.1312 90.8814 80.0552C93.1669 85.8589 97.5757 90.4246 103.293 92.9135L110.471 96.0384C116.195 98.5276 122.543 98.641 128.346 96.3574ZM99.6469 76.6013C98.2822 73.136 98.3379 69.347 99.8345 65.9333L106.878 49.7489C109.939 42.7119 118.165 39.4808 125.212 42.5461L132.39 45.671C132.409 45.6782 132.43 45.6842 132.447 45.6932C142.831 50.217 152.564 56.6921 150.942 60.9843C150.671 61.7724 150.231 62.2014 149.491 62.5189C147.561 63.3512 143.221 63.2736 136.487 60.9903C137.509 57.8778 137.985 54.7555 138.08 52.3319C138.181 49.7322 136.156 47.5442 133.556 47.4431C130.958 47.3427 128.771 49.3661 128.667 51.967C128.663 52.093 127.889 64.4837 121.365 64.4447C119.933 64.4364 119.571 63.9646 119.398 63.7379C117.885 61.7697 118.286 56.0668 119.157 52.7148C119.821 50.1991 118.32 47.6233 115.805 46.9593C113.462 46.3413 111.068 47.5996 110.213 49.8073C110.15 49.97 110.094 50.1401 110.049 50.3118C109.5 52.3873 107.017 63.0634 111.915 69.4623C111.939 69.4929 111.967 69.5269 111.991 69.5576C110.347 72.0188 109.053 74.4523 108.128 76.8412C107.185 79.2745 106.639 81.6571 106.454 83.9797C103.339 82.4459 100.929 79.856 99.6469 76.6013ZM120.481 73.8351C120.752 73.8505 121.026 73.863 121.31 73.8647C125.88 73.8912 129.3 72.0453 131.818 69.3314C133.479 69.9451 135.079 70.4711 136.608 70.904L132.57 80.1824C131.083 83.5979 128.358 86.2297 124.896 87.5932C122.048 88.7144 118.98 88.849 116.081 88.0404C114.987 83.2448 117.498 78.0251 120.481 73.8351Z" stroke="#678490"/>
<path d="M27.496 -81.506L1.0546 -13.243L4.70901 -10.2188L7.73313 -13.8733L30.4885 -72.6201L27.496 -81.506Z" stroke="#678490"/>
<path d="M239.573 38.2242L232.395 41.3491C219.435 46.9899 208.286 54.6426 211.317 62.6591C213.102 67.3818 218.068 68.2245 223.44 67.5005L229.776 82.0577C233.888 91.5053 244.867 95.8264 254.315 91.714L261.494 88.5909C270.927 84.4861 275.262 73.4994 271.15 64.0519L264.107 47.8675C260 38.4329 249.006 34.1175 239.573 38.2242Z" fill="#B1B9C6"/>
<path d="M336.438 22.1858L360.616 -15.0619L336.777 -76.6063L294.948 -4.63908L262.167 38.0856L275.153 64.6911L336.438 22.1858Z" fill="#B1B9C6" stroke="#678490"/>
<path d="M238.319 96.3574C232.515 94.0718 227.948 89.6638 225.457 83.941L220.449 72.4333C217.782 72.4479 215.436 72.0315 213.437 71.1686C210.393 69.8534 208.151 67.5193 206.948 64.4129C206.936 64.3815 206.923 64.3482 206.911 64.3168C202.347 52.2329 217.229 42.809 230.516 37.0327C230.526 37.0291 230.536 37.0274 230.545 37.0238L237.696 33.9114C244.4 30.9937 251.738 31.4813 257.771 34.6053C277.762 14.8727 325.053 -61.5257 330.384 -82.0905C331.04 -84.6091 333.609 -86.1168 336.125 -85.4688C338.643 -84.8134 340.151 -82.2439 339.503 -79.7282C333.669 -57.2566 285.788 20.1487 265.145 40.601C266.449 42.2053 267.564 44.0064 268.429 45.9933L275.192 61.5314C327.135 33.3864 357.419 -13.4153 357.805 -14.0264C359.202 -16.2175 362.112 -16.8683 364.311 -15.4744C365.186 -14.9162 365.755 -14.2742 366.169 -13.2067C366.77 -11.659 366.585 -10.2887 365.754 -8.97586C364.367 -6.79711 332.94 41.9186 277.41 71.0192C277.474 74.0697 276.937 77.1312 275.784 80.0552C273.498 85.8589 269.089 90.4246 263.372 92.9135L256.194 96.0384C250.47 98.5276 244.122 98.641 238.319 96.3574ZM267.018 76.6013C268.383 73.136 268.327 69.347 266.831 65.9333L259.788 49.7489C256.726 42.7119 248.5 39.4808 241.453 42.5461L234.275 45.671C234.256 45.6782 234.235 45.6842 234.218 45.6932C223.834 50.217 214.101 56.6921 215.723 60.9843C215.994 61.7724 216.434 62.2014 217.174 62.5189C219.104 63.3512 223.444 63.2736 230.178 60.9903C229.156 57.8778 228.68 54.7555 228.585 52.3319C228.484 49.7322 230.509 47.5442 233.109 47.4431C235.707 47.3427 237.894 49.3661 237.998 51.967C238.002 52.093 238.776 64.4837 245.3 64.4447C246.732 64.4364 247.094 63.9646 247.267 63.7379C248.78 61.7697 248.379 56.0668 247.508 52.7148C246.844 50.1991 248.345 47.6233 250.86 46.9593C253.203 46.3413 255.597 47.5996 256.453 49.8073C256.516 49.97 256.571 50.1401 256.616 50.3118C257.165 52.3873 259.648 63.0634 254.75 69.4623C254.726 69.4929 254.698 69.5269 254.674 69.5576C256.319 72.0188 257.612 74.4523 258.537 76.8412C259.48 79.2745 260.026 81.6571 260.212 83.9797C263.326 82.4459 265.736 79.856 267.018 76.6013ZM246.184 73.8351C245.913 73.8505 245.639 73.863 245.355 73.8647C240.785 73.8912 237.365 72.0453 234.847 69.3314C233.186 69.9451 231.586 70.4711 230.057 70.904L234.095 80.1824C235.582 83.5979 238.307 86.2297 241.769 87.5932C244.617 88.7144 247.685 88.849 250.584 88.0404C251.678 83.2448 249.168 78.0251 246.184 73.8351Z" fill="#678490"/>
<path d="M339.169 -81.506L365.61 -13.243L361.956 -10.2188L358.932 -13.8733L336.177 -72.6201L339.169 -81.506Z" fill="#678490"/>
<path d="M238.319 96.3574C232.515 94.0718 227.948 89.6638 225.457 83.941L220.449 72.4333C217.782 72.4479 215.436 72.0315 213.437 71.1686C210.393 69.8534 208.151 67.5193 206.948 64.4129C206.936 64.3815 206.923 64.3482 206.911 64.3168C202.347 52.2329 217.229 42.809 230.516 37.0327C230.526 37.0291 230.536 37.0274 230.545 37.0238L237.696 33.9114C244.4 30.9937 251.738 31.4813 257.771 34.6053C277.762 14.8727 325.053 -61.5257 330.384 -82.0905C331.04 -84.6091 333.609 -86.1168 336.125 -85.4688C338.643 -84.8134 340.151 -82.2439 339.503 -79.7282C333.669 -57.2566 285.788 20.1487 265.145 40.601C266.449 42.2053 267.564 44.0064 268.429 45.9933L275.192 61.5314C327.135 33.3864 357.419 -13.4153 357.805 -14.0264C359.202 -16.2175 362.112 -16.8683 364.311 -15.4744C365.186 -14.9162 365.755 -14.2742 366.169 -13.2067C366.77 -11.659 366.585 -10.2887 365.754 -8.97586C364.367 -6.79711 332.94 41.9186 277.41 71.0192C277.474 74.0697 276.937 77.1312 275.784 80.0552C273.498 85.8589 269.089 90.4246 263.372 92.9135L256.194 96.0384C250.47 98.5276 244.122 98.641 238.319 96.3574ZM267.018 76.6013C268.383 73.136 268.327 69.347 266.831 65.9333L259.788 49.7489C256.726 42.7119 248.5 39.4808 241.453 42.5461L234.275 45.671C234.256 45.6782 234.235 45.6842 234.218 45.6932C223.834 50.217 214.101 56.6921 215.723 60.9843C215.994 61.7724 216.434 62.2014 217.174 62.5189C219.104 63.3512 223.444 63.2736 230.178 60.9903C229.156 57.8778 228.68 54.7555 228.585 52.3319C228.484 49.7322 230.509 47.5442 233.109 47.4431C235.707 47.3427 237.894 49.3661 237.998 51.967C238.002 52.093 238.776 64.4837 245.3 64.4447C246.732 64.4364 247.094 63.9646 247.267 63.7379C248.78 61.7697 248.379 56.0668 247.508 52.7148C246.844 50.1991 248.345 47.6233 250.86 46.9593C253.203 46.3413 255.597 47.5996 256.453 49.8073C256.516 49.97 256.571 50.1401 256.616 50.3118C257.165 52.3873 259.648 63.0634 254.75 69.4623C254.726 69.4929 254.698 69.5269 254.674 69.5576C256.319 72.0188 257.612 74.4523 258.537 76.8412C259.48 79.2745 260.026 81.6571 260.212 83.9797C263.326 82.4459 265.736 79.856 267.018 76.6013ZM246.184 73.8351C245.913 73.8505 245.639 73.863 245.355 73.8647C240.785 73.8912 237.365 72.0453 234.847 69.3314C233.186 69.9451 231.586 70.4711 230.057 70.904L234.095 80.1824C235.582 83.5979 238.307 86.2297 241.769 87.5932C244.617 88.7144 247.685 88.849 250.584 88.0404C251.678 83.2448 249.168 78.0251 246.184 73.8351Z" stroke="#678490"/>
<path d="M339.169 -81.506L365.61 -13.243L361.956 -10.2188L358.932 -13.8733L336.177 -72.6201L339.169 -81.506Z" stroke="#678490"/>
<path d="M99.0564 155.021L103.905 148.874C112.658 137.777 122.896 128.942 129.878 133.913C133.991 136.841 133.542 141.858 131.475 146.869L143.94 156.701C152.03 163.082 153.415 174.8 147.033 182.89L142.186 189.037C135.816 197.116 124.088 198.512 115.998 192.131L102.139 181.201C94.0599 174.828 92.6844 163.098 99.0564 155.021Z" fill="#B1B9C6"/>
<path d="M58.8952 244.615L16.7206 258.518L-36.7307 219.801L43.5122 197.664L93.1727 176.835L115.597 196.165L58.8952 244.615Z" fill="#B1B9C6" stroke="#678490"/>
<path d="M155.595 168.602C154.861 162.408 151.761 156.869 146.86 153.004L137.006 145.232C137.699 142.656 137.893 140.282 137.567 138.129C137.07 134.851 135.383 132.089 132.686 130.135C132.658 130.115 132.629 130.094 132.602 130.074C122.077 122.585 109.177 134.579 100.209 145.959C100.203 145.967 100.199 145.976 100.193 145.984L95.3633 152.108C90.8356 157.848 89.4398 165.069 90.9256 171.698C66.755 186.01 -19.163 212.301 -40.4074 212.223C-43.0099 212.216 -45.1219 214.317 -45.1354 216.915C-45.1425 219.517 -43.0413 221.629 -40.4435 221.643C-17.2271 221.719 69.8149 195.114 94.8471 180.356C96.0667 182.025 97.5249 183.561 99.2262 184.904L112.532 195.398C72.0944 238.468 19.1266 255.845 18.4373 256.063C15.9629 256.856 14.5929 259.505 15.3814 261.985C15.6985 262.974 16.1745 263.688 17.1015 264.36C18.4454 265.335 19.8176 265.505 21.2987 265.035C23.7586 264.248 78.8682 246.254 121.143 199.958C124.076 200.796 127.174 201.056 130.295 200.685C136.489 199.951 142.027 196.85 145.888 191.954L150.737 185.807C154.601 180.906 156.326 174.795 155.595 168.602ZM129.185 191.329C125.487 191.767 121.837 190.748 118.916 188.432L105.057 177.502C99.0312 172.751 97.9999 163.973 102.757 157.939L107.606 151.792C107.618 151.776 107.629 151.757 107.642 151.742C114.66 142.852 123.399 135.087 127.137 137.748C127.83 138.211 128.133 138.746 128.251 139.542C128.565 141.62 127.386 145.797 123.464 151.729C120.714 149.948 117.816 148.693 115.496 147.985C113.008 147.226 110.376 148.627 109.617 151.116C108.859 153.603 110.259 156.233 112.748 156.995C112.868 157.031 124.654 160.933 122.956 167.232C122.584 168.615 122.035 168.844 121.772 168.955C119.484 169.917 114.071 168.077 111.051 166.382C108.787 165.1 105.914 165.896 104.631 168.159C103.438 170.267 104.045 172.903 105.963 174.292C106.104 174.394 106.254 174.491 106.409 174.579C108.276 175.638 117.969 180.756 125.404 177.648C125.439 177.632 125.479 177.614 125.515 177.598C127.477 179.815 129.501 181.685 131.576 183.188C133.689 184.719 135.854 185.854 138.053 186.624C135.777 189.245 132.659 190.917 129.185 191.329ZM131.813 170.476C131.896 170.219 131.978 169.957 132.052 169.683C133.241 165.27 132.326 161.493 130.342 158.366C131.359 156.916 132.274 155.503 133.082 154.134L141.027 160.401C143.952 162.708 145.804 166.013 146.241 169.709C146.601 172.748 145.95 175.749 144.43 178.347C139.514 178.185 135.105 174.428 131.813 170.476Z" fill="#678490"/>
<path d="M-42.0778 220.867L17.2086 263.81L21.0632 261.046L18.2987 257.191L-32.723 220.235L-42.0778 220.867Z" fill="#678490"/>
<path d="M155.595 168.602C154.861 162.408 151.761 156.869 146.86 153.004L137.006 145.232C137.699 142.656 137.893 140.282 137.567 138.129C137.07 134.851 135.383 132.089 132.686 130.135C132.658 130.115 132.629 130.094 132.602 130.074C122.077 122.585 109.177 134.579 100.209 145.959C100.203 145.967 100.199 145.976 100.193 145.984L95.3633 152.108C90.8356 157.848 89.4398 165.069 90.9256 171.698C66.755 186.01 -19.163 212.301 -40.4074 212.223C-43.0099 212.216 -45.1219 214.317 -45.1354 216.915C-45.1425 219.517 -43.0413 221.629 -40.4435 221.643C-17.2271 221.719 69.8149 195.114 94.8471 180.356C96.0667 182.025 97.5249 183.561 99.2262 184.904L112.532 195.398C72.0944 238.468 19.1266 255.845 18.4373 256.063C15.9629 256.856 14.5929 259.505 15.3814 261.985C15.6985 262.974 16.1745 263.688 17.1015 264.36C18.4454 265.335 19.8176 265.505 21.2987 265.035C23.7586 264.248 78.8682 246.254 121.143 199.958C124.076 200.796 127.174 201.056 130.295 200.685C136.489 199.951 142.027 196.85 145.888 191.954L150.737 185.807C154.601 180.906 156.326 174.795 155.595 168.602ZM129.185 191.329C125.487 191.767 121.837 190.748 118.916 188.432L105.057 177.502C99.0312 172.751 97.9999 163.973 102.757 157.939L107.606 151.792C107.618 151.776 107.629 151.757 107.642 151.742C114.66 142.852 123.399 135.087 127.137 137.748C127.83 138.211 128.133 138.746 128.251 139.542C128.565 141.62 127.386 145.797 123.464 151.729C120.714 149.948 117.816 148.693 115.496 147.985C113.008 147.226 110.376 148.627 109.617 151.116C108.859 153.603 110.259 156.233 112.748 156.995C112.868 157.031 124.654 160.933 122.956 167.232C122.584 168.615 122.035 168.844 121.772 168.955C119.484 169.917 114.071 168.077 111.051 166.382C108.787 165.1 105.914 165.896 104.631 168.159C103.438 170.267 104.045 172.903 105.963 174.292C106.104 174.394 106.254 174.491 106.409 174.579C108.276 175.638 117.969 180.756 125.404 177.648C125.439 177.632 125.479 177.614 125.515 177.598C127.477 179.815 129.501 181.685 131.576 183.188C133.689 184.719 135.854 185.854 138.053 186.624C135.777 189.245 132.659 190.917 129.185 191.329ZM131.813 170.476C131.896 170.219 131.978 169.957 132.052 169.683C133.241 165.27 132.326 161.493 130.342 158.366C131.359 156.916 132.274 155.503 133.082 154.134L141.027 160.401C143.952 162.708 145.804 166.013 146.241 169.709C146.601 172.748 145.95 175.749 144.43 178.347C139.514 178.185 135.105 174.428 131.813 170.476Z" stroke="#678490"/>
<path d="M-42.0778 220.867L17.2086 263.81L21.0632 261.046L18.2987 257.191L-32.723 220.235L-42.0778 220.867Z" stroke="#678490"/>
<path d="M262.934 155.021L258.085 148.874C249.332 137.777 239.094 128.942 232.113 133.913C228 136.841 228.449 141.858 230.516 146.869L218.05 156.701C209.961 163.082 208.576 174.8 214.957 182.89L219.804 189.037C226.175 197.116 237.903 198.512 245.993 192.131L259.852 181.201C267.931 174.828 269.306 163.098 262.934 155.021Z" fill="#B1B9C6"/>
<path d="M303.095 244.615L345.27 258.518L398.721 219.801L318.478 197.664L268.818 176.835L246.393 196.165L303.095 244.615Z" fill="#B1B9C6" stroke="#678490"/>
<path d="M209.396 168.602C210.129 162.408 213.23 156.869 218.13 153.004L227.984 145.232C227.291 142.656 227.097 140.282 227.423 138.129C227.92 134.851 229.607 132.089 232.305 130.135C232.332 130.115 232.361 130.094 232.388 130.074C242.913 122.585 255.814 134.579 264.782 145.959C264.787 145.967 264.792 145.976 264.797 145.984L269.627 152.108C274.155 157.848 275.551 165.069 274.065 171.698C298.236 186.01 384.153 212.301 405.398 212.223C408 212.216 410.112 214.317 410.126 216.915C410.133 219.517 408.032 221.629 405.434 221.643C382.218 221.719 295.176 195.114 270.143 180.356C268.924 182.025 267.466 183.561 265.764 184.904L252.459 195.398C292.896 238.468 345.864 255.845 346.553 256.063C349.028 256.856 350.398 259.505 349.609 261.985C349.292 262.974 348.816 263.688 347.889 264.36C346.545 265.335 345.173 265.505 343.692 265.035C341.232 264.248 286.122 246.254 243.848 199.958C240.914 200.796 237.817 201.056 234.696 200.685C228.501 199.951 222.964 196.85 219.102 191.954L214.253 185.807C210.389 180.906 208.664 174.795 209.396 168.602ZM235.805 191.329C239.503 191.767 243.154 190.748 246.074 188.432L259.933 177.502C265.959 172.751 266.991 163.973 262.233 157.939L257.384 151.792C257.372 151.776 257.361 151.757 257.348 151.742C250.331 142.852 241.592 135.087 237.854 137.748C237.161 138.211 236.858 138.746 236.739 139.542C236.425 141.62 237.605 145.797 241.527 151.729C244.276 149.948 247.175 148.693 249.495 147.985C251.983 147.226 254.614 148.627 255.374 151.116C256.132 153.603 254.732 156.233 252.243 156.995C252.122 157.031 240.336 160.933 242.034 167.232C242.407 168.615 242.955 168.844 243.219 168.955C245.507 169.917 250.92 168.077 253.94 166.382C256.204 165.1 259.077 165.896 260.359 168.159C261.553 170.267 260.945 172.903 259.028 174.292C258.887 174.394 258.736 174.491 258.582 174.579C256.714 175.638 247.022 180.756 239.587 177.648C239.551 177.632 239.511 177.614 239.475 177.598C237.514 179.815 235.489 181.685 233.415 183.188C231.301 184.719 229.136 185.854 226.937 186.624C229.213 189.245 232.331 190.917 235.805 191.329ZM233.178 170.476C233.094 170.219 233.012 169.957 232.938 169.683C231.75 165.27 232.665 161.493 234.648 158.366C233.632 156.916 232.716 155.503 231.908 154.134L223.963 160.401C221.039 162.708 219.187 166.013 218.749 169.709C218.39 172.748 219.04 175.749 220.56 178.347C225.476 178.185 229.885 174.428 233.178 170.476Z" fill="#678490"/>
<path d="M407.068 220.867L347.782 263.81L343.927 261.046L346.692 257.191L397.713 220.235L407.068 220.867Z" fill="#678490"/>
<path d="M209.396 168.602C210.129 162.408 213.23 156.869 218.13 153.004L227.984 145.232C227.291 142.656 227.097 140.282 227.423 138.129C227.92 134.851 229.607 132.089 232.305 130.135C232.332 130.115 232.361 130.094 232.388 130.074C242.913 122.585 255.814 134.579 264.782 145.959C264.787 145.967 264.792 145.976 264.797 145.984L269.627 152.108C274.155 157.848 275.551 165.069 274.065 171.698C298.236 186.01 384.153 212.301 405.398 212.223C408 212.216 410.112 214.317 410.126 216.915C410.133 219.517 408.032 221.629 405.434 221.643C382.218 221.719 295.176 195.114 270.143 180.356C268.924 182.025 267.466 183.561 265.764 184.904L252.459 195.398C292.896 238.468 345.864 255.845 346.553 256.063C349.028 256.856 350.398 259.505 349.609 261.985C349.292 262.974 348.816 263.688 347.889 264.36C346.545 265.335 345.173 265.505 343.692 265.035C341.232 264.248 286.122 246.254 243.848 199.958C240.914 200.796 237.817 201.056 234.696 200.685C228.501 199.951 222.964 196.85 219.102 191.954L214.253 185.807C210.389 180.906 208.664 174.795 209.396 168.602ZM235.805 191.329C239.503 191.767 243.154 190.748 246.074 188.432L259.933 177.502C265.959 172.751 266.991 163.973 262.233 157.939L257.384 151.792C257.372 151.776 257.361 151.757 257.348 151.742C250.331 142.852 241.592 135.087 237.854 137.748C237.161 138.211 236.858 138.746 236.739 139.542C236.425 141.62 237.605 145.797 241.527 151.729C244.276 149.948 247.175 148.693 249.495 147.985C251.983 147.226 254.614 148.627 255.374 151.116C256.132 153.603 254.732 156.233 252.243 156.995C252.122 157.031 240.336 160.933 242.034 167.232C242.407 168.615 242.955 168.844 243.219 168.955C245.507 169.917 250.92 168.077 253.94 166.382C256.204 165.1 259.077 165.896 260.359 168.159C261.553 170.267 260.945 172.903 259.028 174.292C258.887 174.394 258.736 174.491 258.582 174.579C256.714 175.638 247.022 180.756 239.587 177.648C239.551 177.632 239.511 177.614 239.475 177.598C237.514 179.815 235.489 181.685 233.415 183.188C231.301 184.719 229.136 185.854 226.937 186.624C229.213 189.245 232.331 190.917 235.805 191.329ZM233.178 170.476C233.094 170.219 233.012 169.957 232.938 169.683C231.75 165.27 232.665 161.493 234.648 158.366C233.632 156.916 232.716 155.503 231.908 154.134L223.963 160.401C221.039 162.708 219.187 166.013 218.749 169.709C218.39 172.748 219.04 175.749 220.56 178.347C225.476 178.185 229.885 174.428 233.178 170.476Z" stroke="#678490"/>
<path d="M407.068 220.867L347.782 263.81L343.927 261.046L346.692 257.191L397.713 220.235L407.068 220.867Z" stroke="#678490"/>
<path d="M196.139 124.143C192.598 131.59 196.622 145.56 183.107 145.752C169.592 145.944 173.218 131.865 169.466 124.522L196.139 124.143Z" fill="#777677"/>
<path d="M182.846 148.134C171.655 148.134 170.231 139.314 169.189 132.859C168.97 131.506 168.764 130.227 168.492 129.019C168.204 127.739 169.008 126.468 170.288 126.18C171.569 125.892 172.839 126.696 173.127 127.976C173.431 129.326 173.658 130.737 173.879 132.101C175.052 139.369 176.051 143.474 183.075 143.381C190.097 143.28 190.984 139.144 191.947 131.843C192.127 130.478 192.313 129.066 192.576 127.713C192.582 127.68 192.589 127.648 192.597 127.616C192.901 126.34 194.181 125.547 195.459 125.851C196.717 126.15 197.502 127.394 197.233 128.652C197.001 129.854 196.834 131.123 196.656 132.465C195.793 139.007 194.611 147.966 183.141 148.132C183.043 148.133 182.944 148.134 182.846 148.134Z" fill="#605C5D"/>
<path d="M206.31 113.735C206.495 126.799 195.938 129.254 182.875 129.439C169.811 129.625 159.189 127.47 159.003 114.406C158.818 101.343 169.257 90.602 182.321 90.416C195.384 90.232 206.125 100.672 206.31 113.735Z" fill="#FFFF9D"/>
<path d="M182.663 88.0399C182.538 88.0399 182.413 88.0409 182.288 88.0429C175.335 88.1419 168.838 90.9419 163.991 95.9279C159.144 100.914 156.53 107.489 156.629 114.441C156.859 130.648 172.096 131.835 180.668 131.835C181.481 131.835 182.235 131.824 182.909 131.815C190.698 131.704 208.937 131.445 208.685 113.702C208.483 99.4749 196.845 88.0399 182.663 88.0399ZM185.216 126.999L185.104 119.137C186.697 118.699 188.154 117.854 189.335 116.638C191.084 114.839 192.027 112.467 191.991 109.958C191.972 108.658 190.913 107.617 189.617 107.617C189.605 107.617 189.594 107.617 189.582 107.617C188.27 107.636 187.222 108.714 187.241 110.026C187.258 111.266 186.792 112.438 185.928 113.327C185.064 114.216 183.905 114.715 182.666 114.733C182.644 114.733 182.621 114.733 182.598 114.733C181.384 114.733 180.237 114.268 179.365 113.42C178.476 112.556 177.977 111.397 177.959 110.158C177.94 108.846 176.868 107.794 175.55 107.816C174.238 107.835 173.19 108.913 173.209 110.225C173.244 112.734 174.255 115.078 176.054 116.827C177.27 118.009 178.75 118.812 180.354 119.205L180.466 127.066C166.741 126.897 161.506 123.345 161.378 114.374C161.297 108.69 163.435 103.315 167.397 99.2389C171.359 95.1629 176.671 92.8739 182.355 92.7929C182.458 92.7919 182.559 92.7909 182.662 92.7909C194.255 92.7909 203.77 102.14 203.936 113.769C204.063 122.74 198.935 126.444 185.216 126.999Z" fill="#FFCC6B"/>
<path d="M150.171 107.631C149.963 107.631 149.751 107.603 149.541 107.546L141.885 105.443C140.62 105.095 139.876 103.788 140.224 102.523C140.572 101.258 141.876 100.514 143.144 100.861L150.8 102.964C152.065 103.312 152.809 104.619 152.461 105.884C152.17 106.938 151.214 107.631 150.171 107.631Z" fill="#FFCC6B"/>
<path d="M142.374 127.462C141.32 127.462 140.356 126.754 140.078 125.686C139.746 124.417 140.506 123.119 141.776 122.787L149.458 120.78C150.73 120.448 152.025 121.208 152.357 122.478C152.689 123.747 151.929 125.045 150.66 125.377L142.978 127.384C142.775 127.437 142.573 127.462 142.374 127.462Z" fill="#FFCC6B"/>
<path d="M216.69 108.047C215.636 108.047 214.673 107.339 214.394 106.271C214.063 105.002 214.822 103.704 216.092 103.373L223.774 101.366C225.046 101.034 226.341 101.794 226.673 103.064C227.005 104.333 226.245 105.631 224.975 105.962L217.294 107.969C217.09 108.022 216.888 108.047 216.69 108.047Z" fill="#FFCC6B"/>
<path d="M224.375 127.462C224.176 127.462 223.974 127.437 223.773 127.384L216.091 125.377C214.822 125.045 214.062 123.748 214.393 122.478C214.724 121.209 216.023 120.449 217.292 120.78L224.973 122.787C226.242 123.119 227.002 124.416 226.671 125.686C226.392 126.755 225.429 127.462 224.375 127.462Z" fill="#FFCC6B"/>
<path d="M207.875 92.5539C207.262 92.5539 206.65 92.3179 206.185 91.8479C205.263 90.9139 205.272 89.4109 206.206 88.4889L211.855 82.9099C212.787 81.9889 214.291 81.9969 215.214 82.9309C216.136 83.8649 216.127 85.3679 215.193 86.2899L209.544 91.8689C209.082 92.3259 208.479 92.5539 207.875 92.5539Z" fill="#FFCC6B"/>
<path d="M192.496 83.546C192.288 83.546 192.076 83.5179 191.865 83.4609C190.6 83.1129 189.856 81.8059 190.204 80.5409L192.307 72.8849C192.655 71.6199 193.96 70.8769 195.227 71.2229C196.492 71.5709 197.236 72.8779 196.888 74.1429L194.785 81.7989C194.496 82.8539 193.539 83.546 192.496 83.546Z" fill="#FFCC6B"/>
<path d="M174.669 83.4339C173.615 83.4339 172.651 82.7269 172.373 81.6579L170.366 73.9759C170.034 72.7069 170.794 71.4089 172.064 71.0779C173.337 70.7459 174.631 71.5059 174.963 72.7759L176.97 80.4579C177.302 81.7269 176.542 83.0249 175.272 83.3559C175.069 83.4089 174.867 83.4339 174.669 83.4339Z" fill="#FFCC6B"/>
<path d="M159.178 92.2499C158.565 92.2499 157.953 92.0139 157.488 91.5439L151.909 85.8949C150.987 84.9619 150.996 83.4579 151.93 82.5359C152.863 81.6139 154.366 81.6229 155.289 82.5569L160.868 88.2059C161.79 89.1389 161.781 90.6429 160.847 91.5649C160.385 92.0209 159.781 92.2499 159.178 92.2499Z" fill="#FFCC6B"/>
<circle cx="326.5" cy="53.5" r="46" fill="white" stroke="black" stroke-width="5"/>
<path d="M298.965 7.40703C304.566 4.05474 316.782 15.7802 322.072 21.3051C325.31 21.5692 329.374 22.364 333.96 23.5377C338.558 24.671 342.516 25.8902 345.494 27.1883C352.77 24.816 369.073 20.2605 372.424 25.8583C375.751 31.4174 367.614 42.3411 363.643 47.1221C365.418 53.1002 365.111 59.0821 363.878 63.9898C362.812 68.2333 361.242 72.3455 359.161 76.3286C355.098 84.1028 346.962 88.8124 338.201 88.4071C331.435 88.0913 324.833 87.1249 318.395 85.508C311.957 83.891 305.682 81.6228 299.57 78.7039C291.657 74.9212 286.712 66.9254 286.806 58.1545C286.854 53.6604 287.413 49.2947 288.479 45.0512C289.712 40.145 292.267 34.7294 296.653 30.2999C295.417 24.2163 293.405 10.735 298.965 7.40703Z" fill="#B1B9C6"/>
<path d="M328.641 25.4218C326.877 32.4467 327.491 38.6503 330.003 39.2819C332.52 39.9142 335.993 34.737 337.758 27.7121C338 26.7495 338.198 25.8036 338.348 24.8866C335.418 24.0075 332.454 23.2628 329.456 22.6586C329.154 23.5376 328.882 24.4645 328.641 25.4218Z" fill="#91A2B5"/>
<path d="M339.01 25.5735C337.247 32.5931 337.855 38.8012 340.372 39.4336C342.792 40.0416 346.113 35.2432 347.928 28.6085C346.465 27.8069 344.92 27.1092 343.305 26.527C341.921 26.0305 340.529 25.5606 339.128 25.1287C339.084 25.2775 339.048 25.4224 339.01 25.5735Z" fill="#91A2B5"/>
<path d="M319.269 21.3467C317.716 28.0756 318.367 33.9056 320.799 34.5167C323.316 35.1491 326.785 29.965 328.549 22.9454C328.586 22.7951 328.623 22.6493 328.656 22.4975C327.004 22.1741 325.335 21.8978 323.662 21.661C322.188 21.4507 320.72 21.3505 319.269 21.3467Z" fill="#91A2B5"/>
<path d="M301.496 19.5302C301.496 19.5302 300.356 20.9938 299.774 22.8088C299.233 24.4857 299.933 26.045 301.141 26.9263C304.771 24.4242 308.916 22.6752 313.311 21.8409C313.507 20.9065 313.347 19.8999 312.766 19.0276C310.433 15.5197 306.999 11.5062 303.737 11.9685C298.058 12.777 301.496 19.5302 301.496 19.5302Z" fill="white"/>
<path d="M364.469 35.348C364.469 35.348 364.781 37.1767 364.436 39.051C364.121 40.7849 362.767 41.8279 361.286 42.0336C359.268 38.1127 356.442 34.6132 352.963 31.8006C353.233 30.8851 353.849 30.0736 354.773 29.5794C358.486 27.5905 363.41 25.676 366.066 27.6239C370.69 31.021 364.469 35.348 364.469 35.348Z" fill="white"/>
<path d="M373.974 24.9314C372.088 21.7818 367.58 20.7402 360.191 21.7468C355.053 22.4467 349.521 24.006 345.58 25.2677C342.708 24.0789 338.968 22.9144 334.407 21.7909C329.848 20.6241 326.001 19.8839 322.907 19.5735C320.035 16.6023 315.899 12.6153 311.694 9.56518C305.657 5.18579 301.191 3.97347 298.042 5.85838C294.776 7.81236 291.592 13.5544 294.704 29.7161C289.813 34.9617 287.653 40.9314 286.728 44.6109C285.631 48.9781 285.05 53.5275 285.001 58.1339C284.901 67.5645 290.314 76.277 298.792 80.3299C304.984 83.2867 311.431 85.6172 317.955 87.2562C324.479 88.8951 331.262 89.8881 338.117 90.2076C338.487 90.2251 338.855 90.2335 339.223 90.2335C348.195 90.2335 356.562 85.1921 360.758 77.1636C362.891 73.0811 364.529 68.7966 365.626 64.4293C366.551 60.7498 367.467 54.4673 365.636 47.5335C376.025 34.7696 375.931 28.2009 373.974 24.9314ZM362.129 63.5503C361.101 67.6427 359.565 71.6607 357.562 75.4928C353.841 82.6126 346.274 86.9738 338.284 86.6048C331.669 86.2966 325.126 85.3386 318.833 83.7581C312.542 82.1784 306.321 79.9299 300.347 77.0763C293.13 73.6261 288.522 66.2057 288.608 58.1726C288.654 53.8494 289.199 49.5824 290.226 45.4892C291.087 42.0663 293.138 36.429 297.868 31.6291C297.91 31.5904 297.951 31.5494 297.99 31.5061C299.449 30.0441 301.156 28.6617 303.16 27.4479C304.012 26.9324 304.285 25.8233 303.769 24.9716C303.253 24.1191 302.144 23.8473 301.292 24.3628C300.043 25.1189 298.898 25.9319 297.844 26.7844C296.315 17.3659 297.051 10.6538 299.893 8.95256C302.609 7.32804 309.435 11.4144 317.73 19.4862C316.103 19.5902 314.515 19.7784 312.992 20.0502C312.011 20.2256 311.358 21.1623 311.534 22.1423C311.709 23.1231 312.646 23.7745 313.626 23.6006C315.445 23.2757 317.372 23.0799 319.353 23.0176C320.137 22.9933 321.021 23.0229 322.004 23.1049C322.015 23.1049 322.025 23.1072 322.035 23.1079C324.992 23.3585 328.84 24.088 333.528 25.2882C339.793 26.8322 344.351 28.4112 347.076 29.9811C348.795 30.9732 350.401 32.0565 351.849 33.2013C352.18 33.4632 352.575 33.5899 352.966 33.5899C353.499 33.5899 354.027 33.3554 354.382 32.9052C355 32.1241 354.867 30.9899 354.086 30.372C352.875 29.4147 351.566 28.4992 350.181 27.6384C361.308 24.4478 369.257 24.0713 370.878 26.7821C372.581 29.6288 370.057 35.8931 364.254 43.4654C363.728 42.2151 363.102 40.9572 362.359 39.7001C361.852 38.8431 360.746 38.5591 359.889 39.0662C359.032 39.5733 358.748 40.6794 359.255 41.5364C364.387 50.2125 363.259 59.0525 362.129 63.5503Z" fill="#67838F"/>
<path d="M305.13 52.7937C305.717 50.4578 308.086 49.0398 310.422 49.6266C312.758 50.2134 314.176 52.5826 313.589 54.9177C313.002 57.2535 310.633 58.6708 308.298 58.0848C305.961 57.4979 304.543 55.1295 305.13 52.7937Z" fill="#605C5D"/>
<path d="M337.086 60.82C337.672 58.4842 340.042 57.0669 342.377 57.6529C344.713 58.2397 346.131 60.609 345.544 62.944C344.957 65.2799 342.588 66.6979 340.253 66.1111C337.916 65.5251 336.499 63.1558 337.086 60.82Z" fill="#605C5D"/>
<path d="M317.925 47.6072C317.793 47.6072 317.659 47.5913 317.524 47.5571L314.019 46.6765C313.14 46.4556 312.608 45.5652 312.828 44.6869C313.049 43.8086 313.941 43.2749 314.817 43.4966L318.323 44.3772C319.201 44.5973 319.734 45.4885 319.514 46.3668C319.327 47.1108 318.659 47.6072 317.925 47.6072Z" fill="white"/>
<path d="M341 53.4032C340.868 53.4032 340.734 53.3873 340.6 53.3531L337.094 52.4725C336.216 52.2524 335.683 51.3612 335.903 50.4829C336.124 49.6053 337.015 49.0716 337.893 49.2926L341.398 50.1731C342.276 50.3933 342.809 51.2845 342.589 52.1628C342.403 52.9067 341.734 53.4032 341 53.4032Z" fill="white"/>
<path d="M333.063 58.9432C332.185 58.4725 331.092 58.8027 330.622 59.681C330.209 60.4516 329.325 60.8402 328.473 60.6262C327.979 60.5024 327.562 60.1927 327.301 59.7547C327.039 59.3167 326.963 58.8035 327.086 58.3093C327.105 58.2364 327.118 58.1628 327.127 58.0907L327.269 58.1264C327.416 58.1636 327.564 58.181 327.709 58.181C328.516 58.181 329.251 57.6352 329.456 56.8161C329.699 55.8505 329.113 54.8705 328.147 54.6276L324.394 53.6847C323.427 53.4426 322.448 54.0286 322.205 54.9942C321.962 55.9598 322.549 56.9398 323.515 57.1828L323.657 57.2184C323.631 57.2868 323.607 57.3574 323.588 57.4302C323.332 58.452 322.291 59.0737 321.269 58.8164C320.418 58.6031 319.824 57.8432 319.824 56.9687C319.824 55.9727 319.016 55.165 318.02 55.165C317.024 55.165 316.217 55.9727 316.217 56.9687C316.217 59.4996 317.932 61.698 320.389 62.3144C321.774 62.6629 323.172 62.4511 324.341 61.8233C325.103 62.9734 326.249 63.7864 327.594 64.1242C328.044 64.2373 328.498 64.292 328.946 64.292C330.942 64.292 332.823 63.2064 333.8 61.3845C334.271 60.5062 333.941 59.4131 333.063 58.9432Z" fill="#67838F"/>
<circle cx="58.5" cy="173.5" r="46" fill="white" stroke="black" stroke-width="5"/>
<path d="M46.7602 146.456C46.6856 146.429 46.6035 146.397 46.5288 146.37C37.767 143.001 18.105 136.386 13.6462 143.027C9.22008 149.621 18.4941 163.517 23.0476 169.62L46.7602 146.456Z" fill="#D4AFB7"/>
<path d="M89.4376 156.561C91.3341 149.19 94.6537 132.816 88.0608 128.39C81.4195 123.932 65.7208 137.503 58.8943 143.938C58.847 143.982 58.7944 144.027 58.7471 144.071L89.4376 156.561Z" fill="#D4AFB7"/>
<path d="M84.1962 143.071C84.1962 143.071 85.4983 144.935 86.0947 147.194C86.6512 149.281 85.694 151.146 84.1594 152.148C79.8742 148.854 74.9116 146.449 69.584 145.149C69.4052 143.993 69.664 142.77 70.4307 141.74C73.5095 137.593 77.9693 132.899 81.9316 133.671C88.8348 135.023 84.1962 143.071 84.1962 143.071Z" fill="white"/>
<path d="M22.7846 155.151C22.7846 155.151 22.286 157.369 22.5889 159.686C22.8645 161.829 24.456 163.192 26.2567 163.538C28.9757 158.867 32.6582 154.761 37.0959 151.54C36.8235 150.401 36.1219 149.369 35.0206 148.705C30.6019 146.034 24.6958 143.377 21.3204 145.594C15.4427 149.459 22.7846 155.151 22.7846 155.151Z" fill="white"/>
<path d="M64.9013 207.122C71.3333 205.857 77.637 203.941 83.8124 201.376C91.8095 198.051 97.095 190.419 97.4516 181.765C97.6346 177.332 97.3064 172.998 96.4723 168.758C94.4181 158.313 86.5577 145.281 67.3006 143.677C63.8232 143.39 58.7313 144.007 52.7242 145.216C46.7066 146.372 41.7609 147.73 38.6506 149.313C21.4351 158.091 19.0969 173.129 21.1511 183.575C21.9852 187.815 23.3232 191.949 25.1713 195.983C28.7801 203.857 36.5616 208.918 45.2225 208.967C51.9101 209.003 58.4693 208.388 64.9013 207.122Z" fill="#D4AFB7"/>
<path d="M98.9241 168.277C98.375 165.487 96.7952 159.645 92.6099 154.082C94.9597 143.649 96.1525 130.812 89.4565 126.318C85.6141 123.739 79.9668 124.938 72.1895 129.985C66.6978 133.55 61.2367 138.323 57.4984 141.826C55.8797 142.074 54.1368 142.386 52.2529 142.764C50.3575 143.128 48.6199 143.502 47.0221 143.887C42.2489 142.066 35.3709 139.712 28.9399 138.493C19.8331 136.767 14.1521 137.795 11.573 141.638C7.07535 148.339 13.0414 159.757 19.1715 168.515C17.4002 175.256 18.1512 181.267 18.7003 184.058C19.5691 188.476 20.9828 192.838 22.9003 197.025C26.8952 205.744 35.6517 211.413 45.2087 211.466C45.3918 211.467 45.5737 211.467 45.7568 211.467C52.3949 211.467 58.9952 210.831 65.3841 209.574C71.9486 208.283 78.4711 206.301 84.7737 203.684C93.5976 200.014 99.5541 191.452 99.9496 181.868C100.139 177.268 99.794 172.694 98.9241 168.277ZM86.6712 130.466C89.6448 132.461 90.2601 139.601 88.4394 149.54C83.7534 145.362 77.0574 141.984 67.5067 141.189C66.965 141.143 66.3844 141.12 65.7743 141.114C76.8923 131.607 84.1763 128.792 86.6712 130.466ZM15.7215 144.422C17.9366 141.122 28.2047 142.83 39.0671 146.372C38.5138 146.607 37.9931 146.844 37.5156 147.088C28.9831 151.439 24.0668 157.098 21.312 162.737C15.8593 154.236 13.724 147.399 15.7215 144.422ZM94.9555 181.663C94.6399 189.311 89.8899 196.144 82.8541 199.069C76.8597 201.559 70.657 203.444 64.4185 204.671C58.18 205.899 51.728 206.501 45.2361 206.469C37.6155 206.426 30.6313 201.902 27.4432 194.944C25.6887 191.113 24.396 187.127 23.6029 183.094C22.3502 176.726 21.4203 160.905 39.7844 151.542C42.4939 150.163 47.0063 148.861 53.2185 147.668C58.3715 146.63 62.4757 146.107 65.4514 146.107C66.0436 146.107 66.5905 146.128 67.0933 146.169C87.6378 147.879 92.7687 162.874 94.0215 169.242C94.8146 173.275 95.1291 177.454 94.9555 181.663Z" fill="#B78E98"/>
<path d="M80.3844 173.095C79.8984 170.627 77.5044 169.02 75.0368 169.505C72.5692 169.991 70.962 172.385 71.4469 174.853C71.9329 177.32 74.3268 178.927 76.7945 178.443C79.2621 177.958 80.8693 175.563 80.3844 173.095Z" fill="#605C5D"/>
<path d="M46.6202 179.736C46.1343 177.269 43.7403 175.661 41.2727 176.146C38.8051 176.632 37.1979 179.026 37.6827 181.494C38.1676 183.961 40.5627 185.569 43.0303 185.084C45.499 184.599 47.1062 182.204 46.6202 179.736Z" fill="#605C5D"/>
<path d="M64.8244 179.884L65.4933 183.284C65.7689 184.686 65.4534 186.064 64.7139 187.165C63.9755 188.267 62.8133 189.09 61.4112 189.366C58.5985 189.919 55.8743 188.09 55.322 185.285L54.6531 181.884C55.0885 181.947 55.5335 181.938 55.9773 181.85C58.081 181.437 59.4495 179.398 59.0361 177.294C59.4495 179.398 61.489 180.766 63.5927 180.353C64.0386 180.265 64.4531 180.106 64.8244 179.884Z" fill="#FD80A6"/>
<path d="M81.4342 181.661C80.477 181.661 79.6218 180.986 79.4304 180.011C79.2116 178.903 79.9342 177.828 81.0418 177.611L88.1018 176.221C89.2083 176.003 90.2843 176.725 90.5021 177.833C90.7209 178.94 89.9983 180.015 88.8907 180.233L81.8307 181.621C81.6971 181.649 81.5646 181.661 81.4342 181.661Z" fill="#B78E98"/>
<path d="M88.5204 187.157C88.412 187.157 88.3016 187.149 88.1911 187.131L81.9937 186.127C80.8788 185.946 80.1214 184.897 80.3023 183.783C80.4822 182.668 81.5351 181.911 82.6469 182.091L88.8443 183.095C89.9582 183.276 90.7156 184.325 90.5357 185.439C90.3737 186.443 89.5049 187.157 88.5204 187.157Z" fill="#B78E98"/>
<path d="M32.1175 191.361C31.1603 191.361 30.3052 190.686 30.1138 189.711C29.895 188.603 30.6176 187.528 31.7252 187.311L38.7851 185.921C39.8917 185.704 40.9677 186.425 41.1854 187.533C41.4032 188.64 40.6816 189.715 39.574 189.933L32.5141 191.321C32.3805 191.349 32.2479 191.361 32.1175 191.361Z" fill="#B78E98"/>
<path d="M34.7093 197.742C34.0214 197.742 33.3493 197.395 32.9633 196.763C32.3742 195.8 32.6771 194.542 33.6406 193.953L38.9966 190.677C39.959 190.088 41.2181 190.391 41.8071 191.355C42.3961 192.318 42.0932 193.576 41.1297 194.165L35.7738 197.441C35.4414 197.645 35.0732 197.742 34.7093 197.742Z" fill="#B78E98"/>
<path d="M67.067 180.694C68.0526 179.69 68.6784 178.342 68.7552 176.856C68.813 175.729 67.9474 174.767 66.8187 174.71C65.6922 174.652 64.7298 175.518 64.6719 176.646C64.6288 177.484 64.0219 178.183 63.1952 178.346C62.7124 178.441 62.2243 178.342 61.8173 178.069C61.4102 177.796 61.1335 177.381 61.0399 176.902C61.0315 176.859 61.0136 176.82 61.0021 176.779L61.3366 176.712C62.4442 176.495 63.1657 175.42 62.9469 174.312C62.7292 173.204 61.6563 172.483 60.5466 172.701L55.8922 173.616C54.7846 173.833 54.0631 174.908 54.2808 176.016C54.4723 176.991 55.3274 177.666 56.2846 177.666C56.415 177.666 56.5486 177.654 56.6822 177.627L57.0156 177.562C57.0209 177.605 57.0198 177.647 57.0282 177.691C57.2228 178.682 56.5749 179.648 55.583 179.844C54.7563 180.007 53.9274 179.59 53.5698 178.831C53.088 177.809 51.8689 177.371 50.8487 177.851C49.8273 178.332 49.3887 179.55 49.8705 180.572C50.5037 181.917 51.5923 182.928 52.884 183.483L53.3163 185.679C53.9926 189.119 57.023 191.509 60.4067 191.509C60.8685 191.509 61.3366 191.464 61.8067 191.372C63.699 190.999 65.3346 189.91 66.4117 188.306C67.4856 186.706 67.8727 184.783 67.4993 182.89L67.067 180.694ZM63.0164 186.026C62.5472 186.725 61.8372 187.198 61.0168 187.36C59.316 187.697 57.6614 186.587 57.328 184.89L57.0861 183.662C58.2252 183.285 59.1929 182.588 59.8955 181.685C60.9179 182.273 62.077 182.532 63.2456 182.45L63.4876 183.679C63.6496 184.499 63.4823 185.333 63.0164 186.026Z" fill="#B78E98"/>
<circle cx="319.5" cy="177.5" r="46" fill="white" stroke="black" stroke-width="5"/>
<path d="M329.244 152.573C329.214 152.504 329.182 152.426 329.152 152.357C325.763 144.1 317.507 126.189 310.006 127.441C302.559 128.683 299.003 144.164 297.755 151.295L329.244 152.573Z" fill="#FFBF8C"/>
<path d="M350.107 188.673C356.441 185.174 369.928 176.785 368.686 169.338C367.434 161.837 347.808 159.839 338.903 159.318C338.842 159.314 338.776 159.307 338.715 159.303L350.107 188.673Z" fill="#FFBF8C"/>
<path d="M356.013 176.247C356.013 176.247 355.574 178.364 354.401 180.25C353.321 181.996 351.408 182.552 349.713 182.144C349.194 177.032 347.618 172.031 345.041 167.499C345.724 166.621 346.737 166.002 347.951 165.86C352.826 165.283 358.983 165.303 361.035 168.547C364.605 174.201 356.013 176.247 356.013 176.247Z" fill="white"/>
<path d="M307.587 141.67C307.587 141.67 305.728 142.772 304.324 144.494C303.023 146.083 303.119 148.073 304.054 149.543C309.058 148.375 314.299 148.241 319.423 149.207C320.032 148.276 320.288 147.117 320.029 145.923C318.992 141.125 316.974 135.308 313.24 134.421C306.732 132.879 307.587 141.67 307.587 141.67Z" fill="white"/>
<path d="M299.137 204.703C304.209 208.324 309.647 211.433 315.451 214.029C322.968 217.388 331.694 216.063 337.91 210.662C341.095 207.895 343.877 204.84 346.264 201.497C352.145 193.26 356.026 179.322 344.568 164.961C342.497 162.369 338.748 159.251 333.992 155.887C329.266 152.48 325.1 149.947 321.976 148.83C304.673 142.655 292.75 150.851 286.868 159.088C284.481 162.431 282.495 166.054 280.912 169.965C277.822 177.598 279.402 186.281 285.019 192.3C289.36 196.948 294.066 201.082 299.137 204.703Z" fill="#FFBF8C"/>
<path d="M371.03 168.95C370.306 164.61 365.79 161.488 357.227 159.405C351.179 157.934 344.317 157.273 339.454 156.974C338.226 156.017 336.873 155.014 335.382 153.96C333.894 152.887 332.501 151.93 331.193 151.076C329.337 146.587 326.477 140.296 323.123 135.054C318.373 127.631 313.958 124.374 309.616 125.099C302.048 126.362 298.047 137.938 295.991 147.892C290.175 151.066 286.509 155.507 284.937 157.708C282.451 161.19 280.356 165.014 278.713 169.074C275.292 177.526 277.087 187.279 283.287 193.922C287.714 198.662 292.583 202.94 297.76 206.636C302.936 210.331 308.563 213.548 314.485 216.198C317.527 217.557 320.771 218.22 324.002 218.22C329.579 218.22 335.113 216.242 339.471 212.455C342.777 209.582 345.713 206.36 348.2 202.877C349.77 200.677 352.778 195.772 353.893 189.248C362.637 184.065 372.291 176.514 371.03 168.95ZM310.396 129.785C314.12 129.165 319.642 137.377 324.282 147.198C323.759 146.968 323.254 146.764 322.774 146.592C314.197 143.532 307.077 143.826 301.38 145.6C303.7 136.284 307.035 130.346 310.396 129.785ZM344.331 200.117C342.061 203.296 339.377 206.241 336.352 208.869C330.859 213.641 323.036 214.815 316.421 211.861C310.787 209.341 305.437 206.282 300.518 202.77C295.598 199.257 290.968 195.189 286.757 190.681C281.814 185.384 280.385 177.603 283.114 170.858C284.618 167.144 286.531 163.649 288.801 160.47C291.598 156.553 298.498 149.019 310.158 149.019C313.447 149.019 317.115 149.619 321.175 151.068C323.896 152.041 327.741 154.311 332.619 157.828C337.511 161.288 340.906 164.187 342.71 166.444C354.935 181.763 347.916 195.096 344.331 200.117ZM354.309 183.401C354.139 177.434 352.106 170.601 346.424 163.478C346.101 163.074 345.739 162.657 345.345 162.231C359.174 163.715 365.874 166.916 366.344 169.732C366.904 173.091 362.369 178.175 354.309 183.401Z" fill="#FF9C6F"/>
<path d="M332.767 193.203C334.156 191.257 333.705 188.553 331.759 187.163C329.813 185.774 327.109 186.225 325.72 188.171C324.33 190.117 324.782 192.821 326.728 194.21C328.674 195.601 331.378 195.149 332.767 193.203Z" fill="#605C5D"/>
<path d="M306.143 174.193C307.532 172.247 307.081 169.543 305.135 168.153C303.189 166.764 300.485 167.215 299.096 169.161C297.706 171.107 298.158 173.811 300.104 175.201C302.049 176.591 304.753 176.139 306.143 174.193Z" fill="#605C5D"/>
<path d="M334.511 204.105C334.12 204.105 333.726 203.987 333.383 203.743L327.815 199.768C326.942 199.144 326.739 197.931 327.363 197.057C327.987 196.184 329.2 195.981 330.074 196.605L335.642 200.58C336.515 201.204 336.718 202.418 336.094 203.291C335.715 203.822 335.117 204.105 334.511 204.105Z" fill="#FF9C6F"/>
<path d="M329.767 208.612C329.144 208.612 328.533 208.313 328.157 207.759L324.807 202.819C324.204 201.93 324.435 200.722 325.323 200.119C326.212 199.517 327.421 199.748 328.023 200.636L331.374 205.575C331.977 206.464 331.745 207.672 330.857 208.275C330.523 208.504 330.143 208.612 329.767 208.612Z" fill="#FF9C6F"/>
<path d="M322.798 184.879C322.103 184.061 320.876 183.962 320.059 184.657C319.451 185.174 318.571 185.21 317.92 184.745C317.541 184.474 317.289 184.072 317.213 183.612C317.154 183.257 317.206 182.901 317.357 182.582L317.586 182.745C318.005 183.044 318.487 183.188 318.964 183.188C319.706 183.188 320.436 182.842 320.899 182.193C321.662 181.125 321.414 179.642 320.346 178.879L316.676 176.258C315.608 175.495 314.125 175.744 313.362 176.811C312.599 177.879 312.847 179.362 313.915 180.125L314.143 180.288C313.55 180.864 312.612 180.956 311.917 180.46C311.265 179.994 311.012 179.15 311.304 178.407C311.696 177.408 311.204 176.28 310.205 175.888C309.205 175.495 308.077 175.988 307.686 176.987C306.742 179.391 307.553 182.121 309.659 183.624C310.805 184.442 312.154 184.769 313.458 184.645C313.774 185.965 314.546 187.114 315.661 187.91C316.645 188.613 317.791 188.961 318.934 188.961C320.234 188.961 321.53 188.51 322.577 187.62C323.395 186.923 323.494 185.696 322.798 184.879Z" fill="#FF9C6F"/>
<circle cx="38.5" cy="60.5" r="46" fill="white" stroke="black" stroke-width="5"/>
<path d="M-3.9388 26.2421C0.034801 20.9949 15.882 27.3533 22.9124 30.5261C26.0412 29.5517 30.1404 28.7629 34.8732 28.1309C39.6004 27.4565 43.7612 27.1053 47.0372 27.1949C52.9468 22.2325 66.4764 11.8229 71.7212 15.7949C76.9292 19.7389 73.4388 33.0245 71.5284 38.9925C75.442 43.9141 77.4108 49.6245 78.1092 54.6789C78.7124 59.0501 78.7948 63.4877 78.3508 67.9973C77.4828 76.7997 71.65 84.2733 63.3028 87.1981C56.8564 89.4549 50.318 91.0405 43.686 91.9565C37.0548 92.8725 30.3308 93.1173 23.514 92.6925C14.6868 92.1389 7.0468 86.5261 3.826 78.2877C2.1764 74.0669 1.0524 69.7733 0.449202 65.4021C-0.248398 60.3485 0.0988021 54.3197 2.5308 48.5229C-0.917998 43.3013 -7.8844 31.4525 -3.9388 26.2421Z" fill="#FFBF8C"/>
<path d="M2.99945 36.6261C2.99945 36.6261 2.48585 38.4245 2.62585 40.3413C2.75225 42.1133 3.99545 43.3077 5.45785 43.6765C7.90985 39.9677 11.1267 36.7685 14.9227 34.3301C14.7523 33.3829 14.2243 32.5013 13.3515 31.9053C9.84745 29.5045 5.12105 27.0461 2.24505 28.7077C-2.76375 31.6069 2.99945 36.6261 2.99945 36.6261Z" fill="white"/>
<path d="M67.8603 27.671C67.8603 27.671 68.8419 29.263 69.2267 31.1462C69.5859 32.8862 68.7123 34.3734 67.4051 35.1238C64.0403 32.2182 60.0771 30.0102 55.7619 28.6918C55.6691 27.7334 55.9387 26.7422 56.6171 25.9318C59.3395 22.671 63.2227 19.0238 66.4411 19.8446C72.0467 21.2774 67.8603 27.671 67.8603 27.671Z" fill="white"/>
<path d="M79.9916 54.4205C79.4684 50.6293 77.9572 44.4093 73.638 38.6101C78.538 22.7405 75.9515 16.6133 72.8699 14.2789C69.8899 12.0229 65.2515 12.7461 58.6891 16.4925C54.1539 19.0813 49.5748 22.6189 46.3636 25.2853C43.2292 25.2597 39.298 25.5805 34.6212 26.2477C29.9292 26.8741 26.0556 27.6301 23.0444 28.5045C19.2372 26.8093 13.8748 24.6461 8.80036 23.3813C1.46756 21.5541 -3.19484 22.1133 -5.45164 25.0933C-7.78204 28.1709 -8.60924 34.7661 0.397957 48.7229C-2.18764 55.4757 -1.95644 61.8717 -1.43324 65.6629C-0.811644 70.1661 0.361956 74.6469 2.05636 78.9805C5.53076 87.8677 13.9068 93.9949 23.3956 94.5901C25.5788 94.7261 27.762 94.7941 29.9396 94.7941C34.6556 94.7941 39.3452 94.4749 43.946 93.8397C50.6716 92.9109 57.3956 91.2805 63.9315 88.9925C72.9035 85.8485 79.3059 77.6805 80.2419 68.1845C80.6971 63.5557 80.6132 58.9245 79.9916 54.4205ZM76.4588 67.8125C75.6668 75.8429 70.2563 82.7493 62.674 85.4061C56.3772 87.6101 49.9012 89.1813 43.4252 90.0749C36.9492 90.9685 30.2892 91.2117 23.6324 90.7965C15.6132 90.2933 8.53315 85.1125 5.59556 77.5965C4.00996 73.5405 2.91236 69.3509 2.33156 65.1429C1.69316 60.5229 1.53076 51.5621 7.60835 43.4533C8.23796 42.6133 8.06756 41.4221 7.22756 40.7925C6.38756 40.1629 5.19716 40.3333 4.56676 41.1741C3.71236 42.3141 2.96756 43.4677 2.31796 44.6237C-2.59164 36.4805 -4.40844 30.0109 -2.42204 27.3885C-1.25404 25.8445 2.50276 25.7285 7.88035 27.0693C11.2908 27.9197 14.8652 29.2101 17.9636 30.4701C16.5396 31.1605 15.1788 31.9093 13.9044 32.7077C13.0148 33.2653 12.746 34.4381 13.3036 35.3269C13.6644 35.9021 14.2828 36.2181 14.9156 36.2181C15.2604 36.2181 15.61 36.1245 15.9236 35.9277C17.5004 34.9397 19.2252 34.0309 21.05 33.2285C23.9476 31.9557 28.6836 30.8749 35.1412 30.0117C41.5748 29.0941 46.4259 28.8517 49.5595 29.2917C51.5355 29.5701 53.4419 29.9773 55.2267 30.5005C56.2339 30.7965 57.29 30.2197 57.5852 29.2125C57.8804 28.2053 57.3044 27.1493 56.2964 26.8533C54.8548 26.4301 53.3428 26.0781 51.786 25.7997C60.8884 18.7189 68.0779 15.4157 70.5756 17.3069C73.2028 19.2973 73.2059 26.0181 70.6804 35.1837C69.7411 34.2461 68.7115 33.3373 67.5796 32.4709C66.7467 31.8333 65.5531 31.9917 64.9156 32.8253C64.2771 33.6589 64.4363 34.8517 65.2691 35.4893C73.3163 41.6485 75.5884 50.3181 76.226 54.9381C76.8068 59.1485 76.8852 63.4797 76.4588 67.8125Z" fill="#FF9C6F"/>
<path d="M18.9437 66.3645C18.6117 63.9589 20.2925 61.7397 22.6981 61.4069C25.1037 61.0749 27.3229 62.7557 27.6557 65.1613C27.9877 67.5669 26.3069 69.7861 23.9013 70.1189C21.4949 70.4517 19.2757 68.7709 18.9437 66.3645Z" fill="#605C5D"/>
<path d="M51.8558 61.8206C51.5238 59.415 53.2046 57.1958 55.6102 56.863C58.0158 56.531 60.235 58.2118 60.5678 60.6174C60.8998 63.023 59.219 65.2422 56.8134 65.575C54.4078 65.907 52.1878 64.2262 51.8558 61.8206Z" fill="#605C5D"/>
<path d="M36.0371 69.6493C33.7611 69.6493 31.6795 68.2765 30.8099 66.1181C30.4179 65.1445 30.8891 64.0373 31.8627 63.6453C32.8363 63.2525 33.9427 63.7237 34.3355 64.6973C34.6515 65.4805 35.4563 65.9469 36.2963 65.8301C37.3043 65.6909 38.0115 64.7581 37.8731 63.7509C37.8611 63.6621 37.8547 63.5749 37.8547 63.4877C37.8547 62.5541 38.5443 61.7397 39.4955 61.6077C40.5363 61.4637 41.4947 62.1909 41.6379 63.2301C41.7771 64.2373 42.7083 64.9445 43.7171 64.8045C44.5571 64.6885 45.2083 64.0213 45.2995 63.1821C45.4139 62.1389 46.3547 61.3837 47.3947 61.4989C48.4387 61.6125 49.1915 62.5509 49.0779 63.5941C48.7971 66.1685 46.8059 68.2141 44.2371 68.5685C42.8163 68.7645 41.4419 68.4109 40.3323 67.6701C39.4651 68.6837 38.2387 69.3973 36.8163 69.5933C36.5547 69.6317 36.2947 69.6493 36.0371 69.6493Z" fill="#FF9C6F"/>
<path d="M13.1467 75.1541C12.3827 75.1541 11.7163 74.5901 11.6083 73.8117C11.4907 72.9613 12.0851 72.1765 12.9363 72.0589L19.8187 71.1085C20.6699 70.9909 21.4539 71.5853 21.5715 72.4365C21.6891 73.2869 21.0939 74.0717 20.2435 74.1893L13.3611 75.1397C13.2891 75.1493 13.2171 75.1541 13.1467 75.1541Z" fill="#FF9C6F"/>
<path d="M15.294 81.447C14.7396 81.447 14.2028 81.1494 13.922 80.6262C13.5164 79.8694 13.8012 78.927 14.5588 78.5214L19.902 75.6582C20.6588 75.2526 21.6012 75.5374 22.0068 76.2942C22.4124 77.051 22.1276 77.9934 21.37 78.399L16.0268 81.2622C15.7932 81.3878 15.542 81.447 15.294 81.447Z" fill="#FF9C6F"/>
<path d="M61.2202 68.5165C60.4562 68.5165 59.7898 67.9525 59.6818 67.1741C59.5642 66.3237 60.1586 65.5389 61.0098 65.4213L67.8922 64.4709C68.7378 64.3533 69.5274 64.9477 69.645 65.7981C69.7626 66.6485 69.1674 67.4333 68.317 67.5509L61.4346 68.5013C61.3634 68.5117 61.2914 68.5165 61.2202 68.5165Z" fill="#FF9C6F"/>
<path d="M67.7482 74.2045C67.637 74.2045 67.5242 74.1925 67.4114 74.1677L61.4922 72.8597C60.6538 72.6741 60.1242 71.8445 60.3098 71.0061C60.4954 70.1677 61.325 69.6381 62.1634 69.8237L68.0826 71.1317C68.921 71.3165 69.4506 72.1469 69.265 72.9853C69.1042 73.7109 68.4618 74.2045 67.7482 74.2045Z" fill="#FF9C6F"/>
<path d="M24.7243 57.383C24.0371 57.383 23.3883 56.971 23.1187 56.2942C22.7659 55.4078 23.1987 54.403 24.0851 54.0502L27.6955 52.6126C28.5819 52.2598 29.5867 52.6918 29.9395 53.579C30.2923 54.4654 29.8595 55.4702 28.9731 55.823L25.3627 57.2606C25.1531 57.343 24.9371 57.383 24.7243 57.383Z" fill="white"/>
<path d="M52.1026 53.6022C52.033 53.6022 51.9626 53.5982 51.8914 53.5894L48.281 53.1486C47.3338 53.0326 46.6594 52.1718 46.7754 51.2246C46.8906 50.2774 47.7514 49.6046 48.6994 49.719L52.3098 50.1598C53.257 50.275 53.9314 51.1366 53.8154 52.0838C53.709 52.9598 52.9634 53.6022 52.1026 53.6022Z" fill="white"/>
<path d="M37.5779 63.9062C36.6435 63.9062 35.8291 63.2174 35.6979 62.2654C35.5539 61.2254 36.2811 60.2662 37.3203 60.123L41.1859 59.5894C42.2259 59.447 43.1851 60.1726 43.3283 61.2118C43.4723 62.2518 42.7459 63.211 41.7059 63.3542L37.8403 63.8878C37.7523 63.9006 37.6643 63.9062 37.5779 63.9062Z" fill="#FF9C6F"/>
</g>
<defs>
<clipPath id="clip0_2_673">
<rect width="367" height="240" rx="8" fill="white"/>
</clipPath>
</defs>
</svg>
