<svg width="110" height="142" viewBox="0 0 110 142" fill="none" xmlns="http://www.w3.org/2000/svg">
<g id="Group">
<path id="Vector" d="M93.1987 110.494C94.364 97.719 86.6426 89.9344 86.6426 89.9344L28.6604 93.2013C28.6604 93.2013 11.689 99.5191 11.689 116.947C11.689 116.947 45.2479 134.841 77.1927 123.621C85.6371 120.146 93.1987 110.494 93.1987 110.494Z" fill="#B1B9C6"/>
<path id="Vector_2" d="M93.201 112.31C93.1458 112.31 93.0897 112.307 93.0337 112.302C92.0449 112.21 91.3165 111.326 91.4081 110.329C92.4764 98.6122 85.4388 91.2875 85.3676 91.2149C84.6703 90.5036 84.6733 89.356 85.3752 88.65C86.0778 87.9441 87.212 87.9441 87.9131 88.6508C88.2523 88.9931 96.2175 97.1919 94.9887 110.661C94.9039 111.602 94.1194 112.31 93.201 112.31Z" fill="#678490"/>
<path id="Vector_3" d="M11.6884 118.762C10.695 118.762 9.89014 117.95 9.89014 116.947C9.89014 109.284 13.0361 102.447 18.988 97.1751C23.4302 93.2403 27.8511 91.5686 28.0374 91.4991C28.9695 91.1522 30.0037 91.6336 30.3467 92.5733C30.6904 93.5123 30.2142 94.5552 29.2844 94.9029C29.2155 94.9288 25.2019 96.4699 21.27 99.9829C16.1055 104.598 13.4866 110.305 13.4866 116.947C13.4866 117.95 12.6817 118.762 11.6884 118.762Z" fill="#678490"/>
<g id="Group_2">
<path id="Vector_4" d="M105.804 3.65412C99.6126 -2.59334 79.8882 8.77081 71.2015 14.2802C66.9017 13.559 61.3556 13.2625 55.0046 13.2916C48.6522 13.2625 43.1061 13.559 38.8055 14.281C30.1157 8.767 10.3928 -2.58952 4.20545 3.65412C-1.93954 9.85498 5.07693 26.8791 8.68018 34.4651C4.41897 41.728 2.86303 49.6823 2.86303 56.5318C2.86303 62.4545 3.56263 68.3704 4.9679 74.2855C7.71331 85.8308 16.7589 94.6966 28.2903 97.0536C37.195 98.8705 46.0998 99.7789 55.0046 99.7789C63.9094 99.7789 72.8142 98.8705 81.719 97.0536C93.2496 94.6966 102.296 85.8308 105.041 74.2855C106.447 68.3696 107.147 62.4545 107.147 56.5318C107.147 49.6838 105.592 41.7318 101.333 34.4704C104.927 26.892 111.951 9.85727 105.804 3.65412Z" fill="#B1B9C6"/>
<g id="Group_3">
<path id="Vector_5" d="M61.3095 17.5189C61.3095 27.323 58.4823 35.265 55.0085 35.265C51.5271 35.265 48.7 27.323 48.7 17.5189C48.7 16.175 48.7522 14.8693 48.8559 13.6155C52.9551 13.4276 57.0543 13.4276 61.1527 13.6224C61.2572 14.8769 61.3095 16.1834 61.3095 17.5189Z" fill="#91A2B5"/>
<g id="Group_4">
<path id="Vector_6" d="M47.7701 14.2985C47.7701 24.0949 44.9505 32.0447 41.4692 32.0447C38.1218 32.0447 35.3689 24.6504 35.1758 15.3415C37.3405 14.7707 39.5801 14.3658 41.8712 14.1328C43.8353 13.9379 45.7993 13.7798 47.7633 13.6751C47.7701 13.886 47.7701 14.0884 47.7701 14.2985Z" fill="#91A2B5"/>
<path id="Vector_7" d="M74.8344 15.2597C74.6557 24.6053 71.9035 32.0447 68.5402 32.0447C65.0589 32.0447 62.2393 24.0949 62.2393 14.2985C62.2393 14.0884 62.2393 13.886 62.2468 13.6751C64.5008 13.7951 66.7624 13.983 69.0165 14.2229C71.0032 14.4338 72.9445 14.7868 74.8344 15.2597Z" fill="#91A2B5"/>
</g>
</g>
<path id="Vector_8" d="M98.5504 18.736C98.5504 18.736 99.5543 21.0335 99.7179 23.6082C99.8738 25.9882 98.4534 27.8043 96.5931 28.5622C92.6878 24.0804 87.867 20.4177 82.4216 17.8727C82.4739 16.5815 83.0092 15.3132 84.051 14.3597C88.232 10.5235 94.012 6.38704 98.1036 8.06867C105.231 11.0041 98.5504 18.736 98.5504 18.736Z" fill="white"/>
<path id="Vector_9" d="M11.4535 18.736C11.4535 18.736 10.4488 21.0335 10.2852 23.6082C10.1293 25.9882 11.5497 27.8043 13.41 28.5622C17.3161 24.0804 22.1361 20.4177 27.5822 17.8727C27.53 16.5815 26.9947 15.3132 25.9529 14.3597C21.7719 10.5235 15.9918 6.38704 11.9002 8.06867C4.77321 11.0041 11.4535 18.736 11.4535 18.736Z" fill="white"/>
<path id="Vector_10" d="M107.073 2.36903C103.786 -0.947617 97.7984 -0.783359 88.7687 2.87175C82.2535 5.50918 75.5111 9.42943 70.8168 12.3847C66.6941 11.7536 61.407 11.4465 55.0129 11.477C48.6097 11.4495 43.3165 11.7551 39.1908 12.3862C26.0763 4.13088 9.36912 -4.12827 2.93111 2.36903C-3.61896 8.97941 2.23605 24.8865 6.64718 34.375C1.93092 42.8457 1.06474 51.4105 1.06474 56.5318C1.06474 62.5776 1.78933 68.6928 3.21958 74.7088C6.11491 86.8867 15.8162 96.3553 27.9343 98.8322C36.9141 100.664 46.0225 101.593 55.0046 101.593C63.9866 101.593 73.095 100.664 82.0763 98.8315C94.1944 96.3545 103.895 86.8851 106.79 74.708C108.22 68.6913 108.945 62.5753 108.945 56.531C108.945 51.4097 108.078 42.8465 103.363 34.3757C107.766 24.8842 113.614 8.97024 107.073 2.36903ZM103.292 73.8623C100.722 84.6725 92.1138 93.0776 81.3623 95.2749C72.6158 97.059 63.7473 97.9643 55.0038 97.9643C46.2603 97.9643 37.3918 97.0597 28.6468 95.2757C17.8946 93.0776 9.28659 84.6725 6.71608 73.8623C5.3517 68.1229 4.66043 62.2926 4.66043 56.5318C4.66043 50.159 6.1043 37.9957 15.7715 28.1413C16.4704 27.4292 16.4643 26.2801 15.7587 25.5749C15.053 24.8697 13.9143 24.875 13.2154 25.5879C11.586 27.2489 10.1724 28.9679 8.94285 30.713C3.31877 17.9651 2.0036 8.43696 5.4736 4.93541C8.81564 1.56375 19.6231 4.85137 34.0983 13.5109C31.5565 14.268 29.1147 15.1673 26.841 16.1995C25.9355 16.6105 25.5311 17.6847 25.9385 18.5993C26.2383 19.2716 26.8933 19.6697 27.5792 19.6697C27.8261 19.6697 28.0767 19.6177 28.3159 19.5092C30.6055 18.4702 33.0776 17.5663 35.6618 16.8244C39.7776 15.6455 46.283 15.0641 55.0114 15.1069C63.7276 15.0695 70.2292 15.6455 74.3443 16.8244C76.9307 17.5671 79.4028 18.4709 81.6909 19.5092C82.5957 19.9203 83.661 19.5131 84.0691 18.5985C84.4765 17.6848 84.0729 16.6105 83.1674 16.1995C80.8929 15.1665 78.4488 14.2672 75.9041 13.5093C90.3746 4.84524 101.183 1.55915 104.529 4.93616C107.993 8.43235 106.68 17.9598 101.064 30.713C99.8352 28.9679 98.4208 27.2489 96.7922 25.5886C96.0934 24.8758 94.9546 24.8704 94.2489 25.5756C93.5433 26.2808 93.5372 27.4292 94.2361 28.142C103.904 37.9972 105.347 50.1598 105.347 56.5326C105.349 62.291 104.657 68.1221 103.292 73.8623Z" fill="#678490"/>
<g id="Group_5">
<g id="Group_6">
<path id="Vector_11" d="M94.879 79.0836H85.6373C84.644 79.0836 83.8391 78.2715 83.8391 77.2691C83.8391 76.2667 84.6447 75.4545 85.6373 75.4545H94.879C95.8724 75.4545 96.6773 76.2667 96.6773 77.2691C96.6773 78.2707 95.8724 79.0836 94.879 79.0836Z" fill="#91A2B5"/>
<path id="Vector_12" d="M93.1987 87.8448C92.9913 87.8448 92.78 87.8081 92.5741 87.7317L85.0125 84.9055C84.0812 84.5571 83.6057 83.5135 83.951 82.5737C84.2955 81.634 85.3297 81.1534 86.2618 81.5026L93.8234 84.3287C94.7547 84.6771 95.2302 85.7207 94.8849 86.6605C94.6169 87.3924 93.9294 87.8448 93.1987 87.8448Z" fill="#91A2B5"/>
</g>
<g id="Group_7">
<path id="Vector_13" d="M30.3239 79.0836H21.0814C20.088 79.0836 19.2832 78.2715 19.2832 77.2691C19.2832 76.2667 20.0888 75.4545 21.0814 75.4545H30.3239C31.3173 75.4545 32.1221 76.2667 32.1221 77.2691C32.1221 78.2707 31.3173 79.0836 30.3239 79.0836Z" fill="#91A2B5"/>
<path id="Vector_14" d="M22.7624 87.8447C22.0318 87.8447 21.3443 87.3917 21.0755 86.6597C20.7302 85.72 21.2057 84.6755 22.137 84.3279L29.6986 81.5018C30.6307 81.1534 31.6649 81.634 32.0094 82.5729C32.3547 83.5127 31.8792 84.5571 30.9479 84.9048L23.3863 87.7309C23.1811 87.808 22.9699 87.8447 22.7624 87.8447Z" fill="#91A2B5"/>
</g>
</g>
<g id="Group_8">
<path id="Vector_15" d="M76.3623 57.3478H71.5143C70.5209 57.3478 69.7161 56.5356 69.7161 55.5332C69.7161 54.5308 70.5209 53.7186 71.5143 53.7186H76.3623C77.3557 53.7186 78.1605 54.5308 78.1605 55.5332C78.1605 56.5348 77.3549 57.3478 76.3623 57.3478Z" fill="white"/>
<path id="Vector_16" d="M44.447 57.3478H39.599C38.6056 57.3478 37.8008 56.5356 37.8008 55.5332C37.8008 54.5308 38.6064 53.7186 39.599 53.7186H44.447C45.4404 53.7186 46.2452 54.5308 46.2452 55.5332C46.2452 56.5348 45.4404 57.3478 44.447 57.3478Z" fill="white"/>
</g>
<path id="Vector_17" d="M68.2312 68.1825C67.2681 67.9387 66.2914 68.5286 66.0491 69.5004C65.694 70.9276 64.4258 71.9239 62.9637 71.9239C61.2071 71.9239 59.7784 70.483 59.7784 68.7127C59.7784 68.6585 59.7746 68.6042 59.7701 68.5515H60.5749C61.5683 68.5515 62.3731 67.7393 62.3731 66.7369C62.3731 65.7345 61.5675 64.9224 60.5749 64.9224H55.3839C54.3906 64.9224 53.5857 65.7345 53.5857 66.7369C53.5857 67.7393 54.3913 68.5515 55.3839 68.5515H56.1895C56.185 68.605 56.1812 68.6585 56.1812 68.7127C56.1812 70.4837 54.7532 71.9239 52.9982 71.9239C51.5346 71.9239 50.2649 70.9276 49.9105 69.5004C49.6682 68.5286 48.6908 67.938 47.7284 68.1825C46.7653 68.4262 46.1801 69.4118 46.4216 70.3844C47.1787 73.4283 49.8833 75.5538 52.9982 75.5538C54.966 75.5538 56.74 74.7035 57.9794 73.3489C59.2196 74.7042 60.9944 75.5538 62.963 75.5538C66.0763 75.5538 68.7801 73.4283 69.5365 70.3844C69.7795 69.4126 69.195 68.427 68.2312 68.1825Z" fill="#678490"/>
<path id="Vector_18" d="M83.4504 67.7859H73.1964C72.203 67.7859 71.3982 66.9738 71.3982 65.9714C71.3982 64.969 72.2038 64.1568 73.1964 64.1568H83.4504C84.4438 64.1568 85.2487 64.969 85.2487 65.9714C85.2487 66.9738 84.4431 67.7859 83.4504 67.7859Z" fill="#605C5D"/>
<path id="Vector_19" d="M42.5632 67.7859H32.3092C31.3158 67.7859 30.511 66.9738 30.511 65.9714C30.511 64.969 31.3166 64.1568 32.3092 64.1568H42.5632C43.5566 64.1568 44.3615 64.969 44.3615 65.9714C44.3615 66.9738 43.5558 67.7859 42.5632 67.7859Z" fill="#605C5D"/>
</g>
<g id="Group_9">
<path id="Vector_20" d="M14.4379 121.228L23.0701 127.452L35.7281 109.578L27.0959 103.353L14.4379 121.228Z" fill="#FFBF8C"/>
<path id="Vector_21" d="M23.0651 129.26C22.6926 129.26 22.3261 129.143 22.0195 128.921L13.3872 122.697C12.5794 122.114 12.3916 120.981 12.9693 120.165L25.6265 102.29C25.9036 101.899 26.3238 101.634 26.794 101.555C27.265 101.476 27.7465 101.589 28.1349 101.869L36.7671 108.093C37.575 108.676 37.762 109.809 37.1851 110.624L24.5279 128.5C24.2508 128.891 23.8305 129.156 23.3604 129.235C23.2619 129.251 23.1635 129.26 23.0651 129.26ZM16.9413 120.799L22.6471 124.913L33.2139 109.992L27.508 105.877L16.9413 120.799Z" fill="#FF9D6F"/>
<path id="Vector_22" d="M21.5767 97.7695C19.2659 88.7662 26.1862 79.1692 37.0331 76.3339C47.8807 73.4986 58.5474 78.4984 60.8582 87.5017C61.1232 88.5354 61.5199 90.0796 61.7849 91.1125C64.0957 100.116 57.1762 109.713 46.3285 112.548C35.4809 115.383 24.8142 110.384 22.5034 101.38C22.2377 100.347 21.8417 98.8032 21.5767 97.7695Z" fill="#FFFF9D"/>
<path id="Vector_23" d="M44.9217 107.065C52.6226 105.052 57.8575 98.3975 56.3523 92.5328C54.8471 86.6682 47.0689 83.4149 39.368 85.4274C31.6663 87.4406 26.4314 94.0953 27.9366 99.96C29.4418 105.825 37.2192 109.079 44.9217 107.065Z" fill="#DDFCFC"/>
<path id="Vector_24" d="M27.9351 101.776C27.1355 101.776 26.4049 101.234 26.1952 100.416C24.4454 93.5994 30.2709 85.9316 38.916 83.6724C43.0159 82.5997 47.262 82.8419 50.8713 84.3516C54.6002 85.9118 57.2321 88.728 58.0922 92.0798C58.3413 93.0501 57.7636 94.0403 56.802 94.2916C55.8404 94.543 54.8592 93.9601 54.6101 92.9897C54.0271 90.7175 52.2099 88.8411 49.4933 87.7042C46.6442 86.5123 43.1174 86.3236 39.817 87.1862C33.176 88.922 28.4371 94.679 29.6758 99.5069C29.9249 100.477 29.3472 101.467 28.3856 101.719C28.2357 101.757 28.0842 101.776 27.9351 101.776Z" fill="#FFCC6B"/>
<path id="Vector_25" d="M40.2129 115.16C36.7792 115.16 33.4455 114.451 30.4571 113.049C25.4599 110.708 22.0172 106.725 20.7626 101.835L19.8358 98.2241C18.5805 93.3351 19.6746 88.1664 22.9167 83.6709C26.08 79.2838 30.9341 76.0535 36.5824 74.5774C42.2314 73.1005 48.0282 73.5467 52.9049 75.8327C57.9021 78.1752 61.3448 82.1573 62.5994 87.0471L63.5262 90.6579C64.7815 95.5477 63.6874 100.716 60.4453 105.211C57.2812 109.599 52.4279 112.829 46.7796 114.305C44.5922 114.877 42.3821 115.16 40.2129 115.16ZM23.3172 97.3141L24.2439 100.925C25.2244 104.744 27.9691 107.881 31.9721 109.758C36.0948 111.691 41.0336 112.058 45.8771 110.792C50.7213 109.526 54.8622 106.785 57.5364 103.076C60.1334 99.4741 61.0238 95.3873 60.0433 91.5679L59.1166 87.9563C58.136 84.1369 55.3914 80.9998 51.3884 79.1241C47.2657 77.1912 42.3268 76.8244 37.4826 78.0904C32.6392 79.3564 28.4983 82.097 25.8233 85.8056C23.2271 89.408 22.3367 93.4955 23.3172 97.3141Z" fill="#FFCC6B"/>
<g id="Group_10">
<path id="Vector_26" d="M11.2952 131.708C16.0289 135.121 22.6085 134.016 25.9914 129.239C29.3743 124.462 28.2788 117.823 23.5451 114.41C18.8114 110.997 14.4328 113.689 11.0499 118.466C7.66698 123.241 6.56155 128.294 11.2952 131.708Z" fill="#B1B9C6"/>
<path id="Vector_27" d="M17.3941 135.506C14.8456 135.506 12.3652 134.709 10.2505 133.184C7.54366 131.232 6.18837 128.579 6.33298 125.511C6.45034 123.019 7.54517 120.293 9.58719 117.41C11.6285 114.526 13.8295 112.598 16.1282 111.679C18.9576 110.548 21.884 110.981 24.59 112.932C27.2703 114.865 29.0443 117.735 29.5857 121.014C30.1263 124.294 29.3699 127.589 27.4543 130.293C25.5395 132.998 22.6949 134.788 19.4452 135.334C18.7608 135.45 18.0748 135.506 17.3941 135.506ZM19.2378 114.694C18.6442 114.694 18.0506 114.814 17.4532 115.053C15.8314 115.702 14.1233 117.247 12.5128 119.521C10.9024 121.794 10.0082 123.926 9.92488 125.684C9.83932 127.51 10.629 128.998 12.3409 130.232C14.2391 131.601 16.5522 132.142 18.8547 131.755C21.1564 131.368 23.1711 130.1 24.528 128.184C25.8848 126.268 26.4208 123.934 26.0377 121.611C25.6538 119.288 24.3977 117.255 22.4988 115.886C21.3956 115.09 20.3167 114.694 19.2378 114.694Z" fill="#678490"/>
</g>
</g>
<g id="Group_11">
<path id="Vector_28" d="M107.004 124.21L75.4201 108.143L50.4305 120.183V129.089L30.0693 138.9L52.9064 158.995L59.3739 155.915L71.7434 166.799L105.479 150.731L97.6234 146.735L107.004 142.267V124.21Z" fill="white"/>
<path id="Vector_29" d="M75.0681 133.781C74.42 133.781 73.7946 133.427 73.4736 132.808C73.0125 131.92 73.3525 130.824 74.2323 130.358L90.6684 121.674C91.5474 121.21 92.6347 121.553 93.0958 122.44C93.5569 123.328 93.2169 124.424 92.3371 124.889L75.901 133.573C75.6345 133.715 75.349 133.781 75.0681 133.781Z" fill="#777677"/>
<path id="Vector_30" d="M69.5659 129.779C68.9178 129.779 68.2924 129.425 67.9714 128.806C67.5103 127.918 67.8503 126.822 68.7301 126.356L85.1662 117.672C86.0452 117.208 87.1325 117.551 87.5928 118.438C88.0539 119.326 87.714 120.422 86.8342 120.887L70.3981 129.571C70.1323 129.712 69.8468 129.779 69.5659 129.779Z" fill="#777677"/>
<path id="Vector_31" d="M64.5679 125.962C63.9198 125.962 63.2944 125.608 62.9733 124.989C62.5122 124.101 62.8522 123.005 63.7327 122.539L80.1689 113.855C81.0479 113.391 82.1352 113.734 82.5963 114.622C83.0574 115.509 82.7174 116.606 81.8376 117.071L65.4015 125.755C65.1342 125.896 64.8488 125.962 64.5679 125.962Z" fill="#777677"/>
<path id="Vector_32" d="M107.814 122.59L76.2295 106.522C75.7328 106.269 75.1475 106.263 74.6448 106.505L49.656 118.545C49.0306 118.847 48.6323 119.483 48.6323 120.182V127.944L29.294 137.261C28.7474 137.524 28.3696 138.047 28.287 138.653C28.2053 139.258 28.4301 139.864 28.8867 140.266L51.7252 160.363C52.0599 160.657 52.4816 160.81 52.9079 160.81C53.1684 160.81 53.4303 160.753 53.6756 160.637L59.0794 158.062L70.5623 168.166C70.8969 168.461 71.3187 168.613 71.7449 168.613C72.0054 168.613 72.2674 168.556 72.5119 168.44L106.245 152.372C106.867 152.075 107.267 151.448 107.276 150.754C107.284 150.06 106.901 149.422 106.287 149.11L101.723 146.788L107.771 143.907C108.4 143.607 108.801 142.968 108.801 142.266V124.209C108.803 123.526 108.42 122.898 107.814 122.59ZM75.3982 110.164L102.904 124.157L73.5644 138.131L53.6756 120.631L75.3982 110.164ZM52.2295 124.174L71.4708 141.104V142.872L60.2674 133.014C59.6548 132.475 58.7258 132.54 58.1913 133.157C57.6567 133.775 57.7203 134.713 58.3336 135.252L71.4708 146.811V149.017L63.5132 142.014C62.9 141.475 61.9709 141.54 61.4372 142.158C60.9026 142.776 60.9662 143.714 61.5795 144.253L71.4716 152.957V154.344L52.2303 137.414L52.2295 124.174ZM53.204 156.848L33.3145 139.346L48.6331 131.967V138.239C48.6331 138.763 48.8579 139.262 49.2494 139.607L52.8617 142.785L48.1311 145.064C47.5844 145.327 47.2058 145.85 47.1241 146.456C47.0423 147.061 47.2672 147.667 47.7237 148.069L56.1197 155.457L53.204 156.848ZM72.0402 164.651L52.1508 147.149L55.8153 145.385L72.0864 159.702C72.4203 159.996 72.842 160.149 73.2683 160.149C73.5288 160.149 73.7907 160.091 74.0353 159.975L97.5962 148.753L101.377 150.676L72.0402 164.651ZM105.205 141.117L75.0665 155.471V153.354L94.9916 143.864C95.726 143.514 96.041 142.629 95.6942 141.888C95.3474 141.146 94.4699 140.829 93.7355 141.179L75.0665 150.07V147.208L89.9899 140.101C90.7243 139.751 91.0393 138.866 90.6925 138.124C90.3457 137.382 89.4682 137.065 88.7338 137.415L75.0665 143.924V141.428L105.205 127.073V141.117Z" fill="#E3E3E3"/>
</g>
<g id="Group_12">
<path id="Vector_33" d="M81.3238 105.562C77.2572 109.761 77.3337 116.491 81.495 120.594C85.6562 124.698 92.3259 124.621 96.3918 120.421C100.458 116.222 98.4914 111.444 94.3301 107.341C90.1696 103.238 85.3897 101.363 81.3238 105.562Z" fill="#B1B9C6"/>
<path id="Vector_34" d="M88.8566 125.43C85.7455 125.43 82.6336 124.254 80.238 121.891C77.8825 119.568 76.5636 116.458 76.5257 113.134C76.4879 109.81 77.7357 106.67 80.0381 104.293C84.3153 99.8774 89.9825 100.515 95.5876 106.042C101.193 111.57 101.955 117.273 97.6789 121.689C95.2659 124.18 92.0616 125.43 88.8566 125.43ZM86.3891 104.993C84.3879 104.993 83.1803 106.241 82.6102 106.83C80.9793 108.514 80.0957 110.738 80.1222 113.093C80.1487 115.448 81.0822 117.65 82.7518 119.296C86.1968 122.694 91.7398 122.629 95.1061 119.153C99.3219 114.8 94.6193 110.163 93.0739 108.639C90.2437 105.848 88.045 104.993 86.3891 104.993Z" fill="#678490"/>
</g>
</g>
</svg>
