<svg width="223" height="147" viewBox="0 0 223 147" fill="none" xmlns="http://www.w3.org/2000/svg">
<path d="M219.7 84.8301C211.309 71.9678 194.551 66.7032 185.59 54.3573C183.602 51.6189 179.669 51.2319 177.164 53.5065L161.133 68.0633C159.09 69.9186 158.626 72.9985 160.134 75.3104C168.525 88.1727 185.284 93.4373 194.245 105.783C196.232 108.522 200.166 108.909 202.671 106.634L218.701 92.0772C220.743 90.222 221.208 87.1421 219.7 84.8301Z" fill="#89D770"/>
<path d="M179.012 66.1305C178.36 66.1305 177.709 65.8657 177.235 65.3443C176.344 64.3632 176.417 62.8454 177.399 61.9542L180.1 59.5018C181.082 58.6106 182.599 58.6843 183.49 59.6655C184.381 60.6466 184.307 62.1644 183.326 63.0556L180.625 65.508C180.165 65.9243 179.587 66.1305 179.012 66.1305Z" fill="#6DB850"/>
<path d="M200.319 99.8245C199.667 99.8245 199.016 99.5598 198.542 99.0384C197.651 98.0572 197.724 96.5395 198.705 95.6483L201.405 93.1958C202.387 92.3046 203.905 92.3774 204.795 93.3585C205.686 94.3397 205.613 95.8574 204.632 96.7487L201.932 99.2011C201.473 99.6184 200.895 99.8245 200.319 99.8245Z" fill="#6DB850"/>
<path d="M198.83 110.516C198.554 110.516 198.277 110.502 197.999 110.474C195.72 110.239 193.644 109.043 192.302 107.193C188.215 101.562 182.413 97.4885 176.269 93.1768C169.608 88.5013 162.72 83.6672 158.124 76.6222C155.972 73.323 156.559 68.976 159.52 66.2871L175.549 51.7303C177.253 50.1822 179.545 49.4284 181.834 49.6669C184.112 49.9023 186.189 51.0977 187.531 52.9479C191.618 58.5792 197.421 62.6524 203.564 66.9641C210.225 71.6396 217.112 76.4737 221.709 83.5187C223.861 86.8179 223.274 91.1649 220.312 93.8538L204.282 108.411C202.786 109.772 200.834 110.516 198.83 110.516ZM180.99 54.4232C180.17 54.4232 179.395 54.7223 178.777 55.2841L162.747 69.8409C161.559 70.9191 161.301 72.7066 162.143 74.0001C166.234 80.27 172.447 84.6312 179.025 89.2491C185.221 93.5982 191.628 98.0948 196.185 104.375C196.735 105.134 197.554 105.604 198.491 105.701C199.438 105.798 200.35 105.5 201.056 104.859L217.086 90.302C218.273 89.2238 218.532 87.4363 217.689 86.1429C213.598 79.8729 207.385 75.5117 200.806 70.8939C194.611 66.5448 188.204 62.0482 183.646 55.7681C183.097 55.0092 182.277 54.5394 181.34 54.4424C181.223 54.4292 181.106 54.4232 180.99 54.4232Z" fill="#6DB850"/>
<path d="M189.918 88.1941C187.764 88.1941 185.596 87.5827 183.81 86.3409C181.784 84.9302 180.539 82.8254 180.393 80.564C180.248 78.3258 181.192 76.1108 182.981 74.486C186.393 71.3869 192.122 71.0847 196.023 73.8009C198.049 75.2115 199.294 77.3173 199.44 79.5768C199.585 81.8139 198.642 84.0299 196.852 85.6547C195.002 87.3362 192.47 88.1941 189.918 88.1941ZM189.909 76.7424C188.523 76.7424 187.154 77.1799 186.209 78.0388C185.497 78.6855 185.133 79.4717 185.184 80.2538C185.236 81.0601 185.722 81.822 186.553 82.401C188.622 83.8409 191.861 83.7045 193.626 82.1019C194.337 81.4552 194.702 80.6681 194.652 79.886C194.6 79.0806 194.113 78.3177 193.282 77.7387C192.321 77.0708 191.108 76.7424 189.909 76.7424Z" fill="#6DB850"/>
<path d="M66.3916 118.133C52.434 111.726 35.4499 116.211 21.2861 110.545C18.1446 109.289 14.611 111.058 13.7046 114.318L7.90749 135.181C7.16884 137.84 8.41879 140.693 10.9268 141.844C24.8844 148.251 41.8685 143.766 56.0322 149.432C59.1738 150.688 62.7074 148.919 63.6138 145.658L69.4109 124.795C70.1496 122.136 68.8996 119.284 66.3916 118.133Z" fill="#89D770"/>
<path d="M20.7214 124.381C20.5092 124.381 20.2929 124.353 20.0777 124.294C18.8004 123.939 18.0527 122.615 18.4084 121.339L19.3855 117.825C19.7402 116.547 21.0619 115.8 22.3401 116.155C23.6174 116.51 24.3651 117.834 24.0094 119.11L23.0323 122.624C22.7372 123.686 21.7722 124.381 20.7214 124.381Z" fill="#6DB850"/>
<path d="M58.1277 152.234C57.1142 152.234 56.0996 152.043 55.1397 151.66C48.6787 149.075 41.5983 148.725 34.1017 148.354C25.9734 147.952 17.5683 147.534 9.92408 144.026C6.34398 142.383 4.52311 138.392 5.59421 134.539L11.3913 113.676C12.0077 111.458 13.5446 109.601 15.607 108.579C17.6592 107.563 20.0541 107.468 22.1771 108.317C28.637 110.901 35.7174 111.251 43.2151 111.623C51.3433 112.025 59.7474 112.443 67.3927 115.951C70.9728 117.594 72.7947 121.583 71.7225 125.438L65.9255 146.301C65.3101 148.518 63.7732 150.377 61.7108 151.397C60.5851 151.954 59.3574 152.234 58.1277 152.234ZM19.1851 112.538C18.6909 112.538 18.1988 112.653 17.7371 112.881C16.8822 113.303 16.2719 114.042 16.0162 114.961L10.2191 135.823C9.78969 137.368 10.5243 139.019 11.9268 139.663C18.7314 142.785 26.3129 143.161 34.3401 143.559C41.9005 143.934 49.7185 144.321 56.9232 147.203C57.7932 147.55 58.737 147.512 59.5807 147.095C60.4346 146.672 61.0449 145.934 61.3005 145.015L67.0986 124.152C67.5281 122.607 66.7935 120.957 65.3909 120.313C58.5864 117.19 51.0048 116.815 42.9776 116.417C35.4173 116.042 27.6003 115.655 20.3946 112.773C20.0005 112.616 19.5923 112.538 19.1851 112.538Z" fill="#6DB850"/>
<path d="M37.2789 138.559C37.1314 138.559 36.9849 138.556 36.8374 138.549C34.3718 138.436 32.1952 137.319 30.8655 135.484C29.5498 133.668 29.1669 131.291 29.8136 128.963C31.0473 124.52 35.7279 121.209 40.4811 121.427C42.9467 121.541 45.1232 122.657 46.452 124.491C47.7676 126.307 48.1516 128.684 47.5049 131.013C46.3085 135.317 41.8725 138.559 37.2789 138.559ZM40.0365 126.217C37.5861 126.217 35.0569 128.019 34.4385 130.248C34.1808 131.174 34.292 132.033 34.7527 132.668C35.2267 133.322 36.0451 133.708 37.0566 133.754C39.5838 133.87 42.2424 132.025 42.88 129.729C43.1376 128.803 43.0255 127.943 42.5657 127.307C42.0928 126.654 41.2743 126.269 40.2629 126.222C40.1871 126.218 40.1113 126.217 40.0365 126.217Z" fill="#6DB850"/>
<path d="M194.713 104.187C179.853 108.065 169.545 122.289 154.995 126.87C151.767 127.887 150.152 131.494 151.515 134.591L160.235 154.411C161.346 156.937 164.12 158.355 166.79 157.657C181.65 153.779 191.958 139.556 206.508 134.974C209.736 133.958 211.351 130.35 209.989 127.253L201.268 107.434C200.157 104.908 197.383 103.49 194.713 104.187Z" fill="#89D770"/>
<path d="M200.509 128.962C199.587 128.962 198.707 128.426 198.312 127.528L196.842 124.19C196.309 122.976 196.86 121.56 198.072 121.026C199.285 120.492 200.701 121.043 201.235 122.255L202.704 125.594C203.238 126.808 202.687 128.223 201.474 128.758C201.161 128.896 200.833 128.962 200.509 128.962Z" fill="#6DB850"/>
<path d="M165.385 160.238C162.272 160.238 159.367 158.393 158.039 155.377L149.319 135.557C148.391 133.451 148.404 131.04 149.355 128.944C150.301 126.858 152.093 125.268 154.274 124.581C160.911 122.491 166.614 118.279 172.651 113.821C179.198 108.987 185.969 103.988 194.107 101.864C197.919 100.87 201.855 102.806 203.465 106.467L212.185 126.286C213.112 128.393 213.099 130.804 212.148 132.901C211.202 134.987 209.409 136.577 207.229 137.263C200.592 139.353 194.889 143.564 188.85 148.023C182.304 152.857 175.534 157.856 167.395 159.98C166.726 160.154 166.05 160.238 165.385 160.238ZM195.318 106.509C188.074 108.4 181.968 112.909 175.502 117.683C169.413 122.18 163.116 126.829 155.715 129.159C154.821 129.441 154.114 130.068 153.725 130.925C153.331 131.793 153.326 132.751 153.71 133.624L162.431 153.444C163.076 154.912 164.689 155.724 166.183 155.335C173.428 153.445 179.534 148.936 186 144.162C192.09 139.665 198.386 135.016 205.788 132.685C206.682 132.403 207.389 131.776 207.777 130.918C208.171 130.05 208.176 129.091 207.792 128.219L199.071 108.4C198.426 106.933 196.815 106.118 195.318 106.509Z" fill="#6DB850"/>
<path d="M180.001 140.343C179.394 140.343 178.789 140.266 178.199 140.111C176.031 139.538 174.229 137.941 173.256 135.728C171.4 131.509 172.931 125.98 176.743 123.142C178.725 121.669 181.117 121.155 183.305 121.733C185.473 122.306 187.275 123.903 188.25 126.116C190.107 130.335 188.576 135.865 184.762 138.702C183.314 139.779 181.648 140.343 180.001 140.343ZM181.49 126.299C180.873 126.299 180.222 126.535 179.609 126.992C177.587 128.497 176.69 131.613 177.65 133.794C178.037 134.674 178.667 135.269 179.426 135.47C180.206 135.676 181.084 135.457 181.897 134.852C183.919 133.347 184.816 130.231 183.856 128.05C183.469 127.17 182.837 126.574 182.08 126.374C181.888 126.324 181.691 126.299 181.49 126.299Z" fill="#6DB850"/>
<path d="M134.031 2.44549C118.793 4.36033 106.725 17.1246 91.7027 19.7781C88.3711 20.3662 86.3007 23.7341 87.2495 26.9818L93.3225 47.7662C94.0965 50.4146 96.6631 52.1809 99.4005 51.8364C114.638 49.9215 126.706 37.1572 141.729 34.5037C145.061 33.9156 147.131 30.5477 146.182 27.3001L140.109 6.51567C139.335 3.86621 136.77 2.10091 134.031 2.44549Z" fill="#89D770"/>
<path d="M97.2501 32.1937C96.2113 32.1937 95.2534 31.5137 94.9472 30.4658L93.9246 26.9646C93.5527 25.6924 94.2833 24.3596 95.5545 23.9877C96.8287 23.6169 98.1605 24.3464 98.5313 25.6186L99.5539 29.1199C99.9258 30.3921 99.1952 31.7249 97.923 32.0967C97.6997 32.1624 97.4724 32.1937 97.2501 32.1937Z" fill="#6DB850"/>
<path d="M136.871 27.784C135.832 27.784 134.874 27.104 134.569 26.0561L133.545 22.5548C133.173 21.2827 133.904 19.9498 135.175 19.578C136.45 19.2061 137.78 19.9357 138.152 21.2089L139.175 24.7102C139.546 25.9824 138.816 27.3152 137.545 27.687C137.32 27.7517 137.094 27.784 136.871 27.784Z" fill="#6DB850"/>
<path d="M98.6989 54.2797C95.1825 54.2797 92.0439 51.9476 91.0183 48.4382L84.9464 27.6538C84.3007 25.4449 84.6271 23.0561 85.8417 21.1009C87.0502 19.1557 89.0348 17.8118 91.2851 17.4137C98.1371 16.2031 104.339 12.7685 110.905 9.13183C118.024 5.18897 125.386 1.11172 133.732 0.0628454C137.638 -0.428244 141.291 2.00194 142.413 5.84174L148.485 26.6261C149.131 28.836 148.804 31.2238 147.59 33.1791C146.381 35.1252 144.397 36.4681 142.146 36.8663C135.294 38.0768 129.092 41.5114 122.526 45.1481C115.407 49.091 108.046 53.1682 99.6993 54.2171C99.3638 54.2595 99.0293 54.2797 98.6989 54.2797ZM134.703 4.80297C134.58 4.80297 134.454 4.81004 134.33 4.82621C126.902 5.75989 120.261 9.43801 113.231 13.3314C106.609 16.9984 99.7619 20.7907 92.1207 22.1407C91.1982 22.3033 90.4161 22.8338 89.9189 23.6341C89.4157 24.4435 89.2864 25.3934 89.5541 26.3078L95.6261 47.0922C96.0757 48.6312 97.5672 49.6467 99.1011 49.4547C106.529 48.5211 113.17 44.8429 120.201 40.9496C126.822 37.2826 133.669 33.4903 141.312 32.1403C142.234 31.9776 143.015 31.4471 143.512 30.6468C144.016 29.8374 144.145 28.8876 143.877 27.9731L137.806 7.1887C137.392 5.77505 136.099 4.80297 134.703 4.80297Z" fill="#6DB850"/>
<path d="M115.701 36.4458C114.769 36.4458 113.852 36.271 112.991 35.9193C110.915 35.0695 109.336 33.2517 108.658 30.9316C107.365 26.5058 109.602 21.223 113.75 18.905C115.905 17.7015 118.343 17.5035 120.438 18.3603C122.514 19.2091 124.093 21.027 124.771 23.348C126.064 27.7729 123.827 33.0556 119.679 35.3747C118.41 36.086 117.041 36.4458 115.701 36.4458ZM117.722 22.6316C117.2 22.6316 116.644 22.7882 116.092 23.0954C113.891 24.3252 112.597 27.298 113.266 29.5857C113.536 30.5082 114.083 31.1802 114.809 31.4763C115.555 31.7824 116.454 31.6784 117.339 31.1852C119.54 29.9555 120.834 26.9827 120.165 24.695C119.895 23.7724 119.347 23.1005 118.621 22.8034C118.34 22.6882 118.037 22.6316 117.722 22.6316Z" fill="#6DB850"/>
<path d="M112.513 189.541C139.525 189.541 161.422 176.21 161.422 159.765C161.422 143.32 139.525 129.988 112.513 129.988C85.5013 129.988 63.604 143.32 63.604 159.765C63.604 176.21 85.5013 189.541 112.513 189.541Z" fill="#B1B9C6"/>
<path d="M178.994 35.1011C170.891 26.9981 145.079 41.7369 133.711 48.883C128.084 47.9473 120.826 47.5633 112.514 47.6007C104.201 47.5633 96.9428 47.9473 91.3155 48.884C79.9426 41.7329 54.1321 27.0042 46.0342 35.1021C37.9918 43.1445 47.174 65.2233 51.8899 75.0602C46.3131 84.4799 44.277 94.7948 44.277 103.678C44.277 111.359 45.1925 119.031 47.0325 126.702C50.6248 141.676 62.4635 153.174 77.5538 156.23C89.2076 158.587 100.861 159.764 112.514 159.764C124.167 159.764 135.822 158.586 147.474 156.23C162.565 153.174 174.404 141.676 177.996 126.702C179.836 119.031 180.751 111.358 180.751 103.678C180.751 94.7968 178.716 84.4839 173.142 75.0663C177.846 65.2385 187.04 43.1465 178.994 35.1011Z" fill="#B1B9C6"/>
<path d="M120.766 53.0821C120.766 65.7969 117.067 76.0977 112.52 76.0977C107.963 76.0977 104.264 65.7969 104.264 53.0821C104.264 51.3391 104.332 49.6455 104.468 48.0197C109.833 47.7761 115.197 47.7761 120.561 48.0288C120.697 49.6556 120.766 51.3492 120.766 53.0821Z" fill="#91A2B5"/>
<path d="M103.046 48.9058C103.046 61.6104 99.3561 71.9213 94.7998 71.9213C90.4184 71.9213 86.8171 62.3319 86.5635 50.2598C89.3968 49.5201 92.3272 48.9947 95.3253 48.6925C97.8959 48.4399 100.466 48.2348 103.036 48.0984C103.046 48.3702 103.046 48.6329 103.046 48.9058Z" fill="#91A2B5"/>
<path d="M138.465 50.1517C138.232 62.2723 134.629 71.9203 130.229 71.9203C125.673 71.9203 121.982 61.6105 121.982 48.9048C121.982 48.632 121.982 48.3693 121.993 48.0964C124.942 48.252 127.902 48.4956 130.852 48.8068C133.451 49.0806 135.992 49.5384 138.465 50.1517Z" fill="#91A2B5"/>
<path d="M169.502 54.6596C169.502 54.6596 170.816 57.6385 171.031 60.9781C171.235 64.0641 169.375 66.4205 166.942 67.4037C161.831 61.5915 155.522 56.8402 148.396 53.54C148.464 51.8657 149.165 50.2206 150.528 48.9838C156 44.0093 163.564 38.6447 168.919 40.8253C178.244 44.6327 169.502 54.6596 169.502 54.6596Z" fill="white"/>
<path d="M55.5194 54.6596C55.5194 54.6596 54.2048 57.6385 53.9906 60.9781C53.7865 64.0641 55.6457 66.4205 58.08 67.4037C63.1909 61.5915 69.5003 56.8402 76.6262 53.54C76.5585 51.8657 75.8572 50.2206 74.4941 48.9838C69.0224 44.0093 61.458 38.6447 56.1035 40.8253C46.7768 44.6327 55.5194 54.6596 55.5194 54.6596Z" fill="white"/>
<path d="M180.688 33.4014C172.233 24.9458 150.363 35.6578 133.195 46.3759C127.801 45.5605 120.886 45.1664 112.525 45.2007C104.151 45.1623 97.2268 45.5584 91.8278 46.3769C74.6528 35.6639 52.7771 24.9569 44.3336 33.4014C35.7456 41.9894 43.3999 62.6213 49.1778 74.9409C43.0109 85.9288 41.8771 97.0349 41.8771 103.677C41.8771 111.52 42.827 119.455 44.6984 127.261C48.4917 143.071 61.2004 155.365 77.0779 158.582C88.8338 160.958 100.756 162.163 112.514 162.163C124.272 162.163 136.195 160.958 147.951 158.581C163.828 155.364 176.537 143.07 180.33 127.26C182.202 119.454 183.151 111.519 183.151 103.676C183.151 97.0329 182.018 85.9288 175.852 74.9409C181.619 62.6182 189.264 41.9773 180.688 33.4014ZM175.663 126.143C172.304 140.145 161.052 151.032 147 153.878C135.556 156.192 123.954 157.364 112.514 157.364C101.075 157.364 89.4724 156.191 78.0298 153.878C63.9762 151.032 52.7256 140.144 49.3657 126.143C47.5812 118.702 46.6769 111.144 46.6769 103.678C46.6769 95.4202 48.5644 79.6598 61.2044 66.8915C62.1371 65.9498 62.129 64.43 61.1873 63.4973C60.2455 62.5647 58.7257 62.5717 57.7931 63.5145C55.6802 65.6496 53.8442 67.8585 52.2456 70.1018C44.9207 53.625 43.2079 41.3175 47.7288 36.7966C52.0799 32.4455 66.1648 36.6915 85.0425 47.8704C81.7494 48.8475 78.5866 50.0035 75.64 51.3282C74.4315 51.8719 73.8929 53.2926 74.4366 54.5011C74.9802 55.7106 76.4019 56.2482 77.6095 55.7056C80.6015 54.3596 83.834 53.1885 87.216 52.2255C92.5988 50.6977 101.103 49.9449 112.526 49.9995C123.928 49.9469 132.434 50.6977 137.814 52.2245C141.197 53.1875 144.431 54.3586 147.423 55.7046C147.743 55.8481 148.077 55.9168 148.406 55.9168C149.322 55.9168 150.197 55.3903 150.596 54.5011C151.14 53.2926 150.601 51.8719 149.392 51.3282C146.444 50.0015 143.278 48.8455 139.982 47.8674C158.852 36.6825 172.937 32.4385 177.296 36.7956C181.809 41.3094 180.099 53.6159 172.785 70.0998C171.186 67.8575 169.35 65.6476 167.237 63.5135C166.305 62.5707 164.785 62.5637 163.843 63.4963C162.901 64.429 162.893 65.9477 163.826 66.8905C176.466 79.6588 178.354 95.4192 178.354 103.677C178.352 111.144 177.447 118.702 175.663 126.143Z" fill="#678490"/>
<path d="M149.089 102.403C147.764 102.403 146.689 101.329 146.689 100.003C146.689 97.1064 144.332 94.749 141.435 94.749C138.537 94.749 136.179 97.1064 136.179 100.003C136.179 101.329 135.104 102.403 133.779 102.403C132.454 102.403 131.379 101.329 131.379 100.003C131.379 94.459 135.89 89.9492 141.435 89.9492C146.978 89.9492 151.489 94.46 151.489 100.003C151.489 101.329 150.415 102.403 149.089 102.403Z" fill="#605C5D"/>
<path d="M91.2501 102.403C89.9243 102.403 88.8502 101.329 88.8502 100.003C88.8502 97.1064 86.4928 94.749 83.5957 94.749C80.6977 94.749 78.3403 97.1064 78.3403 100.003C78.3403 101.329 77.2651 102.403 75.9404 102.403C74.6147 102.403 73.5405 101.329 73.5405 100.003C73.5405 94.459 78.0513 89.9492 83.5957 89.9492C89.1402 89.9492 93.6499 94.46 93.6499 100.003C93.6499 101.329 92.5758 102.403 91.2501 102.403Z" fill="#605C5D"/>
<path d="M160.807 113.5C160.7 113.5 160.592 113.493 160.482 113.478L145.286 111.42C143.973 111.242 143.052 110.032 143.23 108.719C143.408 107.405 144.614 106.485 145.93 106.662L161.125 108.721C162.439 108.899 163.36 110.108 163.182 111.422C163.019 112.626 161.989 113.5 160.807 113.5Z" fill="#91A2B5"/>
<path d="M64.223 113.5C63.0418 113.5 62.0121 112.628 61.8484 111.425C61.6696 110.111 62.5891 108.902 63.9017 108.723L78.9981 106.664C80.3128 106.487 81.5213 107.405 81.7001 108.718C81.88 110.031 80.9605 111.241 79.6469 111.42L64.5494 113.478C64.4403 113.492 64.3301 113.5 64.223 113.5Z" fill="#91A2B5"/>
<path d="M136.571 85.3105H130.226C128.9 85.3105 127.826 84.2364 127.826 82.9106C127.826 81.5849 128.9 80.5107 130.226 80.5107H136.571C137.896 80.5107 138.971 81.5849 138.971 82.9106C138.971 84.2364 137.896 85.3105 136.571 85.3105Z" fill="white"/>
<path d="M94.8037 85.3105H88.459C87.1342 85.3105 86.0591 84.2364 86.0591 82.9106C86.0591 81.5849 87.1342 80.5107 88.459 80.5107H94.8037C96.1294 80.5107 97.2036 81.5849 97.2036 82.9106C97.2036 84.2364 96.1294 85.3105 94.8037 85.3105Z" fill="white"/>
<path d="M132.19 106.634C137.073 106.634 140.525 111.468 138.882 116.067C137.728 119.298 135.997 122.254 133.815 124.807C128.682 130.812 121.051 134.616 112.526 134.616C104 134.616 96.3692 130.812 91.2128 124.807C89.0301 122.254 87.3002 119.298 86.1463 116.067C84.5042 111.469 87.956 106.634 92.8386 106.634H132.19Z" fill="#678490"/>
<path d="M133.816 124.807C128.683 130.811 121.052 134.616 112.527 134.616C104.001 134.616 96.3703 130.811 91.2139 124.807C96.3471 118.78 103.979 114.953 112.527 114.953C121.051 114.953 128.683 118.78 133.816 124.807Z" fill="#FD80A6"/>
<path d="M139.956 108.278C138.174 105.75 135.266 104.24 132.178 104.24H114.914V98.8486H115.912C117.236 98.8486 118.311 97.7744 118.311 96.4487C118.311 95.123 117.236 94.0488 115.912 94.0488H109.118C107.793 94.0488 106.718 95.123 106.718 96.4487C106.718 97.7744 107.793 98.8486 109.118 98.8486H110.114V104.24H92.8505C89.7625 104.24 86.8544 105.75 85.0729 108.278C83.2823 110.819 82.8519 113.947 83.8927 116.861C88.2003 128.921 99.7025 137.024 112.514 137.024C125.326 137.024 136.828 128.921 141.136 116.861C142.177 113.947 141.747 110.819 139.956 108.278ZM136.616 115.247C132.989 125.402 123.304 132.224 112.515 132.224C101.726 132.224 92.0401 125.402 88.4135 115.247C87.9042 113.823 88.1175 112.29 88.9966 111.043C89.8939 109.77 91.2984 109.04 92.8505 109.04H132.178C133.73 109.04 135.136 109.77 136.032 111.043C136.912 112.29 137.124 113.823 136.616 115.247Z" fill="#678490"/>
<path d="M103.717 164.369C86.1577 124.904 71.2512 102.179 60.0431 102.179C48.8349 102.179 37.9602 106.64 38.6938 113.358C39.5942 121.61 58.1778 120.632 58.1778 120.632C58.1778 120.632 66.5546 155.637 82.6787 177.381" fill="#B1B9C6"/>
<path d="M121.31 164.369C138.869 124.904 153.776 102.179 164.984 102.179C176.192 102.179 187.067 106.64 186.333 113.358C185.433 121.61 166.849 120.632 166.849 120.632C166.849 120.632 158.472 155.637 142.348 177.381" fill="#B1B9C6"/>
<path d="M75.1559 167.822C74.3041 167.822 73.4795 167.368 73.044 166.566C63.5051 148.981 57.9253 129.217 56.3207 123.08C50.9207 123.084 37.2531 122.291 36.3073 113.618C36.0415 111.18 36.861 108.822 38.6768 106.797C42.5005 102.534 50.8874 99.7793 60.0423 99.7793C72.0244 99.7793 86.5995 119.993 105.91 163.393C106.448 164.604 105.904 166.022 104.692 166.56C103.482 167.099 102.063 166.554 101.524 165.344C92.6138 145.316 84.5391 130.006 77.5234 119.836C68.8233 107.225 63.2151 104.578 60.0433 104.578C52.4314 104.578 45.1146 106.808 42.2509 110.001C41.3455 111.011 40.9625 112.023 41.0797 113.096C41.396 115.994 46.2412 117.231 49.1009 117.71C53.551 118.456 58.0102 118.237 58.0537 118.235C59.2117 118.175 60.2433 118.948 60.5121 120.073C60.5697 120.311 66.3547 144.167 77.2637 164.278C77.8953 165.443 77.4638 166.9 76.2977 167.531C75.935 167.73 75.5429 167.822 75.1559 167.822Z" fill="#678490"/>
<path d="M149.087 169.244C148.69 169.244 148.289 169.146 147.918 168.939C146.761 168.292 146.348 166.829 146.995 165.672C158.401 145.282 164.455 120.323 164.515 120.073C164.784 118.947 165.822 118.17 166.974 118.235C172.296 118.508 183.454 117.613 183.946 113.096C184.064 112.023 183.681 111.011 182.775 110.001C179.911 106.808 172.595 104.578 164.983 104.578C161.811 104.578 156.203 107.225 147.503 119.836C140.487 130.006 132.412 145.316 123.502 165.344C122.963 166.554 121.546 167.101 120.334 166.56C119.122 166.022 118.578 164.603 119.116 163.393C138.427 119.993 153.001 99.7793 164.983 99.7793C174.139 99.7793 182.526 102.534 186.348 106.798C188.164 108.823 188.984 111.181 188.718 113.619C187.783 122.184 174.441 123.081 168.904 123.081C168.837 123.081 168.769 123.081 168.704 123.081C167.055 129.392 161.208 150.095 151.183 168.016C150.744 168.802 149.928 169.244 149.087 169.244Z" fill="#678490"/>
<path d="M62.0988 54.984C48.5383 47.7743 31.3218 51.2604 17.5127 44.7782C14.45 43.3403 10.8184 44.9015 9.72401 48.1027L2.71942 68.592C1.82717 71.2031 2.90736 74.1244 5.34462 75.4198C18.9052 82.6295 36.1216 79.1434 49.9307 85.6255C52.9934 87.0634 56.6251 85.5023 57.7194 82.3001L64.724 61.8107C65.6163 59.2007 64.5351 56.2794 62.0988 54.984Z" fill="#89D770"/>
<path d="M16.2795 58.562C16.0218 58.562 15.7601 58.5205 15.5034 58.4326C14.2494 58.0042 13.5805 56.64 14.0089 55.385L15.1892 51.9333C15.6186 50.6793 16.9818 50.0093 18.2368 50.4388C19.4908 50.8672 20.1597 52.2314 19.7313 53.4864L18.551 56.9381C18.2095 57.9355 17.2778 58.562 16.2795 58.562Z" fill="#6DB850"/>
<path d="M51.2116 77.7732C50.9539 77.7732 50.6922 77.7318 50.4356 77.6439C49.1816 77.2155 48.5126 75.8503 48.9411 74.5963L50.1213 71.1445C50.5497 69.8905 51.9149 69.2216 53.1689 69.6501C54.4229 70.0785 55.0918 71.4436 54.6634 72.6976L53.4832 76.1494C53.1406 77.1457 52.2089 77.7732 51.2116 77.7732Z" fill="#6DB850"/>
<path d="M52.3314 88.56C51.1603 88.56 49.9912 88.3054 48.911 87.7981C42.6127 84.8415 35.5646 84.0786 28.1023 83.2702C20.0115 82.3941 11.6458 81.4877 4.21778 77.5388C0.739732 75.6896 -0.845699 71.6003 0.447706 67.815L7.4523 47.3257C8.19702 45.1471 9.83903 43.3828 11.959 42.4835C14.0668 41.5892 16.4627 41.6337 18.5321 42.6048C24.8314 45.5614 31.8795 46.3253 39.3418 47.1327C47.4326 48.0088 55.7983 48.9152 63.2263 52.8641C66.7044 54.7133 68.2898 58.8026 66.9954 62.5879L59.9908 83.0772C59.2461 85.2558 57.6041 87.0201 55.4841 87.9194C54.4766 88.3468 53.4025 88.56 52.3314 88.56ZM15.1137 46.6396C14.6812 46.6396 14.2487 46.7275 13.8334 46.9033C12.9563 47.2752 12.3026 47.9775 11.9944 48.8798L4.98978 69.3691C4.47141 70.8869 5.108 72.5774 6.47012 73.3019C13.0806 76.8163 20.6278 77.6338 28.6187 78.4988C36.1436 79.3142 43.9253 80.1569 50.9501 83.4541C51.7979 83.8522 52.7427 83.8694 53.6097 83.5016C54.4868 83.1298 55.1405 82.4275 55.4487 81.5251L62.4533 61.0358C62.9717 59.5181 62.3351 57.8275 60.973 57.103C54.3625 53.5886 46.8152 52.7711 38.8254 51.9052C31.3005 51.0907 23.5178 50.247 16.494 46.9498C16.0504 46.7437 15.5826 46.6396 15.1137 46.6396Z" fill="#6DB850"/>
<path d="M32.4191 73.6949C32.0806 73.6949 31.7421 73.6777 31.4036 73.6423C28.9492 73.3857 26.8413 72.1438 25.6207 70.235C24.4132 68.3454 24.1697 65.9496 24.9518 63.6629C26.4422 59.3007 31.3086 56.2693 36.0407 56.7634C38.4951 57.0201 40.603 58.2619 41.8226 60.1707C43.0301 62.0593 43.2746 64.4551 42.4936 66.7428C42.4936 66.7428 42.4936 66.7428 42.4936 66.7439C41.1082 70.7918 36.8096 73.6949 32.4191 73.6949ZM35.0201 61.5096C32.6617 61.5096 30.2113 63.1142 29.4928 65.215C29.1816 66.1244 29.2432 66.9894 29.6656 67.6502C30.1001 68.3303 30.8943 68.7638 31.9018 68.8689C34.4158 69.1306 37.1795 67.4461 37.9505 65.1908C38.2617 64.2803 38.2001 63.4154 37.7777 62.7545C37.3432 62.0745 36.5489 61.642 35.5415 61.5369C35.3687 61.5187 35.1939 61.5096 35.0201 61.5096Z" fill="#6DB850"/>
<path d="M109.78 67.1925C124.418 71.8377 140.724 65.305 155.476 69.1902C158.748 70.0522 162.038 67.8615 162.537 64.5148L165.731 43.0978C166.138 40.3685 164.548 37.6898 161.917 36.8551C147.28 32.21 130.974 38.7427 116.222 34.8584C112.95 33.9965 109.66 36.1872 109.161 39.5339L105.967 60.9508C105.559 63.6801 107.15 66.3579 109.78 67.1925Z" fill="#89D770"/>
<path d="M154.1 63.7789C153.982 63.7789 153.863 63.7698 153.743 63.7527C152.432 63.5566 151.528 62.336 151.724 61.0244L152.263 57.416C152.459 56.1054 153.677 55.2 154.99 55.3961C156.3 55.5921 157.205 56.8127 157.01 58.1243L156.471 61.7327C156.292 62.9231 155.269 63.7789 154.1 63.7789Z" fill="#6DB850"/>
<path d="M116.277 51.1837C116.159 51.1837 116.04 51.1747 115.92 51.1575C114.609 50.9625 113.705 49.7408 113.9 48.4292L114.439 44.8208C114.635 43.5102 115.853 42.6058 117.166 42.8009C118.476 42.9969 119.381 44.2176 119.185 45.5291L118.646 49.1375C118.469 50.3279 117.446 51.1837 116.277 51.1837Z" fill="#6DB850"/>
<path d="M156.909 71.775C156.224 71.775 155.537 71.6881 154.864 71.5103C148.135 69.7379 141.066 70.2583 133.58 70.809C125.465 71.4062 117.071 72.0236 109.053 69.4792C105.299 68.2879 103.002 64.5511 103.593 60.5951L106.787 39.1792C107.126 36.9026 108.423 34.8705 110.345 33.6044C112.258 32.3443 114.623 31.9553 116.833 32.5373C123.562 34.3097 130.632 33.7893 138.118 33.2386C146.234 32.6414 154.627 32.024 162.644 34.5684C166.399 35.7597 168.696 39.4965 168.104 43.4525L164.91 64.8684C164.571 67.145 163.274 69.1771 161.352 70.4432C160.023 71.3203 158.474 71.775 156.909 71.775ZM144.039 65.4939C148.085 65.4939 152.128 65.8263 156.087 66.8692C156.994 67.1086 157.926 66.954 158.711 66.4357C159.507 65.9112 160.023 65.1029 160.163 64.1611L163.357 42.7441C163.594 41.1577 162.663 39.6096 161.191 39.1428C154.055 36.8783 146.484 37.4351 138.469 38.0252C130.92 38.581 123.113 39.1559 115.61 37.1795C114.704 36.941 113.771 37.0946 112.986 37.613C112.19 38.1374 111.675 38.9458 111.534 39.8875L108.34 61.3045C108.104 62.8909 109.034 64.438 110.505 64.9058C117.64 67.1703 125.211 66.6135 133.227 66.0234C136.794 65.7607 140.417 65.4939 144.039 65.4939Z" fill="#6DB850"/>
<path d="M134.408 60.77C132.208 60.77 130.189 59.9384 128.789 58.4348C127.26 56.7948 126.588 54.4829 126.944 52.0911C127.624 47.5308 131.868 43.6708 136.607 43.304C139.064 43.114 141.364 43.9548 142.909 45.613C144.438 47.254 145.11 49.5659 144.752 51.9567C144.072 56.5159 139.828 60.376 135.09 60.7428C134.862 60.762 134.634 60.77 134.408 60.77ZM131.692 52.7984C131.551 53.7503 131.767 54.59 132.301 55.1629C132.851 55.753 133.714 56.036 134.72 55.9572C137.233 55.7621 139.655 53.6058 140.006 51.2483C140.149 50.2975 139.932 49.4578 139.398 48.8849C138.847 48.2937 137.991 48.0108 136.979 48.0896C134.464 48.2846 132.044 50.441 131.692 52.7984Z" fill="#6DB850"/>
<path d="M90.115 166.182C80.6054 154.123 63.4426 150.381 53.4116 138.888C51.1866 136.338 47.2346 136.305 44.9429 138.795L30.2819 154.73C28.4135 156.761 28.2266 159.87 29.9353 162.037C39.4449 174.096 56.6077 177.837 66.6387 189.33C68.8638 191.88 72.8157 191.913 75.1075 189.423L89.7684 173.488C91.6368 171.457 91.8237 168.348 90.115 166.182Z" fill="#89D770"/>
<path d="M47.6996 151.211C47.1186 151.211 46.5365 151.002 46.0758 150.578C45.1007 149.68 45.037 148.162 45.9343 147.187L48.4039 144.502C49.3022 143.527 50.821 143.463 51.795 144.36C52.7702 145.258 52.8338 146.776 51.9365 147.751L49.4669 150.436C48.993 150.951 48.3473 151.211 47.6996 151.211Z" fill="#6DB850"/>
<path d="M70.9061 193.667C70.8707 193.667 70.8354 193.667 70.8 193.666C68.5103 193.636 66.3337 192.631 64.8312 190.909C60.2557 185.666 54.1111 182.13 47.6066 178.385C40.5535 174.325 33.26 170.127 28.052 163.523C25.6127 160.43 25.8087 156.048 28.5168 153.105L43.1777 137.17C44.7359 135.476 46.9529 134.515 49.2517 134.552C51.5414 134.582 53.717 135.587 55.2206 137.309C59.796 142.551 65.9407 146.088 72.4451 149.832C79.4982 153.892 86.7917 158.089 92.0007 164.694C94.44 167.787 94.244 172.168 91.5359 175.112L76.875 191.047C75.3391 192.716 73.1696 193.667 70.9061 193.667ZM49.1426 139.351C48.2069 139.351 47.3449 139.729 46.7093 140.42L32.0484 156.356C30.9621 157.536 30.8651 159.339 31.82 160.552C36.4551 166.43 43.0353 170.217 50.0005 174.227C56.5615 178.003 63.3448 181.907 68.4476 187.754C69.064 188.46 69.9219 188.855 70.8637 188.867C71.8196 188.882 72.6967 188.501 73.3424 187.799L88.0033 171.864C89.0896 170.684 89.1876 168.88 88.2317 167.669C83.5956 161.79 77.0164 158.003 70.0502 153.994C63.4903 150.218 56.7059 146.313 51.6041 140.467C50.9877 139.761 50.1298 139.364 49.188 139.352C49.1729 139.351 49.1567 139.351 49.1426 139.351Z" fill="#6DB850"/>
<path d="M130.489 208.769C127.811 208.769 125.222 207.405 123.682 204.981L112.072 186.702C110.839 184.759 110.488 182.374 111.111 180.158C111.732 177.954 113.265 176.111 115.316 175.104C121.562 172.037 126.565 167.014 131.861 161.697C137.604 155.931 143.543 149.969 151.269 146.642C154.888 145.084 159.069 146.405 161.214 149.781L172.823 168.059C174.057 170.002 174.407 172.387 173.784 174.603C173.164 176.808 171.632 178.65 169.579 179.657C163.334 182.724 158.331 187.747 153.034 193.065C147.291 198.831 141.352 204.793 133.627 208.12C132.607 208.558 131.541 208.769 130.489 208.769ZM154.371 150.804C153.963 150.804 153.554 150.884 153.167 151.05C146.291 154.011 140.933 159.389 135.262 165.084C129.92 170.448 124.396 175.993 117.431 179.413C116.589 179.826 115.986 180.552 115.731 181.459C115.474 182.376 115.613 183.324 116.123 184.13L127.733 202.408C128.593 203.762 130.31 204.322 131.728 203.711C138.604 200.751 143.962 195.372 149.633 189.678C154.975 184.314 160.498 178.769 167.463 175.35C168.304 174.936 168.908 174.21 169.163 173.303C169.421 172.386 169.282 171.438 168.771 170.633L157.162 152.354C156.537 151.369 155.458 150.804 154.371 150.804Z" fill="#6DB850"/>
</svg>
