<svg width="157" height="10" viewBox="0 0 157 10" fill="none" xmlns="http://www.w3.org/2000/svg">
<path d="M146.733 -2.73285e-07H10.2674C4.59736 -2.73285e-07 0 -2.73285e-07 0 -2.73285e-07V9.57149C0 9.80813 4.59636 10 10.2674 10H146.733C152.403 10 157 9.80817 157 9.57149V-2.73285e-07C157 -2.73285e-07 152.404 -2.73285e-07 146.733 -2.73285e-07Z" fill="#4C6C9B"/>
<path d="M147.408 -2.38419e-07H10.5919C6.3987 -2.38419e-07 3 -2.38419e-07 3 -2.38419e-07V9.4389C3 9.74881 6.3987 10 10.5919 10H147.408C151.601 10 155 9.74881 155 9.4389V-2.38419e-07C155 -2.38419e-07 151.601 -2.38419e-07 147.408 -2.38419e-07Z" fill="#464747"/>
</svg>
