<svg width="157" height="20" viewBox="0 0 157 20" fill="none" xmlns="http://www.w3.org/2000/svg">
<path d="M146.733 0H10.2674C4.59736 0 0 0 0 0V13.4097C0 13.7412 4.59636 14.01 10.2674 14.01H146.733C152.403 14.01 157 13.7413 157 13.4097V0C157 0 152.404 0 146.733 0Z" fill="#4C6C9B"/>
<path d="M147.408 0H10.5919C6.3987 0 3 0 3 0V18.8778C3 19.4976 6.3987 20 10.5919 20H147.408C151.601 20 155 19.4976 155 18.8778V0C155 0 151.601 0 147.408 0Z" fill="#464747"/>
<path d="M149.085 8.00011H7.91481C6.857 8.00011 6 8.6061 6 9.3541V13.0271C6 13.7751 6.857 14.3811 7.91481 14.3811H149.085C150.143 14.3811 151 13.7751 151 13.0271V9.3541C151 8.6061 150.143 8.00011 149.085 8.00011Z" fill="#323333"/>
</svg>
