<svg width="32" height="33" viewBox="0 0 32 33" fill="none" xmlns="http://www.w3.org/2000/svg">
<g id="vuesax/bold/tick-circle">
<g id="tick-circle">
<path id="Vector" d="M15.9998 3.16675C8.65317 3.16675 2.6665 9.15341 2.6665 16.5001C2.6665 23.8467 8.65317 29.8334 15.9998 29.8334C23.3465 29.8334 29.3332 23.8467 29.3332 16.5001C29.3332 9.15341 23.3465 3.16675 15.9998 3.16675ZM22.3732 13.4334L14.8132 20.9934C14.6265 21.1801 14.3732 21.2867 14.1065 21.2867C13.8398 21.2867 13.5865 21.1801 13.3998 20.9934L9.6265 17.2201C9.23984 16.8334 9.23984 16.1934 9.6265 15.8067C10.0132 15.4201 10.6532 15.4201 11.0398 15.8067L14.1065 18.8734L20.9598 12.0201C21.3465 11.6334 21.9865 11.6334 22.3732 12.0201C22.7598 12.4067 22.7598 13.0334 22.3732 13.4334Z" fill="#23A26D"/>
</g>
</g>
</svg>
