<svg width="121" height="121" viewBox="0 0 121 121" fill="none" xmlns="http://www.w3.org/2000/svg">
<g clip-path="url(#clip0_2_6425)">
<circle cx="60.0218" cy="60.0173" r="60.0023" fill="#D9D9D9"/>
<path d="M60.879 132.02C79.4619 132.02 94.5263 125.699 94.5263 117.902C94.5263 110.105 79.4619 103.785 60.879 103.785C42.2961 103.785 27.2317 110.105 27.2317 117.902C27.2317 125.699 42.2961 132.02 60.879 132.02Z" fill="#D4AFB7"/>
<path d="M93.7897 92.1087C87.2031 92.1087 77.6951 89.1633 74.8045 81.7487L46.9543 81.6666C44.0637 89.0813 34.5557 92.0267 27.9691 92.0267C21.3825 92.0267 19.6291 95.3654 20.8667 98.3601C22.8826 103.238 35.1525 106.681 45.4685 99.9422C45.3198 100.484 45.2378 101.039 45.2378 101.606C45.2378 101.621 45.2393 101.636 45.2398 101.651C36.8183 102.207 34.002 107.98 35.2448 111.039C36.5312 114.204 41.2828 117.635 47.1681 120.501C46.6246 121.625 46.477 122.812 46.8794 124.052C48.0381 127.62 54.4038 127.629 61.7272 125.736C69.5709 127.617 76.3749 127.601 77.5321 124.039C78.0212 122.533 77.6177 121.104 76.6241 119.773C81.4886 117.064 85.3343 113.94 86.513 111.039C87.6937 108.133 85.2092 102.775 77.7336 101.772C77.7351 101.717 77.7402 101.662 77.7402 101.607C77.7402 101.36 77.7207 101.117 77.692 100.875C87.6886 106.452 98.9654 103.101 100.891 98.4421C102.13 95.4474 100.376 92.1087 93.7897 92.1087Z" fill="#B1B9C6"/>
<path d="M101.668 93.9374C100.734 92.5414 98.6096 90.8777 93.7897 90.8777C90.3157 90.8777 86.5402 90.045 83.4322 88.5936C80.8456 87.3857 77.4485 85.1401 75.9514 81.3015C75.7043 80.6678 74.9912 80.3551 74.3575 80.6017C73.7243 80.8488 73.411 81.5625 73.6576 82.1956C76.6431 89.8523 86.1864 93.3396 93.7897 93.3396C96.7023 93.3396 98.7731 94.0379 99.6211 95.3063C100.285 96.2989 99.9892 97.4022 99.7544 97.9719C98.989 99.8237 96.2086 101.476 92.671 102.181C90.085 102.696 81.0379 103.768 73.1972 95.9272C72.7163 95.4463 71.937 95.4463 71.4566 95.9272C70.9757 96.4076 70.9757 97.1874 71.4566 97.6678C72.4589 98.6702 73.5269 99.5756 74.6466 100.383C72.3046 100.436 69.7575 100.839 67.0274 101.594C66.3722 101.776 65.9877 102.453 66.1692 103.109C66.3502 103.764 67.0285 104.148 67.6837 103.967C78.2083 101.056 82.657 104.463 84.0813 106.063C85.564 107.728 85.7988 109.53 85.3738 110.575C84.1274 113.642 78.9389 117.565 71.8324 120.815C64.7977 124.031 57.4723 125.927 52.7134 125.752C50.8728 125.686 48.5703 125.271 48.051 123.672C47.7428 122.725 47.8556 121.787 48.3945 120.804C51.1087 115.856 63.397 111.745 67.9026 110.579C68.5609 110.409 68.9562 109.737 68.786 109.079C68.6158 108.421 67.9451 108.026 67.2863 108.196C67.15 108.231 64.5752 108.902 61.2293 110.107C57.4533 108.889 54.5684 108.216 54.4433 108.187C53.7814 108.033 53.12 108.446 52.9662 109.108C52.8124 109.77 53.2251 110.431 53.887 110.585C53.908 110.59 55.3687 110.931 57.5318 111.553C52.1018 113.862 48.4632 116.324 46.6918 118.886C41.1224 116.049 37.3894 113.047 36.3845 110.574C35.9595 109.529 36.1948 107.728 37.677 106.063C39.1013 104.463 43.55 101.056 54.0762 103.968C54.7314 104.149 55.4097 103.765 55.5907 103.11C55.7722 102.454 55.3877 101.776 54.7324 101.595C51.9685 100.83 49.3665 100.434 46.9871 100.392C48.1525 99.5628 49.2625 98.6261 50.3022 97.5863C50.7831 97.1059 50.7831 96.3261 50.3022 95.8457C49.8213 95.3648 49.042 95.3648 48.5611 95.8457C40.7199 103.686 31.6728 102.614 29.0873 102.099C25.5497 101.394 22.7693 99.7422 22.0039 97.8903C21.7686 97.3207 21.4732 96.2179 22.1372 95.2248C22.9852 93.9564 25.0565 93.2581 27.9686 93.2581C35.5724 93.2581 45.1153 89.7708 48.1007 82.1146C48.3473 81.481 48.0345 80.7678 47.4009 80.5207C46.7666 80.2735 46.0535 80.5868 45.8069 81.2205C44.3103 85.0591 40.9127 87.3047 38.3261 88.5126C35.2176 89.964 31.4426 90.7967 27.9686 90.7967C23.1487 90.7967 21.0241 92.4609 20.0905 93.8564C19.141 95.2766 19.0092 97.0895 19.7285 98.8306C20.816 101.462 24.2177 103.639 28.6059 104.514C30.0707 104.806 31.5488 104.949 33.0238 104.949C33.8559 104.949 34.687 104.901 35.514 104.812C33.8415 106.909 33.2848 109.489 34.1025 111.501C35.7267 115.498 41.6366 119.073 45.6249 121.106C45.3214 122.211 45.3485 123.325 45.7084 124.433C46.2381 126.063 47.8674 128.041 52.6237 128.212C52.8457 128.22 53.0723 128.224 53.303 128.224C55.746 128.224 58.6556 127.78 61.7359 127.004C65.4642 127.881 68.3897 128.233 70.6804 128.233C76.3924 128.233 78.173 126.053 78.7036 124.418C79.1614 123.004 79.0363 121.592 78.3386 120.205C82.9005 117.508 86.4607 114.438 87.6532 111.502C88.4597 109.517 87.9296 106.983 86.3125 104.902C87.1164 104.987 87.9244 105.031 88.7335 105.031C90.2085 105.031 91.6871 104.888 93.1514 104.596C97.5396 103.721 100.941 101.544 102.029 98.9126C102.749 97.171 102.617 95.3576 101.668 93.9374ZM76.3626 123.659C75.7438 125.564 72.1682 126.191 66.8526 125.466C70.0534 124.354 73.2649 122.965 76.1868 121.411C76.5436 122.178 76.6015 122.921 76.3626 123.659Z" fill="#678490"/>
<path d="M96.4987 21.3825C92.1571 17.0415 78.3276 24.938 72.2363 28.7663C69.2216 28.2649 65.3328 28.0593 60.8795 28.0793C56.4257 28.0593 52.5364 28.2654 49.5212 28.7669C43.4278 24.9355 29.5993 17.044 25.2604 21.383C20.9517 25.6917 25.8715 37.5212 28.3976 42.7917C25.4096 47.8387 24.3186 53.3656 24.3186 58.1249C24.3186 62.2403 24.8087 66.3512 25.7946 70.4615C27.7193 78.4841 34.0624 84.6442 42.1476 86.2823C48.3912 87.5445 54.6354 88.1757 60.879 88.1757C67.1226 88.1757 73.3668 87.5445 79.6104 86.2823C87.6956 84.6442 94.0382 78.4841 95.9634 70.4615C96.9493 66.3512 97.4394 62.2409 97.4394 58.1249C97.4394 53.3666 96.3489 47.8412 93.363 42.7953C95.8834 37.5294 100.809 25.6927 96.4987 21.3825Z" fill="#B1B9C6"/>
<path d="M65.3006 31.0165C65.3006 37.8287 63.3185 43.3474 60.8821 43.3474C58.4412 43.3474 56.4591 37.8287 56.4591 31.0165C56.4591 30.0829 56.4955 29.1754 56.5688 28.3043C59.443 28.1741 62.3172 28.1741 65.1914 28.3094C65.2642 29.1805 65.3006 30.088 65.3006 31.0165Z" fill="#91A2B5"/>
<path d="M55.8069 28.7783C55.8069 35.5854 53.83 41.1092 51.3885 41.1092C49.0414 41.1092 47.1111 35.9715 46.9757 29.5033C48.4938 29.107 50.0637 28.8255 51.6705 28.6635C53.0476 28.5281 54.4247 28.4184 55.8018 28.3451C55.8069 28.4917 55.8069 28.6322 55.8069 28.7783Z" fill="#91A2B5"/>
<path d="M74.7835 29.4463C74.6584 35.9407 72.7281 41.1097 70.3707 41.1097C67.9297 41.1097 65.9528 35.5859 65.9528 28.7788C65.9528 28.6327 65.9528 28.4917 65.9579 28.3456C67.5385 28.4292 69.1243 28.5594 70.7044 28.7265C72.0974 28.8721 73.4586 29.1177 74.7835 29.4463Z" fill="#91A2B5"/>
<path d="M91.4127 31.8617C91.4127 31.8617 92.1172 33.4577 92.2315 35.247C92.3412 36.9005 91.3445 38.1627 90.0407 38.6898C87.3024 35.5757 83.9222 33.0301 80.1036 31.2618C80.14 30.3646 80.5159 29.4833 81.2459 28.8209C84.1775 26.1554 88.2304 23.2812 91.0995 24.4496C96.0967 26.4891 91.4127 31.8617 91.4127 31.8617Z" fill="white"/>
<path d="M30.3428 31.8617C30.3428 31.8617 29.6384 33.4577 29.524 35.247C29.4143 36.9005 30.411 38.1627 31.7148 38.6898C34.4531 35.5757 37.8333 33.0301 41.6519 31.2618C41.6155 30.3646 41.2397 29.4833 40.5096 28.8209C37.578 26.1554 33.5251 23.2812 30.6561 24.4496C25.6588 26.4891 30.3428 31.8617 30.3428 31.8617Z" fill="white"/>
<path d="M97.3673 20.5109C95.072 18.2155 90.8848 18.3319 84.5658 20.8667C79.9951 22.7001 75.2649 25.4266 71.9744 27.4794C69.0828 27.039 65.3709 26.8242 60.8858 26.8478C56.3905 26.8263 52.6765 27.0401 49.7839 27.4805C46.4877 25.4256 41.7525 22.697 37.1889 20.8661C30.871 18.3319 26.6843 18.215 24.3889 20.5103C19.8054 25.0939 23.9167 36.1456 27.0073 42.7296C23.6968 48.6144 23.0887 54.5663 23.0887 58.1239C23.0887 62.3223 23.5968 66.5695 24.5986 70.7475C26.6263 79.1978 33.4191 85.7685 41.9047 87.4876C48.1996 88.7601 54.5817 89.4051 60.8766 89.4051C60.8776 89.4051 60.8797 89.4051 60.8797 89.4051C67.1766 89.4051 73.5612 88.7601 79.8556 87.4871C88.3408 85.768 95.1335 79.1973 97.1612 70.747C98.1635 66.569 98.6716 62.3218 98.6716 58.1234C98.6716 54.5657 98.0635 48.6144 94.7536 42.7296C97.839 36.1445 101.945 25.0882 97.3673 20.5109ZM94.7669 70.1738C92.9622 77.6966 86.917 83.546 79.367 85.0753C73.2331 86.3155 67.0131 86.9441 60.8797 86.9441C60.8786 86.9441 60.8776 86.9441 60.8766 86.9441C54.7457 86.9441 48.5262 86.315 42.3928 85.0753C34.8423 83.546 28.7976 77.6966 26.9924 70.1738C26.0352 66.184 25.5502 62.1301 25.5502 58.1249C25.5502 53.6921 26.5633 45.2316 33.3493 38.3763C33.8277 37.8933 33.8236 37.114 33.3406 36.6352C32.8577 36.1573 32.0784 36.1604 31.6 36.6439C30.4454 37.8103 29.4446 39.0177 28.5767 40.2436C24.6104 31.3498 23.683 24.6975 26.1295 22.2509C28.4864 19.8946 36.1036 22.1894 46.295 28.2398C44.4903 28.7694 42.7573 29.401 41.1449 30.126C40.5251 30.4049 40.2482 31.1334 40.5276 31.7538C40.8065 32.3736 41.5351 32.6505 42.1549 32.3711C43.7612 31.6487 45.4957 31.0206 47.3096 30.5044C50.1986 29.684 54.7622 29.2795 60.8853 29.3098C66.9982 29.2821 71.5617 29.6845 74.4492 30.5044C76.2642 31.0206 77.9986 31.6492 79.6049 32.3716C79.769 32.4454 79.9402 32.4803 80.1089 32.4803C80.5785 32.4803 81.0271 32.2101 81.2322 31.7543C81.5111 31.1345 81.2348 30.4054 80.6149 30.1265C79.0015 29.4005 77.2675 28.7694 75.4608 28.2387C85.6491 22.1853 93.2657 19.8905 95.6267 22.2515C98.0692 24.6939 97.1433 31.3462 93.1832 40.2436C92.3152 39.0177 91.3144 37.8103 90.1603 36.6444C89.682 36.1609 88.9027 36.1573 88.4197 36.6357C87.9362 37.114 87.9326 37.8933 88.411 38.3768C95.1971 45.2321 96.2101 53.6921 96.2101 58.1254C96.2091 62.1296 95.7241 66.184 94.7669 70.1738Z" fill="#678490"/>
<path d="M76.3744 69.3129C73.4341 69.3129 71.0424 66.9212 71.0424 63.9804C71.0424 63.3005 71.5935 62.7494 72.2733 62.7494C72.9532 62.7494 73.5043 63.3005 73.5043 63.9804C73.5043 65.5631 74.7917 66.851 76.3744 66.851C77.9571 66.851 79.2445 65.5636 79.2445 63.9804C79.2445 63.3005 79.7956 62.7494 80.4755 62.7494C81.1553 62.7494 81.7065 63.3005 81.7065 63.9804C81.7065 66.9207 79.3147 69.3129 76.3744 69.3129Z" fill="#605C5D"/>
<path d="M45.385 69.3129C42.4447 69.3129 40.053 66.9212 40.053 63.9804C40.053 63.3005 40.6041 62.7494 41.284 62.7494C41.9638 62.7494 42.5149 63.3005 42.5149 63.9804C42.5149 65.5631 43.8023 66.851 45.385 66.851C46.9677 66.851 48.2551 65.5636 48.2551 63.9804C48.2551 63.3005 48.8063 62.7494 49.4861 62.7494C50.1659 62.7494 50.7171 63.3005 50.7171 63.9804C50.7171 66.9207 48.3253 69.3129 45.385 69.3129Z" fill="#605C5D"/>
<path d="M86.7522 72.3486H80.2717C79.5304 72.3486 78.929 71.7472 78.929 71.0058C78.929 70.264 79.5304 69.6631 80.2717 69.6631H86.7522C87.4936 69.6631 88.095 70.2645 88.095 71.0058C88.095 71.7472 87.4936 72.3486 86.7522 72.3486Z" fill="#91A2B5"/>
<path d="M85.5735 78.4362C85.4187 78.4362 85.2613 78.409 85.1069 78.3521L79.8046 76.3884C79.1089 76.1306 78.7541 75.3579 79.012 74.6627C79.2699 73.967 80.042 73.6127 80.7377 73.8696L86.0401 75.8332C86.7353 76.0911 87.0906 76.8637 86.8327 77.5589C86.6322 78.1009 86.119 78.4362 85.5735 78.4362Z" fill="#91A2B5"/>
<path d="M41.4879 72.3486H35.0074C34.2661 72.3486 33.6647 71.7472 33.6647 71.0058C33.6647 70.264 34.2661 69.6631 35.0074 69.6631H41.4879C42.2293 69.6631 42.8307 70.2645 42.8307 71.0058C42.8307 71.7472 42.2293 72.3486 41.4879 72.3486Z" fill="#91A2B5"/>
<path d="M36.1855 78.4364C35.6399 78.4364 35.1267 78.1011 34.9263 77.5597C34.6689 76.8639 35.0237 76.0918 35.7194 75.8339L41.0212 73.8703C41.7164 73.6134 42.4896 73.9677 42.747 74.6634C43.0043 75.3592 42.6495 76.1318 41.9538 76.3892L36.6515 78.3528C36.4982 78.4097 36.3408 78.4364 36.1855 78.4364Z" fill="#91A2B5"/>
<path d="M73.7683 56.053H70.3686C69.6887 56.053 69.1376 55.5019 69.1376 54.8221C69.1376 54.1422 69.6887 53.5911 70.3686 53.5911H73.7683C74.4481 53.5911 74.9992 54.1422 74.9992 54.8221C74.9992 55.5019 74.4481 56.053 73.7683 56.053Z" fill="white"/>
<path d="M51.3905 56.053H47.9908C47.3109 56.053 46.7598 55.5019 46.7598 54.8221C46.7598 54.1422 47.3109 53.5911 47.9908 53.5911H51.3905C52.0703 53.5911 52.6214 54.1422 52.6214 54.8221C52.6214 55.5019 52.0703 56.053 51.3905 56.053Z" fill="white"/>
<path d="M68.0602 66.34C67.4004 66.1754 66.7323 66.5748 66.5667 67.2341C66.3145 68.239 65.4132 68.9409 64.3744 68.9409C63.1265 68.9409 62.1109 67.9263 62.1109 66.6794C62.1109 66.6784 62.1109 66.6768 62.1109 66.6768H62.7C63.3798 66.6768 63.931 66.1257 63.931 65.4458C63.931 64.766 63.3798 64.2148 62.7 64.2148H59.0598C58.38 64.2148 57.8288 64.766 57.8288 65.4458C57.8288 66.1257 58.38 66.6768 59.0598 66.6768H59.6489C59.6489 66.6778 59.6489 66.6794 59.6489 66.6794C59.6489 67.9263 58.6343 68.9409 57.3874 68.9409C56.3477 68.9409 55.4453 68.239 55.1931 67.2341C55.0275 66.5748 54.3599 66.1754 53.6996 66.34C53.0402 66.5056 52.6398 67.1741 52.8054 67.8335C53.333 69.935 55.2172 71.4029 57.3879 71.4029C58.7707 71.4029 60.016 70.8061 60.8809 69.8561C61.7458 70.8061 62.9922 71.4029 64.3755 71.4029C66.5447 71.4029 68.4278 69.935 68.9559 67.8335C69.12 67.1747 68.7196 66.5056 68.0602 66.34Z" fill="#678490"/>
<circle cx="60.0218" cy="60.0173" r="58.2879" stroke="black" stroke-width="3.4287"/>
<circle cx="60.0218" cy="60.0173" r="54.8592" stroke="white" stroke-width="3.4287"/>
</g>
<defs>
<clipPath id="clip0_2_6425">
<rect x="0.0195312" y="0.0150146" width="120.005" height="120.005" rx="60.0023" fill="white"/>
</clipPath>
</defs>
</svg>
