<svg width="120" height="121" viewBox="0 0 120 121" fill="none" xmlns="http://www.w3.org/2000/svg">
<g clip-path="url(#clip0_138_1318)">
<circle cx="60.0068" cy="60.0413" r="60.0023" fill="#D9D9D9"/>
<path d="M101.929 66.9277C101.822 62.3987 101.201 58.0059 100.071 53.7418C98.7644 48.8124 96.1177 43.3872 91.6383 38.9801C92.8032 32.8332 94.6557 19.2178 89.0064 15.9361C83.3169 12.6308 71.158 24.609 65.8986 30.2478C62.6373 30.556 58.5527 31.4108 53.9445 32.6543C49.3246 33.857 45.3521 35.1382 42.3662 36.4851C35.0017 34.1894 18.5082 29.8114 15.2048 35.4972C11.9242 41.1447 20.2691 52.0484 24.3339 56.815C22.6243 62.8635 23.0118 68.8891 24.3184 73.8198C25.4486 78.0833 27.0852 82.2074 29.2355 86.1948C33.1498 93.4534 40.6015 97.9768 48.7477 98.1284C48.7465 98.3463 48.7452 98.5642 48.7452 98.7827C48.7452 109.307 50.3236 117.094 64.7411 117.094C79.1587 117.094 90.8466 108.562 90.8466 98.0381C90.8466 94.6412 89.6279 91.4529 87.4937 88.6911C88.1083 88.4026 88.7217 88.1093 89.3326 87.8072C97.2585 83.891 102.138 75.7671 101.929 66.9277Z" fill="#B1B9C6"/>
<path d="M59.3308 34.4838C61.2013 41.5412 60.6634 47.8027 58.1399 48.4718C55.6108 49.1421 52.0418 43.9688 50.1713 36.9114C49.9151 35.9439 49.7034 34.9938 49.54 34.0716C52.4819 33.1475 55.4591 32.3583 58.4741 31.709C58.7892 32.5916 59.0758 33.5219 59.3308 34.4838Z" fill="#91A2B5"/>
<path d="M48.8814 34.7723C50.7507 41.8242 50.219 48.09 47.6905 48.7603C45.2586 49.4047 41.8487 44.612 39.9318 37.9483C41.3956 37.1207 42.9449 36.3977 44.5647 35.7893C45.9543 35.2706 47.3507 34.7791 48.757 34.3254C48.8028 34.4752 48.8412 34.6207 48.8814 34.7723Z" fill="#91A2B5"/>
<path d="M68.7242 30.2529C70.3774 37.0151 69.7975 42.9002 67.3551 43.5477C64.826 44.218 61.2607 39.0385 59.3921 31.986C59.3518 31.835 59.3135 31.6889 59.2788 31.536C60.9389 31.1882 62.6175 30.888 64.3011 30.6268C65.7835 30.3959 67.261 30.2765 68.7242 30.2529Z" fill="#91A2B5"/>
<path d="M86.6154 28.1889C86.6154 28.1889 87.7834 29.649 88.3937 31.4712C88.9613 33.1542 88.2754 34.7357 87.0697 35.6394C83.3776 33.1654 79.1767 31.4564 74.7356 30.6728C74.527 29.7332 74.6743 28.7169 75.2487 27.8299C77.5537 24.2634 80.9636 20.1727 84.2565 20.5954C89.9925 21.3369 86.6154 28.1889 86.6154 28.1889Z" fill="white"/>
<path d="M23.3472 44.9585C23.3472 44.9585 23.0557 46.8055 23.4283 48.6903C23.7687 50.4333 25.1478 51.4676 26.6432 51.6551C28.6251 47.677 31.4278 44.1118 34.8984 41.2311C34.6143 40.3113 33.9829 39.5017 33.0446 39.0158C29.2757 37.0593 24.2874 35.195 21.6364 37.193C17.0196 40.679 23.3472 44.9585 23.3472 44.9585Z" fill="white"/>
<path d="M103.399 66.8923C103.29 62.2773 102.648 57.726 101.492 53.3648C100.514 49.6757 98.2519 43.6805 93.2216 38.4818C93.8146 35.1839 94.4342 30.6308 94.3432 26.3494C94.2144 20.2941 92.6664 16.3624 89.7418 14.6634C83.7601 11.1885 73.1739 20.3504 65.2004 28.8414C62.0864 29.1843 58.1931 29.9846 53.5732 31.2312C48.9315 32.4394 45.1528 33.6749 42.2758 34.9202C31.1406 31.4967 17.4021 28.7819 13.9303 34.7581C10.4059 40.8245 17.6757 51.1594 22.7091 57.172C20.9141 64.18 21.9187 70.5083 22.8966 74.1973C24.0529 78.5585 25.7494 82.83 27.9406 86.8935C32.1644 94.7259 40.3985 99.6052 49.1989 99.6046C49.6669 99.6046 50.1379 99.5909 50.6083 99.5625C55.7383 99.2561 60.8429 98.5734 65.7792 97.5329C66.5733 97.3651 67.0821 96.5853 66.9143 95.7911C66.7472 94.9964 65.9679 94.4882 65.1726 94.6553C60.3781 95.6661 55.4189 96.329 50.4338 96.6267C42.2455 97.112 34.4366 92.7433 30.5291 85.4971C28.4481 81.6372 26.8363 77.5818 25.7395 73.4434C24.5282 68.8736 23.2606 59.8751 28.3819 50.957C28.7861 50.2526 28.5435 49.3545 27.8391 48.9497C27.1347 48.5461 26.2366 48.7882 25.8318 49.4925C24.9999 50.9409 24.324 52.3905 23.7749 53.8247C18.6159 47.3404 14.3803 39.8379 16.4736 36.2349C18.2166 33.2342 26.5324 33.5127 38.5001 36.8749C36.8809 37.8721 35.3583 38.9472 33.9656 40.0768C33.3355 40.5887 33.2389 41.5147 33.7502 42.1448C34.0405 42.5032 34.4651 42.6882 34.8928 42.6882C35.2184 42.6882 35.5464 42.5805 35.8188 42.3596C37.2789 41.1743 38.8975 40.0515 40.6287 39.0221C43.3838 37.3868 47.9882 35.7224 54.3271 34.0722C60.6387 32.3695 65.466 31.5376 68.6654 31.5902C70.6807 31.6267 72.6429 31.8006 74.4973 32.107C75.2988 32.2401 76.0552 31.6973 76.1877 30.8963C76.3201 30.0954 75.7779 29.3384 74.9764 29.2066C73.2055 28.9138 71.3449 28.7405 69.4403 28.6767C78.1696 19.8218 85.258 15.4593 88.2649 17.2054C91.3845 19.0178 92.2362 26.0028 90.6417 36.1037C89.4533 35.1288 88.1473 34.2041 86.7064 33.3567C86.0063 32.9451 85.1051 33.1791 84.6941 33.8791C84.2825 34.5792 84.5165 35.4804 85.2165 35.892C94.0832 41.1031 97.4386 49.5476 98.6499 54.1181C99.7467 58.2565 100.356 62.5775 100.46 66.9616C100.654 75.1926 96.0305 82.8572 88.6815 86.4893C87.9536 86.8489 87.6552 87.731 88.0149 88.4589C88.2711 88.9776 88.7923 89.2784 89.3339 89.2784C89.5524 89.2784 89.7746 89.2295 89.9844 89.1261C98.3547 84.9896 103.62 76.2622 103.399 66.8923Z" fill="#678490"/>
<path d="M83.3875 61.7651C82.511 58.4586 79.8984 56.2829 77.5519 56.905C75.2054 57.527 74.0133 60.7116 74.8897 64.0175C75.7662 67.324 78.3788 69.4997 80.7253 68.8776C83.0724 68.2556 84.2639 65.071 83.3875 61.7651Z" fill="#605C5D"/>
<path d="M51.2836 70.2748C50.4072 66.9683 47.7945 64.7926 45.448 65.4141C43.1015 66.0361 41.9094 69.2207 42.7859 72.5266C43.6623 75.8331 46.2749 78.0088 48.6214 77.3867C50.9679 76.7653 52.1601 73.5807 51.2836 70.2748Z" fill="#605C5D"/>
<path d="M84.808 69.45C84.1575 69.45 83.5626 69.0149 83.3881 68.3563C83.1801 67.5715 83.6475 66.7668 84.4329 66.5582L91.1462 64.7787C91.9298 64.5714 92.7363 65.0381 92.9443 65.8235C93.1523 66.6084 92.685 67.4136 91.9001 67.6216L85.1868 69.4011C85.0599 69.4339 84.933 69.45 84.808 69.45Z" fill="#91A2B5"/>
<path d="M91.9756 74.3007C91.9286 74.3007 91.8809 74.2982 91.8333 74.2939L85.8014 73.7151C84.9931 73.6378 84.4007 72.9198 84.4787 72.1114C84.5561 71.303 85.271 70.7107 86.0824 70.788L92.1143 71.3668C92.9226 71.4441 93.515 72.1628 93.4376 72.9705C93.3639 73.7312 92.7239 74.3007 91.9756 74.3007Z" fill="#91A2B5"/>
<path d="M37.9146 81.8799C37.264 81.8799 36.6692 81.4448 36.4947 80.7862C36.2867 80.0014 36.754 79.1967 37.5389 78.9881L44.2528 77.2086C45.037 77.0012 45.8429 77.4686 46.0509 78.2534C46.2589 79.0383 45.7915 79.8435 45.0061 80.0515L38.2922 81.831C38.1665 81.8638 38.0396 81.8799 37.9146 81.8799Z" fill="#91A2B5"/>
<path d="M40.8095 87.8619C40.3477 87.8619 39.8928 87.6447 39.6062 87.2386C39.1389 86.5751 39.2973 85.6578 39.9615 85.1899L44.9151 81.6995C45.5792 81.2322 46.4959 81.3906 46.9639 82.0548C47.4318 82.7183 47.2727 83.6356 46.6086 84.1036L41.655 87.5939C41.3975 87.7753 41.1022 87.8619 40.8095 87.8619Z" fill="#91A2B5"/>
<path d="M68.6406 51.6928C67.9901 51.6928 67.3953 51.2576 67.2207 50.5991C67.0127 49.8142 67.48 49.0089 68.2655 48.801L71.7874 47.8676C72.5717 47.6602 73.3769 48.1269 73.5855 48.9118C73.7935 49.6966 73.3262 50.5019 72.5407 50.7099L69.0188 51.6433C68.8919 51.6773 68.765 51.6928 68.6406 51.6928Z" fill="white"/>
<path d="M45.4573 57.8378C44.8068 57.8378 44.2119 57.4027 44.0374 56.7441C43.8294 55.9593 44.2967 55.154 45.0816 54.946L48.6035 54.0126C49.3871 53.8059 50.193 54.272 50.4016 55.0568C50.6096 55.8417 50.1422 56.6463 49.3568 56.8549L45.8349 57.7883C45.7086 57.8217 45.5823 57.8378 45.4573 57.8378Z" fill="white"/>
<path d="M70.8175 74.7466C71.0837 75.7518 71.1697 76.7527 71.0899 77.6935C70.8825 80.2932 69.4564 82.441 67.295 83.0141C65.128 83.5885 62.8255 82.4292 61.3573 80.2733C60.8219 79.4959 60.4003 78.5836 60.1342 77.5784C59.1302 73.7903 60.7104 70.0864 63.6611 69.3041C66.6061 68.5235 69.8136 70.9586 70.8175 74.7466Z" fill="#678490"/>
<path d="M71.0899 77.6936C70.8825 80.2933 69.4564 82.4411 67.295 83.0142C65.128 83.5886 62.8255 82.4293 61.3573 80.2735C61.5646 77.6738 62.9907 75.526 65.1577 74.9516C67.3191 74.3784 69.6217 75.5384 71.0899 77.6936Z" fill="#FD80A6"/>
<path d="M72.2374 74.3687C71.6686 72.2234 70.4684 70.3677 68.8573 69.1434C67.5816 68.1741 66.1635 67.6796 64.7523 67.6901L64.3617 66.2169L64.8259 66.0938C65.6108 65.8858 66.0787 65.0805 65.8701 64.2957C65.6621 63.5108 64.8562 63.0441 64.072 63.2509L60.3013 64.2505C59.5164 64.4585 59.0485 65.2637 59.2565 66.0486C59.431 66.7072 60.0259 67.1423 60.6764 67.1423C60.8014 67.1423 60.9277 67.1262 61.0539 67.0928L61.5182 66.9696L61.9087 68.4428C60.677 69.1329 59.6904 70.265 59.0621 71.7387C58.2686 73.6 58.1454 75.8072 58.7137 77.9525C59.7634 81.9139 62.9294 84.6274 66.1858 84.6274C66.6797 84.6274 67.1767 84.5649 67.6682 84.4343C69.5424 83.9373 71.0409 82.5694 71.8883 80.5813C72.6824 78.7207 72.8062 76.514 72.2374 74.3687ZM69.1841 79.4294C68.7 80.5652 67.8941 81.3333 66.9155 81.5927C64.7925 82.1553 62.3371 80.1437 61.5565 77.1993C61.1548 75.6834 61.2297 74.1539 61.7676 72.8919C62.2516 71.7561 63.0569 70.9879 64.0361 70.7286C64.2794 70.6642 64.5294 70.632 64.782 70.632C65.5464 70.632 66.3399 70.9229 67.0783 71.4843C68.1708 72.3144 68.9934 73.6061 69.3951 75.122C69.7968 76.6378 69.7219 78.1673 69.1841 79.4294Z" fill="#678490"/>
<path d="M33.8337 111.225L30.6572 125.739C30.2834 127.446 31.3585 129.136 33.0631 129.52L57.5754 135.052C59.3679 135.456 61.1295 134.261 61.4161 132.446L63.6351 118.4C63.8913 116.778 62.87 115.227 61.2793 114.822L37.7246 108.822C35.9816 108.38 34.2181 109.469 33.8337 111.225Z" fill="#FFBF8C"/>
<path d="M58.2699 136.6C57.9294 136.6 57.5878 136.563 57.2517 136.487L32.7394 130.955C30.2543 130.394 28.6759 127.913 29.2206 125.424L32.3971 110.911C32.6688 109.668 33.4147 108.616 34.4973 107.948C35.5792 107.28 36.8543 107.085 38.0873 107.399L61.642 113.398C63.9829 113.995 65.4641 116.243 65.0871 118.629L62.8681 132.676C62.6682 133.941 61.9453 135.079 60.8856 135.798C60.1113 136.324 59.1952 136.6 58.2699 136.6ZM35.2697 111.54L32.0932 126.053C31.8926 126.968 32.4733 127.881 33.3868 128.086L57.8991 133.618C58.3652 133.723 58.8399 133.633 59.2348 133.365C59.6303 133.096 59.8891 132.689 59.964 132.216L62.1829 118.17C62.3216 117.293 61.7769 116.466 60.9166 116.247L37.3618 110.247C36.9094 110.132 36.4396 110.203 36.0422 110.449C35.6442 110.696 35.37 111.083 35.2697 111.54Z" fill="#FF9D6F"/>
<path d="M71.5603 32.8933C69.3685 37.5027 71.8593 46.1497 63.4939 46.2685C55.1286 46.3874 57.373 37.673 55.0506 33.1279L71.5603 32.8933Z" fill="#777677"/>
<path d="M63.3324 47.7432C56.4055 47.7432 55.5241 42.284 54.8792 38.2885C54.7436 37.4511 54.6161 36.6594 54.4478 35.9117C54.2695 35.1194 54.7671 34.3327 55.5594 34.1545C56.3523 33.9762 57.1384 34.4739 57.3167 35.2661C57.5048 36.1017 57.6453 36.9751 57.7821 37.8194C58.5082 42.318 59.1265 44.8589 63.4741 44.8013C67.8205 44.7388 68.3695 42.1787 68.9656 37.6597C69.077 36.8148 69.1921 35.9408 69.3549 35.1033C69.3586 35.0829 69.363 35.0631 69.3679 35.0433C69.5561 34.2535 70.3483 33.7627 71.1394 33.9508C71.918 34.1359 72.4039 34.9059 72.2374 35.6845C72.0938 36.4285 71.9905 37.214 71.8803 38.0447C71.3461 42.0939 70.6145 47.6392 63.515 47.742C63.4543 47.7426 63.393 47.7432 63.3324 47.7432Z" fill="#605C5D"/>
<path d="M77.8558 26.4512C77.9703 34.5374 71.4359 36.0569 63.3503 36.1715C55.2642 36.2866 48.6895 34.9527 48.5744 26.8666C48.4599 18.781 54.9213 12.1327 63.0074 12.0176C71.093 11.9037 77.7413 18.3657 77.8558 26.4512Z" fill="#FFFF9D"/>
<path d="M63.2191 10.5471C63.1417 10.5471 63.0644 10.5477 62.987 10.549C58.6833 10.6102 54.6619 12.3434 51.6618 15.4295C48.6617 18.5157 47.0437 22.5854 47.105 26.8884C47.2473 36.92 56.6785 37.6547 61.9843 37.6547C62.4875 37.6547 62.9542 37.6479 63.3714 37.6423C68.1925 37.5736 79.4818 37.4133 79.3258 26.431C79.2008 17.625 71.9973 10.5471 63.2191 10.5471ZM64.7993 34.6614L64.73 29.7951C65.716 29.524 66.6179 29.0009 67.3488 28.2483C68.4314 27.1348 69.0151 25.6666 68.9928 24.1136C68.9811 23.3089 68.3256 22.6646 67.5234 22.6646C67.516 22.6646 67.5092 22.6646 67.5017 22.6646C66.6897 22.6764 66.041 23.3436 66.0527 24.1557C66.0633 24.9232 65.7748 25.6486 65.24 26.1989C64.7052 26.7491 63.9879 27.058 63.221 27.0692C63.2073 27.0692 63.1931 27.0692 63.1789 27.0692C62.4275 27.0692 61.7175 26.7813 61.1778 26.2565C60.6275 25.7217 60.3186 25.0043 60.3075 24.2374C60.2957 23.4253 59.6322 22.7742 58.8164 22.7878C58.0043 22.7995 57.3557 23.4668 57.3674 24.2789C57.3891 25.8318 58.0149 27.2827 59.1284 28.3653C59.881 29.0969 60.7971 29.5939 61.7899 29.8372L61.8593 34.7029C53.364 34.5982 50.1237 32.3997 50.0444 26.847C49.9943 23.3288 51.3177 20.0018 53.77 17.4789C56.2223 14.956 59.5103 13.5392 63.0285 13.4891C63.0922 13.4884 63.1547 13.4878 63.2185 13.4878C70.3942 13.4878 76.2836 19.2745 76.3864 26.4725C76.465 32.0252 73.2909 34.3179 64.7993 34.6614Z" fill="#FFCC6B"/>
<path d="M43.1077 22.6733C42.979 22.6733 42.8477 22.656 42.7178 22.6207L37.979 21.319C37.196 21.1036 36.7355 20.2946 36.9509 19.5116C37.1663 18.7286 37.9734 18.2681 38.7582 18.4829L43.497 19.7846C44.28 20 44.7405 20.809 44.5251 21.592C44.345 22.2444 43.7533 22.6733 43.1077 22.6733Z" fill="#FFCC6B"/>
<path d="M38.2816 34.9483C37.6292 34.9483 37.0326 34.5101 36.8605 33.849C36.655 33.0635 37.1254 32.2601 37.9115 32.0546L42.6664 30.8124C43.4537 30.6069 44.2553 31.0773 44.4608 31.8634C44.6663 32.6488 44.1959 33.4523 43.4104 33.6578L38.6555 34.9C38.5298 34.9328 38.4048 34.9483 38.2816 34.9483Z" fill="#FFCC6B"/>
<path d="M84.2806 22.9313C83.6283 22.9313 83.0322 22.4931 82.8595 21.832C82.6546 21.0466 83.1244 20.2432 83.9105 20.0383L88.6654 18.796C89.4527 18.5905 90.2543 19.0609 90.4598 19.847C90.6653 20.6325 90.1948 21.4359 89.4088 21.6408L84.6545 22.883C84.5282 22.9158 84.4032 22.9313 84.2806 22.9313Z" fill="#FFCC6B"/>
<path d="M89.0374 34.9478C88.9142 34.9478 88.7892 34.9323 88.6648 34.8995L83.9099 33.6573C83.1244 33.4518 82.654 32.649 82.8589 31.8629C83.0638 31.0774 83.8678 30.607 84.6533 30.8119L89.4075 32.0541C90.193 32.2596 90.6634 33.0624 90.4585 33.8485C90.2858 34.5102 89.6898 34.9478 89.0374 34.9478Z" fill="#FFCC6B"/>
<path d="M78.8244 13.3412C78.445 13.3412 78.0662 13.1951 77.7784 12.9042C77.2077 12.3261 77.2133 11.3957 77.7914 10.8251L81.2879 7.37185C81.8648 6.80178 82.7957 6.80673 83.367 7.38485C83.9377 7.96296 83.9321 8.89327 83.354 9.46395L79.8575 12.9172C79.5715 13.2 79.1983 13.3412 78.8244 13.3412Z" fill="#FFCC6B"/>
<path d="M69.3054 7.7655C69.1767 7.7655 69.0454 7.74816 68.9148 7.71287C68.1318 7.49747 67.6713 6.6885 67.8867 5.90551L69.1884 1.16671C69.4038 0.383715 70.2116 -0.0761774 70.9958 0.137984C71.7788 0.353384 72.2393 1.16237 72.0239 1.94536L70.7222 6.68416C70.5433 7.33717 69.951 7.7655 69.3054 7.7655Z" fill="#FFCC6B"/>
<path d="M58.2711 7.69615C57.6187 7.69615 57.022 7.25854 56.85 6.59687L55.6077 1.84197C55.4022 1.05651 55.8726 0.253084 56.6587 0.048207C57.4466 -0.157289 58.2476 0.313123 58.4531 1.09921L59.6953 5.8541C59.9008 6.63957 59.4304 7.44299 58.6443 7.64787C58.5187 7.68068 58.3936 7.69615 58.2711 7.69615Z" fill="#FFCC6B"/>
<path d="M48.6827 13.153C48.3033 13.153 47.9245 13.0069 47.6366 12.716L44.1835 9.2195C43.6128 8.64201 43.6183 7.71108 44.1965 7.14039C44.7739 6.56971 45.7043 6.57528 46.2756 7.15339L49.7288 10.6499C50.2994 11.2274 50.2939 12.1583 49.7158 12.729C49.4298 13.0113 49.0559 13.153 48.6827 13.153Z" fill="#FFCC6B"/>
<path d="M88.5954 104.256C88.5954 104.256 100.688 87.8398 101.93 66.9269L95.2629 60.3411C95.2629 60.3411 82.9994 91.1309 76.7231 93.0218L88.5954 104.256Z" fill="#B1B9C6"/>
<path d="M89.2912 63.0785L89.3915 60.6367C89.5722 56.2285 90.5427 52.1204 93.2179 52.0987C94.7938 52.0857 95.599 53.4363 95.9939 55.0815L100.946 55.2845C104.159 55.4164 106.655 58.125 106.523 61.3386L106.424 63.7804C106.292 66.9892 103.583 69.4898 100.369 69.358L94.8643 69.1326C91.655 69.0008 89.1593 66.2873 89.2912 63.0785Z" fill="#B1B9C6"/>
<path d="M106.071 56.159C104.752 54.7273 102.954 53.8948 101.007 53.8149L97.0926 53.6547C96.7961 52.8766 96.4105 52.2409 95.9339 51.7563C95.2079 51.0185 94.2757 50.6292 93.2358 50.6292C93.2253 50.6292 93.2142 50.6292 93.2036 50.6292C89.1717 50.6632 88.1065 56.0575 87.9232 60.5765C87.9232 60.5796 87.9239 60.5827 87.9239 60.5858L87.8242 63.0184C87.7307 65.2986 88.7 67.3796 90.2895 68.7834C86.7998 76.8275 81.2508 87.9589 75.8658 91.8293C75.2066 92.3041 75.0574 93.222 75.5297 93.8812C76.0045 94.5404 76.9224 94.6896 77.5816 94.2173C83.4649 89.9854 89.2404 78.5686 92.8663 70.2541C93.4803 70.4527 94.1302 70.574 94.8061 70.6019L100.091 70.8185C97.7555 89.1114 87.5469 103.203 87.4126 103.385C86.9323 104.038 87.0709 104.959 87.7246 105.442C87.9858 105.633 88.2928 105.727 88.5942 105.727C89.0448 105.727 89.4905 105.519 89.7789 105.129C90.2568 104.48 100.894 89.8393 103.103 70.3946C103.998 70.069 104.829 69.5676 105.55 68.9022C106.982 67.5826 107.814 65.7845 107.894 63.8397L107.994 61.3979C108.073 59.4512 107.39 57.5906 106.071 56.159ZM103.556 66.7402C102.702 67.5281 101.592 67.9391 100.43 67.8884L94.925 67.6631C92.5314 67.5653 90.6634 65.5351 90.7612 63.1384L90.8615 60.6966C90.8615 60.6904 90.8609 60.6836 90.8615 60.6774C91.0076 57.145 91.7949 53.5816 93.2272 53.5698C93.4871 53.5599 93.6617 53.6398 93.8375 53.8193C94.2974 54.2872 94.7641 55.5592 94.8588 57.7769C93.8375 57.8302 92.875 58.0437 92.1588 58.2894C91.3907 58.5531 90.9822 59.3894 91.2459 60.1575C91.5095 60.925 92.3451 61.3335 93.1139 61.0705C93.151 61.0575 96.845 59.8858 97.5692 61.7891C97.7283 62.2069 97.6317 62.3653 97.5853 62.4415C97.183 63.1038 95.4777 63.6299 94.4038 63.7543C93.5967 63.8447 93.0161 64.5719 93.1065 65.3791C93.1907 66.1305 93.8269 66.6857 94.566 66.6857C94.6204 66.6857 94.6762 66.6826 94.7313 66.6764C95.3973 66.6022 98.7848 66.1212 100.095 63.974C100.101 63.9635 100.108 63.9517 100.114 63.9412C101.016 64.1424 101.87 64.2445 102.67 64.2445C103.485 64.2445 104.24 64.135 104.937 63.927C104.841 65.0065 104.359 65.9999 103.556 66.7402ZM100.402 60.9875C100.376 60.9071 100.349 60.826 100.317 60.743C99.8099 59.4098 98.887 58.6225 97.8131 58.1954C97.8044 57.6426 97.7772 57.1178 97.7307 56.6238L100.887 56.7532C102.049 56.8008 103.122 57.2973 103.909 58.1514C104.557 58.8539 104.942 59.7316 105.033 60.6669C103.761 61.526 101.958 61.3837 100.402 60.9875Z" fill="#678490"/>
<path d="M47.5215 101.727C40.1311 112.238 34.9405 131.351 39.9312 134.142C45.5755 137.299 58.1962 111.412 58.1962 111.412L50.5204 98.0957L47.5215 101.727Z" fill="#B1B9C6"/>
<path d="M40.9735 135.878C40.2202 135.878 39.6279 135.657 39.2138 135.425C37.8112 134.641 36.9397 133.086 36.6234 130.806C36.0725 126.83 37.2585 120.409 39.7962 113.63C42.4169 106.631 45.9469 100.59 49.4812 97.0556C50.055 96.4812 50.9865 96.4818 51.5603 97.0556C52.1347 97.63 52.1347 98.5609 51.5603 99.1347C44.4335 106.261 38.5565 123.334 39.5357 130.402C39.7133 131.684 40.1088 132.556 40.6486 132.858C40.7303 132.904 40.9215 133.011 41.3938 132.863C45.4393 131.596 53.0365 118.637 56.8747 110.767C57.2306 110.037 58.1114 109.734 58.8406 110.09C59.5703 110.446 59.8736 111.326 59.5177 112.056C59.4923 112.109 56.8995 117.411 53.5825 122.878C48.9198 130.561 45.2209 134.746 42.2727 135.669C41.7986 135.819 41.3647 135.878 40.9735 135.878Z" fill="#678490"/>
<circle cx="60.0068" cy="60.0413" r="58.2879" stroke="black" stroke-width="3.4287"/>
<circle cx="60.0067" cy="60.0413" r="54.8592" stroke="white" stroke-width="3.4287"/>
</g>
<defs>
<clipPath id="clip0_138_1318">
<rect x="0.00450134" y="0.0390625" width="120.005" height="120.005" rx="60.0023" fill="white"/>
</clipPath>
</defs>
</svg>
