<svg width="120" height="120" viewBox="0 0 120 120" fill="none" xmlns="http://www.w3.org/2000/svg">
<g clip-path="url(#clip0_2_6150)">
<circle cx="60" cy="60" r="60" fill="#D9D9D9"/>
<path d="M112.1 22.3942C106.769 17.0638 89.7783 26.7592 82.2919 31.4665C78.5874 30.8504 73.8092 30.5976 68.3369 30.6221C62.8657 30.5976 58.0879 30.8504 54.3834 31.4665C46.8995 26.7627 29.9076 17.0608 24.5743 22.3947C19.2784 27.6906 25.3297 42.2332 28.4261 48.7028C24.7571 54.902 23.4176 61.6909 23.4176 67.5369C23.4176 72.5935 24.0201 77.6435 25.2313 82.6941C27.5962 92.5509 35.3894 100.12 45.3231 102.132C47.8394 102.641 50.3562 103.064 52.8725 103.406C48.9007 106.502 46.4903 110.564 46.4903 115.013C46.4903 124.721 57.965 129.861 72.1203 129.861C86.2752 129.861 97.7504 124.721 97.7504 115.013C97.7504 110.065 94.7694 105.596 89.9742 102.402C90.4334 102.314 90.8926 102.225 91.3517 102.132C101.285 100.12 109.079 92.5509 111.444 82.6941C112.655 77.644 113.257 72.5935 113.257 67.5369C113.257 61.6894 111.917 54.8985 108.246 48.6983C111.349 42.2222 117.393 27.6881 112.1 22.3942Z" fill="#B1B9C6"/>
<path d="M62.9058 34.2311C62.9058 42.6009 65.3411 49.3818 68.3341 49.3818C71.3335 49.3818 73.7689 42.6014 73.7689 34.2311C73.7689 33.0839 73.7239 31.9686 73.6344 30.8989C70.1033 30.7385 66.5718 30.7385 63.0407 30.9048C62.9502 31.9751 62.9058 33.0899 62.9058 34.2311Z" fill="#91A2B5"/>
<path d="M74.5697 31.4816C74.5697 39.8449 76.9985 46.6318 79.998 46.6318C82.882 46.6318 85.2534 40.3191 85.4198 32.372C83.5551 31.8848 81.6259 31.5391 79.6517 31.3402C77.9599 31.1738 76.268 31.0389 74.5762 30.949C74.5697 31.1289 74.5697 31.3022 74.5697 31.4816Z" fill="#91A2B5"/>
<path d="M51.2542 32.302C51.408 40.2811 53.7789 46.6323 56.6759 46.6323C59.6754 46.6323 62.1043 39.8454 62.1043 31.4821C62.1043 31.3027 62.1043 31.1293 62.0978 30.95C60.1561 31.0524 58.2074 31.2128 56.2657 31.4176C54.5549 31.597 52.882 31.8983 51.2542 32.302Z" fill="#91A2B5"/>
<path d="M30.8231 35.2694C30.8231 35.2694 29.9577 37.2306 29.8168 39.4286C29.6824 41.4602 30.9061 43.0112 32.5085 43.6582C35.8732 39.8323 40.0264 36.7049 44.7172 34.5319C44.6722 33.4297 44.211 32.3464 43.3136 31.5325C39.7121 28.2577 34.732 24.7261 31.2074 26.1621C25.0681 28.6684 30.8231 35.2694 30.8231 35.2694Z" fill="white"/>
<path d="M105.856 35.2694C105.856 35.2694 106.721 37.2306 106.862 39.4286C106.996 41.4602 105.773 43.0112 104.17 43.6582C100.806 39.8323 96.6524 36.7049 91.9611 34.5319C92.006 33.4297 92.4677 32.3464 93.3646 31.5325C96.9666 28.2577 101.946 24.7261 105.471 26.1621C111.611 28.6684 105.856 35.2694 105.856 35.2694Z" fill="white"/>
<path d="M112.971 21.5235C110.241 18.7923 105.197 18.9562 97.5508 22.0231C91.9216 24.2811 86.0746 27.6578 82.0309 30.1826C78.4828 29.6344 73.9059 29.3691 68.3422 29.3926C62.7825 29.3681 58.1991 29.6339 54.647 30.1821C50.6103 27.6593 44.7688 24.2846 39.1301 22.0231C31.4833 18.9562 26.4388 18.7923 23.7071 21.5235C18.1734 27.0572 23.2704 40.6275 27.0363 48.635C22.9366 55.8521 22.1882 63.1721 22.1882 67.5371C22.1882 72.6731 22.8097 77.8691 24.0354 82.9806C25.2516 88.0486 27.8613 92.633 31.5832 96.2376C35.3117 99.8486 39.9785 102.303 45.0791 103.337C52.7948 104.897 60.62 105.688 68.3367 105.688C76.0544 105.688 83.8796 104.897 91.5948 103.337C96.6949 102.303 101.362 99.8486 105.09 96.2376C108.812 92.633 111.422 88.0486 112.638 82.9806C113.864 77.8691 114.486 72.6726 114.486 67.5371C114.486 63.1716 113.737 55.8516 109.637 48.634C113.409 40.629 118.513 27.0647 112.971 21.5235ZM110.248 82.407C109.141 87.0203 106.766 91.1925 103.38 94.4713C99.9901 97.7545 95.746 99.987 91.1077 100.927C83.5528 102.454 75.8916 103.229 68.3372 103.229C60.7839 103.229 53.1226 102.454 45.5672 100.927C40.9284 99.987 36.6848 97.755 33.2941 94.4713C29.9084 91.192 27.5335 87.0203 26.4268 82.407C25.2456 77.4828 24.647 72.4797 24.647 67.5371C24.647 62.0469 25.9026 51.5685 34.3109 43.0748C34.7886 42.5921 34.7846 41.8141 34.3024 41.3365C33.8197 40.8588 33.0418 40.8628 32.5641 41.3455C31.0281 42.8969 29.7195 44.5093 28.5968 46.1447C23.5093 34.8679 22.3181 26.3902 25.4459 23.2623C28.4839 20.2254 38.2077 23.1549 51.1274 30.9086C51.0575 30.9276 50.983 30.9456 50.9146 30.965C48.5567 31.6361 46.2992 32.454 44.2056 33.3959C43.5866 33.6742 43.3103 34.4022 43.5891 35.0213C43.8679 35.6404 44.5959 35.9162 45.2145 35.6379C47.1996 34.745 49.3436 33.968 51.5866 33.3299C55.1612 32.3151 60.7918 31.8175 68.3422 31.8514C75.885 31.8165 81.5122 32.3151 85.0863 33.3299C87.3293 33.9685 89.4733 34.745 91.4594 35.6384C91.6233 35.7118 91.7942 35.7468 91.9631 35.7468C92.4318 35.7468 92.88 35.477 93.0848 35.0213C93.3631 34.4022 93.0873 33.6742 92.4678 33.3959C90.3737 32.4535 88.1167 31.6361 85.7583 30.965C85.6919 30.9461 85.6204 30.9291 85.553 30.9106C89.2759 28.6801 93.9562 26.1148 98.4657 24.3056C104.914 21.7188 109.328 21.3581 111.232 23.2623C114.365 26.3952 113.172 34.8729 108.077 46.1447C106.954 44.5093 105.645 42.8964 104.109 41.345C103.632 40.8623 102.853 40.8583 102.371 41.336C101.888 41.8136 101.884 42.5921 102.363 43.0743C110.771 51.5685 112.027 62.0469 112.027 67.5366C112.027 72.4797 111.429 77.4828 110.248 82.407Z" fill="#678490"/>
<path d="M38.4035 71.1997H30.4414C29.7009 71.1997 29.1003 70.5992 29.1003 69.8587C29.1003 69.1182 29.7009 68.5176 30.4414 68.5176H38.4035C39.144 68.5176 39.7446 69.1182 39.7446 69.8587C39.7446 70.5992 39.144 71.1997 38.4035 71.1997Z" fill="#91A2B5"/>
<path d="M31.8894 78.6794C31.3443 78.6794 30.8321 78.3446 30.6318 77.8035C30.3744 77.109 30.7287 76.3375 31.4237 76.0802L37.9378 73.6673C38.6323 73.4095 39.4038 73.7647 39.6611 74.4593C39.9184 75.1538 39.5642 75.9253 38.8697 76.1826L32.3556 78.5955C32.2017 78.6524 32.0438 78.6794 31.8894 78.6794Z" fill="#91A2B5"/>
<path d="M94.0164 71.1997H86.0543C85.3138 71.1997 84.7133 70.5992 84.7133 69.8587C84.7133 69.1182 85.3138 68.5176 86.0543 68.5176H94.0164C94.7569 68.5176 95.3575 69.1182 95.3575 69.8587C95.3575 70.5992 94.7574 71.1997 94.0164 71.1997Z" fill="#91A2B5"/>
<path d="M92.569 78.6794C92.4141 78.6794 92.2572 78.6525 92.1033 78.5955L85.5888 76.1826C84.8942 75.9253 84.54 75.1538 84.7968 74.4593C85.0541 73.7648 85.8251 73.41 86.5201 73.6674L93.0347 76.0802C93.7292 76.3375 94.084 77.109 93.8267 77.8035C93.6263 78.3447 93.1141 78.6794 92.569 78.6794Z" fill="#91A2B5"/>
<path d="M50.5721 53.1721C50.5102 53.1721 50.4472 53.1676 50.3843 53.1576L46.2076 52.5165C45.5366 52.4136 45.0759 51.786 45.1788 51.115C45.2817 50.4439 45.9098 49.9832 46.5803 50.0862L50.757 50.7272C51.428 50.8302 51.8887 51.4577 51.7858 52.1288C51.6924 52.7369 51.1687 53.1721 50.5721 53.1721Z" fill="white"/>
<path d="M73.8861 53.1722C73.2895 53.1722 72.7659 52.737 72.6725 52.1289C72.5695 51.4579 73.0302 50.8303 73.7013 50.7274L77.8779 50.0863C78.5485 49.9839 79.1765 50.444 79.2795 51.1151C79.3824 51.7861 78.9217 52.4137 78.2507 52.5166L74.074 53.1577C74.011 53.1672 73.9481 53.1722 73.8861 53.1722Z" fill="white"/>
<path d="M85.9688 61.4731C85.6905 61.9698 85.1089 62.2121 84.5612 62.0562C83.1642 61.659 79.9848 61.0489 73.929 61.2028C73.5018 61.2153 73.0935 60.9984 72.8617 60.6352C72.6299 60.2719 72.6049 59.8142 72.7962 59.428C72.8832 59.2521 75.0167 55.1069 82.6635 53.8103C83.3845 53.6889 84.0686 54.2225 84.098 54.9805C84.122 55.6031 83.6483 56.1362 83.0348 56.2412C79.9144 56.7763 77.9262 57.8066 76.7076 58.7245C81.1795 58.7829 83.8127 59.2781 85.2423 59.6878C86.0022 59.9067 86.356 60.7821 85.9688 61.4731Z" fill="#605C5D"/>
<path d="M38.4999 61.4732C38.1126 60.7826 38.4664 59.9067 39.2279 59.6889C40.6574 59.2792 43.2916 58.784 47.7635 58.7255C46.5459 57.8092 44.5577 56.7774 41.4354 56.2422C40.8218 56.1373 40.3481 55.6047 40.3716 54.9826C40.4006 54.2241 41.0856 53.688 41.8061 53.8114C49.4524 55.1075 51.5859 59.2532 51.6734 59.4291C51.8648 59.8148 51.8398 60.273 51.6079 60.6362C51.3761 60.9995 50.9724 61.2164 50.5407 61.2039C44.4848 61.0505 41.3055 61.6605 39.9084 62.0578C39.3593 62.2122 38.7782 61.9698 38.4999 61.4732Z" fill="#605C5D"/>
<path d="M50.8748 74.7184C50.8748 69.504 55.9583 65.2769 62.229 65.2769C68.4997 65.2769 73.5833 69.504 73.5833 74.7184C73.5833 79.9329 68.4997 80.1152 62.229 80.1152C55.9583 80.1147 50.8748 79.9329 50.8748 74.7184Z" fill="white"/>
<path d="M72.927 76.2914C69.5947 74.2717 60.8362 70.161 51.5016 75.5973L50.2644 73.4728C60.7378 67.3734 70.4931 71.9418 74.2011 74.1888L72.927 76.2914Z" fill="#E3E3E3"/>
<path d="M63.4585 64.0991V61.4425H64.4653C65.1438 61.4425 65.6944 60.8923 65.6944 60.2133C65.6944 59.5343 65.1438 58.9841 64.4653 58.9841H59.9928C59.3138 58.9841 58.7637 59.5348 58.7637 60.2133C58.7637 60.8918 59.3143 61.4425 59.9928 61.4425H60.9996V64.0991C54.636 64.6248 49.6454 69.1862 49.6454 74.7184C49.6454 77.6424 51.0449 79.5996 53.805 80.5364C56.0065 81.2834 58.9226 81.3444 62.2288 81.3444C65.5351 81.3444 68.4506 81.2834 70.6526 80.5364C73.4127 79.5996 74.8127 77.6424 74.8127 74.7184C74.8127 69.1862 69.8221 64.6248 63.4585 64.0991ZM62.2293 78.8856C54.7574 78.8856 52.1047 78.256 52.1047 74.7184C52.1047 70.19 56.6466 66.506 62.2293 66.506C67.812 66.506 72.3544 70.19 72.3544 74.7184C72.3539 78.256 69.7012 78.8856 62.2293 78.8856Z" fill="#678490"/>
<path d="M84.494 122.438C84.1102 122.438 83.732 122.259 83.4922 121.923C83.0979 121.37 83.2263 120.603 83.779 120.208C85.6297 118.888 87.0347 116.77 87.9541 113.913C88.162 113.266 88.8545 112.91 89.5011 113.119C90.1471 113.327 90.5029 114.02 90.2945 114.666C89.2093 118.038 87.4974 120.576 85.2065 122.21C84.9906 122.364 84.7408 122.438 84.494 122.438Z" fill="#678490"/>
<path d="M29.7806 82.5042C31.6663 82.5042 31.7798 82.5042 33.6655 82.5042C41.8599 82.5042 48.5029 90.9234 48.5029 101.309C48.5029 111.694 41.8599 120.114 33.6655 120.114C31.7798 120.114 31.6663 120.114 29.7806 120.114C21.5862 120.114 14.9432 111.694 14.9432 101.309C14.9432 90.9234 21.5862 82.5042 29.7806 82.5042Z" fill="#767576"/>
<path d="M33.6656 121.343H29.7808C20.9218 121.343 13.7142 112.356 13.7142 101.309C13.7142 90.2623 20.9218 81.2749 29.7808 81.2749H33.6656C42.5246 81.2749 49.7322 90.2623 49.7322 101.309C49.7322 112.356 42.5246 121.343 33.6656 121.343ZM29.7803 83.7337C22.2769 83.7337 16.1726 91.6179 16.1726 101.309C16.1726 111 22.2769 118.884 29.7803 118.884H33.6651C41.1685 118.884 47.2729 111 47.2729 101.309C47.2729 91.6179 41.1685 83.7337 33.6651 83.7337H29.7803Z" fill="#605C5D"/>
<path d="M33.6643 114.012C30.0658 114.012 26.8694 110.748 25.5219 105.697C25.1326 104.256 24.9268 102.737 24.9268 101.308C24.9268 99.8799 25.1331 98.361 25.5234 96.9164C26.8699 91.8689 30.0658 88.6051 33.6643 88.6051C34.3433 88.6051 34.8935 89.1557 34.8935 89.8343C34.8935 90.5133 34.3428 91.0634 33.6643 91.0634C30.8767 91.0634 28.7597 94.3227 27.8977 97.5535C27.5625 98.7962 27.3856 100.093 27.3856 101.308C27.3856 102.524 27.5625 103.821 27.8967 105.06C28.7596 108.294 30.8767 111.553 33.6643 111.553C34.3433 111.553 34.8935 112.104 34.8935 112.783C34.8935 113.461 34.3428 114.012 33.6643 114.012Z" fill="#605C5D"/>
<path d="M32.3866 101.308C32.3866 102.372 32.5405 103.468 32.8223 104.513H91.0271C93.0203 104.513 94.6352 103.077 94.6352 101.308C94.6352 99.5394 93.0203 98.1039 91.0271 98.1039H32.8223C32.54 99.1482 32.3866 100.244 32.3866 101.308Z" fill="white"/>
<path d="M91.0269 105.742H32.8221C32.2665 105.742 31.7798 105.369 31.6354 104.833C31.3226 103.674 31.1572 102.455 31.1572 101.308C31.1572 100.161 31.3226 98.9426 31.6354 97.7834C31.7803 97.2473 32.2665 96.8745 32.8221 96.8745H91.0269C93.6946 96.8745 95.8646 98.8632 95.8646 101.308C95.8646 103.753 93.6946 105.742 91.0269 105.742ZM33.8024 103.284H91.0269C92.3385 103.284 93.4058 102.398 93.4058 101.308C93.4058 100.22 92.3385 99.3333 91.0269 99.3333H33.8024C33.6795 99.9989 33.6155 100.668 33.6155 101.308C33.6155 101.948 33.6795 102.618 33.8024 103.284Z" fill="#E3E3E3"/>
<path d="M99.3292 82.5042C101.215 82.5042 101.328 82.5042 103.214 82.5042C111.408 82.5042 118.051 90.9234 118.051 101.309C118.051 111.694 111.408 120.114 103.214 120.114C101.328 120.114 101.215 120.114 99.3292 120.114C91.1348 120.114 84.4918 111.694 84.4918 101.309C84.4918 90.9234 91.1348 82.5042 99.3292 82.5042Z" fill="#767576"/>
<path d="M103.214 121.343H99.3294C90.4704 121.343 83.2628 112.356 83.2628 101.309C83.2628 90.2623 90.4704 81.2749 99.3294 81.2749H103.214C112.073 81.2749 119.281 90.2623 119.281 101.309C119.281 112.356 112.073 121.343 103.214 121.343ZM99.3289 83.7337C91.8255 83.7337 85.7211 91.6179 85.7211 101.309C85.7211 111 91.8255 118.884 99.3289 118.884H103.214C110.717 118.884 116.821 111 116.821 101.309C116.821 91.6179 110.717 83.7337 103.214 83.7337H99.3289Z" fill="#605C5D"/>
<path d="M103.213 114.012C99.6141 114.012 96.4178 110.748 95.0702 105.697C94.681 104.256 94.4751 102.737 94.4751 101.308C94.4751 99.8799 94.6815 98.361 95.0712 96.9164C96.4178 91.8689 99.6136 88.6051 103.213 88.6051C103.892 88.6051 104.442 89.1557 104.442 89.8343C104.442 90.5133 103.891 91.0634 103.213 91.0634C100.425 91.0634 98.308 94.3227 97.4461 97.5535C97.1108 98.7962 96.9339 100.093 96.9339 101.308C96.9339 102.524 97.1108 103.821 97.4451 105.06C98.308 108.294 100.425 111.553 103.213 111.553C103.892 111.553 104.442 112.104 104.442 112.783C104.442 113.461 103.891 114.012 103.213 114.012Z" fill="#605C5D"/>
<path d="M103.46 101.308C103.46 102.372 103.614 103.468 103.896 104.513H107.145C108.029 104.513 108.83 104.154 109.414 103.571C109.99 102.994 110.349 102.193 110.349 101.308C110.349 99.5395 108.914 98.104 107.145 98.104H103.896C103.614 99.1483 103.46 100.245 103.46 101.308Z" fill="white"/>
<path d="M107.146 105.742H103.896C103.341 105.742 102.854 105.369 102.71 104.833C102.397 103.674 102.231 102.455 102.231 101.308C102.231 100.161 102.397 98.9426 102.71 97.7834C102.855 97.2473 103.341 96.8745 103.896 96.8745H107.146C109.59 96.8745 111.58 98.8632 111.58 101.308C111.58 102.492 111.119 103.604 110.283 104.439C109.444 105.28 108.329 105.742 107.146 105.742ZM104.877 103.284H107.146C107.673 103.284 108.17 103.077 108.545 102.702C108.916 102.33 109.121 101.836 109.121 101.308C109.121 100.22 108.235 99.3333 107.146 99.3333H104.877C104.754 99.9989 104.69 100.668 104.69 101.308C104.689 101.948 104.753 102.618 104.877 103.284Z" fill="#E3E3E3"/>
<path d="M57.0853 120.5L49.9552 123.075C37.6506 123.075 35.2367 95.0888 42.4763 93.6402C48.1534 92.505 51.5016 99.0695 52.4675 111.977L57.0853 120.5Z" fill="#B1B9C6"/>
<path d="M49.9551 124.305C46.386 124.305 43.2711 122.271 40.9467 118.423C39.0665 115.311 37.7884 111.143 37.3472 106.687C36.7056 100.208 37.9682 93.2884 42.2343 92.435C44.243 92.0328 46.0532 92.4315 47.6162 93.6182C50.9299 96.134 52.974 102.28 53.692 111.886C53.7425 112.563 53.2348 113.153 52.5578 113.203C51.8772 113.256 51.2906 112.746 51.2402 112.069C50.4142 101.018 48.0049 97.0004 46.1292 95.5764C45.1383 94.8239 44.0221 94.5846 42.7165 94.8464C40.4775 95.2941 39.1939 100.389 39.7935 106.445C40.528 113.863 44.0211 121.846 49.9546 121.846C54.9187 121.846 58.2609 118.937 59.8883 113.199C60.0737 112.546 60.7537 112.168 61.4063 112.352C62.0593 112.538 62.4386 113.217 62.2532 113.87C60.318 120.697 56.0649 124.305 49.9551 124.305Z" fill="#678490"/>
<path d="M80.7549 111.977L78.2426 123.077C65.936 123.077 63.5197 95.0882 70.7617 93.6402C76.4413 92.507 79.7871 99.0695 80.7549 111.977Z" fill="#B1B9C6"/>
<path d="M78.2426 124.305C74.6736 124.305 71.5582 122.271 69.2333 118.423C67.3531 115.31 66.0744 111.142 65.6332 106.686C64.9917 100.207 66.2548 93.2873 70.5224 92.4339C72.531 92.0327 74.3413 92.4309 75.9033 93.6171C79.216 96.1319 81.2601 102.278 81.9806 111.883C82.0316 112.56 81.5239 113.15 80.8469 113.201C80.1693 113.254 79.5802 112.744 79.5293 112.067C78.7008 101.016 76.292 96.9988 74.4173 95.5753C73.4264 94.8228 72.3107 94.584 71.0046 94.8448C68.7651 95.2925 67.4805 100.387 68.0801 106.443C68.8146 113.861 72.3082 121.846 78.2432 121.846C80.3927 121.846 82.2554 121.295 83.7799 120.207C84.333 119.813 85.1005 119.942 85.4942 120.494C85.8884 121.047 85.76 121.815 85.2074 122.209C83.2572 123.6 80.9138 124.305 78.2426 124.305Z" fill="#678490"/>
<circle cx="60" cy="60" r="58.5" stroke="black" stroke-width="3"/>
<circle cx="60.0001" cy="60.0001" r="55.0714" stroke="white" stroke-width="3"/>
</g>
<defs>
<clipPath id="clip0_2_6150">
<rect width="120" height="120" rx="60" fill="white"/>
</clipPath>
</defs>
</svg>
