<svg width="121" height="121" viewBox="0 0 121 121" fill="none" xmlns="http://www.w3.org/2000/svg">
<g clip-path="url(#clip0_2_6283)">
<circle cx="60.0226" cy="60.0075" r="60.0075" fill="#D9D9D9"/>
<path d="M91.1192 94.5826C89.0667 86.9944 83.7001 81.8443 79.132 83.0798C78.1471 83.3464 77.2805 83.8889 76.5463 84.6505C72.4754 81.0065 66.252 78.6764 59.2758 78.6764C48.2384 78.6764 39.0835 84.5088 37.3631 92.1497C37.1585 92.337 36.9553 92.5274 36.7529 92.7218C30.0552 99.1689 27.2867 107.159 30.5685 110.568C33.3932 113.503 39.7787 112.084 45.7732 107.523C49.5146 109.602 54.1957 110.838 59.2758 110.838C66.4398 110.838 72.8102 108.381 76.8705 104.566C79.4566 108.949 83.2228 111.463 86.5634 110.559C91.132 109.324 93.1717 102.171 91.1192 94.5826Z" fill="#B1B9C6"/>
<path d="M99.0148 17.8808C94.2749 13.1408 79.1746 21.763 72.5238 25.9428C69.2319 25.3955 64.9861 25.1705 60.1239 25.1927C55.2608 25.171 51.0146 25.3955 47.7227 25.9433C41.0697 21.7599 25.9707 13.1439 21.2334 17.8808C16.5289 22.5853 21.9003 35.5016 24.6591 41.2561C21.3968 46.7666 20.2056 52.8009 20.2056 57.9975C20.2056 62.4912 20.741 66.9792 21.8175 71.4673C23.9191 80.2267 30.8449 86.9528 39.6726 88.7413C46.4898 90.1198 53.3071 90.8089 60.1248 90.8089C66.9425 90.8089 73.7593 90.1198 80.577 88.7413C89.4047 86.9532 96.3304 80.2267 98.4321 71.4673C99.5086 66.9792 100.044 62.4912 100.044 57.9975C100.044 52.8023 98.8532 46.7688 95.5927 41.2601C98.3435 35.5109 103.721 22.5871 99.0148 17.8808Z" fill="#B1B9C6"/>
<path d="M64.9507 28.3997C64.9507 35.8378 62.7866 41.8633 60.1265 41.8633C57.4612 41.8633 55.2971 35.8374 55.2971 28.3997C55.2971 27.3804 55.337 26.3893 55.4167 25.4381C58.555 25.2956 61.6928 25.2956 64.8311 25.4439C64.9108 26.3951 64.9507 27.3861 64.9507 28.3997Z" fill="#91A2B5"/>
<path d="M54.5851 25.9567C54.5851 33.389 52.4263 39.4202 49.761 39.4202C47.1979 39.4202 45.091 33.8106 44.9426 26.748C46.6001 26.3153 48.3143 26.0076 50.0683 25.8309C51.5717 25.683 53.0755 25.563 54.5789 25.4833C54.5851 25.6431 54.5851 25.7968 54.5851 25.9567Z" fill="#91A2B5"/>
<path d="M75.3053 26.6857C75.1685 33.7766 73.0611 39.4204 70.487 39.4204C67.8216 39.4204 65.6628 33.3892 65.6628 25.9568C65.6628 25.7974 65.6628 25.6437 65.6686 25.4839C67.3943 25.5751 69.1257 25.7173 70.8514 25.8997C72.3721 26.0591 73.8586 26.327 75.3053 26.6857Z" fill="#91A2B5"/>
<path d="M93.4622 29.3232C93.4622 29.3232 94.2309 31.0661 94.3562 33.0194C94.4758 34.8248 93.3882 36.2029 91.9641 36.7781C88.9742 33.3781 85.2832 30.599 81.1145 28.6678C81.1544 27.6883 81.5644 26.7256 82.3619 26.0024C85.5627 23.0922 89.9882 19.9539 93.1203 21.2297C98.5768 23.4567 93.4622 29.3232 93.4622 29.3232Z" fill="white"/>
<path d="M26.7819 29.3232C26.7819 29.3232 26.0131 31.0661 25.8878 33.0194C25.7683 34.8248 26.8558 36.2029 28.28 36.7781C31.2699 33.3781 34.9608 30.599 39.1296 28.6678C39.0897 27.6883 38.6797 26.7256 37.8821 26.0024C34.6814 23.0922 30.2558 19.9539 27.1238 21.2297C21.6677 23.4567 26.7819 29.3232 26.7819 29.3232Z" fill="white"/>
<path d="M99.7562 17.1356C97.3424 14.7214 92.873 14.8697 86.0942 17.5886C81.0802 19.5999 75.8854 22.6023 72.2985 24.8443C69.1443 24.3563 65.0721 24.1194 60.1284 24.1406C55.1763 24.1198 51.101 24.3563 47.9459 24.8447C44.3538 22.601 39.1532 19.5968 34.1476 17.5886C27.3697 14.8693 22.9016 14.7214 20.4878 17.1356C15.5765 22.047 20.1198 34.0993 23.468 41.2004C19.8196 47.6125 19.1536 54.1189 19.1536 57.9976C19.1536 62.5591 19.7058 67.1733 20.7942 71.7122C21.8734 76.2087 24.1885 80.2755 27.4906 83.4736C30.7985 86.677 34.9385 88.8548 39.4637 89.7719C46.3172 91.1575 53.2682 91.8602 60.124 91.8602C66.9789 91.8602 73.9303 91.1575 80.7848 89.7719C85.3096 88.8552 89.45 86.6774 92.7574 83.4736C96.0591 80.2755 98.3746 76.2087 99.4538 71.7122C100.542 67.1729 101.094 62.5586 101.094 57.9976C101.094 54.1189 100.429 47.6129 96.7809 41.2013C100.124 34.098 104.661 22.0403 99.7562 17.1356ZM97.4084 71.222C96.4231 75.3292 94.3086 79.0436 91.2943 81.9631C88.276 84.8867 84.4974 86.8741 80.3681 87.7105C73.6505 89.0682 66.8399 89.7573 60.1245 89.7573C53.4082 89.7573 46.5975 89.0687 39.8812 87.7105C35.7515 86.8741 31.9729 84.8862 28.9546 81.9631C25.9398 79.0436 23.8258 75.3292 22.8405 71.222C21.7901 66.8434 21.2574 62.3939 21.2574 57.998C21.2574 53.1132 22.3747 43.7896 29.8579 36.2302C30.2667 35.8174 30.2631 35.1514 29.8504 34.7427C29.4377 34.3344 28.7717 34.3375 28.363 34.7502C26.9814 36.146 25.8066 37.5971 24.8013 39.0695C20.2407 29.0033 19.1726 21.4257 21.9752 18.6231C23.6806 16.9178 27.6186 17.2357 33.3651 19.541C37.4085 21.1631 41.606 23.4689 44.929 25.4634C44.8373 25.4882 44.7417 25.5116 44.6527 25.5369C42.5594 26.1329 40.5552 26.8591 38.6967 27.6952C38.1671 27.9334 37.9306 28.556 38.1688 29.0857C38.4071 29.6157 39.0297 29.8517 39.5593 29.6135C41.3257 28.8191 43.233 28.1283 45.2279 27.5606C48.4087 26.6581 53.4214 26.2144 60.1289 26.2449C66.8257 26.2179 71.8402 26.6576 75.0201 27.5601C77.0159 28.1283 78.9232 28.8191 80.6896 29.6135C80.8295 29.6768 80.9761 29.7065 81.1205 29.7065C81.5217 29.7065 81.9047 29.4758 82.0801 29.0861C82.3183 28.5565 82.0823 27.9339 81.5522 27.6956C79.6937 26.8596 77.6895 26.1333 75.5954 25.5373C75.5055 25.5116 75.4085 25.4877 75.3159 25.4629C78.634 23.4702 82.8284 21.1662 86.8776 19.5419C92.6254 17.2361 96.5648 16.9186 98.2692 18.6235C101.067 21.4217 100.001 28.9997 95.4476 39.07C94.4423 37.598 93.2675 36.1465 91.8859 34.7507C91.4772 34.338 90.8116 34.3344 90.3989 34.7432C89.9862 35.1519 89.9827 35.8174 90.3914 36.2302C97.8742 43.7891 98.9915 53.1128 98.9915 57.998C98.991 62.3939 98.4588 66.843 97.4084 71.222Z" fill="#678490"/>
<path d="M76.1797 56.2215C75.7298 56.2215 75.3136 55.9306 75.1745 55.478C75.004 54.9227 75.3162 54.3346 75.8715 54.1642L79.5833 53.0252C80.1386 52.8547 80.7271 53.1669 80.8971 53.7222C81.0676 54.2775 80.7554 54.8656 80.2001 55.0361L76.4884 56.175C76.3856 56.2065 76.2816 56.2215 76.1797 56.2215Z" fill="white"/>
<path d="M55.4592 56.2215C55.3569 56.2215 55.2528 56.2065 55.1501 56.175L51.4379 55.0361C50.8826 54.8656 50.5704 54.2775 50.7409 53.7222C50.9114 53.1669 51.4999 52.8547 52.0548 53.0252L55.767 54.1642C56.3223 54.3342 56.6344 54.9227 56.464 55.478C56.3254 55.9306 55.9091 56.2215 55.4592 56.2215Z" fill="white"/>
<path d="M69.6348 64.3062C68.1106 64.3062 66.8707 63.0672 66.8707 61.5443C66.8707 61.5226 66.8685 61.5013 66.8676 61.4796H67.8064C68.3869 61.4796 68.8581 61.0089 68.8581 60.4279C68.8581 59.8474 68.3869 59.3762 67.8064 59.3762H63.8321C63.2515 59.3762 62.7803 59.8469 62.7803 60.4279C62.7803 61.0089 63.2515 61.4796 63.8321 61.4796H64.7708C64.7695 61.5009 64.7677 61.5222 64.7677 61.5443C64.7677 63.0672 63.5287 64.3062 62.0063 64.3062C61.4258 64.3062 60.9546 64.7773 60.9546 65.3579C60.9546 65.9384 61.4258 66.4096 62.0063 66.4096C63.55 66.4096 64.928 65.6869 65.8199 64.5621C66.7122 65.6869 68.0911 66.4096 69.6352 66.4096C70.2162 66.4096 70.687 65.9384 70.687 65.3579C70.6865 64.7769 70.2158 64.3062 69.6348 64.3062Z" fill="#678490"/>
<path d="M100.876 64.5953C100.876 71.5348 100.025 76.0658 98.6367 78.9051C97.2435 81.745 95.3181 82.9038 93.1753 83.1115C92.4575 83.1859 91.7131 83.1487 90.9524 83.0318C82.8004 82.399 81.2474 78.1661 82.0932 72.6144C83.0077 66.5894 92.9676 63.2075 93.1806 57.8897C93.5796 47.7167 80.3915 48.9774 74.9833 48.9774H49.3203C39.8709 48.9774 40.3815 59.2194 43.0562 61.8197C46.6988 65.1378 52.0061 66.6536 52.0061 72.6149C52.0061 80.4533 46.0129 84.3669 36.1433 83.9361C34.8511 83.8776 17.9087 83.1332 17.9087 59.0543C17.9087 54.5769 18.1748 47.6263 20.2486 40.5168C22.3387 34.8004 44.5666 31.1046 63.3804 31.1046C82.1889 31.1046 96.6851 34.343 99.4984 43.3832C100.434 48.876 100.876 55.7304 100.876 64.5953Z" fill="#FFBF8C"/>
<path d="M37.5625 85.0188C37.0829 85.0188 36.5949 85.0082 36.0971 84.9865C34.4281 84.9112 30.1053 84.4055 25.9096 81.3434C23.2402 79.3958 21.124 76.7654 19.6179 73.5257C17.786 69.5837 16.8569 64.7149 16.8569 59.0539C16.8569 51.8766 17.6359 45.7165 19.2389 40.2219C19.2455 40.1993 19.2526 40.1772 19.2606 40.1555C20.3853 37.0792 25.794 34.5494 35.3359 32.6355C43.5211 30.9939 53.7428 30.0525 63.3804 30.0525C85.3249 30.0525 97.8143 34.4325 100.503 43.0702C100.516 43.1144 100.527 43.1601 100.535 43.2057C101.472 48.7046 101.927 55.7012 101.927 64.5945C101.927 71.305 101.16 76.1366 99.5816 79.3661C98.1522 82.2795 96.031 83.8909 93.2767 84.1575C92.5194 84.2354 91.7175 84.2097 90.8323 84.0765C86.8575 83.7616 84.1368 82.616 82.5152 80.5737C80.9919 78.655 80.5136 75.9994 81.0534 72.455C81.5715 69.0426 84.4601 66.5575 87.2538 64.1543C89.7164 62.0358 92.0421 60.0352 92.1298 57.8467C92.2126 55.7389 91.6714 54.1208 90.4758 52.8999C87.4429 49.8042 80.6859 49.9308 76.6504 50.0061C76.0504 50.0172 75.4836 50.0278 74.9837 50.0278H49.3203C46.1147 50.0278 43.8798 51.1681 42.8568 53.3251C41.6245 55.9235 42.3941 59.3258 43.8519 61.1298C44.9598 62.3321 46.2608 63.2509 47.5189 64.1397C50.2418 66.0633 53.0577 68.0525 53.0577 72.6131C53.0577 76.1508 51.9329 79.0212 49.714 81.1454C47.0561 83.6907 42.8741 85.0188 37.5625 85.0188ZM21.2475 40.8481C19.7087 46.1394 18.9608 52.0949 18.9608 59.0539C18.9608 80.9944 33.3109 82.7546 36.1875 82.8848C41.6125 83.1213 45.7861 81.9952 48.2597 79.627C50.0478 77.915 50.9543 75.5557 50.9543 72.6144C50.9543 69.1431 48.9027 67.6942 46.3051 65.8592C44.9487 64.9009 43.5459 63.9099 42.2807 62.5305C42.2674 62.5158 42.2542 62.5008 42.2413 62.4853C40.3837 60.2123 39.3019 55.9142 40.9562 52.4257C42.3321 49.5243 45.3026 47.9262 49.3203 47.9262H74.9837C75.4641 47.9262 76.0212 47.9155 76.611 47.9049C81.27 47.8177 88.3104 47.6861 91.9783 51.4302C93.5787 53.0638 94.3368 55.2513 94.2318 57.9322C94.1074 61.0355 91.3207 63.4329 88.6257 65.7511C86.1224 67.9041 83.5341 70.1311 83.1334 72.7734C82.6861 75.7084 83.0231 77.8326 84.1629 79.2678C85.4059 80.8332 87.6537 81.722 91.0342 81.9846C91.0603 81.9868 91.0865 81.9894 91.1126 81.9934C91.8331 82.1041 92.4721 82.128 93.0672 82.0665C95.0812 81.8716 96.5916 80.6866 97.6929 78.4429C99.1069 75.5499 99.8242 70.8905 99.8242 64.5962C99.8242 55.8611 99.3823 49.0018 98.4741 43.6312C97.2306 39.7375 93.4144 36.787 87.1298 34.8602C81.2797 33.0668 73.289 32.1572 63.3808 32.1572C43.0362 32.1564 22.9909 36.295 21.2475 40.8481Z" fill="#FF9D6F"/>
<path d="M68.4559 44.6391H60.335C59.2147 44.6391 58.3069 43.7309 58.3069 42.611V38.8067C58.3069 37.6863 59.2151 36.7786 60.335 36.7786H68.4559C69.5763 36.7786 70.4841 37.6868 70.4841 38.8067V42.611C70.4841 43.7309 69.5763 44.6391 68.4559 44.6391Z" fill="white"/>
<path d="M85.1622 111.796C83.0703 111.796 80.8982 110.794 78.8985 108.875C76.4984 106.572 74.6031 103.183 73.5611 99.331C72.5196 95.4793 72.4478 91.5962 73.3601 88.3973C74.3254 85.011 76.2778 82.7619 78.8573 82.0644C81.4367 81.3674 84.2566 82.3257 86.7971 84.7634C89.1967 87.0666 91.0925 90.4564 92.1344 94.308C93.1764 98.1597 93.2477 102.043 92.3355 105.242C91.3701 108.628 89.4177 110.877 86.8383 111.575C86.2892 111.723 85.7286 111.796 85.1622 111.796ZM80.5086 83.95C80.1353 83.95 79.7673 83.9974 79.4068 84.0948C77.5673 84.5921 76.1383 86.3248 75.3829 88.9743C74.5743 91.8105 74.6482 95.2938 75.5914 98.7819C76.5347 102.27 78.2263 105.316 80.3545 107.358C82.3423 109.265 84.4497 110.042 86.2892 109.543C88.1287 109.046 89.5576 107.313 90.3131 104.664C91.1217 101.828 91.0477 98.3448 90.1041 94.8567C88.4099 88.5912 84.2119 83.95 80.5086 83.95Z" fill="#678490"/>
<path d="M68.4556 45.6908H60.3347C58.6365 45.6908 57.2549 44.3092 57.2549 42.6109V38.8066C57.2549 37.1084 58.6365 35.7268 60.3347 35.7268H68.4556C70.1539 35.7268 71.5355 37.1084 71.5355 38.8066V42.6109C71.5359 44.3092 70.1539 45.6908 68.4556 45.6908ZM60.3347 37.8298C59.7962 37.8298 59.3583 38.2677 59.3583 38.8062V42.6105C59.3583 43.149 59.7962 43.5869 60.3347 43.5869H68.4556C68.9941 43.5869 69.4321 43.149 69.4321 42.6105V38.8062C69.4321 38.2677 68.9941 37.8298 68.4556 37.8298H60.3347Z" fill="#E3E3E3"/>
<path d="M34.7344 113.157C32.6877 113.157 30.9978 112.531 29.8106 111.297C26.0697 107.411 28.7988 98.9186 36.0234 91.9636C39.38 88.7328 43.1936 86.3553 46.7619 85.269C50.5724 84.1093 53.704 84.5432 55.5798 86.4921C57.4552 88.4405 57.77 91.5863 56.4659 95.3499C55.2446 98.8743 52.7232 102.595 49.367 105.825C46.0104 109.056 42.1968 111.434 38.6286 112.52C37.2297 112.946 35.922 113.157 34.7344 113.157ZM50.6308 86.7432C49.6562 86.7432 48.558 86.9212 47.3752 87.2812C44.1178 88.2727 40.6049 90.474 37.4825 93.479C31.3198 99.411 28.5003 106.903 31.3264 109.839C32.6066 111.169 35.0448 111.412 38.0161 110.508C41.2731 109.517 44.7865 107.315 47.9084 104.31C51.0307 101.305 53.3635 97.878 54.4785 94.6608C55.4953 91.7263 55.3447 89.2801 54.0645 87.9503C53.2944 87.1501 52.1041 86.7432 50.6308 86.7432Z" fill="#678490"/>
<path d="M93.4657 83.3C87.016 76.4124 81.3262 71.6689 71.6151 75.6791C69.59 76.5151 68.0109 77.6417 66.8366 78.9701C65.6622 77.6412 64.0826 76.5151 62.0581 75.6791C56.5197 73.3919 52.2898 73.9551 48.4802 76.1365L48.4851 76.1321C48.4851 76.1321 46.9879 71.7366 43.7336 72.2565C40.4793 72.7764 38.7213 77.0806 38.5862 85.086L39.2877 84.4518C35.2969 90.3981 41.3224 97.8787 46.8936 100.52C52.831 103.334 58.039 105.987 64.6561 98.1727C65.4806 97.1989 66.21 96.1809 66.8366 95.1367C67.4632 96.1804 68.1925 97.1989 69.017 98.1727C75.6341 105.987 80.8422 103.335 86.7795 100.52C92.7169 97.7046 99.1719 89.3928 93.4657 83.3Z" fill="#65E1E9"/>
<path d="M94.2342 82.5808C87.8111 75.7237 81.6456 70.3983 71.2136 74.7079C69.5021 75.4142 68.039 76.3419 66.8403 77.4667C65.6447 76.3472 64.1803 75.4177 62.459 74.707C57.022 72.4623 52.7448 72.8339 48.9861 74.6742C48.7802 74.2766 48.5092 73.8165 48.1682 73.3657C46.8973 71.683 45.3067 70.9404 43.5673 71.218C39.7081 71.8344 37.6786 76.4942 37.5343 85.0686L37.7371 85.0722C36.9723 86.7124 36.7536 88.516 37.1127 90.4046C38.0656 95.4205 42.6174 99.657 46.4425 101.47L46.7317 101.608C49.6149 102.976 52.5473 104.368 55.6417 104.368C58.7171 104.368 61.9528 102.993 65.4582 98.8528C65.9529 98.2687 66.4125 97.6714 66.8385 97.0638C67.2663 97.6753 67.7237 98.2745 68.2135 98.8533C71.7193 102.993 74.9541 104.368 78.03 104.368C81.124 104.368 84.0572 102.976 86.94 101.608L87.2305 101.47C91.0561 99.6565 95.6074 95.4201 96.5608 90.4051C97.1121 87.5006 96.3079 84.7954 94.2342 82.5808ZM43.8994 73.2948C44.2435 73.2395 45.2916 73.0717 46.4629 74.5972C46.7552 74.978 46.985 75.3761 47.1528 75.7069C44.5574 77.3608 42.1759 79.6777 39.7692 82.2306C40.2992 75.3916 42.2517 73.5579 43.8994 73.2948ZM63.8534 97.4925C57.8669 104.562 53.351 102.419 47.6337 99.7066L47.3441 99.5693C43.8773 97.9256 39.9592 94.1151 39.1798 90.0119C38.7525 87.7636 39.3565 85.7475 40.975 84.0196C44.3227 80.4447 47.1967 77.7745 50.3407 76.3632C53.8111 74.8049 57.4068 74.897 61.6566 76.6519C65.1332 78.0871 67.3792 80.5288 68.1528 83.7127C69.1811 87.947 67.574 93.0988 63.8534 97.4925ZM94.4941 90.011C93.7143 94.1137 89.7967 97.9247 86.3294 99.568L86.0384 99.7061C80.3211 102.42 75.8057 104.563 69.8187 97.4925C69.174 96.7308 68.5886 95.9333 68.066 95.1167C70.2996 91.1481 71.0932 86.9081 70.196 83.2154C69.8196 81.6655 69.1589 80.2666 68.2423 79.0338C69.2612 78.0685 70.5241 77.2674 72.016 76.6515C76.2662 74.8961 79.8619 74.8035 83.3323 76.3618C86.4755 77.7727 89.3499 80.4433 92.6989 84.0182C94.3175 85.747 94.9215 87.7632 94.4941 90.011Z" fill="#00D4D7"/>
<path d="M55.3543 62.0263C55.2999 62.0263 55.2445 62.0218 55.1887 62.013L47.976 60.874C47.4026 60.7837 47.0107 60.2448 47.1014 59.6713C47.1918 59.0974 47.7303 58.7055 48.3042 58.7968L55.5169 59.9357C56.0903 60.026 56.4822 60.5649 56.3914 61.1384C56.3099 61.6565 55.8631 62.0263 55.3543 62.0263Z" fill="#605C5D"/>
<path d="M76.2845 62.0262C75.7761 62.0262 75.3289 61.6565 75.247 61.1384C75.1562 60.5645 75.5481 60.026 76.1215 59.9357L83.3342 58.7967C83.909 58.7055 84.4466 59.0979 84.5374 59.6713C84.6277 60.2452 84.2363 60.7837 83.6628 60.874L76.4505 62.013C76.3943 62.0223 76.3394 62.0262 76.2845 62.0262Z" fill="#605C5D"/>
<path d="M27.7693 68.2369C31.0553 68.2369 33.7191 64.3077 33.7191 59.4606C33.7191 54.6136 31.0553 50.6843 27.7693 50.6843C24.4834 50.6843 21.8196 54.6136 21.8196 59.4606C21.8196 64.3077 24.4834 68.2369 27.7693 68.2369Z" fill="#B1B9C6"/>
<path d="M27.7695 69.2886C25.8206 69.2886 24.0175 68.2121 22.6916 66.2566C21.4509 64.4264 20.7676 62.013 20.7676 59.4606C20.7676 56.9082 21.4509 54.4948 22.6916 52.6646C24.0175 50.7095 25.8206 49.6326 27.7695 49.6326C29.7184 49.6326 31.5215 50.7091 32.8469 52.6646C34.0877 54.4948 34.771 56.9082 34.771 59.4606C34.771 62.013 34.0877 64.4264 32.8469 66.2566C31.522 68.2117 29.7184 69.2886 27.7695 69.2886ZM27.7695 51.736C25.1143 51.736 22.871 55.2732 22.871 59.4606C22.871 63.6475 25.1143 67.1852 27.7695 67.1852C30.4247 67.1852 32.6676 63.6479 32.6676 59.4606C32.6676 55.2732 30.4247 51.736 27.7695 51.736Z" fill="#FF9D6F"/>
<circle cx="60.0226" cy="60.0075" r="58.293" stroke="black" stroke-width="3.429"/>
<circle cx="60.0226" cy="60.0075" r="54.864" stroke="white" stroke-width="3.429"/>
</g>
<defs>
<clipPath id="clip0_2_6283">
<rect x="0.0151367" width="120.015" height="120.015" rx="60.0075" fill="white"/>
</clipPath>
</defs>
</svg>
