<svg width="121" height="121" viewBox="0 0 121 121" fill="none" xmlns="http://www.w3.org/2000/svg">
<g clip-path="url(#clip0_138_1540)">
<circle cx="60.0203" cy="60.0413" r="60.0023" fill="#D9D9D9"/>
<path d="M110.235 64.1096C111.121 57.7046 111.256 51.372 110.634 45.1112C109.924 37.8696 107.444 29.6311 102.148 22.3963C105.194 14.0058 76.6016 -2.53539 67.8997 4.20399C63.2343 3.89332 57.2918 4.15667 50.5127 4.84976C43.7337 5.4879 37.8477 6.38175 33.3334 7.59315C29.6404 5.74285 23.8346 7.65727 18.2677 11.1747L17.5257 13.799L17.1746 15.0348C13.6893 27.3495 7.02926 50.8698 1.81348 69.2781C2.29971 71.0566 2.84244 72.8191 3.45615 74.5816C7.0766 85.0308 15.6403 92.7968 26.1467 95.4219C25.7223 96.9501 25.4994 98.524 25.4994 100.132C25.4994 114.631 43.5222 126.385 65.7555 126.385C87.9881 126.385 106.012 114.631 106.012 100.132C106.012 94.4433 103.235 89.1771 98.5197 84.8773C104.811 79.7974 109.081 72.4375 110.235 64.1096Z" fill="#B2B8C4"/>
<path d="M67.4264 66.3033C67.4569 66.701 67.4798 67.0918 67.4783 67.4841C67.4867 68.4688 67.405 69.4306 67.2394 70.3603C66.2692 75.8326 62.451 80.0385 57.5619 80.4377C54.6987 80.6629 51.9935 79.55 49.8715 77.5302C49.7219 77.3928 49.5883 77.2531 49.4455 77.1073C47.3113 74.8723 45.8449 71.6908 45.5526 68.065C44.9549 60.7508 49.7806 59.3715 55.8155 58.8838C61.8579 58.3945 66.8356 58.9799 67.4264 66.3033Z" fill="#70838E"/>
<path d="M67.2393 70.3604C66.2692 75.8327 62.451 80.0386 57.5619 80.4378C54.6987 80.663 51.9935 79.55 49.8715 77.5303C50.4951 72.532 53.5972 68.4536 58.0314 67.4972C61.3274 66.7896 64.6631 67.9529 67.2393 70.3604Z" fill="#E27FA3"/>
<path d="M45.5915 98.7932C40.5887 98.7932 35.5363 98.536 30.5174 98.0238C24.0223 97.359 17.8936 94.8644 12.7954 90.8096C7.70705 86.7633 3.88585 81.3574 1.7432 75.1753C1.12873 73.4127 0.579919 71.6388 0.0646758 69.7564C-0.199434 68.7908 0.369243 67.7932 1.33485 67.5291C2.29892 67.2642 3.29811 67.8336 3.56222 68.7992C4.05533 70.6014 4.58048 72.2975 5.16824 73.9852C9.05279 85.1962 19.147 93.2149 30.8854 94.4163C37.1996 95.0614 43.5695 95.2926 49.8158 95.1041C50.8211 95.0682 51.6523 95.8613 51.6829 96.8613C51.7126 97.8628 50.9257 98.6986 49.9249 98.7284C48.4868 98.7711 47.0411 98.7932 45.5915 98.7932Z" fill="#70838E"/>
<path d="M74.0292 95.9584L73.314 92.4036C77.9382 91.4731 82.6036 90.29 87.1805 88.8878C98.4677 85.4238 106.812 75.6006 108.439 63.8614C109.302 57.6182 109.434 51.3697 108.83 45.2913C108.17 38.5351 105.366 25.7968 93.9878 16.3598L96.303 13.5684C108.681 23.8351 111.726 37.6283 112.439 44.9356C113.071 51.2956 112.933 57.8312 112.031 64.3584C111.134 70.8344 108.436 76.8776 104.229 81.8346C100.015 86.8008 94.487 90.4388 88.2438 92.3548C83.5524 93.7921 78.7702 95.0043 74.0292 95.9584Z" fill="#70838E"/>
<path d="M85.208 51.5755C84.8149 47.5688 81.7021 44.5949 78.2549 44.9338C74.8085 45.2719 72.333 48.7939 72.7262 52.8006C73.1193 56.8073 76.2321 59.7812 79.6793 59.4423C83.1257 59.1041 85.6011 55.5821 85.208 51.5755Z" fill="#5F5C5D"/>
<path d="M38.0515 56.2029C37.6584 52.1962 34.5455 49.2223 31.0983 49.5612C27.6512 49.9001 25.1765 53.4214 25.5696 57.428C25.9627 61.4347 29.0756 64.4086 32.5227 64.0697C35.9691 63.7316 38.4446 60.2096 38.0515 56.2029Z" fill="#5F5C5D"/>
<path d="M85.8828 63.4798C84.9615 63.4798 84.1722 62.7806 84.0806 61.844C83.9829 60.8471 84.7111 59.9601 85.708 59.8624L95.5694 58.8945C96.5678 58.7999 97.4533 59.525 97.551 60.5219C97.6487 61.5188 96.9205 62.4058 95.9236 62.5035L86.0622 63.4714C86.0019 63.4768 85.9424 63.4798 85.8828 63.4798Z" fill="#95A1B3"/>
<path d="M94.8633 71.9516C94.7106 71.9516 94.5556 71.9326 94.4014 71.8921L86.04 69.6953C85.0714 69.4411 84.4928 68.4495 84.7469 67.4809C85.0011 66.5122 85.9919 65.9336 86.9613 66.1878L95.3228 68.3846C96.2914 68.6388 96.87 69.6304 96.6158 70.599C96.4021 71.4127 95.667 71.9516 94.8633 71.9516Z" fill="#95A1B3"/>
<path d="M17.0036 70.2382C16.0815 70.2382 15.293 69.539 15.2014 68.6024C15.1036 67.6055 15.8319 66.7186 16.8288 66.6209L26.6901 65.653C27.6893 65.5575 28.574 66.2835 28.6717 67.2804C28.7694 68.2773 28.0405 69.1643 27.0443 69.262L17.1829 70.2298C17.1226 70.2359 17.0631 70.2382 17.0036 70.2382Z" fill="#95A1B3"/>
<path d="M19.7087 79.3265C19.0363 79.3265 18.3905 78.951 18.0768 78.306C17.6386 77.4052 18.0142 76.3206 18.9149 75.8832L26.6901 72.1032C27.5908 71.665 28.6755 72.0406 29.1137 72.9413C29.5518 73.842 29.1762 74.9267 28.2755 75.3649L20.5003 79.1448C20.2454 79.2677 19.9751 79.3265 19.7087 79.3265Z" fill="#95A1B3"/>
<path d="M69.2362 66.1543C68.5225 57.3379 61.8816 56.7425 57.4512 56.9563L57.1848 54.2442L58.1497 54.1495C59.1458 54.0518 59.8748 53.1648 59.7771 52.1679C59.6794 51.1718 58.7955 50.4459 57.7955 50.5405L52.2561 51.084C51.2599 51.1817 50.5309 52.0687 50.6287 53.0656C50.7202 54.0022 51.5095 54.7014 52.4309 54.7014C52.4896 54.7014 52.5499 54.6983 52.6102 54.693L53.5751 54.5983L53.8369 57.2639C51.4714 57.557 49.0326 58.1188 47.1571 59.4317C44.5671 61.2446 43.4183 64.2009 43.7435 68.2176C44.387 76.1744 50.1623 82.2841 56.8261 82.2841C57.1184 82.2841 57.4131 82.2726 57.7085 82.249C61.1793 81.9681 64.2914 80.0933 66.4707 76.9713C68.5744 73.9547 69.5568 70.1129 69.2362 66.1543ZM63.4968 74.8944C61.9487 77.1133 59.7893 78.4407 57.4169 78.6331C52.3812 79.0468 47.87 74.2364 47.3593 67.9244C47.0708 64.3551 48.2937 63.0628 49.2379 62.4018C50.8951 61.2415 53.569 60.8874 55.9658 60.6935C56.9421 60.6141 57.8245 60.5729 58.6237 60.5729C63.5563 60.5729 65.2761 62.1659 65.6226 66.4474C65.8745 69.5679 65.1196 72.5685 63.4968 74.8944Z" fill="#70838E"/>
<path d="M95.632 7.90453L89.8498 -14.9219C89.6185 -15.8234 89.204 -16.6684 88.6056 -17.3706C78.3007 -20.298 67.0631 -23.4879 58.2024 -26C56.6949 -25.9763 55.1079 -25.9046 53.4569 -25.7931C43.0489 -25.0916 35.0486 -23.2566 29.0511 -21.159C27.4161 -19.1011 26.1642 -16.7088 25.4223 -14.0845L24.4574 -10.6633L18.2684 11.1738L17.5265 13.7981L17.1753 15.034C17.0158 15.6087 16.8402 16.2064 16.6731 16.8209L17.3402 17.0705C17.1127 17.0117 16.8822 16.9552 16.6563 16.8934C14.806 23.4015 12.2618 32.3904 9.54974 41.9526C19.3043 44.138 32.1372 45.773 47.6418 45.0394C85.55 43.2609 118.187 25.7945 118.187 25.7945L95.632 7.90453Z" fill="#FFFFA1"/>
<path d="M119.314 24.374L97.2395 6.86565L91.6062 -15.3722C91.3009 -16.563 90.7406 -17.6607 89.9857 -18.5461L87.2255 -16.1936C87.624 -15.7257 87.9239 -15.1303 88.0919 -14.4761L93.4916 6.83894C90.2338 8.16636 81.538 11.4761 70.0767 14.0249C56.6705 17.0064 36.6225 19.5284 17.2463 14.6096L16.354 18.1247C36.4515 23.2267 57.1361 20.6261 70.9492 17.5461C83.3562 14.7798 92.4031 11.2288 95.3526 9.99757L114.83 25.4457C106.528 29.4493 78.6732 41.7686 47.5564 43.2288C34.3982 43.851 21.7438 42.8273 9.94666 40.1839L9.15356 43.7227C18.9775 45.9241 29.3694 47.0325 40.1392 47.0325C42.6482 47.0325 45.1794 46.9722 47.7266 46.8516C85.6065 45.0746 118.712 27.57 119.042 27.3937C119.58 27.1059 119.938 26.5655 119.993 25.9571C120.048 25.348 119.792 24.7534 119.314 24.374Z" fill="#F9CB71"/>
<path d="M99.6669 88.3152C99.6669 83.7032 95.9457 79.9629 91.3421 79.9255C91.6085 79.1553 91.8336 78.3317 92.0008 77.4638C92.9428 72.5846 91.781 68.2581 89.4063 67.7993C87.0316 67.3406 84.3432 70.9244 83.4012 75.8035C83.3333 76.1547 83.2798 76.502 83.2333 76.8462C83.1264 76.5661 83.0119 76.2844 82.8883 76.0035C80.8929 71.4526 77.4794 68.5504 75.265 69.5214C73.0498 70.4923 72.8719 74.9692 74.8673 79.5202C75.2772 80.4552 75.7489 81.3155 76.2558 82.0918C74.5551 83.6276 73.4803 85.8435 73.4803 88.3152C73.4803 88.6403 73.4971 88.9625 73.5253 89.28C71.4796 90.9769 69.5751 93.192 68.018 95.8278C63.1105 104.133 63.5052 113.449 68.8981 116.635C74.291 119.821 82.6409 115.672 87.5483 107.367C89.178 104.608 90.22 101.739 90.6909 99.0192C95.7899 98.1223 99.6669 93.6729 99.6669 88.3152Z" fill="#B2B8C4"/>
<path d="M101.48 88.3154C101.48 83.5263 98.1349 79.4761 93.6588 78.3952C93.7023 78.1998 93.7435 78.0044 93.7817 77.8075C94.9496 71.7559 93.216 66.6889 89.7498 66.0195C87.8835 65.6607 85.9889 66.6156 84.4157 68.7125C83.7394 69.614 83.1455 70.6979 82.66 71.9016C80.2144 68.4423 77.0519 66.7591 74.536 67.8614C71.3026 69.2789 70.7308 74.6046 73.2055 80.2486C73.4437 80.7921 73.707 81.3256 73.9918 81.8432C72.4995 83.6591 71.6651 85.9483 71.6651 88.3154C71.6651 88.3734 71.669 88.4307 71.6697 88.4879C69.6874 90.2672 67.8951 92.4663 66.4555 94.9044C63.9052 99.2202 62.6007 103.952 62.7816 108.229C62.9747 112.794 64.8189 116.333 67.9737 118.196C69.4798 119.086 71.1758 119.53 72.9826 119.53C74.9612 119.53 77.0725 118.997 79.2106 117.935C83.0432 116.03 86.5576 112.605 89.1063 108.29C90.5688 105.815 91.639 103.153 92.2375 100.522C97.5639 99.0172 101.48 94.1159 101.48 88.3154ZM77.5977 114.687C74.6436 116.155 71.8812 116.292 69.8194 115.073C67.7577 113.855 66.5455 111.37 66.4058 108.075C66.2539 104.49 67.3806 100.468 69.5782 96.7486C70.4255 95.3143 71.4094 93.98 72.4842 92.7907C74.2978 97.5829 78.932 101 84.3516 101H88.3636C87.8209 102.847 87.0194 104.696 85.9851 106.446C83.789 110.164 80.8098 113.091 77.5977 114.687ZM88.7941 97.3745H84.3516C79.3564 97.3745 75.2924 93.3106 75.2924 88.3154C75.2924 86.4651 76.0863 84.6873 77.4702 83.4378C78.1328 82.8393 78.261 81.8485 77.7732 81.1012C77.3 80.3768 76.8809 79.5998 76.5275 78.7929C74.7658 74.7756 75.1856 71.536 75.9924 71.1826C76.0566 71.1544 76.1321 71.1406 76.2176 71.1406C77.216 71.1406 79.606 73.0329 81.2273 76.7312C81.338 76.9823 81.4426 77.238 81.5387 77.4915C81.8334 78.267 82.6165 78.741 83.4409 78.6479C84.2646 78.5532 84.9195 77.9105 85.0302 77.0892C85.0775 76.7396 85.1264 76.4312 85.1813 76.148C85.5798 74.0832 86.3584 72.1665 87.3163 70.8887C88.0575 69.901 88.7384 69.5193 89.062 69.5804C89.9269 69.7475 91.0513 72.8138 90.22 77.1212C90.075 77.8739 89.8757 78.6181 89.6284 79.3334C89.4376 79.8852 89.5238 80.4951 89.8612 80.9722C90.1979 81.4493 90.7437 81.7348 91.3276 81.7394C94.9259 81.7684 97.8532 84.7186 97.8532 88.3161C97.854 93.3106 93.7901 97.3745 88.7941 97.3745Z" fill="#70838E"/>
<path d="M85.9827 81.2041C82.3439 81.2438 78.909 85.2337 78.5289 85.6887C77.8877 86.4566 77.9907 87.597 78.7579 88.2397C79.525 88.8824 80.6677 88.7809 81.3112 88.0153C82.1791 86.9825 84.4728 84.8444 86.0247 84.8307C86.3048 84.8139 86.6376 84.8864 87.0308 85.336C87.4048 85.765 87.5498 86.1726 87.4994 86.6588C87.3399 88.2007 85.3934 89.9915 84.7278 90.4945C83.9256 91.0937 83.7622 92.2303 84.3614 93.0326C84.7179 93.5089 85.2629 93.76 85.8148 93.76C86.1926 93.76 86.5735 93.6425 86.8995 93.399C87.2918 93.1051 90.7458 90.4327 91.1054 87.0466C91.2634 85.5551 90.7993 84.1399 89.7634 82.9521C88.7513 81.7919 87.4384 81.1995 85.9827 81.2041Z" fill="#70838E"/>
<path d="M43.023 99.5915C41.4658 96.9557 39.5614 94.7406 37.5156 93.0437C37.5439 92.7254 37.5607 92.404 37.5607 92.0788C37.5607 89.6064 36.4852 87.3913 34.7852 85.8555C35.2921 85.0792 35.7638 84.2189 36.1737 83.2838C38.1691 78.7329 37.9912 74.256 35.776 73.2851C33.5609 72.3141 30.1481 75.2155 28.1527 79.7672C28.0291 80.0489 27.9146 80.3298 27.8077 80.6099C27.7612 80.2657 27.7077 79.9191 27.6398 79.5672C26.6978 74.6881 24.0094 71.1042 21.6347 71.563C19.26 72.0218 18.0982 76.3483 19.0402 81.2274C19.2073 82.0953 19.4325 82.919 19.6989 83.6892C15.0953 83.7266 11.3749 87.4668 11.3749 92.0788C11.3749 97.4366 15.2518 101.886 20.3523 102.783C20.8233 105.503 21.8652 108.372 23.4949 111.131C28.4016 119.436 36.7523 123.586 42.1452 120.399C47.5358 117.212 47.9304 107.896 43.023 99.5915Z" fill="#B2B8C4"/>
<path d="M44.584 98.6701C43.1474 96.2358 41.3551 94.0352 39.369 92.2505C39.3697 92.1925 39.3735 92.136 39.3735 92.078C39.3735 89.711 38.5392 87.4218 37.0469 85.6058C37.3316 85.0883 37.595 84.5547 37.8339 84.0112C40.3086 78.3672 39.7369 73.0415 36.5034 71.624C33.9875 70.5218 30.8251 72.2049 28.3794 75.6643C27.8939 74.4605 27.3008 73.3766 26.6237 72.4751C25.0505 70.379 23.1567 69.4218 21.2904 69.7821C19.4241 70.1416 18.0211 71.7347 17.3417 74.2666C16.7822 76.352 16.7525 78.9458 17.2593 81.5701C17.2967 81.7663 17.3379 81.9625 17.3822 82.1579C12.9053 83.2387 9.56119 87.2889 9.56042 92.078C9.56042 97.8793 13.4763 102.78 18.8027 104.285C19.4012 106.915 20.4714 109.578 21.9331 112.051C24.4811 116.367 27.9954 119.792 31.8288 121.697C33.9677 122.76 36.079 123.293 38.0583 123.293C39.8643 123.293 41.5604 122.849 43.0657 121.96C46.2205 120.095 48.0647 116.555 48.2578 111.991C48.438 107.714 47.1335 102.983 44.584 98.6701ZM13.1862 92.078C13.1862 88.4813 16.1135 85.5302 19.7126 85.5012C20.2966 85.4966 20.8423 85.2112 21.179 84.7341C21.5156 84.257 21.6018 83.6479 21.411 83.096C21.1637 82.3808 20.9645 81.6365 20.8194 80.8839C20.421 78.8191 20.4294 76.7505 20.8439 75.2078C21.1637 74.0155 21.656 73.4056 21.9774 73.3438C21.9995 73.34 22.0232 73.3377 22.0492 73.3377C22.3934 73.3377 23.0338 73.7331 23.7231 74.6521C24.6818 75.9299 25.4597 77.8466 25.8581 79.9114C25.9131 80.1946 25.9619 80.5022 26.0093 80.8526C26.1199 81.6739 26.7741 82.3159 27.5977 82.4121C28.4214 82.5067 29.2045 82.0319 29.4999 81.2572C29.5984 80.9999 29.703 80.7442 29.8114 80.4961C31.5724 76.4788 34.2394 74.5926 35.0463 74.9468C35.8531 75.3009 36.2729 78.5397 34.5119 82.5563C34.1577 83.3639 33.7387 84.141 33.2654 84.8646C32.7777 85.6119 32.9059 86.6035 33.5685 87.2012C34.9524 88.4515 35.7462 90.2293 35.7462 92.0788C35.7462 97.074 31.6823 101.139 26.6871 101.139H22.2445C19.8248 101.139 17.5493 100.197 15.8387 98.4854C14.1281 96.7732 13.1862 94.4985 13.1862 92.078ZM44.6343 111.837C44.4947 115.133 43.2817 117.62 41.2208 118.838C36.7714 121.465 29.3686 117.513 25.0551 110.207C24.0216 108.458 23.2201 106.609 22.6774 104.764H26.6886C32.1082 104.764 36.7424 101.346 38.556 96.5542C39.6331 97.7457 40.617 99.0808 41.462 100.514C43.6588 104.232 44.7855 108.253 44.6343 111.837Z" fill="#70838E"/>
<path d="M25.223 97.523C24.8459 97.523 24.4658 97.4054 24.1406 97.1619C23.7483 96.868 20.2942 94.1956 19.9355 90.8095C19.7775 89.318 20.2416 87.902 21.2774 86.7151C22.2888 85.5556 23.5941 84.9465 25.0574 84.9678C28.6961 85.0075 32.1311 88.9974 32.5112 89.4524C33.1532 90.221 33.0501 91.3645 32.2815 92.0057C31.5128 92.6476 30.3709 92.5453 29.7289 91.7774C28.861 90.7447 26.5672 88.6081 25.0154 88.5936C24.733 88.5906 24.4024 88.6486 24.0093 89.0989C23.6353 89.5279 23.4903 89.9363 23.5406 90.4225C23.7002 91.9644 25.6467 93.7552 26.3161 94.2613C27.1138 94.8636 27.2748 95.9994 26.6741 96.7986C26.3176 97.2726 25.7734 97.523 25.223 97.523Z" fill="#70838E"/>
<circle cx="60.0203" cy="60.0413" r="58.2879" stroke="black" stroke-width="3.4287"/>
<circle cx="60.0203" cy="60.0413" r="54.8592" stroke="white" stroke-width="3.4287"/>
</g>
<defs>
<clipPath id="clip0_138_1540">
<rect x="0.0180054" y="0.0390625" width="120.005" height="120.005" rx="60.0023" fill="white"/>
</clipPath>
</defs>
</svg>
