<svg width="120" height="121" viewBox="0 0 120 121" fill="none" xmlns="http://www.w3.org/2000/svg">
<g clip-path="url(#clip0_138_1246)">
<circle cx="60.0023" cy="60.0413" r="60.0023" fill="#D9D9D9"/>
<path d="M101.115 56.88C100.152 51.7277 97.8524 45.9651 93.5977 41.1056C95.2608 34.8937 98.1985 21.0798 92.6587 17.2846C87.0793 13.4626 73.7018 24.8125 67.8811 30.1907C64.5149 30.2579 60.2626 30.8223 55.4445 31.7452C50.6177 32.6249 46.4477 33.6352 43.2845 34.7883C35.9112 31.8727 19.3392 26.1267 15.5195 31.7028C11.7256 37.2408 19.4473 49.0542 23.25 54.2502C21.0359 60.3198 20.9733 66.5253 21.9367 71.6789C22.7699 76.1352 24.1328 80.4869 26.0321 84.7383C29.0384 91.4658 34.9418 96.2788 41.9109 97.9331C41.6508 98.8542 41.5141 99.8034 41.5141 100.773C41.5141 109.505 52.5344 116.584 66.1287 116.584C79.7231 116.584 90.7433 109.505 90.7433 100.773C90.7433 97.3232 89.0222 94.1319 86.1034 91.533C86.5725 91.3512 87.0406 91.1666 87.5083 90.9774C95.9315 87.5674 101.553 79.6128 102.014 70.536C102.249 65.8864 101.948 61.3362 101.115 56.88Z" fill="#B2B8C4"/>
<path d="M60.8255 34.0315C62.2041 41.4079 61.1749 47.7855 58.5373 48.2785C55.8938 48.7724 52.6306 43.1976 51.2515 35.8212C51.0628 34.8103 50.9183 33.8197 50.8211 32.8618C53.9071 32.1391 57.0192 31.5573 60.159 31.1223C60.4145 32.0508 60.6377 33.0262 60.8255 34.0315Z" fill="#95A1B3"/>
<path d="M50.0929 33.5299C51.4706 40.9009 50.4478 47.2826 47.8047 47.777C45.2629 48.252 42.1333 43.0791 40.6773 36.1026C42.2405 35.3661 43.8838 34.7433 45.5906 34.243C47.0544 33.8172 48.5233 33.4199 49.9995 33.0623C50.0349 33.2192 50.063 33.3716 50.0929 33.5299Z" fill="#95A1B3"/>
<path d="M70.7765 30.4122C71.9553 37.4697 70.9118 43.4579 68.3585 43.9352C65.7149 44.4291 62.4564 38.8479 61.0787 31.4769C61.0492 31.3186 61.0207 31.1662 60.9967 31.007C62.7252 30.7773 64.4684 30.5978 66.2139 30.4587C67.7513 30.3345 69.2754 30.3243 70.7765 30.4122Z" fill="#95A1B3"/>
<path d="M89.2722 29.6619C89.2722 29.6619 90.3576 31.2477 90.8441 33.1621C91.2975 34.9302 90.474 36.4989 89.1686 37.3335C85.5731 34.5159 81.3977 32.4436 76.905 31.3016C76.7628 30.3225 76.9911 29.2923 77.648 28.4269C80.2828 24.9474 84.09 21.0146 87.4328 21.6995C93.2571 22.8958 89.2722 29.6619 89.2722 29.6619Z" fill="white"/>
<path d="M23.1432 42.0225C23.1432 42.0225 22.7036 43.8937 22.9416 45.8541C23.1574 47.6668 24.4919 48.8319 26.0105 49.1384C28.3456 45.212 31.4904 41.7716 35.2673 39.0839C35.0459 38.1195 34.4608 37.2413 33.5361 36.6719C29.8223 34.3791 24.8518 32.0872 21.9814 33.933C16.9838 37.1524 23.1432 42.0225 23.1432 42.0225Z" fill="white"/>
<path d="M102.59 56.6042C101.869 52.7486 100.008 46.4304 95.2479 40.7189C96.1073 37.3844 97.091 32.7634 97.3244 28.366C97.654 22.1532 96.3688 18.0077 93.5043 16.0454C90.5012 13.9883 85.9382 14.9609 79.5541 19.019C74.986 21.9226 70.4276 25.8187 67.2763 28.7085C64.0578 28.8222 60.0075 29.3428 55.1747 30.2685C50.3235 31.1527 46.3552 32.1309 43.3112 33.1882C32.162 28.8296 18.2897 24.9979 14.2781 30.8535C12.3153 33.7185 12.6145 38.0482 15.1669 43.722C16.9769 47.7451 19.5633 51.695 21.5689 54.4895C19.1928 61.5355 19.7396 68.0995 20.4605 71.955C21.3125 76.5126 22.7257 81.0195 24.6608 85.3514C26.5987 89.6871 29.704 93.3562 33.641 95.9616C37.5854 98.572 42.177 99.9897 46.9186 100.061C46.9265 100.061 46.9343 100.061 46.9416 100.061C47.7601 100.061 48.4298 99.4038 48.4423 98.5826C48.4547 97.7536 47.7932 97.0714 46.9642 97.059C42.7975 96.9959 38.7633 95.7508 35.2981 93.4575C31.837 91.167 29.1065 87.9402 27.4019 84.1261C25.5626 80.0096 24.2203 75.7287 23.4115 71.4031C22.5185 66.6247 21.9059 57.3015 27.8374 48.5483C28.3023 47.862 28.1233 46.9285 27.4365 46.4636C26.7502 45.9982 25.8167 46.1777 25.3517 46.864C24.3851 48.2901 23.58 49.729 22.9061 51.1624C18.1065 44.116 14.3296 36.0896 16.7545 32.5498C18.7739 29.6015 27.2901 30.5226 39.3166 34.8909C37.5739 35.7922 35.9237 36.7814 34.4051 37.8369C33.7243 38.3101 33.5563 39.2454 34.0295 39.9262C34.3209 40.3456 34.7885 40.5707 35.2636 40.5707C35.5591 40.5707 35.8578 40.4837 36.1188 40.3019C37.706 39.198 39.4515 38.1706 41.3047 37.2477C44.2548 35.7812 49.1023 34.4265 55.7262 33.2191C62.3257 31.9551 67.3352 31.4671 70.6149 31.7691C72.678 31.9606 74.6767 32.2883 76.5552 32.744C77.3612 32.9397 78.1723 32.4448 78.3679 31.6393C78.5631 30.8338 78.0682 30.0222 77.2627 29.8266C75.4652 29.3907 73.5692 29.0643 71.6165 28.8535C74.3964 26.4291 77.7893 23.698 81.1647 21.5521C86.2042 18.3483 89.9834 17.2721 91.8076 18.5214C94.8723 20.6209 95.2129 27.8565 92.8014 38.1011C91.6547 37.007 90.3829 35.9556 88.9656 34.9738C88.2834 34.5015 87.349 34.6718 86.8772 35.3531C86.4054 36.0348 86.5752 36.9697 87.2569 37.442C95.9499 43.4619 98.7463 52.3767 99.6393 57.1552C100.448 61.4812 100.742 65.9577 100.514 70.4604C100.302 74.6331 98.9216 78.6282 96.5216 82.0142C94.1188 85.4044 90.8069 88.0226 86.9439 89.5863C86.1757 89.8975 85.8047 90.7725 86.1158 91.5412C86.3524 92.1254 86.9145 92.4793 87.5078 92.4793C87.6952 92.4793 87.8862 92.4439 88.0703 92.3693C92.4658 90.5898 96.2353 87.6093 98.9704 83.7505C101.701 79.8986 103.271 75.3558 103.511 70.6128C103.752 65.8744 103.442 61.1612 102.59 56.6042Z" fill="#70838E"/>
<path d="M84.3828 71.8111C83.6744 71.8111 83.0437 71.3071 82.9089 70.5853C82.7565 69.7701 83.2937 68.9862 84.1084 68.8338L91.1259 67.5224C91.9411 67.371 92.725 67.9072 92.8773 68.7224C93.0297 69.5372 92.4925 70.3216 91.6778 70.4739L84.6603 71.7853C84.5674 71.8024 84.4744 71.8111 84.3828 71.8111Z" fill="#95A1B3"/>
<path d="M91.3597 77.3296C91.2755 77.3296 91.1903 77.3227 91.1042 77.308L84.9655 76.2548C84.1485 76.1144 83.5998 75.3383 83.7402 74.5213C83.8801 73.7042 84.6544 73.1546 85.4737 73.2955L91.6124 74.3487C92.4295 74.4891 92.9781 75.2651 92.8377 76.0822C92.7121 76.8132 92.0773 77.3296 91.3597 77.3296Z" fill="#95A1B3"/>
<path d="M35.3685 80.9726C34.6601 80.9726 34.0295 80.469 33.8946 79.7468C33.7423 78.9321 34.2794 78.1477 35.0942 77.9953L42.1116 76.6839C42.9268 76.532 43.7107 77.0687 43.8631 77.8839C44.0155 78.6991 43.4783 79.4831 42.6635 79.6354L35.6461 80.9468C35.5531 80.9643 35.4601 80.9726 35.3685 80.9726Z" fill="#95A1B3"/>
<path d="M37.88 87.3256C37.3695 87.3256 36.8719 87.0651 36.5907 86.5955C36.1649 85.8844 36.396 84.9624 37.1076 84.5366L42.4513 81.337C43.1621 80.9112 44.0845 81.1423 44.5103 81.8539C44.9361 82.5651 44.7046 83.4871 43.9934 83.9129L38.6496 87.1125C38.408 87.257 38.1424 87.3256 37.88 87.3256Z" fill="#95A1B3"/>
<path d="M71.0269 59.7196C70.6172 59.7196 70.2094 59.5529 69.9129 59.2252C69.3569 58.6102 69.4048 57.6611 70.0193 57.105L73.2783 54.1576C73.8932 53.6016 74.8424 53.649 75.3985 54.264C75.9545 54.8789 75.9066 55.8281 75.2921 56.3842L72.0331 59.3315C71.7464 59.5916 71.3859 59.7196 71.0269 59.7196Z" fill="white"/>
<path d="M50.4759 63.5614C50.2973 63.5614 50.1159 63.5292 49.9396 63.4615L45.836 61.8905C45.0617 61.594 44.6746 60.7263 44.9711 59.9521C45.2675 59.1778 46.1356 58.7903 46.9094 59.0872L51.0131 60.6582C51.7873 60.9546 52.1744 61.8228 51.878 62.5966C51.6492 63.1945 51.0798 63.5614 50.4759 63.5614Z" fill="white"/>
<path d="M75.775 76.7267C76.0079 78.2835 75.7557 79.5254 75.12 80.5445C73.6313 82.9441 70.0032 84.0645 65.5833 84.9488C61.0934 85.851 57.1891 86.5649 54.9073 84.7757C53.9996 84.0608 53.345 82.9515 53.015 81.2971C52.8212 80.3176 52.9128 79.2317 53.2626 78.1449C53.4242 77.6303 53.6488 77.1148 53.9213 76.6006C55.4505 73.7407 58.6054 71.1031 62.6437 70.2902C64.2023 69.9832 65.7623 69.9652 67.2312 70.1908C69.5599 70.5397 71.6612 71.4737 73.2051 72.722C74.6122 73.859 75.555 75.2675 75.775 76.7267Z" fill="#70838E"/>
<path d="M72.8672 80.9656C71.7938 83.2874 68.9891 84.2541 65.5529 84.9542C62.0624 85.67 59.0239 86.2219 57.1596 84.3544C57.2365 84.0875 57.3304 83.8223 57.4321 83.5563C58.5194 80.7843 60.8909 78.288 64.0306 77.6431C65.2426 77.401 66.4684 77.4507 67.6303 77.7283C69.4738 78.1683 71.1618 79.1792 72.4244 80.4805C72.5772 80.6407 72.7264 80.8022 72.8672 80.9656Z" fill="#E27FA3"/>
<path d="M77.259 76.5015C76.9888 74.7165 75.885 72.9599 74.1506 71.5551C72.3471 70.095 69.9696 69.0827 67.4581 68.7057C66.2677 68.5258 65.0709 68.4931 63.8815 68.6017L63.5584 66.9317L64.044 66.841C64.8592 66.6887 65.3964 65.9047 65.2436 65.0895C65.0912 64.2748 64.3073 63.7371 63.4921 63.89L59.5504 64.6265C58.7357 64.7788 58.1981 65.5627 58.3509 66.3779C58.4857 67.0997 59.1159 67.6037 59.8248 67.6037C59.9164 67.6037 60.0089 67.5955 60.1024 67.578L60.6069 67.4836L60.936 69.1835C57.3838 70.2887 54.2675 72.7675 52.5979 75.8916C52.2835 76.4776 52.0258 77.0824 51.8311 77.6891C51.402 79.0305 51.3022 80.3787 51.5434 81.5903C52.2007 84.8709 54.0866 86.777 57.149 87.2553C57.7051 87.3423 58.2869 87.3814 58.8963 87.3814C60.9005 87.3814 63.2053 86.9584 65.8806 86.4217C68.7263 85.85 71.9365 85.0638 74.1685 83.5687C76.6735 81.8918 77.7133 79.5143 77.259 76.5015ZM72.498 81.0752C70.6918 82.2849 67.6965 82.9951 65.2896 83.4789C62.0983 84.1197 59.5062 84.586 57.6121 84.29C56.2901 84.0833 54.9957 83.542 54.4875 81.0034C54.3462 80.2917 54.4162 79.4622 54.6905 78.6051C54.8295 78.172 55.0155 77.7366 55.2452 77.3089C56.4024 75.1432 59.0308 72.5489 62.9328 71.7645C63.6905 71.6149 64.4564 71.5399 65.2251 71.5399C65.8199 71.5399 66.4164 71.585 67.0107 71.6747C69.0029 71.9735 70.8681 72.7597 72.2614 73.8884C73.4122 74.8205 74.1331 75.9082 74.2905 76.9503C74.5713 78.8118 74.0355 80.0455 72.498 81.0752Z" fill="#70838E"/>
<path d="M40.7542 74.7934C40.0683 74.7934 39.4496 74.3206 39.2918 73.6242C39.1086 72.8159 39.6149 72.0117 40.4232 71.8285C40.5797 71.7931 43.1957 71.2048 46.2365 70.8587C45.1731 70.1742 43.957 69.527 42.7943 69.2154C41.9933 69.0008 41.5183 68.1778 41.7328 67.3769C41.9478 66.5759 42.7717 66.1009 43.5713 66.3159C47.3555 67.3299 51.1995 70.86 51.3611 71.0101C51.8163 71.4313 51.9655 72.0886 51.7367 72.6649C51.5098 73.2371 50.9565 73.6127 50.3415 73.6127C50.3374 73.6127 50.3332 73.6127 50.3291 73.6127C46.3188 73.5828 41.1394 74.7446 41.0874 74.7566C40.976 74.781 40.8642 74.7934 40.7542 74.7934Z" fill="#5F5C5D"/>
<path d="M74.7835 69.0435C74.3733 69.0435 73.9719 68.8755 73.682 68.5625C73.2608 68.1077 73.1623 67.4407 73.4343 66.8837C73.531 66.6858 75.8403 62.0054 79.0022 59.6928C79.671 59.2035 80.611 59.3494 81.0998 60.0182C81.5891 60.6875 81.4432 61.6265 80.7744 62.1158C79.8027 62.8266 78.9023 63.8692 78.158 64.8915C81.1183 64.1159 83.7701 63.7196 83.9289 63.6961C84.7473 63.576 85.5119 64.1417 85.6325 64.9619C85.7536 65.7822 85.1869 66.5449 84.3671 66.666C84.3142 66.6738 79.0551 67.4619 75.3368 68.9376C75.1568 69.0085 74.9694 69.0435 74.7835 69.0435Z" fill="#5F5C5D"/>
<path d="M75.3938 100.686C81.1491 88.3548 93.6925 62.0679 103.158 65.1524C112.624 68.237 90.0865 103.606 90.0865 103.606L75.3938 100.686Z" fill="#B2B8C4"/>
<path d="M90.0851 105.107C89.8094 105.107 89.5299 105.031 89.28 104.872C88.5808 104.426 88.375 103.498 88.8206 102.799C95.63 92.1108 105.703 73.117 103.742 67.6499C103.535 67.0718 103.221 66.7514 102.693 66.5792C99.3843 65.5007 94.6983 69.4359 89.1419 77.9576C83.9197 85.9666 79.08 96.3364 76.7536 101.32C76.4028 102.071 75.5098 102.395 74.7586 102.045C74.0074 101.694 73.6829 100.801 74.0332 100.05C76.3881 95.0043 81.2886 84.5046 86.6268 76.318C93.188 66.2552 98.7472 62.1354 103.623 63.7244C105.032 64.1833 106.05 65.1905 106.569 66.6363C107.952 70.4965 105.824 77.855 100.06 89.1321C95.9407 97.1931 91.3979 104.34 91.3528 104.412C91.0665 104.862 90.5813 105.107 90.0851 105.107Z" fill="#70838E"/>
<path d="M58.1847 102.283C49.1258 92.1289 29.5507 70.5611 21.3724 76.2381C13.194 81.9151 44.9531 109.306 44.9531 109.306L58.1847 102.283Z" fill="#B2B8C4"/>
<path d="M44.9527 110.808C44.6051 110.808 44.2567 110.688 43.9727 110.443C43.9087 110.388 37.5021 104.849 31.2377 98.3141C22.4739 89.1714 18.3182 82.7358 18.5332 78.6409C18.6137 77.1067 19.2996 75.8496 20.5167 75.0049C24.7285 72.081 31.2387 74.4268 40.4172 82.177C47.8844 88.4818 55.5982 97.1283 59.3056 101.284C59.8575 101.902 59.8036 102.851 59.185 103.403C58.5663 103.955 57.6176 103.901 57.0652 103.283C53.4039 99.179 45.7854 90.6393 38.4807 84.4712C30.7075 77.9076 25.0885 75.4873 22.229 77.4717C21.7728 77.7884 21.5643 78.1856 21.5321 78.7988C21.2278 84.601 36.338 99.8939 45.9345 108.17C46.5624 108.711 46.6323 109.659 46.091 110.287C45.7932 110.632 45.3738 110.808 44.9527 110.808Z" fill="#70838E"/>
<circle cx="60.0023" cy="60.0413" r="58.2879" stroke="black" stroke-width="3.4287"/>
<circle cx="60.0022" cy="60.0413" r="54.8592" stroke="white" stroke-width="3.4287"/>
</g>
<defs>
<clipPath id="clip0_138_1246">
<rect y="0.0390625" width="120.005" height="120.005" rx="60.0023" fill="white"/>
</clipPath>
</defs>
</svg>
