<svg width="120" height="121" viewBox="0 0 120 121" fill="none" xmlns="http://www.w3.org/2000/svg">
<g clip-path="url(#clip0_271_1232)">
<circle cx="60.0023" cy="60.0457" r="60.0023" fill="#D9D9D9"/>
<path d="M104.519 8.16068C99.0932 2.73511 81.8097 12.6043 74.197 17.3885C70.4294 16.7622 65.5694 16.5049 60.0039 16.5298C54.4372 16.5049 49.5772 16.7622 45.8091 17.3885C38.1941 12.6003 20.9117 2.738 15.489 8.16068C10.1039 13.5458 16.2524 28.3293 19.4099 34.9167C15.6758 41.2236 14.3122 48.1307 14.3122 54.0791C14.3122 59.2224 14.9252 64.3594 16.157 69.4964C18.5627 79.5223 26.4894 87.2212 36.5939 89.2683C36.9958 89.3493 37.3983 89.4274 37.8002 89.5043C36.7292 91.6567 36.1405 94.0017 36.1405 96.456C36.1405 106.913 46.824 115.391 60.0027 115.391C73.1815 115.391 83.8649 106.913 83.8649 96.456C83.8649 94.0017 83.2762 91.6567 82.2052 89.5043C82.6077 89.4274 83.0102 89.3493 83.4127 89.2678C93.5173 87.2206 101.444 79.5218 103.85 69.4958C105.081 64.3588 105.694 59.2218 105.694 54.0785C105.694 48.1319 104.332 41.2265 100.6 34.9207C103.75 28.3403 109.906 13.5475 104.519 8.16068Z" fill="#767576"/>
<path d="M54.1822 58.5504C57.7688 56.4223 62.239 56.4223 65.8256 58.5504C78.0641 65.8126 89.5045 69.8607 89.5045 54.7435C89.5045 46.0627 78.4533 44.1855 59.9091 44.1855H60.0982C41.554 44.1855 30.5033 46.0633 30.5033 54.7435C30.5033 69.8607 41.9437 65.8126 54.1822 58.5504Z" fill="#B2B8C4"/>
<path d="M62.2784 57.1317H57.7295C56.9713 57.1317 56.356 56.5169 56.356 55.7582C56.356 54.9995 56.9713 54.3848 57.7295 54.3848H62.2784C63.0365 54.3848 63.6518 54.9995 63.6518 55.7582C63.6518 56.5169 63.0371 57.1317 62.2784 57.1317Z" fill="#70838E"/>
<path d="M82.3394 66.4208C78.2694 66.4208 72.7276 64.2435 65.1247 59.7323C61.9661 57.858 58.0418 57.858 54.8831 59.7323C44.2633 66.034 37.6626 67.7816 33.4816 65.4013C30.5941 63.7572 29.1299 60.1712 29.1299 54.7439C29.1299 49.9319 32.0133 46.7108 37.9448 44.8961C42.625 43.4642 49.4003 42.8206 59.8946 42.8125C59.8992 42.8125 59.9044 42.8125 59.9097 42.8125H60.0982C60.1028 42.8125 60.108 42.8125 60.1132 42.8125C70.6075 42.8206 77.3828 43.4642 82.063 44.8961C87.9946 46.7108 90.8779 49.9319 90.8779 54.7439C90.8779 60.1712 89.4137 63.7566 86.5263 65.4013C85.3385 66.0779 83.9546 66.4208 82.3394 66.4208ZM60.0039 55.579C62.2593 55.579 64.5146 56.1758 66.5265 57.3694C75.9354 62.9522 82.0323 64.7987 85.1667 63.0135C87.1341 61.8934 88.131 59.1112 88.131 54.7433C88.131 51.2036 86.0116 48.9766 81.2592 47.5221C76.8335 46.1684 70.2756 45.5623 60.0039 45.5582C49.7316 45.5617 43.1738 46.1684 38.7487 47.5221C33.9962 48.976 31.8768 51.203 31.8768 54.7433C31.8768 59.1112 32.8738 61.8934 34.8411 63.0135C37.9749 64.7981 44.0725 62.9522 53.4813 57.3694C55.4932 56.1763 57.7486 55.579 60.0039 55.579Z" fill="#5F5C5D"/>
<path d="M84.412 58.2728H74.1583C73.3995 58.2728 72.7848 57.6581 72.7848 56.8993C72.7848 56.1406 73.4001 55.5259 74.1583 55.5259H84.412C85.1708 55.5259 85.7855 56.1406 85.7855 56.8993C85.7855 57.6581 85.1708 58.2728 84.412 58.2728Z" fill="#5F5C5D"/>
<path d="M45.8461 58.2728H35.5929C34.8342 58.2728 34.2195 57.6581 34.2195 56.8993C34.2195 56.1406 34.8342 55.5259 35.5929 55.5259H45.8461C46.6048 55.5259 47.2195 56.1406 47.2195 56.8993C47.2195 57.6581 46.6048 58.2728 45.8461 58.2728Z" fill="#5F5C5D"/>
<path d="M105.487 7.18793C102.671 4.37105 97.4959 4.52835 89.6664 7.66907C83.9407 9.96606 78.012 13.3878 73.9032 15.9537C70.2935 15.4003 65.6475 15.132 60.0103 15.1563C54.3644 15.1308 49.7131 15.3997 46.1011 15.9543C41.9854 13.3861 36.0509 9.96201 30.3345 7.66907C22.5067 4.52893 17.3327 4.37163 14.5164 7.18793C8.83981 12.8639 14.0092 26.6672 17.8572 34.8461C13.701 42.1933 12.9399 49.636 12.9399 54.079C12.9399 59.3137 13.5732 64.6086 14.8223 69.8167C16.065 74.9948 18.7315 79.6784 22.5338 83.361C26.3437 87.0505 31.1111 89.5586 36.3227 90.614C44.1783 92.2026 52.1449 93.0075 60.001 93.0075C60.0022 93.0075 60.0045 93.0075 60.0045 93.0075C67.8629 93.0075 75.8307 92.202 83.6868 90.614C88.8979 89.558 93.6659 87.0499 97.4751 83.3604C101.278 79.6778 103.945 74.9942 105.187 69.8162C106.436 64.608 107.07 59.3132 107.07 54.0784C107.07 49.6354 106.309 42.1933 102.153 34.8466C105.994 26.6649 111.155 12.8558 105.487 7.18793ZM102.514 69.176C101.394 73.8457 98.9903 78.0684 95.5633 81.3879C92.1317 84.7113 87.8361 86.9713 83.1409 87.922C75.4641 89.4742 67.6796 90.2612 60.0033 90.2612C60.0016 90.2612 60.001 90.2612 59.9999 90.2612C52.3265 90.2612 44.5426 89.4742 36.8663 87.922C32.1711 86.9707 27.875 84.7113 24.444 81.3879C21.017 78.0684 18.613 73.8457 17.4923 69.1754C16.2935 64.1766 15.6857 59.0975 15.6857 54.0784C15.6857 48.5129 16.9585 37.8908 25.4808 29.2817C26.0146 28.7427 26.01 27.873 25.471 27.3392C24.932 26.8054 24.0623 26.8095 23.5285 27.349C22.0168 28.8757 20.7203 30.4603 19.6019 32.0685C14.5146 20.7513 13.3262 12.2613 16.4577 9.12927C19.4828 6.10478 29.2126 9.03616 42.1814 16.779C39.8023 17.459 37.5233 18.286 35.4073 19.2379C34.7156 19.549 34.4068 20.3621 34.7179 21.0537C35.0291 21.7454 35.8427 22.0536 36.5338 21.743C38.5492 20.8369 40.7241 20.0486 42.9991 19.4015C46.6245 18.3722 52.3473 17.8667 60.0097 17.902C67.6623 17.8667 73.3822 18.3722 77.0069 19.401C79.2825 20.0486 81.4581 20.8363 83.4729 21.743C83.6556 21.8252 83.847 21.8645 84.0356 21.8645C84.5595 21.8645 85.0603 21.5632 85.2887 21.0543C85.5998 20.3627 85.2916 19.5496 84.5994 19.2385C82.4823 18.286 80.202 17.4585 77.8206 16.7778C90.7848 9.03154 100.515 6.10016 103.544 9.12985C106.671 12.2561 105.484 20.7466 100.405 32.0685C99.2864 30.4609 97.9898 28.8763 96.4782 27.3496C95.945 26.8106 95.0752 26.806 94.5357 27.3398C93.9967 27.8736 93.9921 28.7433 94.5258 29.2823C103.048 37.8908 104.321 48.5129 104.321 54.0784C104.322 59.0986 103.714 64.1778 102.514 69.176Z" fill="#5F5C5D"/>
<path d="M30.9388 106.179C30.7479 101.58 32.207 97.786 36.8056 97.5952C41.4042 97.4049 45.2863 100.978 45.4765 105.576C45.6674 110.175 42.0941 114.057 37.4955 114.247C32.8975 114.438 31.1296 110.777 30.9388 106.179Z" fill="#95A1B3"/>
<path d="M37.1566 115.628C32.5731 115.628 29.8152 112.229 29.5665 106.236C29.452 103.472 29.8984 101.217 30.8943 99.5347C32.1122 97.4765 34.1368 96.3309 36.7483 96.2233C39.3397 96.1129 41.8165 97.0237 43.7237 98.7794C45.6315 100.535 46.7413 102.929 46.8488 105.519C46.9564 108.11 46.0485 110.588 44.2922 112.495C42.5365 114.403 40.1429 115.512 37.5522 115.619C37.4192 115.625 37.2867 115.628 37.1566 115.628ZM32.3111 106.122C32.5025 110.736 34.2206 113.006 37.4388 112.875C39.2963 112.798 41.0127 112.003 42.2716 110.635C43.5306 109.267 44.1818 107.491 44.1048 105.633C44.0279 103.776 43.2322 102.06 41.8639 100.801C40.4963 99.5416 38.718 98.8881 36.8623 98.9674C35.1789 99.0373 33.9997 99.6804 33.2583 100.934C32.5476 102.134 32.2203 103.928 32.3111 106.122Z" fill="#70838E"/>
<path d="M44.1644 96.4872L41.6968 85.1243C40.7739 80.8733 36.5795 78.1755 32.3284 79.0985C28.0774 80.0214 25.3796 84.2158 26.3032 88.4669L28.7708 99.8298C29.2646 102.103 31.5073 103.546 33.7805 103.052L40.9427 101.497C43.2154 101.003 44.6583 98.7599 44.1644 96.4872Z" fill="#C9C9C9"/>
<path d="M34.5832 89.482C33.1022 89.8036 31.6356 88.8604 31.3141 87.3794C30.9926 85.8983 31.9358 84.4318 33.4168 84.1103C34.8978 83.7887 36.3644 84.7319 36.6859 86.2129C37.0074 87.6934 36.0642 89.1605 34.5832 89.482Z" fill="#5F5C5D"/>
<path d="M45.5066 96.195L43.0396 84.8326C43.039 84.8286 43.0373 84.8251 43.0367 84.8211C42.049 80.2994 37.887 77.272 33.4018 77.5652L32.6523 74.1134C32.4915 73.372 31.7606 72.9024 31.0186 73.0626C30.2772 73.2234 29.8071 73.9555 29.9678 74.6963L30.7173 78.1481C26.5085 79.7431 23.9784 84.2306 24.9615 88.7587C24.965 88.7731 24.969 88.7876 24.9719 88.8021L27.4297 100.121C27.7454 101.579 28.61 102.826 29.8655 103.634C30.7775 104.221 31.8161 104.523 32.8761 104.523C33.274 104.523 33.6753 104.48 34.0737 104.394L41.2348 102.838C42.6926 102.523 43.94 101.658 44.7473 100.403C45.5535 99.1478 45.8235 97.6534 45.5066 96.195ZM27.6558 88.2191L27.6466 88.1763C27.6454 88.1717 27.6437 88.1671 27.6425 88.1625C26.8901 84.6632 29.1206 81.2009 32.6199 80.4411C33.0831 80.3404 33.5452 80.2919 34.0009 80.2919C36.993 80.2919 39.6942 82.3749 40.354 85.4156C41.1151 88.9195 38.8834 92.3892 35.3795 93.1503C33.6816 93.5192 31.9433 93.2046 30.4819 92.2649C29.0339 91.3333 28.0317 89.8973 27.6558 88.2191ZM42.4365 98.9164C42.0265 99.5537 41.3926 99.9926 40.6513 100.153L33.4891 101.71C32.7471 101.871 31.9878 101.733 31.3505 101.323C30.7133 100.913 30.2738 100.279 30.1136 99.5387L29.0414 94.6024C30.5415 95.5554 32.244 96.0487 33.9806 96.0487C34.6393 96.0487 35.3032 95.9781 35.9619 95.8347C38.4376 95.2969 40.4656 93.8084 41.7483 91.8364L42.8216 96.7779C42.9835 97.5193 42.8459 98.2792 42.4365 98.9164Z" fill="#AAAAAA"/>
<path d="M85.0221 86.052C91.8714 79.2027 93.5236 70.231 86.8137 69.4173C84.8509 69.1797 83.3537 70.0858 82.233 71.3778C80.1101 73.8251 76.712 74.803 73.7326 73.5313C72.0319 72.8056 70.2548 72.6604 68.8923 74.0229C65.1993 77.7159 68.3493 84.5432 76.2789 87.5342L85.0221 86.052Z" fill="#FFFFA1"/>
<path d="M76.2789 88.9076C76.1181 88.9076 75.9539 88.8787 75.7943 88.8185C70.6949 86.8951 67.0019 83.2657 66.157 79.3472C65.6383 76.9427 66.2651 74.7064 67.9214 73.0502C69.1271 71.8444 71.3096 70.7763 74.8574 72.5378C76.8589 73.5313 79.345 72.8848 80.7705 71.0013C82.4481 68.7835 84.5948 67.7634 86.9785 68.0531C89.519 68.3608 91.3302 69.7226 92.0773 71.8878C93.445 75.8485 90.9427 82.0721 85.9925 87.0223C85.4564 87.559 84.5861 87.559 84.0506 87.0223C83.5139 86.4863 83.5139 85.6165 84.0506 85.0799C87.5371 81.5933 90.6252 76.0989 89.4808 72.7836C89.0783 71.6177 88.1519 70.9619 86.6477 70.7798C85.2506 70.6092 84.0448 71.2245 82.9611 72.6586C80.7399 75.5947 76.8179 76.5789 73.6355 74.9978C71.1112 73.7447 70.1715 74.6833 69.8633 74.9926C68.6153 76.2406 68.6188 77.7343 68.8414 78.7683C69.4816 81.7385 72.5911 84.6745 76.7629 86.248C77.4725 86.5158 77.831 87.308 77.5633 88.0182C77.3568 88.5681 76.8341 88.9076 76.2789 88.9076Z" fill="#F9CB71"/>
<path d="M99.8635 90.439C93.6607 83.8025 85.5831 81.2725 81.8213 84.7885C78.0595 88.3046 80.0378 96.5348 86.24 103.171C92.4428 109.808 100.52 112.338 104.283 108.822C108.045 105.306 106.066 97.0761 99.8635 90.439Z" fill="#767576"/>
<path d="M99.7843 111.789C95.3482 111.789 89.8474 109.043 85.2373 104.111C82.078 100.73 79.8481 96.831 78.9587 93.1316C78.0039 89.1581 78.6875 85.8387 80.8839 83.7858C85.2668 79.6903 94.0441 82.2012 100.868 89.5022C104.027 92.8829 106.257 96.7818 107.147 100.481C108.101 104.455 107.418 107.774 105.221 109.827C103.799 111.155 101.914 111.789 99.7843 111.789ZM86.3054 84.5688C84.8758 84.5688 83.6487 84.9609 82.7593 85.793C81.317 87.141 80.9157 89.5196 81.6299 92.4897C82.41 95.7345 84.4034 99.1956 87.244 102.235C92.8228 108.204 100.196 110.763 103.345 107.82C104.787 106.472 105.188 104.093 104.474 101.123C103.694 97.8783 101.701 94.4172 98.8602 91.3782C94.8584 87.0954 89.9325 84.5688 86.3054 84.5688Z" fill="#5F5C5D"/>
<circle cx="60.0023" cy="60.0457" r="58.2879" stroke="black" stroke-width="3.4287"/>
<circle cx="60.0022" cy="60.0457" r="54.8592" stroke="white" stroke-width="3.4287"/>
<path d="M101.266 119.702C101.266 109.351 92.8759 92.9185 82.525 92.9185C72.1741 92.9185 63.7842 109.351 63.7842 119.702C63.7842 130.052 72.1747 131.439 82.525 131.439C92.8754 131.439 101.266 130.053 101.266 119.702Z" fill="#FFFFA1"/>
<path d="M82.5256 132.812C77.8484 132.812 72.5454 132.56 68.6754 130.688C64.5186 128.677 62.4108 124.98 62.4108 119.701C62.4108 114.196 64.5944 107.297 68.1099 101.698C72.2204 95.1502 77.3395 91.5439 82.525 91.5439C87.71 91.5439 92.8297 95.1496 96.9402 101.698C100.456 107.297 102.639 114.196 102.639 119.701C102.639 124.98 100.532 128.677 96.3752 130.688C92.5058 132.559 87.2029 132.812 82.5256 132.812ZM82.5256 94.2908C78.381 94.2908 73.9749 97.5229 70.4369 103.158C67.2297 108.266 65.1582 114.759 65.1582 119.701C65.1582 128.368 71.5264 130.064 82.5256 130.064C97.0512 130.064 99.893 126.264 99.893 119.701C99.893 114.759 97.8209 108.265 94.6143 103.158C91.0763 97.5229 86.6703 94.2908 82.5256 94.2908Z" fill="#F9CB71"/>
<path d="M86.4135 112.291L79.1998 112.065C79.5156 110.635 80.2517 109.334 81.3424 108.31C82.7725 106.967 84.6335 106.262 86.6003 106.323C87.3601 106.349 87.9922 105.751 88.0159 104.992C88.0396 104.234 87.4446 103.6 86.6859 103.577C85.6605 103.544 84.652 103.666 83.688 103.931L83.7736 101.203C83.7973 100.445 83.2022 99.8109 82.4435 99.7872C82.429 99.7866 82.414 99.7866 82.4001 99.7866C81.6616 99.7866 81.0509 100.374 81.0278 101.117L80.9006 105.183C80.3934 105.512 79.9105 105.886 79.4612 106.308C77.4962 108.154 76.3679 110.654 76.2841 113.348C76.2603 114.106 76.8554 114.74 77.6141 114.764L84.8266 114.99C84.0754 118.363 80.9989 120.838 77.4273 120.732C77.4129 120.732 77.3979 120.732 77.3834 120.732C76.6449 120.732 76.0342 121.319 76.0111 122.063C75.9874 122.821 76.583 123.455 77.3412 123.478C77.4482 123.482 77.5546 123.483 77.661 123.483C78.5868 123.483 79.4849 123.354 80.3396 123.118L80.2477 126.055C80.224 126.813 80.819 127.447 81.5772 127.471C81.5916 127.471 81.6067 127.471 81.6211 127.471C82.3596 127.471 82.9703 126.884 82.9934 126.141L83.127 121.866C85.8144 120.126 87.636 117.142 87.7436 113.707C87.7667 112.948 87.1716 112.314 86.4135 112.291Z" fill="#EA9C71"/>
<path d="M88.2687 88.8062C87.4793 84.2724 85.2482 80.8737 80.7138 81.6631C76.1794 82.4525 73.144 86.7683 73.9339 91.3027C74.7233 95.8365 79.0391 98.8726 83.5735 98.0826C88.1079 97.2933 89.0586 93.3406 88.2687 88.8062Z" fill="#95A1B3"/>
<path d="M82.1387 99.5809C77.5112 99.5809 73.4013 96.2505 72.5807 91.538C72.1354 88.9836 72.7119 86.4091 74.2039 84.2885C75.6959 82.1679 77.9241 80.7545 80.4785 80.3098C85.2309 79.4834 88.5636 82.4929 89.6219 88.5707C90.6796 94.6481 88.5613 98.6082 83.8089 99.4358C83.2479 99.5335 82.6899 99.5809 82.1387 99.5809ZM81.9739 82.9225C81.6495 82.9225 81.3089 82.9538 80.9503 83.0162C79.1189 83.3354 77.521 84.348 76.4518 85.869C75.3825 87.3893 74.969 89.2358 75.2877 91.0672C75.6069 92.8987 76.6201 94.4965 78.1404 95.5658C79.6607 96.6351 81.5061 97.0491 83.3381 96.7299C88.1096 95.8989 87.2115 90.7382 86.916 89.0421C86.539 86.8792 85.8381 85.1952 84.8891 84.1728C84.1125 83.336 83.1525 82.9225 81.9739 82.9225Z" fill="#70838E"/>
</g>
<defs>
<clipPath id="clip0_271_1232">
<rect y="0.043457" width="120.005" height="120.005" rx="60.0023" fill="white"/>
</clipPath>
</defs>
</svg>
