<svg width="121" height="121" viewBox="0 0 121 121" fill="none" xmlns="http://www.w3.org/2000/svg">
<g clip-path="url(#clip0_2_6458)">
<circle cx="60.0262" cy="60.0173" r="60.0023" fill="#D9D9D9"/>
<path d="M82.3594 72.7945L37.2402 48.5823C22.0626 51.8652 16.7255 59.2218 14.8666 63.5505C12.0078 63.6571 9.72192 66.0017 9.72192 68.8866C9.72192 71.8392 12.1154 74.2326 15.068 74.2326C15.1395 74.2326 15.2087 74.2246 15.2798 74.2217C15.9882 77.7429 19.047 87.1542 31.9321 95.1619C31.9088 95.3638 31.8942 95.5675 31.8942 95.7756C31.8942 98.7282 34.2876 101.122 37.2402 101.122C40.1928 101.122 42.5863 98.7282 42.5863 95.7756C42.5863 95.6756 42.5768 95.578 42.5711 95.4789C49.47 94.0199 78.5164 87.0703 82.3594 72.7945Z" fill="white"/>
<path d="M37.2399 102.247C33.6712 102.247 30.7679 99.3437 30.7679 95.7755C30.7679 95.7703 30.7679 95.7646 30.7679 95.7594C18.9424 88.2076 15.4159 79.5066 14.3734 75.321C11.1299 74.9737 8.5957 72.2206 8.5957 68.8865C8.5957 65.6359 10.9659 62.952 14.1104 62.4909C15.1089 60.3912 16.9654 57.5263 20.3521 54.7974C24.5339 51.4282 30.1358 48.9665 37.0015 47.4815C37.2626 47.4246 37.5355 47.4635 37.7715 47.59L82.8907 71.8022C83.3518 72.0495 83.5811 72.5817 83.4456 73.0868C81.7198 79.4981 75.1958 85.1806 64.0559 89.9769C56.0202 93.4366 47.6585 95.513 43.6824 96.3906C43.372 99.6716 40.6014 102.247 37.2399 102.247ZM15.2799 73.0963C15.8135 73.0963 16.2769 73.4725 16.3831 73.9999C17.0863 77.496 20.0668 86.4628 32.5255 94.2061C32.8951 94.4359 33.0993 94.8577 33.0495 95.2903C33.0292 95.4694 33.0192 95.6282 33.0192 95.776C33.0192 98.1031 34.9127 99.9966 37.2399 99.9966C39.567 99.9966 41.4605 98.1031 41.4605 95.776C41.4605 95.7315 41.4567 95.6869 41.4539 95.6433L41.4477 95.5424C41.4169 94.9875 41.795 94.4933 42.3386 94.3786C48.0689 93.1665 76.361 86.5514 81.01 73.3479L37.0754 49.7712C30.6599 51.2126 19.791 54.9362 15.9012 63.9949C15.7296 64.3944 15.3434 64.6593 14.9089 64.6754C12.6315 64.7607 10.8475 66.6101 10.8475 68.8865C10.8475 71.2136 12.741 73.1072 15.0681 73.1072C15.0852 73.1067 15.1032 73.1053 15.1212 73.1039C15.1591 73.1015 15.197 73.0987 15.2354 73.0972C15.2501 73.0963 15.2652 73.0963 15.2799 73.0963Z" fill="#E3E3E3"/>
<path d="M80.7128 70.3757C78.1696 70.3757 75.7316 70.7368 73.4746 71.3983C71.9033 68.6139 70.9262 66.6588 70.9262 66.6588L64.2648 76.7126C62.6475 78.3332 61.396 80.1969 60.6118 82.2259L57.0456 87.6085C54.9805 101.24 58.0843 109.03 64.3657 109.03C66.7786 109.03 71.2461 106.718 75.4615 103.498C77.1404 103.843 78.9003 104.027 80.7133 104.027C92.3313 104.027 101.75 96.4942 101.75 87.2014C101.749 77.9091 92.3308 70.3757 80.7128 70.3757Z" fill="#B1B9C6"/>
<path d="M70.849 9.83796C65.3187 8.34389 57.8004 21.1612 54.6521 27.0897C51.9801 28.0857 48.7384 29.7267 45.1447 31.8126C41.532 33.8668 38.4813 35.8413 36.275 37.6486C29.5643 37.3814 14.7079 37.425 13.2148 42.952C11.7316 48.4412 21.2107 55.7243 25.7047 58.8144C25.6332 64.2865 27.3196 69.2648 29.5321 73.1154C31.445 76.4451 33.7527 79.5427 36.4608 82.4101C41.7471 88.0058 49.7425 90.0415 57.0451 87.6083C62.6835 85.727 68.0282 83.3355 73.08 80.4331C78.1313 77.5308 82.8897 74.1176 87.3544 70.194C93.1345 65.1105 95.4024 57.1781 93.2302 49.7931C92.1172 46.0093 90.6032 42.4559 88.6902 39.1261C86.4782 35.2765 83.0276 31.3131 78.2663 28.6188C77.8574 23.1875 76.3401 11.3216 70.849 9.83796Z" fill="#B1B9C6"/>
<path d="M50.0867 32.1346C53.2534 37.646 54.2149 43.0324 52.2441 44.1649C50.2691 45.2998 46.1001 41.7563 42.9333 36.2448C42.4993 35.4895 42.1069 34.738 41.761 33.9997C44.0255 32.5582 46.3508 31.2219 48.739 29.9956C49.2039 30.6661 49.6554 31.3835 50.0867 32.1346Z" fill="#91A2B5"/>
<path d="M41.3661 34.737C44.5305 40.2441 45.4986 45.6324 43.5236 46.7672C41.6244 47.8585 37.6748 44.5989 34.5582 39.4286C35.6021 38.4023 36.7413 37.4446 37.9657 36.567C39.0167 35.8174 40.0801 35.0886 41.16 34.3892C41.2325 34.5048 41.2979 34.619 41.3661 34.737Z" fill="#91A2B5"/>
<path d="M57.029 26.4564C59.9466 31.7688 60.7881 36.8481 58.8804 37.9441C56.9053 39.079 52.7383 35.5289 49.5738 30.0217C49.5061 29.9037 49.4407 29.7895 49.3767 29.6692C50.694 29.002 52.0379 28.3703 53.3941 27.7709C54.5891 27.2406 55.8046 26.8061 57.029 26.4564Z" fill="#91A2B5"/>
<path d="M71.6059 20.6805C71.6059 20.6805 72.9175 21.6448 73.842 23.0389C74.6992 24.3258 74.4798 25.81 73.67 26.8425C70.0071 25.5963 66.0888 25.1077 62.1781 25.4522C61.7904 24.7092 61.6848 23.8217 61.9677 22.9464C63.1002 19.4271 65.0435 15.2178 67.9075 14.8298C72.8981 14.1564 71.6059 20.6805 71.6059 20.6805Z" fill="white"/>
<path d="M22.1978 49.0683C22.1978 49.0683 22.3698 50.6869 23.109 52.1877C23.789 53.5765 25.1817 54.1343 26.4815 53.9547C27.2496 50.1624 28.801 46.5317 31.0679 43.3261C30.6211 42.6172 29.9079 42.0784 29.009 41.8822C25.3982 41.0885 20.7833 40.6473 19.0054 42.9261C15.9107 46.8989 22.1978 49.0683 22.1978 49.0683Z" fill="white"/>
<path d="M94.3098 49.4754C93.1792 45.631 91.6164 41.961 89.666 38.5653C88.0123 35.6876 84.7536 31.1547 79.3388 27.9348C78.7749 21.1786 76.9615 10.3244 71.1406 8.75123C68.2269 7.96321 64.9009 10.0022 60.9731 14.982C58.1261 18.5918 55.5654 22.9996 53.8576 26.1901C51.3144 27.1776 48.2121 28.7305 44.5885 30.8344C40.9389 32.9099 38.0322 34.8096 35.8975 36.5102C32.2758 36.3799 27.1733 36.3728 22.6281 37.0135C16.3486 37.8982 12.9136 39.7448 12.126 42.6585C10.5509 48.4874 19.0178 55.5143 24.5733 59.3999C24.6278 65.7003 26.9028 70.7985 28.5561 73.6767C30.5069 77.0719 32.8914 80.2704 35.6426 83.1832C38.3857 86.087 41.8709 88.1369 45.7206 89.1112C47.3971 89.5357 49.1072 89.7471 50.8164 89.7471C53.0397 89.7471 55.2617 89.3893 57.4011 88.6762C63.0836 86.7803 68.5472 84.3356 73.6402 81.4091C78.7327 78.4835 83.5969 74.9945 88.0971 71.0392C91.0923 68.405 93.2564 64.9914 94.3553 61.1678C95.4532 57.3509 95.4371 53.308 94.3098 49.4754ZM86.6111 69.3485C82.2232 73.2043 77.4822 76.6056 72.5191 79.4573C67.5559 82.309 62.2297 84.692 56.6894 86.5405C49.8616 88.815 42.2425 86.8907 37.2793 81.6375C34.6494 78.8531 32.3711 75.7972 30.5083 72.5551C28.4461 68.9656 25.3305 61.6436 27.6363 52.935C27.7955 52.3342 27.4373 51.7182 26.8364 51.559C26.2356 51.3998 25.6196 51.758 25.4604 52.3588C25.0652 53.852 24.8159 55.3067 24.6847 56.7136C17.3114 51.3462 13.4538 46.3764 14.2996 43.2456C15.1151 40.2286 22.3737 38.5369 33.4695 38.7004C32.2427 39.9784 31.1253 41.3076 30.1487 42.6562C29.7843 43.1599 29.8971 43.8635 30.4003 44.2279C30.5998 44.3725 30.8306 44.4416 31.0594 44.4416C31.4082 44.4416 31.7518 44.2801 31.9721 43.9763C32.9369 42.6438 34.0485 41.3284 35.2768 40.067C37.2347 38.0588 40.7418 35.6109 45.7097 32.7857C50.6435 29.9213 54.5248 28.1244 57.2448 27.4444C58.9544 27.0184 60.6508 26.7199 62.2871 26.5583C62.9059 26.4972 63.3575 25.9456 63.2964 25.3272C63.2348 24.7088 62.6846 24.2587 62.0653 24.3179C60.4078 24.4819 58.6957 24.778 56.9713 25.195C62.4155 15.526 67.5303 10.1074 70.553 10.9234C73.6786 11.7678 76.0299 17.6033 76.9605 26.6763C75.6792 26.0811 74.297 25.5637 72.8081 25.1533C72.2087 24.9875 71.5889 25.34 71.424 25.939C71.2586 26.5384 71.6107 27.1582 72.2101 27.3231C80.8949 29.717 85.6515 36.0961 87.7137 39.6855C89.5765 42.9277 91.0691 46.4347 92.15 50.109C94.1895 57.0443 92.0154 64.5957 86.6111 69.3485Z" fill="#678490"/>
<path d="M77.6023 49.7497C78.6552 51.5821 80.9942 52.2142 82.827 51.1613C84.6594 50.1084 85.2916 47.7694 84.2387 45.9365L77.6023 49.7497Z" fill="#605C5D"/>
<path d="M52.5308 64.1547C53.5837 65.9871 55.9226 66.6192 57.7555 65.5663C59.5879 64.5134 60.22 62.1744 59.1671 60.3416L52.5308 64.1547Z" fill="#605C5D"/>
<path d="M50.2174 73.1102C49.7919 73.1102 49.3787 72.8889 49.1517 72.4937C48.8139 71.9056 49.0167 71.155 49.6047 70.8172L54.8475 67.8049C55.4351 67.4665 56.1856 67.6698 56.524 68.2579C56.8618 68.8459 56.659 69.5965 56.071 69.9344L50.8282 72.9467C50.6354 73.0576 50.425 73.1102 50.2174 73.1102Z" fill="#91A2B5"/>
<path d="M53.999 77.4873C53.7217 77.4873 53.4431 77.394 53.2138 77.203C52.693 76.769 52.6224 75.9947 53.0565 75.4734L56.4332 71.4201C56.8672 70.8993 57.641 70.8287 58.1623 71.2628C58.6835 71.6968 58.7536 72.4711 58.3196 72.9923L54.9429 77.0457C54.7003 77.3371 54.3506 77.4873 53.999 77.4873Z" fill="#91A2B5"/>
<path d="M71.8052 44.351C71.4152 44.351 71.0366 44.1482 70.8281 43.7862C70.5187 43.2469 70.7045 42.5589 71.2432 42.2495L73.9935 40.6692C74.5318 40.3592 75.2203 40.545 75.5302 41.0843C75.8401 41.6235 75.6539 42.3115 75.1151 42.621L72.3649 44.2013C72.1881 44.3027 71.9957 44.351 71.8052 44.351Z" fill="white"/>
<path d="M53.7007 54.7533C53.3107 54.7533 52.9321 54.5505 52.7236 54.1884C52.4137 53.6497 52.5999 52.9611 53.1387 52.6517L55.8895 51.0714C56.4278 50.762 57.1163 50.9472 57.4262 51.4865C57.7361 52.0253 57.5498 52.7138 57.0111 53.0232L54.2608 54.6035C54.0841 54.7049 53.8912 54.7533 53.7007 54.7533Z" fill="white"/>
<path d="M75.432 52.2325C75.2628 51.6345 74.6411 51.2867 74.0426 51.4559C73.4446 51.625 73.0968 52.2467 73.266 52.8452C73.5318 53.7858 73.1243 54.7833 72.2751 55.2713C71.2924 55.8357 70.0461 55.5282 69.4315 54.5947L70.0215 54.2554C70.5607 53.946 70.7465 53.2579 70.4366 52.7187C70.1267 52.1794 69.4386 51.9942 68.8999 52.3036L65.9549 53.9957C65.4161 54.3052 65.2298 54.9932 65.5397 55.5324C65.7478 55.8945 66.1269 56.0973 66.5168 56.0973C66.7069 56.0973 66.8997 56.0489 67.0765 55.9475L67.4679 55.7229C67.9649 56.7242 67.6039 57.9553 66.622 58.5196C65.7715 59.0082 64.7039 58.8584 64.0253 58.1548C63.5936 57.7074 62.8814 57.6951 62.4336 58.1263C61.9863 58.558 61.9735 59.2707 62.4052 59.718C63.2539 60.5975 64.3973 61.0567 65.5559 61.0567C66.3041 61.0567 67.0585 60.8647 67.7437 60.4714C68.8643 59.828 69.5931 58.7604 69.8447 57.5866C70.9858 57.9605 72.2756 57.8676 73.3963 57.2236C75.142 56.2195 75.9793 54.1673 75.432 52.2325Z" fill="#678490"/>
<path d="M69.9929 60.7877L73.4867 54.9716L91.443 53.9874L95.2912 43.3167L100.241 44.3781L102.254 58.816L82.3596 68.741L69.9929 60.7877Z" fill="white"/>
<path d="M69.028 60.2082L72.5212 54.3916C72.7136 54.0717 73.052 53.868 73.4244 53.8471L90.6368 52.9041L94.2314 42.9347C94.4224 42.4049 94.9754 42.0974 95.526 42.2158L100.476 43.2768C101.084 43.4071 100.613 45.6082 100.004 45.4779L96.0155 44.6226L92.5009 54.3684C92.3474 54.7939 91.955 55.0858 91.5035 55.1104L74.1428 56.0614L70.9566 61.3663C70.7466 61.7188 68.7076 60.7413 69.028 60.2082Z" fill="#E3E3E3"/>
<path d="M108.839 73.2569L103.537 87.2836L98.5884 89.7415L76.0873 92.9893C75.1235 93.1286 74.2109 92.5145 73.9754 91.5691L66.958 63.3519C66.6898 62.2715 67.4063 61.193 68.5052 61.021L91.4441 57.4297L96.3907 54.9718L100.59 43.4172C100.872 42.6415 101.99 42.697 102.194 43.4968L109.009 70.2361C109.263 71.2374 109.204 72.2912 108.839 73.2569Z" fill="#FFFF9D"/>
<path d="M76.1772 69.4788C75.6322 69.4788 75.1532 69.0821 75.0665 68.5273C74.9703 67.9131 75.3901 67.3374 76.0042 67.2412L86.8257 65.5472C87.4398 65.451 88.0155 65.8708 88.1117 66.4849C88.2079 67.0991 87.7881 67.6748 87.174 67.771L76.3525 69.465C76.2937 69.474 76.235 69.4788 76.1772 69.4788Z" fill="#FFCC6B"/>
<path d="M76.9472 73.8787C76.4023 73.8787 75.9237 73.482 75.8365 72.9272C75.7403 72.313 76.1601 71.7373 76.7742 71.6411L87.5957 69.9475C88.2098 69.8509 88.7856 70.2712 88.8817 70.8853C88.9779 71.4994 88.5581 72.0752 87.944 72.1714L77.1225 73.8649C77.0638 73.8739 77.005 73.8787 76.9472 73.8787Z" fill="#FFCC6B"/>
<path d="M110.099 69.9588L103.284 43.2191C103.07 42.3785 102.344 41.7847 101.477 41.7416C100.61 41.7009 99.8293 42.2174 99.5326 43.0329L95.4864 54.1638L91.0975 56.345L68.3316 59.9088C67.4961 60.0396 66.7489 60.5187 66.2812 61.2228C65.8135 61.9279 65.6623 62.8027 65.8666 63.6234L72.8839 91.8411C73.2241 93.2086 74.4391 94.1345 75.809 94.1345C75.9535 94.1345 76.1004 94.1241 76.2478 94.1028L98.7498 90.8559C98.8692 90.8389 98.9839 90.8024 99.0901 90.7493V90.7498L104.037 88.2909C104.299 88.1611 104.488 87.9384 104.585 87.6797L104.589 87.6811L109.891 73.6545C110.341 72.4674 110.412 71.189 110.099 69.9588ZM75.9261 91.8752C75.5323 91.9311 75.1641 91.6838 75.0679 91.298L68.0506 63.0803C67.9795 62.7937 68.0861 62.5733 68.1562 62.4677C68.2264 62.362 68.3875 62.1781 68.6794 62.1326L90.5725 58.7057L97.2283 88.8013L75.9261 91.8752ZM99.3772 88.0938L92.7319 58.0466L95.602 56.6203L102.247 86.6675L99.3772 88.0938ZM107.786 72.8588L103.82 83.3515L97.56 55.048L101.331 44.6729L107.918 70.5142C108.117 71.2951 108.071 72.1054 107.786 72.8588Z" fill="#FFCC6B"/>
<path d="M64.3655 109.03C70.6464 109.03 90.855 93.3687 84.2769 86.7906C77.6989 80.2125 66.459 97.1861 66.459 97.1861L64.3655 109.03Z" fill="#B1B9C6"/>
<path d="M64.3653 110.155C62.0737 110.155 60.0688 109.232 58.5667 107.485C55.4573 103.869 54.5214 96.7501 55.9321 87.4397C56.0254 86.8251 56.5997 86.4015 57.2134 86.4958C57.828 86.5887 58.2507 87.1625 58.1578 87.7771C56.8471 96.4288 57.5982 102.907 60.2735 106.018C61.3497 107.27 62.7262 107.904 64.3648 107.904C68.5807 107.904 81.0669 99.1786 83.9043 92.3295C84.7554 90.2748 84.617 88.7229 83.4802 87.5866C82.5761 86.6825 81.5469 86.3011 80.3381 86.4238C78.0389 86.6546 75.0939 88.6594 71.8214 92.2224C69.255 95.0167 67.4146 97.7807 67.3961 97.8087C67.0525 98.3271 66.3546 98.4687 65.8362 98.1252C65.3182 97.7821 65.1761 97.0837 65.5191 96.5653C65.8352 96.0881 73.3397 84.8657 80.1111 84.1843C82.0108 83.9943 83.6787 84.6028 85.0719 85.9954C86.3276 87.2511 87.5051 89.519 85.9841 93.1914C84.5468 96.661 80.9086 100.784 76.0013 104.503C72.3962 107.235 67.4463 110.155 64.3653 110.155Z" fill="#678490"/>
<path d="M21.1737 68.7411C21.1737 68.7411 27.2585 67.8786 32.1677 72.2438C39.8091 79.0384 38.6268 88.6217 38.6268 88.6217L21.1737 68.7411Z" fill="white"/>
<path d="M38.6278 89.747C38.5818 89.747 38.5354 89.7441 38.4884 89.7384C37.8715 89.6621 37.4332 89.1006 37.509 88.4832C37.5194 88.395 38.5055 79.3856 31.419 73.0847C26.9799 69.1375 21.3841 69.8478 21.3282 69.8554C20.7117 69.9412 20.145 69.51 20.0597 68.8954C19.9744 68.2808 20.4009 67.7131 21.015 67.6259C21.2846 67.5875 27.6765 66.7441 32.9149 71.4021C40.9056 78.5076 39.7944 88.3434 39.7432 88.759C39.6731 89.329 39.1879 89.747 38.6278 89.747Z" fill="#E3E3E3"/>
<path d="M109.816 64.0607C107.239 64.7819 104.319 62.3951 103.293 58.7298C102.266 55.0645 103.523 51.5082 106.1 50.787C108.676 50.0658 110.399 52.7876 111.425 56.4534C112.451 60.1187 112.392 63.3395 109.816 64.0607Z" fill="#B1B9C6"/>
<path d="M108.851 65.319C106.027 65.319 103.262 62.7981 102.208 59.0333C101.65 57.0398 101.677 54.9961 102.284 53.2793C102.94 51.4237 104.187 50.1537 105.796 49.7031C107.495 49.2269 110.628 49.432 112.509 56.1499C113.11 58.297 113.303 60.1076 113.083 61.5325C112.713 63.9359 111.267 64.8234 110.119 65.1447C109.699 65.2626 109.274 65.319 108.851 65.319ZM106.868 51.8051C106.718 51.8051 106.562 51.8264 106.403 51.871C105.52 52.1183 104.811 52.885 104.406 54.0299C103.953 55.3136 103.942 56.8754 104.376 58.4273C105.219 61.4372 107.571 63.5212 109.512 62.9777C110.033 62.8318 110.657 62.4967 110.859 61.1908C111.026 60.1005 110.848 58.5675 110.341 56.7579C109.805 54.8425 108.67 51.8051 106.868 51.8051Z" fill="#678490"/>
<circle cx="60.0262" cy="60.0173" r="58.2879" stroke="black" stroke-width="3.4287"/>
<circle cx="60.0262" cy="60.0173" r="54.8592" stroke="white" stroke-width="3.4287"/>
</g>
<defs>
<clipPath id="clip0_2_6458">
<rect x="0.0239258" y="0.0150146" width="120.005" height="120.005" rx="60.0023" fill="white"/>
</clipPath>
</defs>
</svg>
