<svg width="120" height="120" viewBox="0 0 120 120" fill="none" xmlns="http://www.w3.org/2000/svg">
<g clip-path="url(#clip0_2_6200)">
<circle cx="60" cy="60" r="60" fill="#D9D9D9"/>
<path d="M126.869 40.4254C122.902 34.6664 105.78 40.6581 98.1659 43.689C94.8924 42.5049 90.5782 41.4719 85.5856 40.5754C80.6 39.6339 76.201 39.0614 72.72 39.0011C66.6851 33.4513 52.8222 21.7569 47.0667 25.7218C41.3505 29.6592 44.4201 43.9263 46.1627 50.3521C41.7735 55.3886 39.4105 61.3551 38.4285 66.6869C37.5789 71.2975 37.2801 76.003 37.5362 80.8111C38.0102 89.6971 43.2682 97.5279 51.2279 101.309C46.5183 104.926 43.9608 109.337 44.7359 113.575C46.2095 121.633 59.1677 126.015 73.6792 123.361C84.8626 121.316 93.7029 115.689 96.4954 109.527C105.091 108.683 112.594 103.288 116.141 95.2938C118.094 90.893 119.492 86.389 120.341 81.779C121.323 76.4489 121.242 70.0337 118.938 63.7649C122.848 58.3868 130.808 46.1434 126.869 40.4254Z" fill="#B1B9C6"/>
<path d="M89.9315 44.7783C88.5253 52.4099 85.1656 58.1829 82.437 57.6802C79.7025 57.1763 78.6209 50.5847 80.0271 42.9537C80.2199 41.9078 80.4484 40.8983 80.7097 39.938C83.9563 40.385 87.1759 40.9786 90.368 41.7233C90.2696 42.7141 90.1231 43.7383 89.9315 44.7783Z" fill="#91A2B5"/>
<path d="M79.7589 40.3117C78.3539 47.9375 74.9989 53.7176 72.2644 53.2137C69.6348 52.7291 68.5333 46.5752 69.7163 39.3016C71.4986 39.1709 73.3156 39.1797 75.1483 39.3297C76.7192 39.4621 78.2842 39.6233 79.8421 39.826C79.8181 39.9906 79.7888 40.1483 79.7589 40.3117Z" fill="#91A2B5"/>
<path d="M100.879 44.9771C99.3984 52.2261 96.1694 57.6189 93.5281 57.132C90.7936 56.6281 89.719 50.0319 91.124 42.4067C91.1539 42.2432 91.1832 42.085 91.2195 41.9227C92.9726 42.3422 94.7222 42.8157 96.4582 43.3289C97.9881 43.7795 99.4628 44.3355 100.879 44.9771Z" fill="#91A2B5"/>
<path d="M119.009 51.1152C119.009 51.1152 119.468 53.0487 119.227 55.0766C119.009 56.9515 117.633 58.1597 116.063 58.4808C113.638 54.4268 110.377 50.8779 106.464 48.1089C106.691 47.1116 107.293 46.2011 108.248 45.6099C112.082 43.2293 117.215 40.8458 120.188 42.7471C125.366 46.0634 119.009 51.1152 119.009 51.1152Z" fill="white"/>
<path d="M50.5965 38.5098C50.5965 38.5098 49.478 40.1527 48.9806 42.1331C48.5165 43.9629 49.372 45.5824 50.7243 46.4419C54.4349 43.5188 58.7467 41.365 63.3889 40.172C63.533 39.1596 63.2946 38.0944 62.6131 37.2014C59.8792 33.6103 55.9325 29.554 52.4773 30.2712C46.4582 31.5239 50.5965 38.5098 50.5965 38.5098Z" fill="white"/>
<path d="M128.013 39.6338C125.919 36.5929 121.207 35.8599 113.61 37.3944C108.11 38.5053 102.247 40.5841 98.1363 42.2054C94.9887 41.1161 90.8762 40.1119 85.8443 39.2078C80.8101 38.2569 76.6055 37.7295 73.2752 37.6252C70.0069 34.6429 65.2645 30.6077 60.5297 27.6142C53.9785 23.473 49.3169 22.4787 46.276 24.5733C40.1994 28.7591 42.5255 41.988 44.6284 49.9987C39.7043 55.9071 37.7948 62.4489 37.0601 66.4343C36.1941 71.1369 35.8865 75.9983 36.1466 80.8848C36.6734 90.7652 42.924 99.5247 52.0713 103.201C58.8604 105.925 65.8785 107.966 72.93 109.265C79.3646 110.45 85.9919 111.05 92.6585 111.05C93.2989 111.05 93.9405 111.044 94.5815 111.033C104.438 110.859 113.399 104.902 117.414 95.8586C119.398 91.3868 120.844 86.7346 121.71 82.0315C122.444 78.046 122.992 71.2535 120.497 63.9787C125.311 57.2395 132.194 45.7021 128.013 39.6338ZM118.972 81.527C118.144 86.0151 116.764 90.4576 114.868 94.7295C111.292 102.788 103.309 108.095 94.5317 108.25C87.4017 108.374 80.3044 107.794 73.4334 106.528C66.5635 105.262 59.7246 103.273 53.1072 100.618C44.9606 97.3445 39.3938 89.5406 38.9245 80.7372C38.6761 76.0691 38.969 71.4269 39.7957 66.9394C40.711 61.9719 43.5937 52.7004 52.6133 46.4199C53.2443 45.9805 53.3996 45.1133 52.9602 44.4823C52.5207 43.8518 51.653 43.6965 51.0225 44.1354C49.4839 45.207 48.1088 46.3572 46.8807 47.5554C44.2675 36.7593 44.602 29.1054 47.8533 26.866C50.9868 24.7087 59.0573 28.8587 69.2376 37.753C67.0978 37.9739 65.019 38.3242 63.0561 38.8053C62.3097 38.9887 61.8527 39.7422 62.0361 40.4886C62.2195 41.2351 62.9712 41.6915 63.7194 41.5087C65.6676 41.0306 67.7412 40.6849 69.8809 40.481C73.2869 40.1593 78.484 40.6503 85.3381 41.9446C92.1916 43.1757 97.2223 44.5684 100.289 46.083C102.217 47.0369 104.031 48.0991 105.681 49.2399C105.922 49.4069 106.198 49.4872 106.471 49.4872C106.913 49.4872 107.347 49.2774 107.617 48.8866C108.054 48.2544 107.897 47.3872 107.264 46.9501C105.601 45.8012 103.786 44.7301 101.864 43.7598C114.541 39.0748 123.559 38.0752 125.72 41.2122C127.956 44.4576 125.542 51.7289 119.259 60.8897C118.539 59.3324 117.664 57.768 116.608 56.2188C116.175 55.5837 115.309 55.4196 114.674 55.852C114.039 56.285 113.875 57.151 114.308 57.7861C120.498 66.8696 119.887 76.5596 118.972 81.527Z" fill="#678490"/>
<path d="M100.667 83.3084C100.583 83.3084 100.498 83.3008 100.413 83.285C99.6577 83.1455 99.1579 82.4196 99.2967 81.6637C99.4555 80.8024 99.2692 79.9306 98.7723 79.2093C98.2755 78.488 97.5272 78.0029 96.6659 77.8441C94.8853 77.5154 93.1739 78.6966 92.8458 80.4755C92.7063 81.2313 91.9815 81.7317 91.2245 81.5922C90.4687 81.4534 89.9689 80.7274 90.1078 79.971C90.7136 76.6828 93.8811 74.4997 97.1698 75.1067C98.7629 75.4002 100.146 76.2961 101.064 77.6303C101.983 78.9638 102.328 80.5763 102.034 82.1688C101.911 82.8391 101.326 83.3084 100.667 83.3084Z" fill="#605C5D"/>
<path d="M65.9522 76.9118C65.869 76.9118 65.7835 76.9042 65.6985 76.8884C64.9427 76.7489 64.4429 76.0236 64.5818 75.2671C64.9093 73.4883 63.7292 71.7751 61.9504 71.4469C60.1733 71.12 58.4583 72.3 58.1308 74.0783C57.9919 74.8341 57.2666 75.3351 56.5096 75.1951C55.7537 75.0556 55.2539 74.3303 55.3928 73.5738C55.9986 70.2857 59.1673 68.1037 62.4549 68.7095C65.7431 69.3154 67.925 72.4834 67.3192 75.7716C67.1961 76.4431 66.6108 76.9118 65.9522 76.9118Z" fill="#605C5D"/>
<path d="M106.471 91.3897C106.38 91.3897 106.287 91.3815 106.195 91.3646L98.9354 90.0269C98.1104 89.8752 97.5655 89.0836 97.7173 88.2586C97.869 87.4336 98.66 86.887 99.4856 87.0405L106.745 88.3781C107.57 88.5299 108.116 89.3215 107.963 90.1464C107.828 90.8782 107.19 91.3897 106.471 91.3897Z" fill="#91A2B5"/>
<path d="M103.892 97.9662C103.628 97.9662 103.361 97.8971 103.117 97.7523L97.5823 94.4583C96.8622 94.0294 96.6255 93.0978 97.0544 92.3771C97.4833 91.6564 98.4149 91.4197 99.1356 91.8492L104.67 95.1432C105.39 95.5721 105.627 96.5038 105.198 97.2244C104.914 97.7014 104.409 97.9662 103.892 97.9662Z" fill="#91A2B5"/>
<path d="M55.7648 82.0475C55.6734 82.0475 55.5809 82.0393 55.4883 82.0223L48.2287 80.6846C47.4038 80.5329 46.8583 79.7413 47.0106 78.9163C47.1624 78.0913 47.954 77.547 48.7789 77.6982L56.0385 79.0358C56.8634 79.1876 57.4083 79.9797 57.2566 80.8041C57.1218 81.5354 56.4832 82.0475 55.7648 82.0475Z" fill="#91A2B5"/>
<path d="M48.5653 87.7722C47.8411 87.7722 47.1995 87.2525 47.0712 86.5143C46.927 85.6881 47.4802 84.9018 48.3063 84.7577L54.6512 83.6521C55.4779 83.5085 56.2643 84.0616 56.4078 84.8872C56.5514 85.7133 55.9982 86.4996 55.1727 86.6438L48.8278 87.7494C48.7393 87.7652 48.6514 87.7722 48.5653 87.7722Z" fill="#91A2B5"/>
<path d="M95.0441 71.664C94.9604 71.664 94.8754 71.6564 94.7904 71.6406L90.982 70.9387C90.2261 70.7992 89.7263 70.0738 89.8652 69.3174C90.0047 68.5616 90.7294 68.0618 91.4864 68.2007L95.2949 68.9026C96.0507 69.042 96.5505 69.768 96.4117 70.5238C96.2875 71.1953 95.7021 71.664 95.0441 71.664Z" fill="white"/>
<path d="M69.9757 67.0452C69.8919 67.0452 69.8069 67.0375 69.722 67.0217L65.9135 66.3198C65.1577 66.1803 64.6579 65.4544 64.7967 64.6986C64.9362 63.9427 65.6604 63.4423 66.418 63.5818L70.2264 64.2837C70.9823 64.4232 71.4821 65.1485 71.3432 65.905C71.2196 66.5758 70.6342 67.0452 69.9757 67.0452Z" fill="white"/>
<path d="M86.8234 78.9825C86.125 78.6638 85.2988 78.9714 84.9795 79.671C84.4879 80.7485 83.326 81.3508 82.1606 81.1364C80.9384 80.9114 80.0748 79.8579 80.042 78.6638L80.6589 78.7774C80.7439 78.7933 80.8294 78.8009 80.9126 78.8009C81.5712 78.8009 82.1565 78.3316 82.2802 77.6607C82.4196 76.9049 81.9198 76.1789 81.1634 76.0395L77.086 75.2883C76.329 75.1494 75.6036 75.6492 75.4648 76.4051C75.3253 77.1609 75.8251 77.8868 76.5815 78.0263L77.1915 78.1388C77.0028 78.597 76.687 78.9925 76.2686 79.2808C75.6991 79.6727 75.013 79.8204 74.3328 79.6944C73.1633 79.4788 72.2938 78.5026 72.2188 77.3203C72.1701 76.5533 71.511 75.9668 70.7411 76.0195C69.9741 76.0682 69.3917 76.7297 69.4403 77.4972C69.5968 79.9557 71.4014 81.9848 73.8283 82.4318C75.238 82.6926 76.6659 82.3867 77.8477 81.5729C77.9209 81.5225 77.9924 81.4703 78.0627 81.417C78.8338 82.6609 80.1064 83.5884 81.6562 83.8744C81.9843 83.9347 82.3118 83.964 82.6358 83.964C84.7076 83.964 86.6283 82.7646 87.5124 80.827C87.8312 80.1274 87.523 79.3018 86.8234 78.9825Z" fill="#678490"/>
<path d="M59.3614 109.477C55.2793 96.2132 39.8116 67.5882 32.0793 71.938C24.3475 76.2879 44.8863 112.124 44.8863 112.124" fill="#B1B9C6"/>
<path d="M44.8871 113.516C44.4043 113.516 43.9356 113.265 43.6783 112.816C43.6361 112.742 39.4158 105.36 35.5534 96.9864C30.2608 85.5129 28.1368 77.6645 29.2407 73.6597C29.6133 72.3069 30.3387 71.319 31.3963 70.7243C32.3619 70.1811 33.9738 69.7165 36.1663 70.5925C41.1999 72.6022 46.7152 80.5748 50.4551 86.9085C54.7891 94.2478 58.8068 102.946 60.6911 109.067C60.9172 109.802 60.5048 110.581 59.77 110.807C59.0353 111.034 58.256 110.621 58.0298 109.886C56.2047 103.955 52.2902 95.4911 48.0575 88.3235C43.1539 80.0193 38.4431 74.4988 35.1333 73.177C34.1806 72.7967 33.4042 72.7879 32.7603 73.15C32.3683 73.3709 32.0941 73.7793 31.9236 74.3992C30.044 81.2181 41.5145 103.443 46.0923 111.431C46.4743 112.098 46.2435 112.949 45.5767 113.331C45.3599 113.457 45.122 113.516 44.8871 113.516Z" fill="#678490"/>
<path d="M127.487 101.11L119.708 117.508C118.559 112.318 115.368 109.336 109.003 108.504C102.636 107.671 99.2776 98.5357 99.2776 98.5357L107.057 82.134C107.057 82.134 110.415 91.2697 116.782 92.1023C123.147 92.9355 126.339 95.9166 127.487 101.11Z" fill="#FD80A6"/>
<path d="M119.71 118.901C119.658 118.901 119.605 118.898 119.553 118.892C118.962 118.826 118.479 118.391 118.35 117.81C117.283 112.989 114.434 110.619 108.823 109.884C101.703 108.953 98.1198 99.4222 97.971 99.0168C97.7056 98.2955 98.0753 97.4951 98.7971 97.2297C99.5184 96.9643 100.318 97.334 100.584 98.0541C100.615 98.1379 103.737 106.411 109.184 107.124C114.555 107.827 118.04 109.982 119.917 113.825L126.022 100.954C124.878 96.4381 122.034 94.1941 116.603 93.4839C109.483 92.5529 105.9 83.0218 105.751 82.6163C105.485 81.895 105.855 81.0947 106.577 80.8293C107.299 80.5638 108.099 80.9335 108.364 81.6554C108.394 81.7374 111.517 90.0112 116.965 90.7237C123.746 91.6107 127.522 94.8151 128.849 100.808C128.916 101.11 128.881 101.426 128.748 101.706L120.969 118.107C120.735 118.595 120.242 118.901 119.71 118.901Z" fill="#F6608E"/>
<path d="M87.9531 122.462C87.7474 122.462 87.5382 122.416 87.3408 122.319C86.6506 121.981 86.3658 121.147 86.7045 120.457L107.031 79.028C107.369 78.3378 108.204 78.0531 108.893 78.3917C109.583 78.7304 109.868 79.5641 109.53 80.2544L89.2034 121.684C88.962 122.176 88.4675 122.462 87.9531 122.462Z" fill="#E3E3E3"/>
<path d="M100.767 121.123C100.308 118.614 99.4515 116.358 98.3559 114.531C99.5593 111.248 99.2224 108.193 95.8886 106.391C91.8352 104.2 86.7728 105.71 84.5815 109.763C82.8419 112.981 83.4372 116.833 85.7832 119.381C85.741 120.786 85.85 122.276 86.1289 123.8C87.3986 130.745 91.7051 135.775 95.7474 135.035C99.7896 134.296 102.037 128.067 100.767 121.123Z" fill="#B1B9C6"/>
<path d="M53.1435 58.2073C56.7176 67.4578 46.607 83.4792 34.1644 88.2867C29.6475 90.0321 24.1756 89.636 18.3457 87.143C13.9174 85.2422 9.52591 82.2189 6.30277 78.8399C0.636343 72.8952 0.899421 68.366 2.11403 65.6233C3.25657 63.0418 5.16081 61.1276 7.55605 60.1063C7.43886 59.3745 7.39492 58.6333 7.43886 57.8904C7.58827 55.1447 8.85327 52.681 10.9954 50.9554C11.9745 50.1756 13.0385 49.599 14.1705 49.2317C12.0249 43.2324 10.6649 36.0696 15.2023 31.7554C17.778 29.321 21.1277 28.479 24.3936 29.4463C31.6045 31.5908 36.2051 42.1959 38.7041 50.1803C40.6734 49.7379 42.6297 49.7402 44.5076 50.199C48.452 51.1593 51.5181 54.0004 53.1435 58.2073Z" fill="white"/>
<path d="M28.1803 90.7491C24.9208 90.7491 21.4182 89.971 17.7984 88.423C13.1943 86.4473 8.63757 83.305 5.29549 79.8007C-0.901188 73.2993 -0.547291 68.1959 0.841337 65.0595C1.97509 62.4973 3.76741 60.5186 6.06012 59.2829C6.02437 58.7843 6.02028 58.291 6.04899 57.8076C6.21949 54.6706 7.66612 51.85 10.1217 49.8713C10.8477 49.293 11.6176 48.8114 12.4238 48.4305C9.74379 40.2482 10.3426 34.4546 14.2431 30.7469C17.192 27.9591 21.035 27 24.7884 28.112C32.1587 30.3034 36.8976 40.2066 39.6561 48.5946C41.4174 48.352 43.1552 48.4364 44.8374 48.8477C49.2365 49.9188 52.6477 53.0652 54.4406 57.7062C56.3038 62.5301 54.9902 69.0725 50.836 75.6564C46.8225 82.0166 40.7776 87.2237 34.6647 89.5855C32.655 90.3624 30.4783 90.7491 28.1803 90.7491ZM21.7428 30.4493C19.7243 30.4493 17.768 31.2461 16.1584 32.7672C12.9458 35.821 12.7232 41.0544 15.4805 48.7628C15.6071 49.1172 15.5854 49.5075 15.419 49.8455C15.2532 50.1836 14.9573 50.4397 14.5993 50.5557C13.6273 50.8709 12.7062 51.3719 11.8619 52.0439C10.035 53.5157 8.95573 55.6204 8.828 57.9658C8.7905 58.5898 8.82507 59.2337 8.92936 59.8864C9.03073 60.5175 8.68855 61.1362 8.10087 61.387C6.01149 62.2776 4.38146 63.9369 3.38598 66.1862C1.88779 69.5711 3.24419 73.6145 7.3093 77.8794C10.4012 81.1213 14.6239 84.0316 18.8935 85.8637C24.3818 88.2109 29.4893 88.6 33.6616 86.9881C39.236 84.8343 44.7765 80.0426 48.4818 74.1706C52.1075 68.425 53.3643 62.6444 51.8444 58.7093C50.3896 54.943 47.6662 52.4013 44.1777 51.5517C42.516 51.1457 40.7776 51.141 39.0081 51.5388C38.3032 51.6976 37.5914 51.2881 37.3746 50.5967C33.8508 39.3359 29.0996 32.299 23.9963 30.7815C23.2469 30.5588 22.4905 30.4493 21.7428 30.4493Z" fill="#E3E3E3"/>
<path d="M47.5977 60.3449C49.7263 65.8543 41.9705 78.9022 32.0216 82.7458C22.0786 86.5877 5.38866 72.9006 7.54485 68.0293C10.2284 61.9668 18.3228 67.5851 18.716 67.8599C18.3486 67.4861 10.2149 59.1948 14.7142 55.5896C19.1847 52.0091 25.8085 60.3168 26.1923 60.799C25.7704 60.0701 14.5021 40.6135 19.2937 36.068C24.1738 31.4374 30.9582 42.4029 34.5815 57.5835L34.8082 58.7319C40.2385 54.2391 45.5335 55.0019 47.5977 60.3449Z" fill="#FD80A6"/>
<path d="M48.9009 59.8445C47.8298 57.0713 45.8869 55.2146 43.4313 54.6169C41.0396 54.0339 38.3549 54.6527 35.6843 56.3659C34.2904 50.9356 32.4477 45.8879 30.4392 42.022C28.0064 37.3399 25.5028 34.5885 22.9974 33.8443C21.3123 33.3434 19.7004 33.7641 18.3358 35.059C15.814 37.4518 16.2382 42.5734 19.6336 50.7171C20.1944 52.0617 20.7861 53.3683 21.3644 54.5812C20.2846 53.9548 19.1286 53.4884 17.9591 53.349C16.4169 53.1656 15.0324 53.5547 13.8453 54.5062C12.7034 55.4214 12.0583 56.677 11.9798 58.1365C11.8737 60.1111 12.8153 62.2597 13.9713 64.1147C12.6858 63.8018 11.3212 63.7016 10.0404 64.0508C8.3629 64.5072 7.06099 65.6873 6.27527 67.4626C5.34952 69.5538 6.53015 72.4793 9.59978 75.7001C13.6766 79.9778 21.3967 84.8052 28.2056 84.8052C29.7068 84.8052 31.1634 84.5709 32.5268 84.0441C37.3542 82.1791 42.0843 78.1299 45.5037 72.9345C48.84 67.8663 50.1096 62.9727 48.9009 59.8445ZM20.2518 37.078C21.0674 36.3046 21.7242 36.3702 22.2047 36.5126C25.3352 37.4425 30.128 45.1907 33.2768 58.2156C31.4487 59.8703 30.162 61.897 29.5615 63.8246C29.0927 62.2614 28.1576 60.8775 27.3297 59.9839C26.8586 59.1654 24.2624 54.5917 22.1929 49.622C21.1857 47.2033 18.0687 39.1493 20.2518 37.078ZM14.7594 58.2848C14.7957 57.6116 15.0588 57.1012 15.5861 56.6782C16.1849 56.1983 16.8329 56.0196 17.6263 56.1128C19.6254 56.3495 21.934 58.2637 23.5241 59.8855C24.2138 60.5886 25.4067 61.9983 25.6358 62.2884C26.4824 63.3588 28.1008 65.9105 26.1414 67.8317C24.222 69.7143 21.5642 68.2366 20.335 67.3607C20.1194 67.1667 19.8891 66.9869 19.6506 66.8175C19.3647 66.524 18.1999 65.3 17.0761 63.7321C15.5099 61.5466 14.6873 59.6125 14.7594 58.2848ZM8.8205 68.5893C9.26756 67.5798 9.90445 66.974 10.7681 66.7378C11.0804 66.6523 11.4138 66.6142 11.7612 66.6142C14.0182 66.6142 16.8288 68.2284 17.8864 68.9755C18.1009 69.1641 18.3393 69.3587 18.6059 69.5532C20.3391 71.2318 20.5893 73.964 19.5575 75.5799C18.5022 77.2328 16.3085 77.2357 13.5336 75.5928C12.8499 75.0057 12.2054 74.3993 11.6142 73.7788C9.22596 71.2734 8.4918 69.3323 8.8205 68.5893ZM43.1782 71.4035C40.1156 76.0557 35.7587 79.8103 31.5231 81.4467C28.0551 82.7867 23.3296 81.6471 19.002 79.3322C20.2887 78.9191 21.2648 78.0795 21.9041 77.0775C22.8568 75.5846 23.1738 73.613 22.7736 71.6689C22.7548 71.5799 22.7355 71.4908 22.7144 71.4029C24.505 71.7357 26.4356 71.4404 28.0902 69.8186C28.7306 69.1905 29.1695 68.5272 29.4519 67.8505C29.5913 68.2442 29.7853 68.6069 30.0372 68.9292C32.4436 72.0017 37.2604 69.1846 39.2192 67.8306C39.8514 67.3935 40.0101 66.5263 39.5731 65.8941C39.136 65.2619 38.2694 65.1031 37.6366 65.5402C34.6425 67.6097 32.7342 67.8581 32.2286 67.2124C31.5184 66.3054 32.1219 62.9522 35.2402 60.1931C37.8915 57.8471 40.6377 56.8001 42.7722 57.3204C44.3389 57.7018 45.56 58.9211 46.3035 60.8464C47.1496 63.0366 45.8939 67.2786 43.1782 71.4035Z" fill="#F6608E"/>
<path d="M102.135 120.873C101.706 118.524 100.927 116.298 99.8754 114.387C100.286 113.082 100.45 111.858 100.362 110.729C100.177 108.337 98.8582 106.413 96.5509 105.166C91.8278 102.614 85.91 104.379 83.3572 109.101C81.4283 112.669 81.9668 116.92 84.3819 119.887C84.3778 121.256 84.5038 122.654 84.7593 124.05C86.0864 131.306 90.4321 136.501 94.9443 136.501C95.2947 136.501 95.6468 136.469 95.9984 136.405C98.461 135.955 100.435 133.993 101.559 130.878C102.588 128.022 102.793 124.468 102.135 120.873ZM98.9397 129.934C98.1669 132.077 96.9446 133.402 95.4974 133.667C92.2713 134.258 88.6093 129.623 87.4979 123.55C87.4217 123.134 87.3631 122.72 87.3133 122.305C88.508 122.947 89.6997 123.271 90.8698 123.271C91.2108 123.271 91.5507 123.243 91.887 123.188C92.6457 123.065 93.1602 122.349 93.036 121.59C92.9123 120.832 92.194 120.315 91.4382 120.441C90.5499 120.587 89.6259 120.392 88.6158 119.846C85.2438 118.023 83.9835 113.797 85.8063 110.426C87.6291 107.054 91.8542 105.794 95.2273 107.616C96.7032 108.414 97.4749 109.502 97.5868 110.945C97.6946 112.329 97.1983 114.082 96.1519 116.018C95.7863 116.694 96.0382 117.538 96.7144 117.904C97.2628 118.201 97.9225 118.091 98.3467 117.678C98.8026 118.835 99.16 120.08 99.3961 121.374C99.968 124.493 99.8051 127.533 98.9397 129.934Z" fill="#678490"/>
<circle cx="60" cy="60" r="58.5" stroke="black" stroke-width="3"/>
<circle cx="60.0001" cy="60.0001" r="55.0714" stroke="white" stroke-width="3"/>
</g>
<defs>
<clipPath id="clip0_2_6200">
<rect width="120" height="120" rx="60" fill="white"/>
</clipPath>
</defs>
</svg>
