<svg width="121" height="121" viewBox="0 0 121 121" fill="none" xmlns="http://www.w3.org/2000/svg">
<g clip-path="url(#clip0_138_1129)">
<circle cx="60.0157" cy="60.0367" r="60.0023" fill="#D9D9D9"/>
<path d="M97.3407 59.6401C96.8978 54.5566 95.2188 48.7543 91.5584 43.6417C93.7608 37.7815 97.9215 24.6773 92.915 20.4731C87.8728 16.2393 73.8323 25.963 67.6811 30.6197C64.4137 30.3647 60.2399 30.5065 55.4841 30.9425C50.7238 31.3358 46.5879 31.9175 43.4131 32.7337C36.5467 29.2074 21.0377 22.0638 16.8061 27.1029C12.6037 32.1072 18.9607 44.2878 22.1507 49.6836C19.4279 55.3536 18.7771 61.3599 19.22 66.4447C19.6028 70.8417 20.5096 75.1877 21.9449 79.4872C24.7481 87.879 32.098 93.8706 40.8884 94.8678C41.226 94.9061 41.5632 94.9413 41.9008 94.9761C40.1831 98.013 38.1904 102.697 38.1904 108.091C38.1904 108.091 46.9138 114.017 61.1588 114.017C75.4038 114.017 83.7726 108.091 83.7726 108.091C83.7726 100.477 79.8008 94.2739 78.2393 92.1294C79.1316 91.8922 80.0231 91.6434 80.9133 91.3815C89.3987 88.8793 95.6021 81.7074 96.9121 72.957C97.5821 68.474 97.7235 64.037 97.3407 59.6401Z" fill="#B2B8C4"/>
<path d="M60.4805 33.6695C61.1144 40.9476 59.5103 47.0283 56.9081 47.255C54.2998 47.4821 51.6688 41.7703 51.0349 34.4923C50.9479 33.4946 50.9026 32.5218 50.8996 31.5842C53.9582 31.1774 57.0286 30.9098 60.112 30.7871C60.2704 31.7112 60.394 32.6775 60.4805 33.6695Z" fill="#95A1B3"/>
<path d="M50.1295 32.1625C50.7629 39.4349 49.1649 45.5208 46.5566 45.7479C44.0488 45.9663 41.5088 40.6566 40.7617 33.7588C42.3463 33.1941 43.9979 32.7472 45.699 32.4248C47.1574 32.1516 48.6184 31.9067 50.0829 31.7004C50.1029 31.8558 50.116 32.0063 50.1295 32.1625Z" fill="#95A1B3"/>
<path d="M70.4656 31.1096C70.936 38.0596 69.3553 43.7617 66.8362 43.981C64.2279 44.2081 61.6017 38.4907 60.9682 31.2179C60.9548 31.0617 60.9417 30.9112 60.9334 30.755C62.6298 30.6971 64.3362 30.6888 66.0404 30.7202C67.5423 30.7467 69.0194 30.882 70.4656 31.1096Z" fill="#95A1B3"/>
<path d="M88.4567 32.1428C88.4567 32.1428 89.3578 33.7826 89.6467 35.6835C89.9177 37.4399 88.9706 38.8809 87.6266 39.5653C84.4109 36.4932 80.563 34.0885 76.3188 32.5544C76.2744 31.5924 76.5933 30.6157 77.3121 29.8399C80.1958 26.7195 84.2586 23.2715 87.4326 24.253C92.9611 25.9668 88.4567 32.1428 88.4567 32.1428Z" fill="white"/>
<path d="M23.2114 37.8266C23.2114 37.8266 22.6075 39.5973 22.6515 41.5195C22.6884 43.2964 23.8701 44.5521 25.3124 44.9937C27.9486 41.4116 31.3226 38.3778 35.2375 36.1332C35.1148 35.1782 34.6314 34.2711 33.79 33.6315C30.4098 31.0567 25.8123 28.3631 22.8559 29.8785C17.7067 32.5225 23.2114 37.8266 23.2114 37.8266Z" fill="white"/>
<path d="M98.7538 59.517C98.4223 55.7139 97.2201 49.4148 93.1469 43.4303C94.2977 40.282 95.6939 35.8907 96.3391 31.6469C97.2471 25.6746 96.4013 21.5491 93.8252 19.3859C91.1259 17.1191 86.6272 17.629 80.0731 20.9448C75.3677 23.3251 70.5766 26.67 67.2495 29.17C64.12 28.9725 60.1438 29.0913 55.367 29.529C50.5772 29.9249 46.634 30.4953 43.5845 31.231C33.2091 25.9517 20.1449 20.917 15.7175 26.1897C13.5534 28.7667 13.4338 32.9761 15.3621 38.7009C16.7348 42.7763 18.8697 46.8557 20.5474 49.7533C17.5697 56.3522 17.4748 62.7649 17.8059 66.5684C18.1971 71.061 19.1369 75.5589 20.5992 79.9371C22.061 84.3145 24.7159 88.158 28.2762 91.0517C31.5728 93.7314 35.5007 95.4756 39.6923 96.1352C38.1982 99.2152 36.7712 103.388 36.7712 108.091C36.7712 108.874 37.4064 109.51 38.19 109.51C38.9735 109.51 39.6088 108.874 39.6088 108.091C39.6088 103.437 41.1981 99.3235 42.6974 96.4798C45.4745 96.7409 48.2612 96.8944 51.007 96.9323C51.0136 96.9323 51.0205 96.9323 51.0271 96.9323C51.8015 96.9323 52.4345 96.3101 52.4454 95.5331C52.4563 94.7495 51.8302 94.1056 51.0462 94.0947C47.7439 94.049 44.3803 93.8349 41.0484 93.4582C37.0091 93 33.2118 91.4063 30.0665 88.8498C26.9248 86.2963 24.5819 82.9035 23.291 79.0382C21.8996 74.8715 21.0055 70.5929 20.6331 66.3221C20.2219 61.601 20.5161 52.4974 27.1054 44.5693C27.6062 43.9667 27.5239 43.0722 26.9213 42.5714C26.3183 42.0706 25.4242 42.1529 24.9234 42.7555C23.8349 44.0651 22.9051 45.4034 22.108 46.7486C17.1277 37.7277 15.544 30.809 17.8903 28.0144C20.1462 25.3278 28.3654 27.0433 39.6658 32.461C37.8597 33.1767 36.1377 33.989 34.5414 34.8809C33.8574 35.2633 33.6129 36.1274 33.9953 36.8118C34.2551 37.2769 34.738 37.5388 35.2349 37.5388C35.4694 37.5388 35.707 37.4805 35.9258 37.3583C37.57 36.4394 39.3608 35.6088 41.2464 34.89C44.2485 33.7484 49.0775 32.8961 55.6133 32.3561C62.1317 31.7592 67.0355 31.7635 70.1881 32.3687C72.1716 32.7512 74.0786 33.2598 75.8563 33.8802C76.5964 34.1387 77.4052 33.748 77.6636 33.0083C77.9221 32.2687 77.5314 31.4594 76.7917 31.201C75.0645 30.598 73.2267 30.0954 71.3215 29.7026C81.5111 22.4102 89.3108 19.3002 92.0005 21.5591C94.7902 23.9016 94.4278 30.9895 91.0894 40.7397C90.0722 39.5524 88.9253 38.3955 87.6266 37.2939C87.0288 36.787 86.1338 36.8605 85.6269 37.4579C85.1201 38.0553 85.1932 38.9507 85.791 39.4575C93.652 46.1269 95.5159 55.0426 95.9271 59.7637C96.2991 64.0349 96.1581 68.4035 95.5085 72.7478C94.9051 76.7784 93.1843 80.5253 90.5312 83.5835C87.8754 86.6456 84.4105 88.872 80.5117 90.0214C78.3376 90.6619 76.1261 91.2345 73.9393 91.7231C73.1745 91.894 72.6933 92.6524 72.8643 93.4173C73.0117 94.0777 73.5978 94.5267 74.2478 94.5267C74.3505 94.5267 74.4545 94.5154 74.5585 94.4923C75.5826 94.2635 76.6125 94.0142 77.641 93.7514C79.3927 96.351 82.3534 101.693 82.3534 108.092C82.3534 108.875 82.9886 109.511 83.7722 109.511C84.5558 109.511 85.191 108.875 85.191 108.092C85.191 101.56 82.4626 96.0608 80.5173 92.9704C80.7827 92.8947 81.049 92.8212 81.3135 92.7433C85.734 91.4398 89.6623 88.9155 92.6744 85.4426C95.6808 81.9768 97.6309 77.7321 98.3144 73.1677C98.9974 68.6028 99.1454 64.0101 98.7538 59.517Z" fill="#70838E"/>
<path d="M84.4792 67.5834C83.7513 67.5834 83.1317 67.0264 83.0673 66.2877C82.9995 65.5071 83.5773 64.8188 84.3578 64.751L91.2812 64.1479C92.0592 64.0788 92.7497 64.6579 92.818 65.4384C92.8858 66.2189 92.308 66.9072 91.5275 66.9751L84.6041 67.5781C84.5623 67.5816 84.5205 67.5834 84.4792 67.5834Z" fill="#95A1B3"/>
<path d="M90.713 73.5941C90.589 73.5941 90.4624 73.5776 90.3367 73.5432L84.4892 71.9387C83.7335 71.7316 83.2888 70.9506 83.4963 70.1949C83.7039 69.4396 84.4836 68.994 85.2402 69.202L91.0872 70.8066C91.843 71.0141 92.2876 71.7947 92.0801 72.5504C91.9073 73.1804 91.3361 73.5941 90.713 73.5941Z" fill="#95A1B3"/>
<path d="M36.1198 71.7957C35.3919 71.7957 34.7724 71.2388 34.708 70.5C34.6401 69.7195 35.2179 69.0312 35.9984 68.9633L42.9219 68.3603C43.6998 68.2898 44.3903 68.8702 44.4586 69.6507C44.5265 70.4313 43.9491 71.1191 43.1682 71.1875L36.2447 71.7905C36.2029 71.794 36.1612 71.7957 36.1198 71.7957Z" fill="#95A1B3"/>
<path d="M37.9481 78.1902C37.4164 78.1902 36.9065 77.89 36.6646 77.3775C36.3296 76.6692 36.6324 75.8234 37.3411 75.4883L42.8232 72.897C43.531 72.562 44.3773 72.8648 44.7123 73.5736C45.0473 74.2819 44.7445 75.1277 44.0362 75.4627L38.5541 78.054C38.3575 78.1463 38.1512 78.1902 37.9481 78.1902Z" fill="#95A1B3"/>
<path d="M72.4936 52.3684C71.7657 52.3684 71.1461 51.8115 71.0817 51.0727C71.0138 50.2922 71.5916 49.6043 72.3722 49.536L76.0042 49.2197C76.7843 49.1505 77.4726 49.7292 77.5405 50.5102C77.6084 51.2907 77.0306 51.9786 76.25 52.0469L72.618 52.3632C72.5762 52.3667 72.5349 52.3684 72.4936 52.3684Z" fill="white"/>
<path d="M48.5858 54.4511C47.8579 54.4511 47.2384 53.8942 47.174 53.1554C47.1061 52.3749 47.6835 51.687 48.4645 51.6187L52.0965 51.3024C52.874 51.2337 53.5649 51.8123 53.6332 52.5929C53.7011 53.3734 53.1233 54.0617 52.3428 54.1296L48.7107 54.4459C48.6689 54.4494 48.6272 54.4511 48.5858 54.4511Z" fill="white"/>
<path d="M41.4017 64.8801C41.0798 64.8801 40.7561 64.7709 40.4902 64.5477C39.8903 64.0439 39.8124 63.1489 40.3162 62.5489C43.1399 59.1862 48.1733 58.7476 51.5365 61.5717C52.1365 62.0756 52.2144 62.9705 51.7106 63.571C51.2067 64.1709 50.3118 64.2492 49.7118 63.745C47.5473 61.9272 44.3072 62.2096 42.4894 64.3741C42.2084 64.7078 41.8064 64.8801 41.4017 64.8801Z" fill="#5F5C5D"/>
<path d="M75.7854 61.8851C75.4634 61.8851 75.1397 61.7759 74.8739 61.5527C74.2739 61.0488 74.196 60.1539 74.6998 59.5539C77.524 56.1911 82.557 55.753 85.9197 58.5767C86.5197 59.0805 86.5976 59.9755 86.0942 60.5755C85.5904 61.1754 84.6958 61.2538 84.095 60.7495C81.9309 58.9317 78.6904 59.2141 76.8731 61.3786C76.592 61.7128 76.19 61.8851 75.7854 61.8851Z" fill="#5F5C5D"/>
<path d="M70.9947 68.5769C71.0495 69.2682 71.0012 69.9404 70.8664 70.587C70.44 72.651 69.133 74.4104 67.3235 75.4211C66.4398 75.9137 65.4344 76.2317 64.3519 76.3091C60.7429 76.5841 57.5494 74.1503 56.7732 70.7196C56.6927 70.3785 56.6396 70.024 56.6135 69.6611C56.543 68.7239 56.667 67.9551 56.9429 67.3191C57.4932 66.0921 58.6323 65.3751 60.105 64.9435C61.0909 64.6555 62.2339 64.4997 63.456 64.4101C66.4907 64.1795 69.1169 64.4166 70.3212 66.3166C70.6971 66.9014 70.9247 67.6454 70.9947 68.5769Z" fill="#70838E"/>
<path d="M67.317 74.4446C67.34 74.7739 67.3405 75.0994 67.3235 75.4209C66.4398 75.9134 65.4344 76.2315 64.3519 76.3089C60.7429 76.5839 57.5494 74.15 56.7732 70.7194C57.6795 70.4888 58.6954 70.3553 59.7718 70.273C62.8126 70.0476 65.4331 70.2852 66.6374 72.1852C67.0133 72.7643 67.2469 73.5131 67.317 74.4446Z" fill="#E27FA3"/>
<path d="M72.4148 68.4722C72.0276 63.3286 67.5641 62.8322 64.7465 62.9101L64.569 60.8726L65.0998 60.8265C65.8803 60.7586 66.4581 60.0707 66.3902 59.2898C66.3223 58.5092 65.631 57.9297 64.8535 57.9993L60.9643 58.3383C60.1838 58.4061 59.606 59.0944 59.6739 59.875C59.7382 60.6137 60.3578 61.1706 61.0857 61.1706C61.127 61.1706 61.1688 61.1689 61.2106 61.1654L61.7414 61.1193L61.9158 63.125C59.1174 63.4744 54.8136 64.6439 55.1991 69.7679C55.5397 74.2949 59.3319 77.7525 63.8002 77.7525C64.0164 77.7525 64.2348 77.7442 64.4537 77.7281C69.2009 77.37 72.7716 73.2185 72.4148 68.4722ZM64.2418 74.8975C61.0557 75.1372 58.269 72.7403 58.0292 69.5542C57.8722 67.4637 58.7267 66.1823 63.5587 65.8186C68.3916 65.4553 69.428 66.5944 69.585 68.6849C69.8243 71.871 67.4275 74.6577 64.2418 74.8975Z" fill="#70838E"/>
<path d="M32.4273 46.8913L35.0178 44.3008C35.7352 43.5833 36.8986 43.5833 37.6165 44.3008L40.207 46.8913C42.3554 49.0397 42.3554 52.5225 40.207 54.671C38.0586 56.8194 34.5757 56.8194 32.4273 54.671C30.2789 52.523 30.2789 49.0397 32.4273 46.8913Z" fill="#B5F6F8"/>
<circle cx="60.0157" cy="60.0367" r="58.2879" stroke="black" stroke-width="3.4287"/>
<circle cx="60.0157" cy="60.0367" r="54.8592" stroke="white" stroke-width="3.4287"/>
</g>
<defs>
<clipPath id="clip0_138_1129">
<rect x="0.0134888" y="0.0344238" width="120.005" height="120.005" rx="60.0023" fill="white"/>
</clipPath>
</defs>
</svg>
