<svg width="120" height="121" viewBox="0 0 120 121" fill="none" xmlns="http://www.w3.org/2000/svg">
<g clip-path="url(#clip0_2_6583)">
<circle cx="60.0023" cy="60.0367" r="60.0023" fill="#D9D9D9"/>
<path d="M94.0826 36.7329C90.3713 32.1212 76.2947 38.2569 70.0584 41.295C67.2203 40.5019 63.5139 39.9012 59.2426 39.4584C54.9749 38.9771 51.2256 38.7713 48.2833 38.9395C42.8396 34.6346 30.4015 25.6358 25.792 29.3453C21.2148 33.0288 24.7042 44.8792 26.5793 50.1936C23.1914 54.7217 21.5726 59.9068 21.0788 64.4693C20.6521 68.4145 20.6959 72.4058 21.2143 76.4485C22.2275 84.3384 27.6693 90.9017 35.2498 93.3104C41.1045 95.1681 47.0241 96.4205 53.0099 97.0682C58.9957 97.7159 65.0464 97.7584 71.1628 97.1957C79.0832 96.4639 85.8026 91.2166 88.4797 83.7256C89.8511 79.8873 90.7475 75.998 91.1742 72.0528C91.6676 67.4912 91.1952 62.0816 88.8558 56.9349C91.8183 52.1479 97.7674 41.312 94.0826 36.7329Z" fill="#B2B8C4"/>
<path d="M63.1764 42.7329C62.4701 49.2635 59.9974 54.348 57.6625 54.0958C55.3222 53.8426 53.9946 48.3466 54.7009 41.816C54.7975 40.9209 54.9268 40.0545 55.0869 39.2274C57.8557 39.4005 60.6107 39.6984 63.3522 40.1265C63.3316 40.9692 63.2726 41.8428 63.1764 42.7329Z" fill="#95A1B3"/>
<path d="M54.3074 39.6034C53.6016 46.1291 51.1334 51.2194 48.7931 50.9662C46.5427 50.7229 45.2254 45.5972 45.7666 39.3829C47.2628 39.1601 48.7971 39.0532 50.3542 39.0648C51.6885 39.0778 53.0196 39.1154 54.3472 39.1883C54.3374 39.3283 54.3226 39.4634 54.3074 39.6034Z" fill="#95A1B3"/>
<path d="M72.4295 42.2115C71.636 48.424 69.2496 53.1793 66.9894 52.9346C64.6491 52.6815 63.3269 47.181 64.0327 40.6557C64.0479 40.5157 64.0622 40.3806 64.0824 40.2411C65.5889 40.4849 67.0954 40.7743 68.5934 41.0986C69.9139 41.3826 71.1936 41.7588 72.4295 42.2115Z" fill="#95A1B3"/>
<path d="M88.1203 46.2514C88.1203 46.2514 88.6298 47.8546 88.5542 49.5816C88.4876 51.178 87.4019 52.2847 86.0972 52.6546C83.7949 49.3852 80.8186 46.595 77.3417 44.5034C77.4696 43.6472 77.9214 42.8412 78.6898 42.2816C81.7767 40.0304 85.9598 37.6954 88.5891 39.1134C93.1677 41.5865 88.1203 46.2514 88.1203 46.2514Z" fill="white"/>
<path d="M29.5774 39.9182C29.5774 39.9182 28.737 41.3755 28.4413 43.0783C28.1649 44.652 28.9888 45.9652 30.1844 46.6058C33.1326 43.9045 36.6368 41.8152 40.4804 40.5157C40.5386 39.652 40.2698 38.7677 39.6386 38.0569C37.1047 35.1978 33.5177 32.0224 30.6461 32.845C25.6443 34.2821 29.5774 39.9182 29.5774 39.9182Z" fill="white"/>
<path d="M94.9087 36.0655C92.9809 33.6702 88.9976 33.3616 82.7305 35.1208C78.1483 36.4073 73.317 38.54 69.9519 40.1673C67.2274 39.4427 63.6843 38.8509 59.3625 38.4027C55.0362 37.9151 51.4457 37.7353 48.6281 37.861C45.6845 35.5498 41.4163 32.4308 37.2219 30.1978C31.4768 27.1387 27.5199 26.589 25.1251 28.5164C20.2996 32.3999 23.1185 43.417 25.3908 50.0107C21.5936 55.3018 20.3922 60.9472 20.0236 64.3552C19.5893 68.3702 19.6358 72.4845 20.1618 76.5836C20.6852 80.6589 22.342 84.4735 24.9538 87.6145C27.5696 90.7608 31.0196 93.081 34.93 94.3236C40.8254 96.1937 46.8703 97.473 52.8972 98.1247C56.1245 98.4741 59.3943 98.6485 62.6819 98.6485C65.5344 98.6485 68.4007 98.517 71.2617 98.254C75.3469 97.8765 79.2129 96.3481 82.4415 93.8338C85.6643 91.324 88.0986 87.9522 89.4816 84.083C90.8718 80.1915 91.7973 76.1823 92.2316 72.1673C92.6002 68.7593 92.6342 62.9878 90.0564 57.0074C93.6822 51.0484 98.7868 40.8843 94.9087 36.0655ZM90.1186 71.9379C89.7021 75.7874 88.8142 79.6328 87.4799 83.3673C86.2333 86.8559 84.0393 89.8953 81.1354 92.1564C78.2279 94.4206 74.7461 95.797 71.0662 96.1374C65.0486 96.6907 59.0123 96.6482 53.1253 96.0117C47.2388 95.3747 41.3326 94.1254 35.5727 92.2977C32.0502 91.1786 28.9433 89.0892 26.5873 86.2556C24.2341 83.4255 22.741 79.9875 22.2691 76.3129C21.7641 72.3794 21.7193 68.4328 22.1358 64.5838C22.5978 60.3152 24.455 52.274 31.7054 46.3781C32.1607 46.0078 32.2296 45.3386 31.8597 44.8832C31.4893 44.4279 30.8201 44.3585 30.3648 44.7289C29.0797 45.7738 27.9547 46.8804 26.9639 48.0202C24.0033 38.9207 23.7962 32.3122 26.4567 30.1714C29.026 28.1036 36.2428 31.1578 45.5449 38.1697C43.6644 38.4944 41.8497 38.939 40.1504 39.4928C39.5926 39.6748 39.2876 40.2742 39.4696 40.8325C39.6517 41.3902 40.2506 41.6953 40.8089 41.5133C42.4285 40.9854 44.1623 40.5618 45.9613 40.2536C48.8281 39.7656 53.2559 39.8533 59.133 40.5153C65.0066 41.1241 69.3512 41.9856 72.0458 43.0757C73.737 43.7614 75.3401 44.546 76.8109 45.4084C76.9795 45.5072 77.1647 45.5546 77.3472 45.5546C77.7117 45.5546 78.0669 45.3668 78.2646 45.0295C78.5616 44.5236 78.3917 43.8723 77.8858 43.5758C76.3426 42.6704 74.6638 41.8474 72.8961 41.1281C83.4793 36.2651 91.1818 34.8247 93.2528 37.3981C95.3905 40.0541 93.7766 46.4653 88.9435 54.7252C88.2198 53.4008 87.3569 52.079 86.3255 50.7836C85.96 50.3247 85.2917 50.2486 84.8324 50.6145C84.3734 50.98 84.2978 51.6487 84.6633 52.1076C90.4858 59.417 90.5802 67.6697 90.1186 71.9379Z" fill="#70838E"/>
<path d="M79.9766 80.819C79.9381 80.819 79.8996 80.8173 79.8607 80.8128L73.6486 80.1409C73.0653 80.0779 72.6435 79.5536 72.7066 78.9703C72.7696 78.3871 73.2948 77.9639 73.8771 78.0283L80.0893 78.7002C80.6726 78.7632 81.0944 79.2875 81.0313 79.8708C80.9727 80.4151 80.512 80.819 79.9766 80.819Z" fill="#95A1B3"/>
<path d="M78.2139 86.533C78.0547 86.533 77.8927 86.4972 77.7407 86.4212L72.8619 83.9888C72.3368 83.7271 72.1234 83.0892 72.3851 82.5637C72.6468 82.0385 73.2855 81.8247 73.8102 82.0868L78.6894 84.5193C79.2145 84.7809 79.4279 85.4188 79.1662 85.9439C78.9797 86.317 78.6039 86.533 78.2139 86.533Z" fill="#95A1B3"/>
<path d="M36.5853 76.125C36.5468 76.125 36.5083 76.1233 36.4698 76.1188L30.2577 75.4469C29.6744 75.3839 29.2526 74.8596 29.3157 74.2763C29.3788 73.6926 29.9034 73.2681 30.4863 73.3343L36.6984 74.0062C37.2817 74.0692 37.7035 74.5935 37.6404 75.1768C37.5814 75.7211 37.1211 76.125 36.5853 76.125Z" fill="#95A1B3"/>
<path d="M30.869 81.411C30.3936 81.411 29.961 81.0898 29.8398 80.6081C29.6962 80.0391 30.0411 79.4612 30.6101 79.3181L35.8967 77.9855C36.4666 77.8415 37.0432 78.1873 37.1867 78.7562C37.3303 79.3252 36.985 79.9027 36.4165 80.0463L31.1298 81.3788C31.0426 81.4007 30.9549 81.411 30.869 81.411Z" fill="#95A1B3"/>
<path d="M69.0966 64.9945C69.0582 64.9945 69.0197 64.9927 68.9812 64.9882L65.7222 64.6358C65.1389 64.5727 64.7171 64.0485 64.7802 63.4652C64.8432 62.8819 65.3684 62.4583 65.9508 62.5232L69.2098 62.8756C69.7931 62.9387 70.2149 63.4629 70.1518 64.0462C70.0928 64.5906 69.6325 64.9945 69.0966 64.9945Z" fill="white"/>
<path d="M47.6447 62.6733C47.6067 62.6733 47.5678 62.6716 47.5293 62.6671L44.2702 62.3146C43.6865 62.2515 43.2647 61.7273 43.3282 61.1445C43.3913 60.5607 43.9151 60.1358 44.4988 60.2024L47.7579 60.5549C48.3416 60.618 48.7634 61.1422 48.6999 61.7251C48.6408 62.2699 48.1801 62.6733 47.6447 62.6733Z" fill="white"/>
<path d="M59.5122 79.4099L56.407 75.5515L56.551 74.219L57.2394 74.2937C57.2783 74.2982 57.3168 74.3 57.3548 74.3C57.8903 74.3 58.351 73.896 58.41 73.3517C58.4731 72.7684 58.0513 72.2441 57.468 72.1811L53.9786 71.8036C53.3958 71.7387 52.8711 72.1623 52.808 72.7456C52.7449 73.3293 53.1667 73.8531 53.75 73.9162L54.4384 73.9909L54.2944 75.3234L50.436 78.4286C49.9788 78.7962 49.9064 79.4654 50.2745 79.9225C50.6422 80.3797 51.3109 80.4522 51.7685 80.084L55.142 77.3694L57.8567 80.7425C58.0665 81.0032 58.3747 81.1388 58.6851 81.1388C58.9191 81.1388 59.1539 81.0618 59.3507 80.9039C59.8074 80.5358 59.8799 79.8671 59.5122 79.4099Z" fill="#70838E"/>
<path d="M65.0326 73.4364C64.8067 73.4364 64.5791 73.3648 64.3858 73.2163C61.006 70.6184 57.0706 69.5055 52.6929 69.908C49.3743 70.2131 47.0291 71.3206 47.0059 71.3313C46.4772 71.5845 45.8424 71.3618 45.5888 70.8339C45.3348 70.3057 45.5562 69.6719 46.0835 69.4173C46.19 69.3659 48.7365 68.1528 52.4142 67.7999C57.3055 67.3302 61.8939 68.6207 65.6808 71.5317C66.146 71.8891 66.2332 72.5565 65.8758 73.0217C65.6664 73.2937 65.3511 73.4364 65.0326 73.4364Z" fill="#5F5C5D"/>
<path d="M81.4099 75.1714C81.1782 75.1714 81.0373 75.1678 81.0024 75.1664C80.416 75.149 79.9548 74.6592 79.9723 74.0728C79.9897 73.4864 80.4724 73.0257 81.0659 73.0427C81.1549 73.0444 86.9735 73.1813 91.7099 71.0812C92.2463 70.8428 92.8743 71.0853 93.1118 71.6216C93.3498 72.1579 93.1078 72.7859 92.5714 73.0234C88.0734 75.0184 82.8927 75.1714 81.4099 75.1714Z" fill="#5F5C5D"/>
<path d="M30.5478 69.7057C30.4928 69.7057 30.4373 69.7012 30.3809 69.6923C30.134 69.6534 24.2775 68.7002 19.6783 65.3257C19.2051 64.9786 19.1031 64.3139 19.4502 63.8407C19.7969 63.3674 20.4625 63.2655 20.9353 63.6126C25.109 66.6743 30.6569 67.5846 30.7128 67.5936C31.2921 67.6857 31.6875 68.2301 31.5958 68.8089C31.5126 69.3322 31.0613 69.7057 30.5478 69.7057Z" fill="#5F5C5D"/>
<path d="M81.0365 74.1066C80.6768 77.4318 76.9092 79.756 72.5753 79.3682C72.51 79.366 72.4397 79.3583 72.3749 79.3516C69.1145 78.9992 66.4705 77.2055 65.4565 74.9354C65.0937 74.1271 64.9394 73.2607 65.0351 72.3755C65.3285 69.6653 67.8871 67.6149 71.1734 67.1662C71.9804 67.0513 72.8267 67.0365 73.6967 67.1304C77.1718 67.5062 79.9486 69.5217 80.7931 72.006C81.0244 72.6783 81.1147 73.3864 81.0365 74.1066Z" fill="#A18BD8"/>
<path d="M80.7932 72.006C80.3231 73.6852 79.237 74.9336 77.4326 75.295C74.6455 75.8533 72.9229 77.1849 72.5754 79.3682C72.5101 79.366 72.4398 79.3583 72.375 79.3516C69.1146 78.9992 66.4706 77.2055 65.4565 74.9354C66.0863 74.6295 66.8096 74.3991 67.6318 74.2349C70.6466 73.6302 71.6414 70.5608 71.174 67.1662C71.9809 67.0513 72.8272 67.0365 73.6972 67.1304C77.1718 67.5066 79.9487 69.5217 80.7932 72.006Z" fill="#B9A6DD"/>
<path d="M73.5157 80.4747C73.0997 80.4747 72.6801 80.4519 72.2583 80.4063C69.8907 80.1504 67.7312 79.1954 66.1768 77.7184C64.545 76.1672 63.7636 74.2286 63.9765 72.2595C64.1894 70.2905 65.3672 68.5635 67.2933 67.3974C69.1276 66.2867 71.4415 65.8157 73.8087 66.072C78.8023 66.6124 82.5176 70.2668 82.09 74.2192C81.8771 76.1882 80.6994 77.9152 78.7737 79.0814C77.2668 79.9943 75.4351 80.4747 73.5157 80.4747ZM72.5468 68.1287C71.0162 68.1287 69.57 68.5031 68.3941 69.2152C67.0481 70.0302 66.2296 71.1927 66.0891 72.4881C65.9491 73.7835 66.5002 75.0941 67.6404 76.1784C68.8588 77.3364 70.5796 78.0879 72.4864 78.2941C74.3937 78.5008 76.2348 78.1344 77.6725 77.2635C79.0184 76.4485 79.837 75.286 79.9774 73.9902C80.2789 71.203 77.409 68.5988 73.5796 68.1846C73.2334 68.147 72.8877 68.1287 72.5468 68.1287Z" fill="#F9CB71"/>
<path d="M46.5473 70.376C46.1877 73.7012 42.4201 76.0254 38.0861 75.6376C38.0208 75.6354 37.9506 75.6277 37.8858 75.621C34.6254 75.2681 31.9814 73.4749 30.9673 71.2048C30.6046 70.3966 30.4502 69.5301 30.546 68.6449C30.839 65.9347 33.398 63.8843 36.6843 63.4352C37.4912 63.3202 38.3375 63.3055 39.2075 63.3998C42.6826 63.776 45.4595 65.7911 46.304 68.2754C46.5348 68.9477 46.6252 69.6558 46.5473 70.376Z" fill="#A18BD8"/>
<path d="M46.3038 68.2751C45.8337 69.9543 44.7477 71.2027 42.9432 71.5641C40.1561 72.1224 38.4335 73.454 38.086 75.6373C38.0207 75.635 37.9504 75.6274 37.8856 75.6207C34.6252 75.2678 31.9812 73.4746 30.9672 71.2045C31.5974 70.8985 32.3203 70.6682 33.1424 70.504C36.1572 69.8993 37.152 66.8299 36.6846 63.4353C37.4915 63.3204 38.3378 63.3056 39.2078 63.4C42.6829 63.7757 45.4598 65.7908 46.3038 68.2751Z" fill="#B9A6DD"/>
<path d="M39.0097 76.7427C38.6018 76.7427 38.1876 76.7208 37.7693 76.6751C32.7756 76.1348 29.0604 72.4799 29.488 68.528C29.9156 64.576 34.3255 61.7996 39.3201 62.3409C41.6877 62.5967 43.8473 63.5513 45.4017 65.0287C47.0334 66.58 47.8148 68.5186 47.6015 70.4876C47.2096 74.109 43.4738 76.7427 39.0097 76.7427ZM38.0601 64.3976C34.6762 64.3976 31.8743 66.223 31.6001 68.757C31.2987 71.5441 34.1685 74.1488 37.9979 74.563C41.8255 74.9754 45.1874 73.0466 45.4889 70.2595C45.6289 68.9641 45.0778 67.6535 43.9372 66.5692C42.7187 65.4112 40.998 64.6597 39.0911 64.4535C38.7436 64.4159 38.3987 64.3976 38.0601 64.3976Z" fill="#F9CB71"/>
<path d="M81.9913 92.0454C81.9913 95.7021 75.9259 98.6641 68.452 98.6641C63.3066 98.6641 58.8305 97.2609 56.5421 95.1988C54.2537 97.2609 49.7775 98.6641 44.6273 98.6641C37.1484 98.6641 31.0879 95.7021 31.0879 92.0454C31.0879 88.3936 37.1484 85.4266 44.6273 85.4266C49.7775 85.4266 54.2537 86.8352 56.5421 88.8968C58.8305 86.8298 63.3071 85.4266 68.452 85.4266C75.9255 85.4262 81.9913 88.3936 81.9913 92.0454Z" fill="#B2B8C4"/>
<path d="M68.4522 84.3639C63.6643 84.3639 59.2065 85.5676 56.5253 87.5438C53.8997 85.6074 49.5908 84.3661 44.6271 84.3661C36.4397 84.3661 30.0262 87.7397 30.0262 92.0463C30.0262 96.3529 36.4397 99.7265 44.6271 99.7265C49.5899 99.7265 53.8979 98.4857 56.524 96.5497C59.206 98.5241 63.6647 99.7265 68.4522 99.7265C76.6401 99.7265 83.0539 96.3525 83.0539 92.045C83.0539 87.7379 76.6401 84.3639 68.4522 84.3639ZM44.6271 97.6014C41.1694 97.6014 37.9354 96.9514 35.5205 95.771C33.3792 94.7243 32.1509 93.3667 32.1509 92.0463C32.1509 90.7259 33.3792 89.3683 35.5205 88.3216C37.935 87.1416 41.169 86.4913 44.6271 86.4913C48.0847 86.4913 51.3187 87.1412 53.7337 88.3216C55.875 89.3683 57.1033 90.7259 57.1033 92.0463C57.1033 93.3667 55.875 94.7243 53.7337 95.771C51.3187 96.9514 48.0847 97.6014 44.6271 97.6014ZM77.5579 95.7714C75.143 96.9514 71.909 97.6018 68.4522 97.6018C64.2775 97.6018 60.441 96.6455 58.0976 95.0638C58.8272 94.1419 59.2279 93.1234 59.2279 92.0468C59.2279 90.9701 58.8272 89.952 58.0981 89.0302C60.4401 87.4467 64.2762 86.489 68.4518 86.489C71.9076 86.489 75.1412 87.1398 77.5575 88.3212C79.7001 89.3688 80.9288 90.7259 80.9288 92.0454C80.9288 93.3663 79.7001 94.7243 77.5579 95.7714Z" fill="#70838E"/>
<path d="M89.7979 37.3902C88.6412 36.505 88.1031 35.1116 88.2489 33.759C87.0569 34.4129 85.5633 34.4429 84.3006 33.7138C83.0383 32.9843 82.319 31.6763 82.2886 30.3188C81.1972 31.1235 79.7184 31.3498 78.3707 30.796C77.023 30.2383 76.1378 29.031 75.9311 27.6927C74.9506 28.6333 73.517 29.0507 72.1036 28.6785C70.6955 28.3014 69.6595 27.2203 69.2771 25.9178C68.4272 26.9788 67.0642 27.5822 65.6154 27.3961C64.1671 27.2051 63.0001 26.2693 62.4517 25.0272C61.7476 26.1893 60.4701 26.9689 59.0115 26.9689C57.5528 26.9689 56.2704 26.1942 55.5663 25.0321C55.0184 26.2747 53.8509 27.21 52.4026 27.401C50.9542 27.5925 49.5913 26.9837 48.736 25.9227C48.354 27.2252 47.3226 28.3068 45.9095 28.6839C44.5014 29.0556 43.0678 28.6383 42.0873 27.6927C41.8758 29.0355 40.9955 30.2427 39.6477 30.796C38.2996 31.3547 36.8212 31.123 35.7245 30.3188C35.6945 31.6763 34.9752 32.9843 33.7125 33.7138C32.4502 34.4429 30.9562 34.408 29.7695 33.7541C29.9153 35.1067 29.3723 36.5001 28.2205 37.3853C26.4555 38.7379 23.9304 38.4065 22.5773 36.6459C21.2243 34.8853 21.5512 32.3553 23.3167 31.0023C24.6197 30.0012 26.3445 29.9211 27.7025 30.6654C27.5366 29.1267 28.2657 27.567 29.6944 26.7426C31.1177 25.9178 32.838 26.0685 34.0851 26.9837C34.1253 25.4401 35.0557 23.9859 36.5748 23.3574C38.0987 22.7285 39.7837 23.106 40.9002 24.1778C41.1368 22.6489 42.2533 21.3253 43.8425 20.9031V20.9084C45.4318 20.4857 47.0515 21.0739 48.0221 22.2812C48.4547 20.7975 49.7322 19.6359 51.3617 19.4198C52.9912 19.2082 54.5201 20.0026 55.3248 21.3253C55.9483 19.9123 57.3618 18.9215 59.0061 18.9215C60.6508 18.9215 62.0692 19.9074 62.6928 21.3204C63.4925 19.9977 65.0214 19.2029 66.6559 19.414C68.2854 19.6305 69.5629 20.7921 69.9954 22.2758C70.9661 21.0686 72.5857 20.475 74.175 20.9026C75.7692 21.3249 76.8807 22.6426 77.1174 24.1719C78.2338 23.1007 79.9188 22.7285 81.4428 23.357C82.9667 23.9854 83.8971 25.4396 83.9275 26.9886C85.1746 26.073 86.8999 25.9222 88.3232 26.7471C89.7519 27.567 90.481 29.1312 90.315 30.6699C91.673 29.9305 93.3983 30.0066 94.7008 31.0121C96.461 32.3647 96.7933 34.8898 95.4398 36.6503C94.6454 37.6814 93.4533 38.2244 92.246 38.2244C91.3921 38.2253 90.5324 37.9538 89.7979 37.3902Z" fill="#B9A6DD"/>
<path d="M92.2473 39.2879C91.1215 39.2879 90.0511 38.9238 89.1525 38.2345C88.1617 37.4768 87.5059 36.4127 87.2648 35.2318C86.0849 35.459 84.8516 35.2595 83.7692 34.6346C82.6863 34.0089 81.8968 33.0396 81.504 31.903C80.3648 32.2774 79.1029 32.246 77.9668 31.78C76.8302 31.3094 75.9128 30.4403 75.3688 29.3681C74.2886 29.8955 73.0438 30.0256 71.8329 29.7072C70.644 29.3887 69.6201 28.6453 68.9393 27.6522C67.9365 28.3183 66.7198 28.6104 65.4799 28.4511C64.2359 28.287 63.1324 27.6925 62.3331 26.7912C61.4197 27.5776 60.2393 28.0329 59.0114 28.0329C57.7805 28.0329 56.5991 27.5793 55.6857 26.7952C54.8869 27.697 53.7838 28.2919 52.5416 28.456C51.3044 28.6189 50.0873 28.329 49.0804 27.6612C48.4054 28.6582 47.3905 29.39 46.1832 29.7121C44.9733 30.031 43.7316 29.9017 42.6531 29.3744C42.1132 30.4519 41.2034 31.3081 40.0512 31.7809C38.8989 32.2581 37.6487 32.293 36.5067 31.9106C36.1136 33.0445 35.3245 34.0111 34.2443 34.6355C33.1793 35.2506 31.9295 35.4465 30.7468 35.2219C30.5004 36.4019 29.8411 37.4817 28.8677 38.2296C26.641 39.9361 23.4419 39.5165 21.7346 37.2952C20.9057 36.2168 20.547 34.8798 20.7246 33.5307C20.9017 32.1839 21.5923 30.9869 22.6699 30.1612C23.8396 29.2625 25.3197 28.932 26.7229 29.1999C27.0137 27.8025 27.885 26.5622 29.1629 25.8246C30.4395 25.0847 31.951 24.9505 33.3085 25.4028C33.7813 24.0555 34.8079 22.9408 36.1681 22.3781C37.5333 21.815 39.0488 21.8816 40.3339 22.506C40.9766 21.2294 42.1414 20.2579 43.5692 19.8786C43.6072 19.8683 43.6457 19.8607 43.6842 19.8549C45.0726 19.5198 46.5169 19.7896 47.6777 20.5527C48.4797 19.3745 49.759 18.5631 51.2217 18.3689C52.6843 18.1793 54.1287 18.6342 55.2089 19.5668C56.159 18.5004 57.5327 17.8617 59.0061 17.8617C60.4817 17.8617 61.8558 18.4982 62.8059 19.5615C63.8839 18.6293 65.3287 18.1739 66.7918 18.3631C68.2576 18.5581 69.5369 19.37 70.3389 20.5473C71.5341 19.76 73.0277 19.497 74.451 19.8795C75.8765 20.257 77.0404 21.2272 77.6836 22.502C78.9683 21.8798 80.4833 21.8145 81.8485 22.3777C83.2154 22.9413 84.242 24.0568 84.7107 25.4054C86.0683 24.9559 87.5784 25.0901 88.8563 25.8304C90.1343 26.5635 91.0065 27.8048 91.2959 29.2071C92.7018 28.9391 94.1828 29.2719 95.3503 30.1737C96.4247 30.999 97.1149 32.1959 97.2916 33.5423C97.4683 34.8892 97.11 36.2235 96.2825 37.3001C95.3091 38.5633 93.8384 39.2879 92.2473 39.2879ZM88.2489 32.6969C88.4551 32.6969 88.6604 32.7569 88.8385 32.8754C89.1677 33.095 89.3479 33.4793 89.3054 33.8733C89.1932 34.916 89.6185 35.9153 90.4438 36.5469L90.4452 36.5477C90.9698 36.9503 91.5929 37.1632 92.2478 37.1632C93.1742 37.1632 94.0316 36.7405 94.5997 36.0029C95.0801 35.3781 95.2886 34.6015 95.1857 33.8179C95.0828 33.0342 94.6811 32.3373 94.0544 31.856C93.1258 31.139 91.8591 31.041 90.8236 31.6042C90.4765 31.7929 90.0533 31.7737 89.7246 31.5536C89.3962 31.334 89.2169 30.9498 89.2594 30.5566C89.3859 29.3856 88.8112 28.2521 87.7953 27.6692C86.7759 27.0788 85.5065 27.1486 84.5569 27.8455C84.2375 28.0803 83.8135 28.1174 83.4574 27.9417C83.1018 27.7659 82.8737 27.4062 82.8661 27.0099C82.8433 25.8362 82.1258 24.7882 81.0384 24.34C79.951 23.8913 78.7008 24.1266 77.8536 24.9394C77.5678 25.2136 77.1531 25.3066 76.7774 25.1791C76.4021 25.0521 76.1284 24.7269 76.068 24.3351C75.8886 23.1752 75.0387 22.2314 73.9035 21.9304C72.7705 21.6262 71.5632 22.0234 70.8238 22.9422C70.5755 23.2508 70.1783 23.3962 69.7878 23.3183C69.3996 23.241 69.0865 22.9538 68.9755 22.5736C68.6477 21.4491 67.6824 20.6224 66.5158 20.4677C65.3551 20.3169 64.2082 20.868 63.6021 21.8704C63.3972 22.2095 63.0206 22.4081 62.6247 22.3808C62.2293 22.3553 61.8809 22.112 61.7207 21.7492C61.2475 20.677 60.182 19.9841 59.0061 19.9841C57.8346 19.9841 56.7709 20.6788 56.2968 21.7541C56.1371 22.1164 55.7891 22.3598 55.3941 22.3857C54.9982 22.4103 54.6225 22.2162 54.4167 21.878C53.8057 20.8738 52.6606 20.3223 51.4981 20.4735C50.3347 20.6278 49.3694 21.4544 49.0415 22.5785C48.9306 22.9587 48.6175 23.2459 48.2292 23.3233C47.8396 23.4006 47.4415 23.2557 47.1937 22.9471C46.457 22.0315 45.2484 21.6342 44.1154 21.9353C44.0863 21.9429 44.0572 21.9496 44.0281 21.9545C42.9363 22.2806 42.1253 23.2079 41.95 24.34C41.8896 24.7318 41.6158 25.057 41.2406 25.184C40.8648 25.3111 40.4502 25.2185 40.1643 24.9443C39.3154 24.1293 38.0652 23.8918 36.98 24.3395C35.8975 24.7873 35.1778 25.8367 35.147 27.0113C35.1367 27.4067 34.9076 27.7632 34.5525 27.9376C34.1973 28.1116 33.7751 28.0741 33.4561 27.8401C32.5079 27.1446 31.2402 27.0743 30.2266 27.6616C29.2086 28.2498 28.6329 29.3838 28.7586 30.5512C28.8011 30.9448 28.6213 31.3291 28.292 31.5491C27.9628 31.7688 27.5388 31.7871 27.1917 31.597C26.1615 31.033 24.8948 31.1296 23.9635 31.8448C23.3359 32.3261 22.9343 33.0221 22.8314 33.8058C22.728 34.5917 22.9369 35.3704 23.4196 35.9985C24.4139 37.2916 26.2769 37.5354 27.5737 36.5419C28.3989 35.9077 28.8252 34.9079 28.713 33.868C28.6705 33.4739 28.8507 33.0892 29.1804 32.8696C29.5105 32.65 29.935 32.6321 30.2816 32.8235C31.1946 33.3263 32.2784 33.3151 33.1811 32.794C34.0851 32.2715 34.6388 31.3376 34.6616 30.2958C34.6706 29.8995 34.8991 29.5412 35.2543 29.3663C35.6095 29.191 36.0331 29.2281 36.3524 29.4625C37.1969 30.0824 38.2763 30.2144 39.2407 29.815C40.2033 29.4195 40.8738 28.5652 41.037 27.5283C41.0988 27.137 41.373 26.8122 41.7487 26.6861C42.1249 26.5599 42.5391 26.6534 42.824 26.9285C43.5741 27.6518 44.6262 27.9247 45.6375 27.6572C46.6435 27.3888 47.4214 26.6284 47.7162 25.6237C47.8275 25.2444 48.1406 24.9582 48.5285 24.8808C48.9163 24.8034 49.3148 24.9483 49.5631 25.2561C50.2237 26.076 51.2328 26.4826 52.263 26.3479C53.3012 26.211 54.1725 25.5589 54.5939 24.6034C54.754 24.2407 55.102 23.9973 55.4974 23.9718C55.8928 23.9464 56.2695 24.1427 56.4748 24.4818C57.0071 25.3607 57.9791 25.9064 59.0114 25.9064C60.0541 25.9064 61.0006 25.3719 61.5432 24.4764C61.7485 24.1378 62.1247 23.9414 62.5205 23.9669C62.9159 23.9924 63.2639 24.2358 63.4241 24.5985C63.8454 25.554 64.7168 26.2061 65.7545 26.343C66.7878 26.4758 67.7947 26.0688 68.4477 25.2538C68.6951 24.9447 69.0936 24.7985 69.4828 24.8758C69.871 24.9523 70.185 25.2386 70.2964 25.6188C70.5907 26.6217 71.3691 27.3821 72.3786 27.6527C73.3891 27.9184 74.4438 27.6478 75.1957 26.9263C75.482 26.6516 75.8962 26.559 76.2719 26.6865C76.6472 26.8136 76.9205 27.1392 76.9809 27.5306C77.1375 28.5455 77.8254 29.4204 78.7768 29.8141C79.7287 30.205 80.8335 30.0708 81.6579 29.4634C81.9773 29.2281 82.4009 29.1896 82.7569 29.365C83.113 29.5399 83.342 29.8986 83.3509 30.2949C83.3738 31.3367 83.928 32.2706 84.832 32.7935C85.7373 33.3155 86.8234 33.3281 87.7376 32.8271C87.8973 32.7403 88.0736 32.6969 88.2489 32.6969Z" fill="#A18BD8"/>
<path d="M105.25 39.2773H95.1288V92.8517H105.25V39.2773Z" fill="#FFFFA1"/>
<path d="M105.25 92.8522H13.063L16.0425 102.664C16.8203 105.225 19.1825 106.977 21.8596 106.977H96.454C99.1311 106.977 101.493 105.225 102.271 102.664L105.25 92.8522Z" fill="#FFFFA1"/>
<path d="M106.313 39.2772C106.313 38.6903 105.837 38.2148 105.25 38.2148H95.1288C94.542 38.2148 94.0665 38.6908 94.0665 39.2772V91.7892H13.0632C12.7268 91.7892 12.4101 91.9484 12.2097 92.219C12.0093 92.4892 11.9489 92.8385 12.0464 93.1606L15.0259 102.972C15.9465 106.003 18.6925 108.038 21.8598 108.038H96.4537C99.6206 108.038 102.367 106.003 103.288 102.972L106.267 93.1601C106.298 93.059 106.311 92.9548 106.311 92.8515H106.313V39.2772ZM96.1912 40.3395H104.188V91.7892H96.1912V40.3395ZM101.254 102.354C100.608 104.483 98.6786 105.913 96.4537 105.913H21.8598C19.6349 105.913 17.7057 104.483 17.0594 102.354L14.4963 93.9143H103.817L101.254 102.354Z" fill="#F9CB71"/>
<path d="M97.6178 37.4043C76.3266 16.1131 41.6835 16.1131 20.3928 37.4043L13.2798 30.2913C38.4929 5.07908 79.5172 5.07863 104.73 30.2913L97.6178 37.4043Z" fill="#FFFFA1"/>
<path d="M97.6176 38.4669C97.3358 38.4669 97.0656 38.3551 96.8666 38.1556C86.7701 28.0591 73.3237 22.4986 59.0051 22.4986C44.6865 22.4986 31.2402 28.0591 21.1441 38.1556C20.945 38.3551 20.6749 38.4669 20.3931 38.4669C20.1113 38.4669 19.8411 38.3551 19.6421 38.1556L12.5286 31.0426C12.3291 30.8435 12.2173 30.5733 12.2173 30.2915C12.2173 30.0097 12.3291 29.7396 12.5286 29.5405C38.1559 3.91412 79.8548 3.91368 105.482 29.5405C105.897 29.9552 105.897 30.6279 105.482 31.043L98.3691 38.156C98.17 38.3551 97.8999 38.4669 97.6176 38.4669ZM14.7888 30.2974L20.3998 35.9088C30.8081 25.8816 44.4745 20.3735 59.0051 20.3735C73.5362 20.3735 87.2026 25.8816 97.6109 35.9088L103.222 30.2974C78.6202 6.49416 39.3909 6.49416 14.7888 30.2974Z" fill="#F9CB71"/>
<path d="M102.035 43.7445C106.681 43.2827 110.073 39.1422 109.611 34.4963C109.15 29.8503 105.009 26.4584 100.363 26.9202C95.7172 27.3819 92.3252 31.5225 92.787 36.1684C93.2487 40.8143 97.3893 44.2062 102.035 43.7445Z" fill="white"/>
<path d="M101.199 44.8472C95.9522 44.8472 91.6831 40.5782 91.6831 35.3313C91.6831 30.084 95.9522 25.8149 101.199 25.8149C106.447 25.8149 110.716 30.084 110.716 35.3313C110.716 40.5786 106.447 44.8472 101.199 44.8472ZM101.199 27.9401C97.1241 27.9401 93.8082 31.2559 93.8082 35.3313C93.8082 39.4067 97.1241 42.7221 101.199 42.7221C105.275 42.7221 108.591 39.4067 108.591 35.3313C108.591 31.2559 105.275 27.9401 101.199 27.9401Z" fill="#E2E2E2"/>
<path d="M101.199 39.9247C98.6662 39.9247 96.606 37.8645 96.606 35.3314C96.606 32.7983 98.6667 30.738 101.199 30.738C103.732 30.738 105.793 32.7988 105.793 35.3314C105.793 37.864 103.732 39.9247 101.199 39.9247ZM101.199 32.8627C99.8382 32.8627 98.7306 33.9702 98.7306 35.3314C98.7306 36.6925 99.8382 37.7996 101.199 37.7996C102.56 37.7996 103.668 36.6925 103.668 35.3314C103.668 33.9702 102.56 32.8627 101.199 32.8627Z" fill="#E2E2E2"/>
<circle cx="60.0023" cy="60.0367" r="58.2879" stroke="black" stroke-width="3.4287"/>
<circle cx="60.0024" cy="60.0367" r="54.8592" stroke="white" stroke-width="3.4287"/>
</g>
<defs>
<clipPath id="clip0_2_6583">
<rect y="0.0344238" width="120.005" height="120.005" rx="60.0023" fill="white"/>
</clipPath>
</defs>
</svg>
