<svg width="121" height="121" viewBox="0 0 121 121" fill="none" xmlns="http://www.w3.org/2000/svg">
<g clip-path="url(#clip0_2_6242)">
<circle cx="60.0075" cy="60.0075" r="60.0075" fill="#D9D9D9"/>
<path d="M97.5044 90.2406C97.5044 78.1808 87.3894 68.4047 74.912 68.4047C62.4347 68.4047 45.3127 77.7949 45.3127 89.8546C45.3127 101.914 62.4347 112.076 74.912 112.076C87.3894 112.076 97.5044 102.3 97.5044 90.2406Z" fill="#B1B9C6"/>
<path d="M39.9925 80.185C44.5037 86.0965 45.649 92.8059 42.5506 95.1702C39.4522 97.5348 33.2835 94.6588 28.7722 88.7474C24.261 82.8359 23.1158 76.1264 26.2141 73.7622C29.3125 71.3975 35.4813 74.2731 39.9925 80.185Z" fill="#B1B9C6"/>
<path d="M108.652 27.0173C104.318 22.6837 90.5125 30.5664 84.4323 34.3882C81.4225 33.8876 77.541 33.6825 73.095 33.7021C68.6486 33.682 64.7667 33.8876 61.7569 34.3882C55.6743 30.5636 41.8699 22.686 37.5386 27.0173C33.2371 31.3188 38.1483 43.1272 40.6705 48.3889C37.6878 53.4269 36.5984 58.944 36.5984 63.6953C36.5984 67.8037 37.0878 71.9066 38.0719 76.01C39.9932 84.0186 46.3252 90.1682 54.3962 91.8029C60.6293 93.0634 66.8619 93.6931 73.095 93.6931C79.3281 93.6931 85.5608 93.0629 91.7939 91.8029C99.8649 90.1682 106.197 84.0181 108.118 76.01C109.102 71.9066 109.592 67.8033 109.592 63.6953C109.592 58.9454 108.503 53.4292 105.522 48.3927C108.038 43.1361 112.955 31.3202 108.652 27.0173Z" fill="#B1B9C6"/>
<path d="M103.575 37.4786C103.575 37.4786 104.278 39.0719 104.392 40.8581C104.502 42.5086 103.507 43.7686 102.205 44.2949C99.4715 41.1862 96.0972 38.6454 92.2856 36.8801C92.322 35.9847 92.6972 35.1046 93.4263 34.4432C96.3526 31.7825 100.399 28.913 103.263 30.0797C108.251 32.1149 103.575 37.4786 103.575 37.4786Z" fill="white"/>
<path d="M42.6114 37.4786C42.6114 37.4786 41.9085 39.0719 41.7938 40.8581C41.6842 42.5086 42.679 43.7686 43.9809 44.2949C46.7147 41.1862 50.0886 38.6454 53.9006 36.8801C53.8642 35.9847 53.489 35.1046 52.76 34.4432C49.8336 31.7825 45.7876 28.913 42.9237 30.0797C37.9356 32.1149 42.6114 37.4786 42.6114 37.4786Z" fill="white"/>
<path d="M109.433 26.2326C107.18 23.9788 103.042 24.1042 96.7842 26.6143C92.211 28.449 87.4756 31.182 84.1926 33.232C81.3078 32.7915 77.5964 32.5794 73.0997 32.5948C68.5912 32.5757 64.8776 32.7901 61.9922 33.232C58.7041 31.1806 53.9645 28.4462 49.3993 26.6148C43.1428 24.1047 39.0059 23.9798 36.7531 26.2326C32.2158 30.7699 36.3425 41.7957 39.4171 48.3323C36.0982 54.2013 35.4904 60.1459 35.4904 63.6955C35.4904 67.8767 35.9966 72.1068 36.9946 76.2684C37.9874 80.4063 40.1186 84.1493 43.1573 87.092C46.2016 90.0403 50.0117 92.0451 54.1762 92.8888C60.4531 94.1576 66.8181 94.8008 73.0945 94.8008C79.3719 94.8008 85.7369 94.1576 92.0129 92.8888C96.1773 92.0451 99.9875 90.0407 103.032 87.0925C106.07 84.1498 108.202 80.4067 109.194 76.2689C110.192 72.1078 110.699 67.8772 110.699 63.6955C110.699 60.1464 110.091 54.2023 106.773 48.3337C109.842 41.7944 113.964 30.7634 109.433 26.2326ZM107.041 75.7515C106.146 79.4796 104.228 82.8511 101.491 85.5011C98.7518 88.1543 95.322 89.9582 91.5738 90.7176C85.4423 91.957 79.2251 92.5858 73.0945 92.5858C66.9654 92.5858 60.7477 91.9575 54.6157 90.718C50.8671 89.9587 47.4378 88.1548 44.6983 85.5011C41.9621 82.8511 40.0435 79.4801 39.149 75.7515C38.1911 71.7591 37.7059 67.7028 37.7059 63.695C37.7059 59.2514 38.7221 50.7697 45.5266 43.8957C45.9569 43.4612 45.9531 42.7602 45.5187 42.3295C45.0838 41.8997 44.3828 41.9025 43.9525 42.3374C42.7494 43.5526 41.7165 44.8135 40.8252 46.0935C36.7694 37.0664 35.8223 30.2954 38.3193 27.7983C40.7297 25.3875 48.4884 27.7251 58.8333 33.8981C56.9408 34.4402 55.1275 35.0989 53.4439 35.8563C52.8859 36.1071 52.6375 36.7629 52.8882 37.3204C53.139 37.8784 53.7949 38.1268 54.3524 37.8761C55.9614 37.1526 57.6987 36.5233 59.5152 36.0064C62.4099 35.1846 66.9747 34.7837 73.1001 34.8089C79.2134 34.7749 83.7792 35.1841 86.6739 36.0059C88.4918 36.5233 90.229 37.1526 91.8372 37.8761C91.9849 37.9427 92.1392 37.9739 92.2912 37.9739C92.7135 37.9739 93.1172 37.7311 93.3018 37.3209C93.5525 36.7629 93.3041 36.1076 92.7461 35.8568C91.062 35.0993 89.2478 34.4407 87.353 33.8976C97.6941 27.7219 105.453 25.3847 107.867 27.7992C110.36 30.2921 109.414 37.0627 105.365 46.0939C104.474 44.8144 103.441 43.5535 102.238 42.3383C101.808 41.9034 101.107 41.9006 100.672 42.3304C100.237 42.7606 100.234 43.4622 100.664 43.8966C107.468 50.7706 108.485 59.2519 108.485 63.6955C108.484 67.7028 107.999 71.7591 107.041 75.7515Z" fill="#678490"/>
<path d="M91.4547 74.8736C93.0535 73.2748 93.0535 70.6827 91.4547 69.0839C89.8559 67.4851 87.2637 67.4851 85.6649 69.0839C84.0661 70.6827 84.0661 73.2748 85.6649 74.8736C87.2637 76.4724 89.8559 76.4724 91.4547 74.8736Z" fill="#605C5D"/>
<path d="M98.9223 79.1215H92.4533C91.7863 79.1215 91.2451 78.5803 91.2451 77.9133C91.2451 77.2462 91.7858 76.7051 92.4533 76.7051H98.9223C99.5893 76.7051 100.13 77.2458 100.13 77.9133C100.13 78.5803 99.5893 79.1215 98.9223 79.1215Z" fill="#91A2B5"/>
<path d="M97.746 85.1989C97.6066 85.1989 97.4649 85.1747 97.3265 85.1234L92.0336 83.1629C91.408 82.9312 91.0887 82.2362 91.3204 81.6102C91.552 80.9846 92.2461 80.6654 92.8726 80.8966L98.1655 82.8571C98.7911 83.0888 99.1104 83.7838 98.8787 84.4098C98.6988 84.8973 98.2368 85.1989 97.746 85.1989Z" fill="#91A2B5"/>
<path d="M53.7372 79.1215H47.2683C46.6012 79.1215 46.0601 78.5803 46.0601 77.9133C46.0601 77.2462 46.6008 76.7051 47.2683 76.7051H53.7372C54.4043 76.7051 54.9454 77.2458 54.9454 77.9133C54.945 78.5803 54.4043 79.1215 53.7372 79.1215Z" fill="#91A2B5"/>
<path d="M48.444 85.1993C47.9532 85.1993 47.4917 84.8977 47.3109 84.4106C47.0792 83.785 47.3985 83.09 48.024 82.8579L53.317 80.8973C53.943 80.6661 54.6375 80.985 54.8692 81.611C55.1008 82.2365 54.7815 82.9315 54.156 83.1637L48.8631 85.1242C48.7251 85.175 48.5834 85.1993 48.444 85.1993Z" fill="#91A2B5"/>
<path d="M85.9614 63.944H82.5675C81.9559 63.944 81.46 63.4481 81.46 62.8365C81.46 62.225 81.9559 61.729 82.5675 61.729H85.9614C86.573 61.729 87.0689 62.225 87.0689 62.8365C87.0689 63.4481 86.573 63.944 85.9614 63.944Z" fill="white"/>
<path d="M63.6225 63.944H60.2286C59.6171 63.944 59.1211 63.4481 59.1211 62.8365C59.1211 62.225 59.6171 61.729 60.2286 61.729H63.6225C64.2341 61.729 64.73 62.225 64.73 62.8365C64.73 63.4481 64.2341 63.944 63.6225 63.944Z" fill="white"/>
<path d="M80.2334 71.7577C79.6404 71.608 79.0382 71.9688 78.89 72.5622C78.6243 73.6194 77.6762 74.3577 76.5836 74.3577C75.2705 74.3577 74.2026 73.2903 74.2026 71.9786C74.2026 71.9138 74.1961 71.8504 74.1849 71.7884H74.912C75.5236 71.7884 76.0196 71.2925 76.0196 70.6809C76.0196 70.0693 75.5236 69.5734 74.912 69.5734H71.2781C70.6665 69.5734 70.1705 70.0693 70.1705 70.6809C70.1705 71.2925 70.6665 71.7884 71.2781 71.7884H72.0052C71.9945 71.8504 71.9875 71.9138 71.9875 71.9786C71.9875 73.2903 70.9201 74.3577 69.6084 74.3577C68.5149 74.3577 67.5653 73.6194 67.3001 72.5622C67.1514 71.9688 66.5492 71.608 65.9567 71.7577C65.3633 71.9064 65.0035 72.5081 65.1522 73.1011C65.6654 75.145 67.4978 76.5723 69.6084 76.5723C71.0017 76.5723 72.2518 75.9486 73.095 74.9665C73.9387 75.9486 75.1898 76.5723 76.5836 76.5723C78.6928 76.5723 80.5247 75.145 81.0379 73.1011C81.1871 72.5081 80.8267 71.9068 80.2334 71.7577Z" fill="#678490"/>
<path d="M54.9822 76.1243C54.5646 76.1243 54.1651 75.8875 53.9772 75.4843C53.719 74.9296 53.9595 74.271 54.5137 74.0127L59.2692 71.7981L53.939 68.972C53.3988 68.6853 53.1927 68.015 53.4794 67.4748C53.7661 66.9345 54.4364 66.7285 54.9766 67.0152L62.2734 70.884C62.6449 71.0808 62.8724 71.4709 62.8617 71.8914C62.851 72.3113 62.603 72.6889 62.2221 72.8665L55.4493 76.0208C55.2973 76.0907 55.1384 76.1243 54.9822 76.1243Z" fill="#605C5D"/>
<path d="M55.3094 101.214C54.3627 102.108 52.8697 102.063 51.978 101.114L11.7691 58.2768C9.86495 56.2618 9.20025 53.3745 10.0314 50.7297L11.8898 44.815C12.8934 41.6211 16.6355 40.2255 19.485 41.9823L23.6797 44.5679C26.3413 46.2087 26.9319 49.8264 24.9308 52.2288L19.1181 59.2044L55.4092 97.8942C56.2962 98.839 56.251 100.323 55.3094 101.214Z" fill="white"/>
<path d="M53.696 102.964C53.6605 102.964 53.6251 102.964 53.5897 102.963C52.664 102.935 51.8049 102.547 51.1705 101.872L10.9616 59.0349C8.78662 56.7331 8.0245 53.4227 8.97447 50.398L10.8329 44.4832C11.4142 42.6327 12.7902 41.1826 14.6077 40.5048C16.4246 39.8271 18.4145 40.0219 20.066 41.0399L24.2608 43.6256C25.8027 44.576 26.8548 46.1464 27.147 47.9345C27.4388 49.7225 26.941 51.546 25.7817 52.9374L20.596 59.1608L56.2173 97.1364C57.5178 98.5227 57.4516 100.713 56.07 102.019C55.4221 102.63 54.5825 102.964 53.696 102.964ZM16.7947 42.3227C16.3198 42.3227 15.8424 42.4076 15.3819 42.5796C14.2091 43.0168 13.3211 43.9528 12.9459 45.1465L11.0874 51.0613C10.3775 53.3211 10.9471 55.7944 12.5739 57.5162L52.7852 100.356C53.0136 100.599 53.3226 100.738 53.6559 100.748C53.9901 100.761 54.3061 100.638 54.5485 100.409C55.0459 99.9393 55.0697 99.151 54.6017 98.6518L18.3106 59.962C17.9284 59.5542 17.9097 58.9254 18.2677 58.4956L24.0799 51.5199C24.828 50.6222 25.1492 49.4452 24.9609 48.2915C24.7726 47.1379 24.0939 46.1245 23.0987 45.511L18.904 42.925C18.2565 42.526 17.5289 42.3227 16.7947 42.3227Z" fill="#E3E3E3"/>
<path d="M26.8515 71.1166C30.298 69.0125 34.7976 70.1005 36.9022 73.547C39.0063 76.9936 37.9183 81.4931 34.4718 83.5977C31.0252 85.7018 28.1277 83.6355 26.0236 80.1889C23.9195 76.7423 23.4049 73.2207 26.8515 71.1166Z" fill="#B1B9C6"/>
<path d="M32.6149 85.4627C32.0994 85.4627 31.6374 85.1005 31.5307 84.5756C31.409 83.9762 31.7959 83.3916 32.3954 83.27C32.8797 83.1716 33.384 82.9637 33.8944 82.6524C35.3087 81.7886 36.302 80.4261 36.6917 78.8152C37.0814 77.2042 36.8203 75.5383 35.9566 74.124C34.1741 71.2042 30.3481 70.2789 27.4283 72.0614C26.214 72.803 25.5749 73.7446 25.4752 74.9402C25.4239 75.5494 24.8869 76.0016 24.2795 75.9517C23.6698 75.9009 23.2172 75.3653 23.2681 74.7561C23.4261 72.8608 24.4655 71.275 26.2741 70.1708C30.2367 67.7516 35.428 69.0078 37.8468 72.9694C40.2655 76.9315 39.0102 82.1233 35.0481 84.542C34.3177 84.9877 33.5733 85.2897 32.8358 85.4393C32.7627 85.4552 32.6881 85.4627 32.6149 85.4627Z" fill="#678490"/>
<path d="M83.9664 100.427C78.3206 110.362 68.8652 118.708 53.9033 115.637C39.7908 112.744 35.4818 91.8338 45.4104 90.9579C55.1176 90.1002 51.0665 101.636 51.0665 101.636C51.0665 101.636 54.7894 105.775 62.2555 102.836L83.9664 100.427Z" fill="#B1B9C6"/>
<path d="M59.9535 117.381C57.7399 117.381 55.6264 117.122 53.6803 116.723C49.2209 115.808 45.2336 113.062 42.454 108.99C40.0348 105.446 38.7161 101.133 38.9264 97.453C39.1795 93.0262 41.5665 90.1856 45.3124 89.8546C48.2028 89.5992 50.333 90.3245 51.6433 92.0105C53.8453 94.8441 52.8366 99.5026 52.3328 101.286C53.4305 102.134 56.5578 103.889 61.8488 101.804C62.418 101.58 63.0612 101.86 63.285 102.429C63.5092 102.998 63.2295 103.641 62.6603 103.865C54.5725 107.051 50.4156 102.569 50.2426 102.377C49.9718 102.076 49.887 101.651 50.0212 101.269C50.5395 99.7837 51.5273 95.4664 49.8926 93.3665C49.074 92.3149 47.5987 91.8762 45.5077 92.0604C41.9618 92.3736 41.2477 95.6524 41.1377 97.5789C40.9545 100.788 42.1301 104.587 44.2831 107.741C46.7368 111.335 50.2324 113.754 54.1255 114.553C60.7315 115.907 66.6989 115.034 71.8608 111.957C76.1548 109.398 79.9034 105.335 83.0032 99.8797C83.3053 99.3483 83.9812 99.1619 84.5135 99.4639C85.0453 99.766 85.2313 100.442 84.9293 100.974C77.5994 113.874 68.1052 117.381 59.9535 117.381Z" fill="#678490"/>
<path d="M83.2788 28.9537C79.1945 22.9625 70.1684 19.0316 61.6746 23.8342C54.98 27.6196 51.3451 33.8565 52.1035 39.2631C51.2808 42.293 51.6281 45.3401 53.3649 47.8879C57.4491 53.8791 67.6452 54.8431 76.1391 50.04C82.7688 46.291 85.6882 41.9452 84.7084 37.3688C85.7022 34.6689 85.2431 31.8353 83.2788 28.9537Z" fill="white"/>
<path d="M84.1942 28.3301C81.9349 25.0155 78.3811 22.4476 74.4446 21.2841C71.2959 20.3532 66.4295 19.8736 61.13 22.8703C55.9467 25.8014 52.3393 30.2049 51.2332 34.952C50.892 36.4166 50.8076 37.8457 50.9721 39.2105C50.1238 42.5667 50.6426 45.8613 52.4507 48.5117C54.6145 51.687 58.3589 53.6769 62.9946 54.1146C63.6322 54.1747 64.2755 54.2046 64.9239 54.2046C68.8776 54.2046 72.9879 53.0947 76.6858 51.0041C81.5144 48.2735 86.9714 43.7232 85.8518 37.4667C85.9445 37.1875 86.0256 36.9065 86.0918 36.6235C86.7258 33.8981 86.0881 31.1078 84.1942 28.3301ZM53.3904 35.4545C54.3423 31.3702 57.6429 27.3867 62.2203 24.7983C64.7057 23.3929 67.235 22.7832 69.656 22.7832C74.9476 22.7832 79.7184 25.6951 82.3642 29.577C83.8945 31.8219 84.4231 34.0234 83.9341 36.1206C83.2368 39.1127 80.5407 41.9542 75.9199 44.5664C67.9281 49.0855 58.3673 48.2721 54.6061 42.7545C53.1839 40.6691 52.7635 38.1445 53.3904 35.4545ZM75.595 49.0762C67.6023 53.5944 58.0405 52.7819 54.2803 47.2639C53.657 46.3503 53.2291 45.3555 52.9942 44.3021C55.1864 47.3007 58.8339 49.182 63.3204 49.6057C63.9581 49.6658 64.6018 49.6957 65.2497 49.6957C69.2034 49.6957 73.3128 48.5858 77.0102 46.4952C79.6289 45.0143 81.7037 43.4337 83.2251 41.7649C81.9363 44.8843 78.6188 47.3664 75.595 49.0762Z" fill="#E3E3E3"/>
<path d="M69.9045 30.6665C69.8645 30.6665 69.8239 30.6642 69.7829 30.66C69.1751 30.5942 68.736 30.0428 68.8017 29.4345C68.8949 28.5703 69.4818 26.923 71.0885 26.2326C71.6511 25.9912 72.3019 26.2513 72.5433 26.813C72.7848 27.3751 72.5247 28.0263 71.963 28.2678C71.1491 28.6174 71.0042 29.6727 71.0028 29.6829C70.9412 30.2502 70.4625 30.6665 69.9045 30.6665Z" fill="#E3E3E3"/>
<path d="M39.8801 97.1037C36.1404 97.1037 31.486 94.1349 27.8917 89.4195C24.3384 84.7582 22.6552 79.3954 23.2742 74.7052C23.3544 74.0987 23.9114 73.6727 24.5169 73.7519C25.1234 73.8321 25.5499 74.3887 25.4702 74.9951C24.9271 79.1092 26.4518 83.8772 29.6532 88.0771C32.7465 92.1347 36.9015 94.8886 39.8801 94.8886C39.9738 94.8886 40.0656 94.8858 40.1565 94.8802C40.7672 94.8434 41.2916 95.3091 41.3284 95.9192C41.3652 96.5299 40.8995 97.0543 40.2894 97.0911C40.1542 97.0995 40.0176 97.1032 39.8801 97.1037Z" fill="#678490"/>
<circle cx="60.0075" cy="60.0075" r="58.293" stroke="black" stroke-width="3.429"/>
<circle cx="60.0076" cy="60.0075" r="54.864" stroke="white" stroke-width="3.429"/>
</g>
<defs>
<clipPath id="clip0_2_6242">
<rect width="120.015" height="120.015" rx="60.0075" fill="white"/>
</clipPath>
</defs>
</svg>
