<svg width="121" height="121" viewBox="0 0 121 121" fill="none" xmlns="http://www.w3.org/2000/svg">
<g clip-path="url(#clip0_2_6542)">
<circle cx="60.0352" cy="60.0173" r="60.0023" fill="#D9D9D9"/>
<path d="M98.2638 53.5574C97.9107 48.6649 96.3795 43.0643 92.9335 38.0983C95.1396 32.4929 99.3196 19.9681 94.5705 15.858C89.7886 11.7196 76.1588 20.8576 70.1791 25.2477C67.0428 24.956 63.0295 25.0327 58.4524 25.3835C53.8731 25.6932 49.8912 26.1933 46.8292 26.9322C40.2841 23.4486 25.4815 16.3572 21.3409 21.1417C17.2299 25.8921 23.171 37.6946 26.1519 42.9205C23.4565 48.3288 22.7453 54.0897 23.0984 58.9809C23.4036 63.2116 24.2124 67.4005 25.5308 71.5528C27.5478 77.9039 32.27 82.8771 38.277 85.2534C30.8029 91.1681 28.7698 98.4311 34.6907 104.353C39.0186 108.68 47.44 111.665 51.9279 109.807C54.6901 110.919 57.9286 111.559 61.3921 111.559C69.8206 111.559 76.9183 107.769 79.0496 102.611C97.0154 97.4645 89.0707 86.0318 79.7034 84.5629L79.5541 84.4773C80.3782 84.2703 81.2014 84.0529 82.0242 83.8239C90.2139 81.5408 96.2773 74.7375 97.6607 66.3479C98.37 62.0496 98.569 57.788 98.2638 53.5574Z" fill="#B2B8C4"/>
<path d="M54.1265 28.7313C54.632 35.734 57.0787 41.2602 59.5828 41.0796C62.0922 40.8986 63.7202 35.0784 63.2152 28.0758C63.1457 27.1159 63.0409 26.1856 62.9015 25.2957C59.9372 25.375 56.9828 25.5878 54.0383 25.9405C54.0275 26.8412 54.0575 27.7769 54.1265 28.7313Z" fill="#95A1B3"/>
<path d="M63.7196 25.7269C64.2246 32.7242 66.6664 38.2562 69.1758 38.0751C71.5889 37.9008 73.1914 32.4764 72.8512 25.8174C71.2618 25.5225 69.6266 25.3496 67.9632 25.3025C66.5378 25.2653 65.1141 25.2546 63.6931 25.2819C63.698 25.432 63.7088 25.5768 63.7196 25.7269Z" fill="#95A1B3"/>
<path d="M44.2617 27.8208C44.8721 34.4869 47.2394 39.6577 49.6633 39.483C52.1727 39.3019 53.7954 33.4769 53.2903 26.4796C53.2796 26.3294 53.2693 26.1847 53.2527 26.035C51.6341 26.238 50.0137 26.4899 48.4014 26.7785C46.9804 27.0316 45.5993 27.3848 44.2617 27.8208Z" fill="#95A1B3"/>
<path d="M27.3469 31.5376C27.3469 31.5376 26.7415 33.2306 26.7563 35.0782C26.7662 36.7859 27.8842 38.0097 29.2635 38.4547C31.8478 35.0504 35.1334 32.1833 38.9271 30.0821C38.8231 29.1626 38.3714 28.2843 37.5716 27.6574C34.3604 25.135 29.9809 22.4808 27.1184 23.895C22.1331 26.3619 27.3469 31.5376 27.3469 31.5376Z" fill="white"/>
<path d="M90.124 27.0076C90.124 27.0076 90.9665 28.5961 91.217 30.4267C91.4522 32.1183 90.5219 33.4896 89.2202 34.1281C86.1739 31.1302 82.5105 28.7642 78.4542 27.2298C78.4251 26.3049 78.7459 25.3711 79.4472 24.6357C82.2632 21.6786 86.216 18.423 89.252 19.4116C94.5402 21.1368 90.124 27.0076 90.124 27.0076Z" fill="white"/>
<path d="M41.1657 66.4237C40.9976 64.0953 42.7489 62.0716 45.0773 61.9036C47.4057 61.7356 49.4294 63.4868 49.5974 65.8152C49.7655 68.1436 48.0142 70.1673 45.6858 70.3353C43.3574 70.5034 41.3337 68.7521 41.1657 66.4237Z" fill="#5F5C5D"/>
<path d="M73.0212 64.1254C72.8531 61.797 74.6044 59.7733 76.9328 59.6053C79.2612 59.4372 81.2848 61.1885 81.4529 63.5169C81.6209 65.8453 79.8697 67.8689 77.5413 68.037C75.2129 68.205 73.1888 66.4534 73.0212 64.1254Z" fill="#5F5C5D"/>
<path d="M35.1531 74.0647C34.6001 74.0647 34.1332 73.6372 34.0929 73.0771C34.0508 72.4909 34.4912 71.9814 35.0778 71.9393L41.7395 71.4585C42.3238 71.4154 42.8351 71.8568 42.8777 72.4434C42.9198 73.0296 42.4793 73.5391 41.8928 73.5816L35.2311 74.0625C35.2051 74.0638 35.1791 74.0647 35.1531 74.0647Z" fill="#95A1B3"/>
<path d="M36.8182 80.2352C36.414 80.2352 36.0272 80.0035 35.8489 79.6114C35.6056 79.0764 35.8422 78.4454 36.3772 78.2021L41.682 75.7904C42.2166 75.547 42.848 75.7832 43.0913 76.3187C43.3346 76.8537 43.098 77.4847 42.563 77.728L37.2582 80.1398C37.1153 80.2043 36.9656 80.2352 36.8182 80.2352Z" fill="#95A1B3"/>
<path d="M81.6832 70.7072C81.1302 70.7072 80.6633 70.2797 80.623 69.7196C80.5804 69.1335 81.0213 68.624 81.6079 68.5814L88.2696 68.1006C88.8526 68.0584 89.3652 68.4989 89.4078 69.0855C89.4499 69.6717 89.0094 70.1812 88.4228 70.2237L81.7612 70.7046C81.7347 70.7064 81.7087 70.7072 81.6832 70.7072Z" fill="#95A1B3"/>
<path d="M87.5863 76.572C87.4877 76.572 87.3882 76.5586 87.2887 76.5295L81.6927 74.9042C81.128 74.7402 80.8036 74.1495 80.9676 73.5854C81.1316 73.0207 81.7227 72.6963 82.2864 72.8603L87.8825 74.4856C88.4471 74.6496 88.7715 75.2402 88.6075 75.8044C88.4726 76.2696 88.0474 76.572 87.5863 76.572Z" fill="#95A1B3"/>
<path d="M47.3797 57.5763C46.8268 57.5763 46.3598 57.1488 46.3195 56.5887C46.2769 56.0025 46.7179 55.493 47.3044 55.4505L50.7993 55.1982C51.3823 55.1565 51.8949 55.597 51.9371 56.1831C51.9792 56.7693 51.5387 57.2788 50.9521 57.3213L47.4577 57.5736C47.4317 57.5754 47.4057 57.5763 47.3797 57.5763Z" fill="white"/>
<path d="M70.3831 55.9166C69.8301 55.9166 69.3632 55.4891 69.3229 54.9289C69.2807 54.3428 69.7212 53.8333 70.3078 53.7907L73.8022 53.5384C74.3865 53.4954 74.8978 53.9372 74.9404 54.5234C74.9825 55.1095 74.542 55.619 73.9555 55.6616L70.4611 55.9139C70.4346 55.9157 70.4086 55.9166 70.3831 55.9166Z" fill="white"/>
<path d="M68.6301 64.2903C68.0516 64.1886 67.4995 64.5753 67.3978 65.1543C67.1966 66.2983 66.2444 67.156 65.082 67.2403C64.4057 67.2873 63.7533 67.0713 63.2406 66.6281C62.7284 66.1849 62.4193 65.5688 62.3709 64.8939L62.3059 63.9972L63.1152 63.939C63.7018 63.8969 64.1422 63.3869 64.1001 62.8008C64.058 62.2146 63.5458 61.7733 62.9624 61.8158L59.2206 62.0856C58.634 62.1277 58.1935 62.6372 58.2357 63.2238C58.276 63.7839 58.7429 64.2115 59.2959 64.2115C59.3214 64.2115 59.3474 64.2105 59.3734 64.2088L60.1827 64.1505L60.2477 65.0472C60.3481 66.4417 59.2946 67.6579 57.8991 67.7587C56.7407 67.8407 55.6733 67.13 55.3099 66.0268C55.1262 65.4684 54.5235 65.1655 53.966 65.3488C53.4077 65.5325 53.1043 66.1343 53.288 66.6927C53.9217 68.6164 55.711 69.8944 57.7127 69.8944C57.8252 69.8944 57.9386 69.8904 58.0524 69.8823C59.4962 69.7784 60.7411 69.0242 61.5208 67.9272C61.6239 68.0357 61.7332 68.1392 61.8475 68.2387C62.7898 69.0542 63.9912 69.4544 65.2348 69.3639C67.3723 69.2097 69.1235 67.6306 69.4936 65.5235C69.5958 64.9437 69.2091 64.392 68.6301 64.2903Z" fill="#70838E"/>
<path d="M58.0566 105.416H54.8687C54.2812 105.416 53.8044 104.94 53.8044 104.352C53.8044 103.765 54.2812 103.288 54.8687 103.288H58.0566C58.6441 103.288 59.1209 103.765 59.1209 104.352C59.1209 104.94 58.6441 105.416 58.0566 105.416Z" fill="#E2E2E2"/>
<path d="M55.5734 109.596C55.4076 109.596 55.2391 109.557 55.0814 109.475L53.7446 108.777C53.2235 108.505 53.0223 107.862 53.2943 107.341C53.5663 106.82 54.2093 106.618 54.7305 106.891L56.0672 107.589C56.5884 107.861 56.7896 108.504 56.5176 109.025C56.328 109.388 55.957 109.596 55.5734 109.596Z" fill="#E2E2E2"/>
<path d="M52.9075 112.624C52.622 112.624 52.3375 112.51 52.1278 112.284L50.8318 110.89C50.4317 110.459 50.4563 109.786 50.8869 109.386C51.3171 108.986 51.9911 109.01 52.3908 109.441L53.6868 110.835C54.0869 111.266 54.0623 111.939 53.6316 112.339C53.4269 112.529 53.167 112.624 52.9075 112.624Z" fill="#E2E2E2"/>
<path d="M59.9326 107.833C59.9326 107.833 60.685 102.906 58.0559 98.9066L73.1842 97.9131L74.3807 103.604L59.9326 107.833Z" fill="white"/>
<path d="M59.9302 108.9C59.6757 108.9 59.4261 108.809 59.2294 108.637C58.9556 108.397 58.823 108.035 58.8781 107.675C58.8843 107.632 59.5274 103.088 57.1636 99.4914C56.9557 99.175 56.9315 98.7717 57.1004 98.4325C57.2693 98.0932 57.6054 97.8696 57.9836 97.845L63.0993 97.5089L63.2387 99.633L59.7945 99.8593C60.9269 102.307 61.1173 104.813 61.0945 106.386L64.3988 105.419L64.9966 107.462L60.2291 108.857C60.131 108.887 60.0302 108.9 59.9302 108.9Z" fill="#E2E2E2"/>
<path d="M64.6501 106.842C64.6501 106.842 65.4025 101.915 62.7734 97.9148L75.0939 97.1059C76.7049 97.0002 78.1482 98.0954 78.4807 99.675C78.8294 101.333 77.8435 102.979 76.2178 103.455L64.6501 106.842Z" fill="#9AE2CE"/>
<path d="M64.6501 107.906C64.3956 107.906 64.146 107.815 63.9492 107.643C63.6759 107.404 63.5437 107.042 63.5975 106.683C63.6042 106.638 64.2468 102.095 61.8839 98.4998C61.676 98.1834 61.6518 97.7801 61.8202 97.4409C61.9892 97.1017 62.3253 96.8781 62.7035 96.8534L75.0244 96.0446C77.1462 95.9061 79.0843 97.3719 79.5221 99.457C79.9819 101.644 78.6617 103.849 76.5166 104.477L64.949 107.864C64.8508 107.892 64.75 107.906 64.6501 107.906ZM64.5148 98.8672C65.6462 101.313 65.8367 103.818 65.8143 105.392L75.9188 102.434C77.0037 102.117 77.6714 101.001 77.4388 99.8943C77.217 98.8395 76.2437 98.0938 75.1638 98.1682L64.5148 98.8672Z" fill="#81C9B3"/>
<path d="M99.3255 53.4807C99.062 49.8277 97.9937 43.749 94.1314 37.9562C95.2876 34.9556 96.7211 30.7106 97.4103 26.5943C98.3509 20.9785 97.6303 17.0947 95.2696 15.0517C92.809 12.9223 88.5869 13.3619 82.3617 16.3961C77.7909 18.6241 73.1059 21.7994 69.875 24.1556C66.8713 23.9118 63.0251 23.9661 58.3817 24.3219C53.7303 24.6364 49.9155 25.1352 46.9777 25.8074C43.447 23.9405 38.3595 21.4723 33.5087 19.9214C26.9115 17.8126 22.6697 17.9833 20.5393 20.4443C16.2339 25.4193 21.3115 36.4671 24.9492 42.9495C21.959 49.2366 21.7744 55.4049 22.0383 59.0584C22.3484 63.358 23.1828 67.6702 24.5182 71.8758C25.8432 76.0486 28.3074 79.7317 31.6441 82.527C33.0718 83.723 34.6308 84.7304 36.2857 85.5375C32.5143 88.8898 30.418 92.5505 30.1989 96.2048C30.008 99.3882 31.3026 102.466 33.942 105.106C37.7008 108.865 43.9735 111.426 48.7526 111.426C49.7443 111.426 50.6724 111.316 51.4996 111.083C53.7733 110.443 55.2503 108.965 55.771 106.809C56.2832 104.688 55.8535 102.676 54.5284 100.994C53.1724 99.2717 50.8521 97.8588 47.8183 96.9093C45.2686 96.1107 42.3383 95.6711 39.5672 95.6711C38.9797 95.6711 38.5029 96.1475 38.5029 96.7354C38.5029 97.3229 38.9797 97.7997 39.5672 97.7997C46.2571 97.7997 51.1451 100.138 52.856 102.31C53.7886 103.495 54.0655 104.803 53.7016 106.31C53.3633 107.712 52.4545 108.602 50.9229 109.033C50.2565 109.22 49.5046 109.309 48.6944 109.309C44.5148 109.309 38.7951 106.949 35.4468 103.6C33.2188 101.372 32.1675 98.9262 32.3234 96.3316C32.5219 93.021 34.6455 89.6202 38.4738 86.4651C40.0507 87.0391 41.6939 87.4424 43.3806 87.6588C46.6568 88.0787 49.9666 88.3391 53.2181 88.4323C53.2284 88.4323 53.2387 88.4327 53.2495 88.4327C53.8231 88.4327 54.2963 87.9761 54.3129 87.3989C54.3299 86.8114 53.867 86.3217 53.2795 86.3042C50.0974 86.2128 46.858 85.9582 43.6518 85.5473C39.7204 85.0418 36.0405 83.4331 33.0108 80.8945C29.9852 78.3591 27.7495 75.0175 26.5472 71.2305C25.2625 67.1845 24.4599 63.0376 24.1615 58.9042C23.8303 54.316 24.2479 45.4832 30.7626 37.8778C31.1449 37.4315 31.0933 36.7593 30.6466 36.377C30.2002 35.9944 29.5281 36.0463 29.1458 36.4931C27.9673 37.8693 26.9779 39.2817 26.1426 40.7022C21.2339 31.6122 19.7345 24.6266 22.149 21.8366C24.4913 19.1296 32.7594 20.9834 43.9874 26.6561C43.9542 26.6677 43.9188 26.6789 43.8861 26.691C41.9525 27.3955 40.1117 28.2169 38.416 29.1319C37.8984 29.4111 37.7053 30.0568 37.9844 30.574C38.1771 30.9307 38.5433 31.1332 38.9219 31.1332C39.0926 31.1332 39.2656 31.092 39.4265 31.0055C41.0321 30.1393 42.7775 29.3605 44.6143 28.6919C47.5414 27.6281 52.222 26.8721 58.535 26.445C64.835 25.962 69.5756 26.0381 72.6241 26.6704C74.5376 27.0688 76.3771 27.5886 78.0911 28.2155C78.6441 28.4176 79.2544 28.1335 79.4561 27.5815C79.6582 27.0294 79.3741 26.4181 78.8225 26.2165C77.0116 25.5542 75.0722 25.0057 73.0575 24.5863C73.0252 24.5795 72.9898 24.5737 72.9571 24.567C83.2579 17.3434 91.1739 14.3217 93.8778 16.6605C96.6722 19.0789 96.1901 26.2075 92.6302 35.9043C91.5996 34.6182 90.4179 33.3621 89.0538 32.1697C88.6115 31.783 87.9389 31.8278 87.5522 32.2705C87.1655 32.7128 87.2103 33.3854 87.653 33.7722C95.1926 40.3635 96.8734 49.0448 97.2046 53.633C97.5026 57.7669 97.3036 61.9863 96.6135 66.1744C95.9669 70.095 94.2349 73.7229 91.6045 76.6661C88.9705 79.6134 85.5599 81.7339 81.7419 82.7981C78.6289 83.6648 75.4594 84.3822 72.3221 84.9298C71.7432 85.0311 71.3555 85.5823 71.4568 86.1612C71.5473 86.6784 71.9964 87.0427 72.5041 87.0427C72.565 87.0427 72.6264 87.0373 72.6882 87.0265C75.0364 86.6165 77.402 86.1128 79.7492 85.5254C84.3303 86.4682 88.5533 90.0522 88.7375 93.3683C88.9315 96.8649 85.2148 99.8337 78.2726 101.727L78.8328 103.781C89.6444 100.832 91.0107 95.9171 90.8629 93.2504C90.7374 90.9915 89.4674 88.7289 87.2865 86.8791C86.1406 85.9076 84.816 85.1068 83.3973 84.5135C87.1691 83.2583 90.538 81.0532 93.1917 78.084C96.0924 74.8387 98.0018 70.8402 98.7143 66.5199C99.429 62.1687 99.6356 57.7812 99.3255 53.4807Z" fill="#70838E"/>
<path d="M78.9269 92.3551C82.0991 94.2905 83.9915 96.9724 82.0561 100.145C80.1207 103.317 75.9801 104.319 72.8079 102.384C69.6357 100.448 68.6333 96.3079 70.5687 93.1357C72.5041 89.9639 75.7547 90.4197 78.9269 92.3551Z" fill="#B2B8C4"/>
<path d="M76.299 104.431C74.9162 104.431 73.5176 104.064 72.253 103.292C70.4762 102.208 69.2278 100.497 68.738 98.474C68.2482 96.4512 68.5753 94.3586 69.6598 92.5818C70.7509 90.7934 72.3395 89.8201 74.2538 89.7663C75.8169 89.7237 77.5811 90.2874 79.4806 91.4467C83.7082 94.0261 84.9777 97.3986 82.9638 100.699C81.4976 103.103 78.9281 104.431 76.299 104.431ZM74.4214 91.8926C74.3851 91.8926 74.3493 91.893 74.3134 91.8939C73.1219 91.9271 72.1938 92.5146 71.4769 93.69C70.6891 94.9814 70.4511 96.5028 70.8069 97.973C71.1632 99.4433 72.0702 100.687 73.3616 101.475C76.0279 103.102 79.5201 102.256 81.1467 99.5903C81.8637 98.4149 81.9619 97.321 81.4465 96.2465C80.9558 95.223 79.8925 94.1914 78.372 93.2638C76.8995 92.3653 75.5368 91.8926 74.4214 91.8926Z" fill="#70838E"/>
<circle cx="60.0352" cy="60.0173" r="58.2879" stroke="black" stroke-width="3.4287"/>
<circle cx="60.0352" cy="60.0173" r="54.8592" stroke="white" stroke-width="3.4287"/>
</g>
<defs>
<clipPath id="clip0_2_6542">
<rect x="0.032959" y="0.0150146" width="120.005" height="120.005" rx="60.0023" fill="white"/>
</clipPath>
</defs>
</svg>
