<svg width="121" height="121" viewBox="0 0 121 121" fill="none" xmlns="http://www.w3.org/2000/svg">
<g clip-path="url(#clip0_138_1186)">
<circle cx="60.0203" cy="60.0367" r="60.0023" fill="#D9D9D9"/>
<path d="M98.7503 21.7882C93.9666 17.0045 78.7275 25.7062 72.0159 29.9244C68.6939 29.372 64.4088 29.1453 59.502 29.1673C54.5943 29.1453 50.3088 29.372 46.9864 29.9249C40.2722 25.7032 25.0345 17.0079 20.2537 21.7887C15.5059 26.5365 20.9266 39.5714 23.7106 45.3792C20.4182 50.9399 19.2161 57.0302 19.2161 62.2746C19.2161 66.8096 19.7563 71.3388 20.8429 75.8679C22.9636 84.7079 29.9531 91.4961 38.8621 93.3005C39.0803 93.3445 39.2981 93.3859 39.5164 93.4286C39.1691 94.5529 38.9856 95.7241 38.9856 96.9274C38.9856 105.442 48.1707 112.345 59.5016 112.345C70.8324 112.345 80.0176 105.442 80.0176 96.9274C80.0176 95.7241 79.834 94.5529 79.4867 93.4286C79.705 93.3859 79.9237 93.3445 80.1419 93.3005C89.0509 91.4957 96.0399 84.7075 98.1611 75.8679C99.2473 71.3388 99.7879 66.8092 99.7879 62.2746C99.7879 57.0315 98.5862 50.9429 95.296 45.3834C98.0727 39.5803 103.5 26.5377 98.7503 21.7882Z" fill="#B2B8C4"/>
<path d="M64.3732 32.404C64.3732 39.9104 62.189 45.9913 59.5049 45.9913C56.8148 45.9913 54.631 39.9104 54.631 32.404C54.631 31.3753 54.6712 30.375 54.7516 29.4153C57.9188 29.2715 61.0855 29.2715 64.2527 29.4208C64.333 30.3809 64.3732 31.3808 64.3732 32.404Z" fill="#95A1B3"/>
<path d="M53.9125 29.938C53.9125 37.4389 51.7342 43.5254 49.0441 43.5254C46.4577 43.5254 44.331 37.864 44.1817 30.7366C45.8541 30.2996 47.5845 29.9896 49.3546 29.8111C50.8718 29.6618 52.3894 29.5408 53.9065 29.4604C53.9125 29.622 53.9125 29.7773 53.9125 29.938Z" fill="#95A1B3"/>
<path d="M74.8226 30.6741C74.6847 37.8298 72.5581 43.5259 69.9598 43.5259C67.2697 43.5259 65.0914 37.439 65.0914 29.9385C65.0914 29.7774 65.0914 29.6226 65.0974 29.4614C66.8391 29.5532 68.5864 29.697 70.3278 29.881C71.8627 30.0417 73.3625 30.3116 74.8226 30.6741Z" fill="#95A1B3"/>
<path d="M93.1464 33.3356C93.1464 33.3356 93.9225 35.0943 94.0486 37.0657C94.1691 38.8875 93.0715 40.2786 91.6347 40.8593C88.6173 37.4278 84.8926 34.6231 80.6854 32.6745C80.7255 31.686 81.1396 30.7145 81.9441 29.9844C85.1743 27.0473 89.6404 23.8802 92.8017 25.1681C98.3078 27.4158 93.1464 33.3356 93.1464 33.3356Z" fill="white"/>
<path d="M25.8537 33.3356C25.8537 33.3356 25.0776 35.0943 24.9511 37.0657C24.8306 38.8875 25.9282 40.2786 27.365 40.8593C30.3824 37.4278 34.1071 34.6231 38.3143 32.6745C38.2741 31.686 37.86 30.7145 37.0556 29.9844C33.8254 27.0473 29.3593 23.8802 26.198 25.1681C20.6923 27.4158 25.8537 33.3356 25.8537 33.3356Z" fill="white"/>
<path d="M99.7235 20.8111C97.187 18.2746 92.5648 18.4014 85.5927 21.1981C80.5602 23.2169 75.348 26.22 71.7215 28.482C68.5361 27.999 64.4469 27.7659 59.5079 27.7875C54.5588 27.768 50.4661 28.0002 47.2799 28.4829C43.6475 26.2187 38.4298 23.2135 33.4049 21.1981C26.4336 18.4014 21.8123 18.2746 19.2762 20.8111C16.8521 23.2351 16.3615 27.5083 17.8173 33.5123C18.8612 37.8164 20.691 42.195 22.1515 45.3097C18.5064 51.7955 17.8368 58.3532 17.8368 62.2741C17.8368 66.9017 18.3968 71.5835 19.5016 76.1892C20.6043 80.7856 22.9716 84.9434 26.3473 88.2129C29.7294 91.4883 33.962 93.7148 38.5884 94.6521C38.681 94.6707 38.7732 94.6801 38.8637 94.6801C39.5062 94.6801 40.0815 94.2283 40.2143 93.5744C40.3657 92.8279 39.8831 92.1 39.1361 91.9485C35.0279 91.1161 31.2694 89.1392 28.2667 86.2313C25.2683 83.3268 23.1649 79.6318 22.1845 75.5459C21.1304 71.1509 20.5958 66.6856 20.5958 62.2741C20.5958 57.393 21.7116 48.0776 29.1829 40.5298C29.7188 39.9884 29.7145 39.115 29.1732 38.5791C28.6322 38.0432 27.7588 38.0474 27.2224 38.5888C25.9595 39.8644 24.864 41.1849 23.9123 42.5258C19.5591 32.7531 18.541 25.4476 21.2269 22.7614C23.8129 20.1758 32.1745 22.695 43.3704 29.3347C41.399 29.9159 39.5083 30.6095 37.7467 31.4022C37.0522 31.7147 36.7421 32.5311 37.0547 33.226C37.2848 33.7369 37.7869 34.0398 38.3135 34.0398C38.5029 34.0398 38.695 34.0004 38.8785 33.918C40.6474 33.1224 42.5575 32.4304 44.5556 31.8619C47.7367 30.9589 52.7705 30.5152 59.5083 30.5465C66.2445 30.5144 71.268 30.9589 74.4483 31.8619C76.4477 32.4312 78.3578 33.1228 80.1262 33.9184C80.8207 34.2305 81.6375 33.9214 81.9501 33.2264C82.2626 32.5319 81.9526 31.7152 81.2581 31.4026C79.4956 30.6095 77.6037 29.9154 75.6297 29.3339C86.8222 22.6912 95.1843 20.1724 97.7732 22.7618C100.454 25.443 99.4385 32.7485 95.0921 42.5253C94.1404 41.1845 93.0449 39.864 91.7823 38.5888C91.246 38.047 90.373 38.0432 89.8316 38.5791C89.2902 39.115 89.286 39.9884 89.8219 40.5298C97.2936 48.0776 98.4094 57.393 98.4094 62.2741C98.4094 66.686 97.8747 71.1508 96.8207 75.5455C95.8403 79.6317 93.7369 83.3268 90.7385 86.2309C87.7362 89.1388 83.9773 91.1157 79.8691 91.9481C79.1225 92.0991 78.6399 92.827 78.7909 93.574C78.9233 94.2283 79.4985 94.6796 80.1415 94.6796C80.232 94.6796 80.3246 94.6708 80.4168 94.6517C85.0428 93.7144 89.2758 91.4879 92.6575 88.2125C96.0332 84.9429 98.4005 80.7852 99.5032 76.1888C100.608 71.5836 101.168 66.9022 101.168 62.2736C101.168 58.3527 100.498 51.7955 96.8537 45.3101C98.3138 42.1912 100.142 37.8084 101.184 33.5115C102.638 27.5079 102.147 23.2347 99.7235 20.8111Z" fill="#70838E"/>
<path d="M76.5754 70.3723C79.0714 70.3723 81.0948 68.3489 81.0948 65.8529C81.0948 63.3569 79.0714 61.3335 76.5754 61.3335C74.0794 61.3335 72.056 63.3569 72.056 65.8529C72.056 68.3489 74.0794 70.3723 76.5754 70.3723Z" fill="#5F5C5D"/>
<path d="M46.9479 65.8527C46.9479 63.3568 44.9244 61.3337 42.4289 61.3337C39.933 61.3337 37.9095 63.3572 37.9095 65.8527C37.9095 68.3486 39.933 70.3721 42.4289 70.3721C44.9249 70.3721 46.9479 68.3486 46.9479 65.8527Z" fill="#5F5C5D"/>
<path d="M88.0105 73.771H80.87C80.1145 73.771 79.5025 73.159 79.5025 72.4036C79.5025 71.6482 80.1145 71.0361 80.87 71.0361H88.0105C88.7659 71.0361 89.3779 71.6482 89.3779 72.4036C89.3779 73.159 88.7659 73.771 88.0105 73.771Z" fill="#95A1B3"/>
<path d="M86.7122 80.4795C86.5544 80.4795 86.3941 80.4521 86.2372 80.3941L80.3948 78.2302C79.6867 77.968 79.3251 77.1813 79.5873 76.4732C79.8496 75.7652 80.6359 75.4035 81.3448 75.6658L87.1872 77.8297C87.8952 78.0919 88.2569 78.8786 87.9942 79.5867C87.7903 80.1382 87.268 80.4795 86.7122 80.4795Z" fill="#95A1B3"/>
<path d="M38.1341 73.771H30.9936C30.2382 73.771 29.6262 73.159 29.6262 72.4036C29.6262 71.6482 30.2382 71.0361 30.9936 71.0361H38.1346C38.89 71.0361 39.502 71.6482 39.502 72.4036C39.502 73.159 38.8895 73.771 38.1341 73.771Z" fill="#95A1B3"/>
<path d="M32.2921 80.4796C31.7363 80.4796 31.2139 80.1383 31.0096 79.5867C30.7474 78.8787 31.109 78.092 31.8171 77.8297L37.6595 75.6658C38.3671 75.4036 39.1539 75.7648 39.4165 76.4733C39.6788 77.1813 39.3176 77.968 38.6091 78.2303L32.7666 80.3942C32.6101 80.4521 32.4498 80.4796 32.2921 80.4796Z" fill="#95A1B3"/>
<path d="M73.706 57.1288C73.6371 57.1288 73.5673 57.1238 73.4966 57.1128L69.7509 56.5379C69.0043 56.4233 68.4921 55.7254 68.6067 54.9789C68.7214 54.2328 69.418 53.7206 70.1658 53.8348L73.9116 54.4096C74.6581 54.5242 75.1703 55.2221 75.0557 55.9686C74.9516 56.645 74.3692 57.1288 73.706 57.1288Z" fill="white"/>
<path d="M45.2983 57.1289C44.6347 57.1289 44.0523 56.6451 43.9487 55.9688C43.834 55.2222 44.3462 54.5243 45.0928 54.4097L48.8386 53.8349C49.5868 53.7203 50.2826 54.2325 50.3976 54.979C50.5122 55.7255 50 56.4234 49.2535 56.5381L45.5077 57.1129C45.4375 57.1239 45.3673 57.1289 45.2983 57.1289Z" fill="white"/>
<path d="M66.7588 68.293H52.2451C49.9747 68.293 48.1339 70.1337 48.1339 72.4042C48.1339 74.6747 49.9747 76.5154 52.2451 76.5154H66.7588C69.0293 76.5154 70.8701 74.6747 70.8701 72.4042C70.8705 70.1337 69.0297 68.293 66.7588 68.293Z" fill="white"/>
<path d="M66.7588 66.9134H60.8813V65.1331H61.5073C62.269 65.1331 62.8866 64.5156 62.8866 63.7538C62.8866 62.992 62.269 62.3745 61.5073 62.3745H57.4963C56.7345 62.3745 56.117 62.992 56.117 63.7538C56.117 64.5156 56.7345 65.1331 57.4963 65.1331H58.1227V66.9134H52.2452C49.2176 66.9134 46.7546 69.3763 46.7546 72.4039C46.7546 75.4315 49.218 77.8944 52.2452 77.8944H66.7588C69.7864 77.8944 72.2494 75.4315 72.2494 72.4039C72.2498 69.3763 69.7864 66.9134 66.7588 66.9134ZM66.7588 75.1358H52.2452C50.7386 75.1358 49.5132 73.9105 49.5132 72.4039C49.5132 70.8977 50.7386 69.6719 52.2452 69.6719H66.7588C68.2654 69.6719 69.4908 70.8977 69.4908 72.4039C69.4912 73.9105 68.2654 75.1358 66.7588 75.1358Z" fill="#70838E"/>
<path d="M51.7434 94.0285C51.0185 93.3035 50.2559 92.6576 49.4734 92.0891C49.462 91.5845 49.3901 91.0736 49.2505 90.5652L48.4676 87.7152C47.551 84.3785 44.1034 82.4167 40.767 83.3333L40.3563 83.4462C39.2059 80.3594 36.9447 78.6185 34.7008 79.2348C32.0197 79.9712 31.8818 83.1193 33.4138 89.0641C33.2551 89.9527 33.2801 90.8879 33.5352 91.8163L34.3181 94.6663C34.483 95.2665 34.7309 95.8218 35.0443 96.3243C35.2363 99.4111 36.9151 102.963 39.8615 105.91C44.8262 110.875 51.5108 112.24 54.7922 108.959C58.0736 105.678 56.7082 98.9937 51.7434 94.0285Z" fill="#B2B8C4"/>
<path d="M57.7128 101.85C57.0842 98.7673 55.3112 95.6433 52.7205 93.0526C52.1021 92.4342 51.4601 91.8696 50.8057 91.3637C50.7609 90.9742 50.6865 90.5854 50.5807 90.2001L49.7982 87.3502C49.2577 85.3813 47.9824 83.7406 46.2077 82.731C44.6617 81.8512 42.8975 81.542 41.1667 81.8347C39.62 78.7352 36.9815 77.1757 34.3375 77.9075C33.031 78.2657 31.4098 79.2736 31.1052 82.0428C30.9221 83.7072 31.2097 85.9599 32.0061 89.1097C31.8666 90.1083 31.9224 91.1501 32.2058 92.1821L32.9887 95.0317C33.1566 95.6433 33.3956 96.2232 33.6984 96.762C34.0195 100.219 35.8932 103.887 38.8887 106.883C41.4772 109.474 44.5995 111.248 47.6809 111.878C48.5023 112.046 49.297 112.129 50.0583 112.129C52.3445 112.129 54.3223 111.38 55.7671 109.935C57.692 108.01 58.3832 105.138 57.7128 101.85ZM42.4344 84.4871C43.2706 84.4871 44.0966 84.7037 44.8432 85.1283C45.9771 85.7738 46.7922 86.8223 47.1378 88.0806L47.9203 90.9306C48.2658 92.1889 48.1009 93.5065 47.4554 94.6409C46.81 95.7753 45.7614 96.5903 44.5031 96.9354L41.6532 97.7184C40.3948 98.0639 39.0773 97.899 37.9429 97.2535C36.8085 96.6081 35.9939 95.5595 35.6483 94.3012L34.8654 91.4513C34.1519 88.8534 35.6851 86.1595 38.2825 85.446L41.1325 84.6631C41.5631 84.5455 42 84.4871 42.4344 84.4871ZM35.0701 80.5666C36.2286 80.246 37.4937 81.0353 38.412 82.5499L37.5521 82.7859C36.1258 83.1776 34.9056 83.9521 33.9696 84.9663C33.4121 81.026 34.5279 80.7155 35.0701 80.5666ZM53.816 107.985C52.5674 109.234 50.5841 109.657 48.2337 109.176C45.676 108.653 43.0506 107.146 40.8398 104.933C39.3666 103.46 38.1984 101.774 37.4307 100.068C38.3616 100.457 39.3501 100.655 40.3479 100.655C41.0272 100.655 41.7115 100.564 42.3845 100.379L45.2344 99.5963C47.2033 99.0553 48.844 97.7805 49.8536 96.0058C50.0943 95.5828 50.2914 95.1429 50.4458 94.692C50.5541 94.7952 50.6628 94.8968 50.7698 95.0038C52.9823 97.2163 54.4881 99.8438 55.01 102.402C55.4892 104.753 55.0654 106.736 53.816 107.985Z" fill="#70838E"/>
<path d="M84.3018 79.2348C82.0584 78.6185 79.7972 80.359 78.6463 83.4463L78.2356 83.3333C74.8992 82.4172 71.4512 84.3789 70.5351 87.7153L69.7522 90.5652C69.6126 91.0736 69.5403 91.585 69.5293 92.0892C68.7468 92.6572 67.9846 93.3031 67.2596 94.0285C62.2948 98.9932 60.9295 105.678 64.2105 108.959C67.4914 112.24 74.176 110.875 79.1412 105.91C82.0875 102.964 83.7659 99.412 83.9583 96.3247C84.2718 95.8223 84.5196 95.2673 84.6846 94.6667L85.4675 91.8168C85.7225 90.8884 85.7475 89.9532 85.5889 89.0645C87.1209 83.1193 86.9834 79.9716 84.3018 79.2348Z" fill="#B2B8C4"/>
<path d="M87.8978 82.0426C87.5929 79.2735 85.9716 78.2655 84.6689 77.9081C82.022 77.1747 79.3831 78.7346 77.8363 81.8345C76.1055 81.5418 74.3418 81.851 72.7954 82.7308C71.0206 83.7408 69.7454 85.3811 69.2048 87.35L68.4219 90.2C68.3162 90.5853 68.2417 90.974 68.1969 91.3635C67.543 91.8694 66.9009 92.4341 66.2821 93.0524C63.6915 95.6431 61.9188 98.7676 61.2898 101.85C60.6194 105.139 61.3102 108.01 63.2359 109.936C64.6808 111.38 66.6581 112.129 68.9447 112.129C69.7056 112.129 70.5008 112.047 71.3222 111.879C74.4039 111.248 77.5263 109.474 80.114 106.884C83.112 103.886 84.9861 100.215 85.3055 96.7559C85.6049 96.2238 85.846 95.6473 86.0148 95.0323L86.7973 92.1824C87.0807 91.1499 87.1365 90.1082 86.9969 89.11C87.7934 85.9597 88.081 83.707 87.8978 82.0426ZM83.9363 80.5682C84.4756 80.7162 85.591 81.0262 85.0331 84.967C84.097 83.9523 82.8768 83.1783 81.4505 82.7862L80.5911 82.5502C81.5102 81.036 82.777 80.2471 83.9363 80.5682ZM71.0824 90.9308L71.8653 88.0809C72.2108 86.8226 73.0259 85.774 74.1599 85.1286C75.2938 84.4831 76.6114 84.3182 77.8701 84.6637L80.7201 85.4467C83.3179 86.1602 84.8508 88.8541 84.1372 91.4519L83.3547 94.3019C82.6416 96.8997 79.9469 98.433 77.3495 97.719L74.4995 96.9361C73.2412 96.5906 72.1927 95.7755 71.5472 94.6415C70.9018 93.5067 70.7368 92.1892 71.0824 90.9308ZM78.1628 104.934C75.9528 107.147 73.3271 108.653 70.7694 109.176C68.4185 109.657 66.4357 109.234 65.1871 107.985C62.494 105.292 63.8894 99.347 68.2333 95.0027C68.3403 94.8957 68.449 94.7942 68.5573 94.691C68.7121 95.1419 68.9087 95.5818 69.1494 96.0048C70.1595 97.7795 71.7997 99.0548 73.7686 99.5953L76.6186 100.378C77.2936 100.563 77.9725 100.652 78.6412 100.652C79.6618 100.652 80.6571 100.445 81.5749 100.062C80.8072 101.77 79.6377 103.459 78.1628 104.934Z" fill="#70838E"/>
<circle cx="60.0203" cy="60.0367" r="58.2879" stroke="black" stroke-width="3.4287"/>
<circle cx="60.0203" cy="60.0367" r="54.8592" stroke="white" stroke-width="3.4287"/>
</g>
<defs>
<clipPath id="clip0_138_1186">
<rect x="0.0180054" y="0.0344238" width="120.005" height="120.005" rx="60.0023" fill="white"/>
</clipPath>
</defs>
</svg>
