<svg width="120" height="121" viewBox="0 0 120 121" fill="none" xmlns="http://www.w3.org/2000/svg">
<g clip-path="url(#clip0_2_6638)">
<circle cx="60.0068" cy="60.0367" r="60.0023" fill="#D9D9D9"/>
<path d="M76.8369 96.3516C76.8369 96.3516 85.1434 104.47 85.1434 115.061C85.1434 115.061 79.5101 120.266 58.9088 120.266C38.3076 120.266 32.7903 115.061 32.7903 115.061C32.7903 104.47 41.0967 96.3516 41.0967 96.3516H76.8369Z" fill="#E6FCFC"/>
<path d="M58.9669 108.138C64.7783 108.138 69.4894 104.364 69.4894 99.708C69.4894 95.052 64.7783 91.2776 58.9669 91.2776C53.1555 91.2776 48.4445 95.052 48.4445 99.708C48.4445 104.364 53.1555 108.138 58.9669 108.138Z" fill="#B2B8C4"/>
<path d="M43.353 95.5322L44.7278 94.1575C45.924 92.9612 47.8629 92.9612 49.0592 94.1575L58.141 103.239C58.612 103.71 58.8965 104.296 58.9957 104.906C59.0577 105.286 58.9664 116.555 58.9664 116.555C58.9664 117.609 58.1117 118.464 57.0568 118.464H55.8997C54.989 118.464 54.2052 117.821 54.0272 116.928L53.6311 114.941C52.8513 111.032 50.9307 107.44 48.1113 104.621L43.353 99.8631C42.1567 98.6679 42.1567 96.7285 43.353 95.5322Z" fill="#E6FCFC"/>
<path d="M74.5805 95.5322L73.2058 94.1575C72.0095 92.9612 70.0701 92.9612 68.8743 94.1575L59.7925 103.239C59.3216 103.71 59.037 104.296 58.9373 104.906C58.8754 105.286 58.9666 116.555 58.9666 116.555C58.9666 117.609 59.8218 118.464 60.8763 118.464H62.0334C62.9441 118.464 63.7279 117.821 63.9063 116.928L64.3024 114.941C65.0823 111.032 67.0028 107.44 69.8222 104.621L74.5805 99.8631C75.7763 98.6679 75.7763 96.7285 74.5805 95.5322Z" fill="#E6FCFC"/>
<path d="M32.7902 116.238C32.1403 116.238 31.6128 115.711 31.6128 115.061C31.6128 104.101 39.9197 95.8551 40.2737 95.5095C40.7387 95.0554 41.4843 95.0633 41.939 95.5284C42.3936 95.9934 42.3851 96.739 41.9201 97.1936C41.8413 97.2709 33.9681 105.109 33.9681 115.06C33.9676 115.711 33.4402 116.238 32.7902 116.238Z" fill="#95E0E8"/>
<path d="M85.1437 116.238C84.4932 116.238 83.9662 115.711 83.9662 115.061C83.9662 105.109 76.0931 97.2708 76.0138 97.1929C75.5497 96.7378 75.5418 95.9927 75.9964 95.5282C76.451 95.0637 77.1956 95.0552 77.6607 95.5093C78.0141 95.8549 86.3216 104.1 86.3216 115.061C86.3211 115.711 85.7941 116.238 85.1437 116.238Z" fill="#95E0E8"/>
<path d="M75.4137 94.6995L74.039 93.3248C73.2378 92.5236 72.1734 92.0824 71.0406 92.0824C69.9083 92.0824 68.8434 92.5236 68.0423 93.3248L58.9674 102.4L49.8926 93.3248C49.0914 92.5236 48.027 92.0824 46.8942 92.0824C45.7614 92.0824 44.6965 92.5236 43.8959 93.3248L42.5211 94.6995C40.8678 96.3529 40.8678 99.0428 42.5211 100.696L47.2794 105.454C49.9426 108.118 51.7403 111.478 52.477 115.172L52.8736 117.159C53.1606 118.598 54.4337 119.643 55.9012 119.643H57.0583C57.3106 119.643 57.555 119.609 57.7905 119.551V120.266C57.7905 120.917 58.318 121.444 58.9679 121.444C59.6179 121.444 60.1454 120.916 60.1454 120.266V119.551C60.3803 119.609 60.6247 119.643 60.8776 119.643H62.0347C63.5021 119.643 64.7752 118.599 65.0623 117.159L65.4589 115.172C66.1956 111.478 67.9932 108.118 70.6564 105.454L75.4147 100.696C77.0666 99.0428 77.0666 96.3529 75.4137 94.6995ZM57.0573 117.287H55.9002C55.5522 117.287 55.2502 117.039 55.1823 116.698L54.7857 114.711C53.9578 110.559 51.9376 106.783 48.9437 103.789L44.1854 99.0304C43.4507 98.2952 43.4507 97.0995 44.1854 96.3643L45.5601 94.9895C45.9161 94.6336 46.3895 94.4373 46.8932 94.4373C47.3969 94.4373 47.8704 94.6336 48.2263 94.9895L57.3081 104.071C57.5208 104.284 57.674 104.54 57.7647 104.821C57.7419 105.185 57.7112 106.884 57.789 116.555C57.7895 116.959 57.4608 117.287 57.0573 117.287ZM73.7485 99.0309L68.9902 103.789C65.9968 106.783 63.9766 110.559 63.1482 114.711L62.7516 116.698C62.6836 117.039 62.3817 117.287 62.0337 117.287H60.8766C60.4731 117.287 60.1454 116.96 60.1444 116.547C60.2222 106.885 60.1915 105.186 60.1687 104.821C60.2594 104.541 60.4126 104.284 60.6252 104.072L69.707 94.99C70.063 94.6341 70.5365 94.4377 71.0402 94.4377C71.5438 94.4377 72.0173 94.6341 72.3732 94.9905L73.748 96.3648C74.4832 97.1 74.4832 98.2957 73.7485 99.0309Z" fill="#95E0E8"/>
<path d="M96.9117 27.3137C92.2873 22.6893 77.5543 31.1013 71.0658 35.1794C67.8543 34.6455 63.7117 34.4259 58.9678 34.4472C54.2229 34.4259 50.0799 34.6455 46.8684 35.1794C40.3774 31.0979 25.6459 22.6918 21.024 27.3132C16.4337 31.9035 21.6749 44.5051 24.3664 50.1196C21.1831 55.4956 20.0211 61.3832 20.0211 66.4539C20.0211 70.8383 20.5436 75.2169 21.5936 79.5954C23.6441 88.1418 30.4012 94.7042 39.0141 96.4488C45.6656 97.7932 52.3167 98.466 58.9683 98.466C65.6199 98.466 72.271 97.7937 78.9226 96.4488C87.5354 94.7042 94.2926 88.1413 96.3431 79.5954C97.3931 75.2169 97.9156 70.8379 97.9156 66.4539C97.9156 61.3847 96.7541 55.4986 93.5728 50.1236C96.2563 44.5151 101.503 31.9054 96.9117 27.3137Z" fill="#B2B8C4"/>
<path d="M58.9648 44.5398C33.9979 44.5398 24.3187 50.0506 24.3187 68.9004C24.3187 87.7501 33.9974 93.261 58.9648 93.261C83.9372 93.261 93.6159 87.7501 93.6159 68.9004C93.6159 50.0506 83.9372 44.5398 58.9648 44.5398ZM41.4437 77.3635C37.5713 77.3635 34.4297 73.7608 34.4297 69.3178C34.4297 64.8803 37.5713 61.2771 41.4437 61.2771C45.3215 61.2771 48.4577 64.8798 48.4577 69.3178C48.4577 73.7608 45.321 77.3635 41.4437 77.3635ZM58.9648 79.1908C55.0924 79.1908 51.9508 75.5931 51.9508 71.1501C51.9508 66.7071 55.0924 63.1094 58.9648 63.1094C62.8426 63.1094 65.9843 66.7071 65.9843 71.1501C65.9843 75.5931 62.8426 79.1908 58.9648 79.1908ZM76.4914 77.3635C72.6135 77.3635 69.4719 73.7608 69.4719 69.3178C69.4719 64.8803 72.6135 61.2771 76.4914 61.2771C80.3637 61.2771 83.5053 64.8798 83.5053 69.3178C83.5053 73.7608 80.3637 77.3635 76.4914 77.3635Z" fill="#FFFFA1"/>
<path d="M97.7416 26.4801C95.3387 24.0766 90.9249 24.2105 84.2485 26.8886C79.1938 28.9162 73.9482 31.9751 70.4372 34.1842L71.6915 36.1776C83.964 28.4547 93.3076 25.3775 96.0759 28.1453C98.7376 30.8075 97.7272 38.0372 93.4032 47.6802C92.4514 46.3129 91.3478 44.9654 90.0623 43.6665L88.3891 45.3233C95.6515 52.6596 96.7362 61.7121 96.7362 66.4551C96.7362 70.7325 96.2181 75.0614 95.1959 79.322C94.2411 83.3014 92.1931 86.8996 89.2726 89.7284C86.3486 92.5607 82.6879 94.4857 78.6871 95.2963C72.1436 96.6195 65.5084 97.2902 58.9664 97.2902C52.4243 97.2902 45.7891 96.6195 39.2456 95.2963C35.2443 94.4857 31.5841 92.5607 28.6601 89.7284C25.7396 86.9001 23.6916 83.3014 22.7368 79.322C21.7146 75.0619 21.1965 70.7325 21.1965 66.4551C21.1965 61.7121 22.2812 52.6601 29.5436 45.3233L27.8699 43.6665C26.5844 44.9654 25.4808 46.3129 24.529 47.6802C20.198 38.0411 19.1867 30.8115 21.8529 28.1453C24.6177 25.3815 33.9613 28.4591 46.2377 36.1781L47.4915 34.1842C43.9751 31.9736 38.7245 28.9128 33.6787 26.8891C27.0038 24.2115 22.5911 24.0771 20.1881 26.4801C15.348 31.3202 19.7524 43.0865 23.0328 50.0608C19.4911 56.3237 18.8421 62.6675 18.8421 66.4551C18.8421 70.9174 19.382 75.4318 20.4474 79.8713C21.5068 84.2865 23.7804 88.2798 27.0222 91.42C30.2704 94.5655 34.3356 96.7043 38.7791 97.6045C45.4763 98.9585 52.2682 99.6451 58.9669 99.6451C65.6655 99.6451 72.4574 98.9585 79.1546 97.6045C83.5976 96.7043 87.6633 94.566 90.9111 91.42C94.1533 88.2798 96.4269 84.2865 97.4863 79.8713C98.5512 75.4308 99.0911 70.9169 99.0911 66.4551C99.0911 62.668 98.4426 56.3242 94.9009 50.0618C98.1769 43.0845 102.575 31.3137 97.7416 26.4801Z" fill="#70838E"/>
<path d="M62.6898 72.4581C61.2863 72.4581 60.1446 71.3173 60.1446 69.9148V69.0626H60.9056C61.556 69.0626 62.083 68.5351 62.083 67.8852C62.083 67.2348 61.5555 66.7078 60.9056 66.7078H57.0283C56.3779 66.7078 55.8509 67.2353 55.8509 67.8852C55.8509 68.5356 56.3783 69.0626 57.0283 69.0626H57.7898V69.9148C57.7898 71.3173 56.649 72.4581 55.2465 72.4581C54.5961 72.4581 54.0691 72.9856 54.0691 73.6355C54.0691 74.2859 54.5966 74.8129 55.2465 74.8129C56.7338 74.8129 58.0684 74.1466 58.9672 73.0966C59.8665 74.1461 61.2016 74.8129 62.6898 74.8129C63.3398 74.8129 63.8673 74.2854 63.8673 73.6355C63.8673 72.9856 63.3403 72.4581 62.6898 72.4581Z" fill="#70838E"/>
<path d="M76.1088 72.0446C74.0574 72.0446 72.1294 71.2459 70.6788 69.7953C70.2192 69.3358 70.2192 68.5901 70.6788 68.1301C71.1384 67.6705 71.8845 67.6705 72.344 68.1301C73.3494 69.1355 74.6865 69.6893 76.1083 69.6893C77.5302 69.6893 78.8672 69.1355 79.8731 68.1301C80.3327 67.67 81.0788 67.67 81.5384 68.1301C81.9984 68.5897 81.9984 69.3353 81.5384 69.7953C80.0883 71.2459 78.1603 72.0446 76.1088 72.0446Z" fill="#5F5C5D"/>
<path d="M41.825 72.0406C39.8588 72.0406 37.8922 71.292 36.3955 69.7953C35.9354 69.3352 35.9354 68.5896 36.3955 68.13C36.8555 67.67 37.6012 67.6705 38.0607 68.13C40.137 70.2058 43.5141 70.2058 45.5903 68.13C46.0499 67.6705 46.796 67.6705 47.2556 68.13C47.7151 68.5896 47.7151 69.3352 47.2556 69.7953C45.7584 71.292 43.7917 72.0406 41.825 72.0406Z" fill="#5F5C5D"/>
<path d="M97.7695 64.1474C72.5408 61.3875 60.0135 45.7394 60.0135 45.7394C49.2159 58.639 20.0519 64.1642 20.0519 64.1642C20.0519 64.1642 14.0428 47.7224 24.4389 37.9237C24.4567 37.9069 24.4686 37.896 24.486 37.8846C24.9778 34.672 28.4808 19.3591 50.4563 14.8169C74.4911 9.85041 88.6356 23.8898 88.8186 31.8953C97.7477 36.3591 107.203 45.6724 97.7695 64.1474Z" fill="#E6FCFC"/>
<path d="M100.807 41.3416C98.3807 36.6046 94.1886 33.3579 90.0272 31.1651C89.8814 27.6185 87.4264 23.4011 83.448 19.9541C79.6063 16.626 68.6813 9.29624 50.253 13.1047C37.1471 15.813 30.5119 22.3486 27.2537 27.3542C24.2817 31.9207 23.5053 36.0216 23.3204 37.3696C19.0251 41.6023 16.8998 47.605 17.171 54.7632C17.3782 60.2215 18.8819 64.3944 18.9458 64.5694C19.1178 65.0403 19.565 65.3427 20.0514 65.3427C20.1237 65.3427 20.1976 65.3358 20.2715 65.3219C20.3448 65.308 27.7465 63.8897 36.3693 60.9017C47.3131 57.1092 55.2572 52.6102 60.011 47.5158C61.3813 48.9921 64.2864 51.8447 68.77 54.8822C74.615 58.8419 84.3686 63.8664 97.641 65.3179C98.1244 65.3695 98.5954 65.1181 98.818 64.6829C103.437 55.6363 104.106 47.783 100.807 41.3416ZM20.852 62.798C20.4152 61.3068 19.6513 58.2326 19.5219 54.6086C19.2824 47.9124 21.209 42.5869 25.2484 38.779C30.4291 33.8958 36.3593 31.5786 40.4211 30.4944C41.0492 30.3268 41.423 29.6813 41.2554 29.0532C41.0874 28.4246 40.4414 28.0523 39.8143 28.2188C36.1804 29.1885 31.1395 31.0893 26.3356 34.7688C26.8641 33.0679 27.7664 30.8578 29.2953 28.5337C33.6882 21.8573 40.8995 17.442 50.7289 15.4104C52.6827 15.0069 54.5447 14.7352 56.3176 14.5741C54.6746 15.7565 53.5899 17.2611 52.877 18.6988C48.9769 26.5645 52.5999 39.302 58.4176 45.7652C48.7022 56.3348 25.9439 61.7063 20.852 62.798ZM97.0853 62.8833C84.7523 61.3782 75.665 56.6947 70.173 52.9879C64.0782 48.8746 60.9628 45.0385 60.9331 45.0013C60.9038 44.9646 60.8721 44.9304 60.8389 44.8976L60.8394 44.8971C54.0158 38.191 52.059 25.6543 54.9884 19.7453C56.9903 15.7069 60.9901 14.0907 66.8792 14.9444L66.8797 14.9409C74.6696 16.2835 79.6291 19.7617 81.9062 21.7338C84.852 24.286 86.888 27.33 87.4924 29.949C82.4088 27.7295 77.944 27.0132 77.5866 26.9581C76.9461 26.8605 76.3437 27.3007 76.2451 27.9432C76.1464 28.5857 76.5872 29.1871 77.2297 29.2857C77.2703 29.2922 81.341 29.9342 86.0294 31.9038C93.7191 35.1347 97.172 39.4071 98.7148 42.4228C101.56 47.9837 101.01 54.8644 97.0853 62.8833Z" fill="#95E0E8"/>
<circle cx="60.0068" cy="60.0367" r="58.2879" stroke="black" stroke-width="3.4287"/>
<circle cx="60.0068" cy="60.0367" r="54.8592" stroke="white" stroke-width="3.4287"/>
</g>
<defs>
<clipPath id="clip0_2_6638">
<rect x="0.0045166" y="0.0344238" width="120.005" height="120.005" rx="60.0023" fill="white"/>
</clipPath>
</defs>
</svg>
