<svg width="121" height="121" viewBox="0 0 121 121" fill="none" xmlns="http://www.w3.org/2000/svg">
<g clip-path="url(#clip0_138_1477)">
<circle cx="60.0157" cy="60.0413" r="60.0023" fill="#D9D9D9"/>
<path d="M121.095 24.7109C116.486 18.9904 99.0137 26.6126 91.2701 30.3922C87.7452 29.4093 83.1422 28.6656 77.8377 28.1187C72.5395 27.5245 67.8841 27.271 64.231 27.4821C57.4709 22.1447 42.0204 10.9733 36.2967 15.5845C30.6136 20.1633 34.96 34.8838 37.2859 41.4744C33.0845 47.0978 31.0789 53.5352 30.4697 59.1997C29.9427 64.0986 29.9994 69.0543 30.6466 74.0734C31.9098 83.8694 38.6711 92.0154 48.0853 95.0003C49.138 95.3335 50.1925 95.6493 51.2483 95.9514V115.592H93.5623V99.7018C103.01 98.4909 110.952 92.0858 114.171 83.0628C115.871 78.2965 116.982 73.4661 117.509 68.5672C118.119 62.9021 117.528 56.1831 114.617 49.793C118.301 43.8426 125.672 30.3916 121.095 24.7109Z" fill="#B2B8C4"/>
<path d="M72.2 31.0493C71.3274 39.1579 72.9799 45.9815 75.8794 46.2936C78.7851 46.6063 81.8515 40.2909 82.7242 32.1823C82.8438 31.0711 82.9167 29.986 82.9416 28.9396C79.5369 28.4164 76.1161 28.0482 72.6772 27.8408C72.4785 28.8686 72.319 29.9443 72.2 31.0493Z" fill="#95A1B3"/>
<path d="M83.7869 29.6016C82.9148 37.7047 84.5605 44.5333 87.4662 44.846C90.2604 45.1468 93.216 39.2781 94.2058 31.5961C92.4499 30.9296 90.6167 30.3933 88.725 29.9953C87.1031 29.6577 85.478 29.3506 83.8485 29.0872C83.8236 29.2603 83.8056 29.4279 83.7869 29.6016Z" fill="#95A1B3"/>
<path d="M61.1128 27.9654C60.4301 35.7115 62.0652 42.1122 64.8719 42.4143C67.7776 42.727 70.8384 36.4047 71.7105 28.3023C71.7292 28.1286 71.7472 27.961 71.7597 27.786C69.8674 27.6826 67.9632 27.6346 66.0603 27.6315C64.3842 27.6265 62.7317 27.7442 61.1128 27.9654Z" fill="#95A1B3"/>
<path d="M41.0088 28.7103C41.0088 28.7103 39.9661 30.5204 39.6005 32.6351C39.2585 34.5891 40.2825 36.2191 41.7675 37.0133C45.4262 33.6572 49.7758 31.0604 54.5477 29.4447C54.6193 28.3721 54.2848 27.2746 53.5006 26.3926C50.3526 22.8441 45.8965 18.9037 42.3318 19.9271C36.1211 21.7148 41.0088 28.7103 41.0088 28.7103Z" fill="white"/>
<path d="M111.599 42.0617C111.089 41.4226 110.158 41.318 109.52 41.8269C108.881 42.3364 108.776 43.2676 109.285 43.906C116.484 52.934 116.606 63.1324 116.038 68.4082C115.524 73.1757 114.427 77.9382 112.777 82.565C109.666 91.2865 101.723 97.473 92.5426 98.3263C85.7059 98.9591 78.8418 98.9722 72.1409 98.3649C71.3255 98.2896 70.6073 98.8912 70.5338 99.7047C70.4603 100.519 71.0602 101.238 71.8736 101.312C75.2422 101.617 78.6506 101.77 82.0758 101.77C85.6455 101.77 89.2345 101.604 92.8154 101.273C103.138 100.313 112.068 93.3601 115.564 83.5585C117.292 78.7137 118.441 73.7226 118.979 68.7246C119.596 62.9972 119.457 51.9175 111.599 42.0617Z" fill="#70838E"/>
<path d="M93.6775 32.7498C95.7722 33.5975 97.7561 34.5673 99.5749 35.6324C99.8097 35.7701 100.068 35.8355 100.321 35.8355C100.829 35.8355 101.324 35.5739 101.599 35.1036C102.012 34.3985 101.776 33.4922 101.07 33.0792C99.1283 31.9412 97.0143 30.9073 94.7862 30.006C91.1959 28.5559 85.5446 27.426 78.0028 26.648C72.656 26.0488 68.2105 25.8265 64.7118 25.9791C61.0567 23.1132 55.7753 19.2613 50.5706 16.4939C43.3713 12.6657 38.3995 11.9917 35.3711 14.4309C29.3341 19.2949 32.8036 32.9815 35.6333 41.219C30.9399 47.8004 29.4544 54.8065 28.9984 59.0408C28.4602 64.0388 28.5213 69.1601 29.179 74.2621C30.5101 84.5826 37.7555 93.2767 47.6381 96.4104C47.7869 96.4578 47.9377 96.4802 48.0859 96.4802C48.7138 96.4802 49.2962 96.0778 49.4961 95.4475C49.7434 94.6689 49.3117 93.8373 48.5331 93.59C39.7437 90.8033 33.2988 83.0677 32.1147 73.884C31.4868 69.0119 31.4283 64.1248 31.9415 59.3579C32.5096 54.0821 34.7993 44.1428 43.7532 36.8539C44.3873 36.3381 44.4826 35.4063 43.9662 34.7722C43.4504 34.1388 42.5186 34.0435 41.8845 34.5592C40.3641 35.7969 39.0199 37.1043 37.8308 38.4497C34.2605 27.3581 34.0107 19.328 37.2279 16.7362C40.3373 14.2316 49.1024 17.9358 60.4476 26.4387C58.232 26.8386 56.0911 27.3674 54.0824 28.0233C53.3056 28.2769 52.8814 29.1121 53.135 29.8889C53.3885 30.6656 54.2238 31.0892 55.0005 30.8363C57.003 30.1823 59.1476 29.6565 61.375 29.2741C64.9186 28.6686 70.4018 28.7752 77.6863 29.5911C84.9653 30.3411 90.3463 31.4043 93.6775 32.7498Z" fill="#70838E"/>
<path d="M97.4017 78.9523C97.3488 78.9523 97.2952 78.9498 97.2417 78.9436L89.5279 78.1133C88.7157 78.0261 88.1277 77.2961 88.2155 76.4838C88.3027 75.6716 89.0346 75.0842 89.845 75.1714L97.5587 76.0017C98.3709 76.0889 98.9589 76.8189 98.8717 77.6312C98.7889 78.3892 98.1473 78.9523 97.4017 78.9523Z" fill="#95A1B3"/>
<path d="M95.216 86.0475C94.9949 86.0475 94.7701 85.9976 94.5577 85.8924L88.4977 82.8758C87.7664 82.5114 87.4681 81.6238 87.8324 80.8919C88.1962 80.1607 89.0844 79.8629 89.8163 80.2267L95.8763 83.2433C96.6076 83.6077 96.9053 84.4953 96.5415 85.2271C96.283 85.7466 95.7598 86.0475 95.216 86.0475Z" fill="#95A1B3"/>
<path d="M58.4812 50.059C58.4282 50.059 58.3747 50.0565 58.3211 50.0509L54.2743 49.6155C53.4614 49.5283 52.874 48.7983 52.9619 47.986C53.0491 47.1738 53.7803 46.5864 54.5913 46.673L58.6381 47.1084C59.4504 47.1956 60.0384 47.9256 59.9506 48.7379C59.869 49.4965 59.2274 50.059 58.4812 50.059Z" fill="white"/>
<path d="M85.1186 52.9262C85.0657 52.9262 85.0121 52.9237 84.9585 52.9181L80.9117 52.4827C80.0994 52.3955 79.5114 51.6655 79.5993 50.8532C79.6865 50.0404 80.4152 49.4536 81.2287 49.5402L85.2756 49.9756C86.0878 50.0628 86.6758 50.7928 86.588 51.6051C86.5064 52.3631 85.8648 52.9262 85.1186 52.9262Z" fill="white"/>
<path d="M44.0964 64.0121C44.4253 60.9569 46.8775 58.7157 49.5734 59.006C52.2698 59.2963 54.1889 62.0077 53.86 65.0629C53.5311 68.1175 51.0789 70.3592 48.3824 70.069C45.6872 69.7787 43.7675 67.0667 44.0964 64.0121Z" fill="#5F5C5D"/>
<path d="M80.9839 67.9818C81.3128 64.9272 83.765 62.6855 86.4609 62.9757C89.1573 63.266 91.0764 65.9774 90.7475 69.0326C90.4186 72.0872 87.9663 74.3289 85.2699 74.0387C82.5747 73.7484 80.6556 71.037 80.9839 67.9818Z" fill="#5F5C5D"/>
<path d="M74.5034 78.9911C74.3757 80.177 74.0973 81.3026 73.6912 82.3328C72.124 86.3286 68.7082 88.9509 65.0506 88.5572C64.7834 88.5286 64.5243 88.4881 64.2739 88.4233C60.0981 87.4778 57.264 82.6505 57.8502 77.199C58.4724 71.4181 62.49 69.1627 67.0843 69.6572C71.6862 70.1518 75.1257 73.2108 74.5034 78.9911Z" fill="#70838E"/>
<path d="M73.6918 82.3334C72.1247 86.3292 68.7088 88.9515 65.0513 88.5578C64.784 88.5292 64.5249 88.4887 64.2745 88.4239C64.178 88.2128 64.0827 87.9885 63.988 87.7587C61.7718 82.382 62.2732 77.0788 65.1055 75.9134C67.7203 74.8446 71.399 77.665 73.6918 82.3334Z" fill="#E27FA3"/>
<path d="M68.7076 68.4268L68.9212 66.4429L69.6163 66.5177C69.6699 66.5233 69.7235 66.5264 69.7764 66.5264C70.5226 66.5264 71.1642 65.9639 71.2458 65.2053C71.333 64.393 70.7456 63.6637 69.9328 63.5758L65.6 63.1093C64.7872 63.0227 64.0584 63.6095 63.9706 64.4217C63.8834 65.2346 64.4707 65.964 65.283 66.0512L65.9787 66.1259L65.7657 68.1085C63.5962 68.1266 61.6578 68.7295 60.0981 69.8837C58.0034 71.4335 56.7178 73.9081 56.3808 77.04C56.0444 80.1668 56.7059 83.2258 58.2451 85.6531C59.8515 88.1876 62.2134 89.7423 64.8949 90.0314C65.1883 90.0631 65.4792 90.0787 65.7694 90.0787C70.8241 90.0787 75.3082 85.3747 75.9778 79.1497C76.5702 73.6403 73.7498 69.5704 68.7076 68.4268ZM73.0353 78.8326C72.5009 83.7914 68.9947 87.4944 65.2107 87.0889C63.4436 86.8989 61.8571 85.8263 60.7434 84.0692C59.5618 82.2049 59.0567 79.8211 59.322 77.357C59.5718 75.0368 60.4245 73.3226 61.8571 72.2631C62.9241 71.4739 64.297 71.0672 65.871 71.0672C66.2142 71.0672 66.5667 71.0865 66.928 71.1257C68.9903 71.3469 73.7124 72.5422 73.0353 78.8326Z" fill="#70838E"/>
<path d="M26.8577 94.1226C33.1195 90.9061 44.6072 89.8042 54.6287 91.2486C59.0736 91.889 63.3403 89.2903 64.71 85.0167C65.0077 84.0936 65.1491 83.1556 65.1491 82.2319C65.1491 78.8739 63.273 75.6947 60.153 74.0715C51.1667 69.4105 42.4776 61.8164 39.2542 55.5471L26.8577 94.1226Z" fill="#95E0E8"/>
<path d="M38.9367 76.7219C43.5736 62.3007 39.2538 48.0124 29.2881 44.8081C19.3225 41.6038 7.48481 50.6969 2.84791 65.1181C-1.78899 79.5393 2.5308 93.8276 12.4964 97.0319C22.4621 100.236 34.2998 91.143 38.9367 76.7219Z" fill="white"/>
<path d="M12.5401 77.4824L25.9345 81.7933L29.7914 74.2285L31.3106 64.1322L18.303 59.9552C18.2656 59.9328 18.2289 59.9253 18.1915 59.9103C15.0939 58.92 11.3268 62.0474 9.76335 66.8941C8.1993 71.7494 9.44319 76.492 12.5401 77.4824Z" fill="#95E0E8"/>
<path d="M27.5297 95.4376L26.1786 92.8053C32.5825 89.5171 44.3692 88.2739 54.841 89.7831C58.5964 90.3219 62.1555 88.1287 63.3022 84.5621C64.4489 80.9961 62.8375 77.1374 59.4696 75.3884C50.0816 70.5106 41.2286 62.6312 37.9405 56.2268L40.5727 54.8757C43.6068 60.7862 51.9384 68.1412 60.8331 72.7623C65.486 75.1797 67.7085 80.5234 66.1182 85.4678C64.528 90.4128 59.6073 93.4599 54.4181 92.7112C44.4969 91.2823 33.4402 92.4035 27.5297 95.4376Z" fill="#63D3D6"/>
<path d="M31.7609 62.7263C31.7609 62.7263 18.6599 58.5107 18.6425 58.5051C16.648 57.8641 14.4511 58.421 12.4567 60.0741C10.6509 61.5709 9.19401 63.8338 8.35375 66.4449C7.51411 69.0566 7.37895 71.7443 7.97442 74.0129C8.63155 76.5187 10.0916 78.2515 12.086 78.8931L25.4835 83.201C25.6343 83.2495 25.7869 83.2726 25.937 83.2726C26.5624 83.2726 27.1672 80.6341 26.3892 80.3837L17.8751 77.6461C19.7854 76.2266 21.4323 73.8827 22.3741 70.9533C22.6245 70.1753 22.1966 69.3419 21.4186 69.0915C20.6413 68.8417 19.8072 69.269 19.5575 70.047C18.2712 74.0453 15.2652 76.8077 12.9917 76.0752C11.645 75.6423 11.0633 74.1262 10.8365 73.2617C10.3893 71.5562 10.5114 69.4017 11.171 67.3499C11.8307 65.2982 12.9873 63.4762 14.3452 62.3513C15.0298 61.7839 16.3733 60.9006 17.7125 61.3149C17.7212 61.318 17.7287 61.3217 17.7374 61.3242L30.8552 65.5423C31.006 65.5909 31.1586 65.614 31.3087 65.614C31.9341 65.6152 32.5389 62.9767 31.7609 62.7263Z" fill="#63D3D6"/>
<path d="M16.5565 89.6783C15.9853 89.6783 15.4434 89.5992 14.9413 89.4379C14.1634 89.1875 13.7355 88.3541 13.9858 87.5761C14.2362 86.7981 15.069 86.3702 15.847 86.6206C18.0121 87.3189 23.0923 84.6187 26.6103 77.9165C26.6334 77.8729 26.6583 77.8312 26.6845 77.7907C27.3977 76.4254 28.0143 74.9404 28.5176 73.3757C29.0109 71.8422 29.3741 70.2701 29.5971 68.7023C29.5989 68.6568 29.6027 68.6107 29.6089 68.5659C30.0567 65.3263 29.8861 62.2729 29.1149 59.7353C28.5537 57.8667 27.4269 55.7053 25.942 55.2282C25.164 54.9778 24.7361 54.1444 24.9865 53.3664C25.2369 52.5884 26.0703 52.1605 26.8477 52.4109C27.8985 52.7491 30.499 54.0559 31.9478 58.8795C32.8304 61.784 33.0416 65.2266 32.5582 68.8393C32.5563 68.8867 32.5526 68.9334 32.5458 68.9807C32.301 70.7603 31.8936 72.5442 31.3343 74.282C30.7649 76.0535 30.0611 77.7365 29.2426 79.2844C29.2196 79.3292 29.1941 79.3722 29.1666 79.4133C26.8358 83.804 24.1213 86.278 22.2465 87.583C20.2738 88.9552 18.2806 89.6783 16.5565 89.6783Z" fill="#E2E2E2"/>
<path d="M16.653 99.1647C15.0852 99.1647 13.5405 98.9268 12.0424 98.4447C6.7461 96.7417 2.7466 92.2203 0.779549 85.7137C-1.12895 79.4014 -0.894124 71.9269 1.4398 64.6691C3.77373 57.4107 7.93954 51.2012 13.1692 47.1843C18.5602 43.0434 24.4458 41.7017 29.7415 43.404C35.0379 45.107 39.0374 49.6284 41.0044 56.1357C42.9129 62.4485 42.6781 69.9218 40.3442 77.1802C38.0103 84.438 33.8451 90.6481 28.6147 94.6651C24.7485 97.6343 20.6276 99.1647 16.653 99.1647ZM25.1434 45.6483C21.8117 45.6483 18.3049 46.97 14.9706 49.5313C10.2124 53.1857 6.40726 58.8838 4.25584 65.5754C2.10441 72.2663 1.87519 79.1143 3.61116 84.8572C5.28857 90.4058 8.60415 94.2309 12.9475 95.6274C17.2902 97.0245 22.214 95.8485 26.8115 92.3174C31.5697 88.663 35.3748 82.9649 37.5263 76.2733C39.6777 69.5817 39.9069 62.7338 38.1709 56.9909C36.4935 51.4423 33.178 47.6172 28.8346 46.2207C27.6424 45.8376 26.4054 45.6483 25.1434 45.6483Z" fill="#E2E2E2"/>
<path d="M55.6608 98.5965C54.7701 97.0723 53.7915 95.7362 52.7744 94.6125C52.7495 93.9629 52.6492 93.3057 52.4629 92.653C51.2091 88.2554 46.6278 85.7072 42.2309 86.9611C37.8334 88.2149 37.3071 92.2194 38.5609 96.617C39.1626 98.7267 40.0658 100.542 41.3271 101.723C41.8721 104.305 42.9111 107.05 44.416 109.626C45.8473 112.08 47.5104 114.047 49.1928 115.421H58.0906C60.196 111.836 59.2467 104.748 55.6608 98.5965Z" fill="#B2B8C4"/>
<path d="M56.9383 97.8502C56.1074 96.4294 55.1924 95.1413 54.2151 94.012C54.1597 93.4246 54.0531 92.8341 53.8856 92.2467C53.1711 89.7397 51.523 87.6611 49.2445 86.3942C46.966 85.1266 44.3313 84.822 41.8248 85.5377C39.2878 86.2609 37.5718 87.8648 36.8617 90.1751C36.2849 92.053 36.3777 94.3564 37.1376 97.0217C37.8035 99.3575 38.759 101.187 39.9817 102.473C40.6021 105.163 41.6853 107.885 43.1384 110.371C44.6059 112.886 46.3749 115.029 48.2548 116.566L50.1278 114.275C48.5189 112.959 46.9853 111.094 45.6935 108.879C44.8806 107.489 44.1998 106.019 43.6648 104.528C44.0672 104.602 44.4801 104.641 44.9037 104.641C45.6343 104.641 46.3942 104.531 47.1766 104.308C50.314 103.413 52.6529 101.071 53.6813 98.2133C53.9211 98.5777 54.1553 98.9533 54.3826 99.342C57.6303 104.912 58.6755 111.502 56.8144 114.671L59.3657 116.17C61.7662 112.084 60.746 104.38 56.9383 97.8502ZM46.365 101.462C44.7959 101.91 43.5178 101.678 42.4595 100.755C41.4317 99.8589 40.5753 98.2874 39.9836 96.2114C39.3918 94.1353 39.2903 92.3483 39.6908 91.0446C40.1032 89.7017 41.0667 88.8315 42.6364 88.3837C44.383 87.886 46.2192 88.0978 47.8063 88.9804C49.3934 89.863 50.542 91.3118 51.0403 93.0584C52.068 96.6642 49.9708 100.434 46.365 101.462Z" fill="#70838E"/>
<path d="M78.8014 106.244C86.2952 88.5686 103.596 66.1363 110.821 70.7605C121.328 77.4851 93.5623 115.42 93.5623 115.42L78.8014 106.244Z" fill="#B2B8C4"/>
<path d="M93.5611 116.9C93.2577 116.9 92.9519 116.807 92.6884 116.615C92.0288 116.132 91.8855 115.206 92.3683 114.547C98.2825 106.465 113.265 83.5274 111.59 74.5685C111.367 73.3763 110.855 72.5386 110.024 72.0066C109.307 71.5476 108.385 71.5027 107.205 71.8677C99.9736 74.1063 86.8321 91.0929 80.1642 106.821C79.8453 107.574 78.977 107.925 78.2246 107.606C77.4721 107.287 77.1208 106.419 77.4397 105.666C80.6301 98.1414 85.5179 89.8172 90.8497 82.8291C98.6681 72.5822 103.904 69.7923 106.329 69.0417C108.364 68.412 110.144 68.5708 111.618 69.5145C113.153 70.4968 114.122 72.0147 114.498 74.0254C115.461 79.1759 112.397 87.8938 105.391 99.9359C100.271 108.738 94.81 116.22 94.7551 116.295C94.4661 116.691 94.017 116.9 93.5611 116.9Z" fill="#70838E"/>
<circle cx="60.0157" cy="60.0413" r="58.2879" stroke="black" stroke-width="3.4287"/>
<circle cx="60.0157" cy="60.0413" r="54.8592" stroke="white" stroke-width="3.4287"/>
</g>
<defs>
<clipPath id="clip0_138_1477">
<rect x="0.0134888" y="0.0390625" width="120.005" height="120.005" rx="60.0023" fill="white"/>
</clipPath>
</defs>
</svg>
