<svg width="121" height="121" viewBox="0 0 121 121" fill="none" xmlns="http://www.w3.org/2000/svg">
<g clip-path="url(#clip0_2_6503)">
<circle cx="60.0308" cy="60.0173" r="60.0023" fill="#D9D9D9"/>
<path d="M95.2477 49.4218C94.145 44.9738 91.8447 40.0609 87.8824 36.0366C89.0223 30.5252 90.8796 18.3294 85.8539 15.3007C80.7936 12.251 69.6975 22.8309 64.8906 27.8237C61.9567 28.0536 58.2738 28.7624 54.1159 29.813C49.9489 30.8264 46.3626 31.9197 43.6607 33.0869C37.0807 30.9204 22.3253 26.7449 19.2744 31.8078C16.2448 36.8352 23.5908 46.7563 27.166 51.0937C25.5442 56.5013 25.8057 61.9184 26.908 66.3652C27.8616 70.2117 29.2724 73.9398 31.1463 77.5526C34.0015 83.0577 39.1106 86.8777 44.9899 88.1261C44.9805 88.3021 44.9745 88.479 44.9745 88.6567C44.9745 89.222 45.0224 89.7787 45.1138 90.3255C44.4926 90.9374 44.0218 91.7594 43.75 92.8399C41.1092 103.333 59.4406 107.004 67.5442 107.004C73.3825 107.004 79.2379 101.243 80.221 93.027C80.8585 91.6569 81.2054 90.1871 81.2054 88.6567C81.2054 86.4141 80.4612 84.3005 79.1469 82.4429C81.1529 81.6589 83.1404 80.8018 85.1092 79.8687C92.286 76.4644 96.7867 69.2371 96.7268 61.2933C96.6957 57.2234 96.2013 53.2683 95.2477 49.4218Z" fill="#B2B8C4"/>
<path d="M50.665 33.5822C52.2437 39.949 55.3749 44.6474 57.6517 44.083C59.9332 43.5173 60.507 37.9003 58.9284 31.5331C58.7122 30.6606 58.4674 29.8207 58.1973 29.0234C55.4809 29.5677 52.7948 30.2334 50.1399 31.0259C50.2736 31.8578 50.4496 32.7144 50.665 33.5822Z" fill="#95A1B3"/>
<path d="M59.0189 29.2913C60.5962 35.6534 63.7237 40.3578 66.0056 39.7921C68.1995 39.2483 68.8126 33.9991 67.4407 27.9224C65.9304 27.9036 64.3975 28.0044 62.8585 28.2253C61.54 28.4176 60.2275 28.6342 58.9236 28.885C58.9526 29.0234 58.9851 29.155 59.0189 29.2913Z" fill="#95A1B3"/>
<path d="M41.4385 34.3126C43.0603 40.353 46.0621 44.737 48.2654 44.191C50.5469 43.6253 51.1147 38.0045 49.5374 31.6423C49.5036 31.5056 49.4707 31.374 49.4323 31.239C47.9745 31.6833 46.5227 32.1725 45.0842 32.6951C43.8161 33.1539 42.6006 33.6982 41.4385 34.3126Z" fill="#95A1B3"/>
<path d="M26.4561 40.4235C26.4561 40.4235 26.1677 42.0787 26.4753 43.7774C26.756 45.348 27.9797 46.2969 29.3204 46.4875C31.1584 42.9426 33.7274 39.7801 36.8865 37.2427C36.6447 36.4126 36.0892 35.676 35.2531 35.2257C31.8958 33.4137 27.4418 31.6667 25.0313 33.4235C20.8331 36.4873 26.4561 40.4235 26.4561 40.4235Z" fill="white"/>
<path d="M83.5325 26.2722C83.5325 26.2722 84.5604 27.6009 85.0825 29.2463C85.5679 30.7664 84.9296 32.1768 83.8328 32.9714C80.552 30.6955 76.8029 29.0997 72.8244 28.332C72.6505 27.4852 72.7975 26.5738 73.3264 25.7856C75.4485 22.6154 78.5704 18.9898 81.5227 19.417C86.6655 20.1656 83.5325 26.2722 83.5325 26.2722Z" fill="white"/>
<path d="M96.2327 49.1773C95.4094 45.8555 93.4594 40.4299 88.9844 35.7088C90.3448 28.8921 91.6594 17.6111 86.3791 14.4294C83.7669 12.855 79.9422 13.9317 74.6866 17.7201C70.8337 20.4972 67.027 24.1634 64.4263 26.8465C61.6223 27.1002 58.092 27.7612 53.8763 28.8263C49.6466 29.8551 46.2154 30.9198 43.6169 32.005C40.069 30.8476 34.9955 29.3852 30.2842 28.7289C23.8657 27.8347 19.9807 28.6695 18.4068 31.2817C15.2293 36.5544 21.6568 45.9204 26.0399 51.3157C24.2891 57.5796 25.0996 63.2876 25.9233 66.609C26.8927 70.5196 28.3471 74.3588 30.2458 78.0195C32.1312 81.654 34.9878 84.6563 38.507 86.7011C40.5112 87.8658 42.6761 88.6865 44.9212 89.1471C43.8659 89.9465 43.1422 91.0983 42.7662 92.5928C42.0848 95.3011 42.603 97.783 44.3069 99.9692C48.878 105.834 60.9861 108.019 67.5444 108.019C71.4011 108.019 75.2959 105.737 77.964 101.915C79.7085 99.416 80.8364 96.3962 81.2261 93.182C81.6243 89.8982 81.2624 86.5229 80.155 83.1353C81.9703 82.4098 83.7712 81.6259 85.5438 80.7859C89.2374 79.0337 92.3315 76.2797 94.4921 72.8212C96.6484 69.369 97.772 65.3802 97.7413 61.2855C97.7101 57.1626 97.2025 53.0884 96.2327 49.1773ZM92.7711 71.7462C90.8165 74.8749 88.0167 77.3671 84.6748 78.9521C81.1235 80.6351 77.4603 82.092 73.7873 83.2831C73.2541 83.4557 72.9623 84.0283 73.1349 84.5615C73.2742 84.9908 73.6719 85.2634 74.1 85.2634C74.2034 85.2634 74.3094 85.2472 74.4132 85.2134C75.6979 84.7969 76.9809 84.3461 78.2593 83.8676C80.2336 90.0089 79.5384 96.1142 76.3003 100.753C74.012 104.032 70.7389 105.989 67.5452 105.989C64.839 105.989 60.3666 105.541 55.9309 104.284C51.1548 102.929 47.6889 101.006 45.9082 98.7217C44.5901 97.0311 44.2065 95.1884 44.735 93.0884C45.0938 91.6614 45.8518 90.7365 47.0519 90.2609C52.0208 88.29 63.1318 94.274 66.9936 96.7452C67.2543 96.9119 67.5764 96.9507 67.8691 96.8508C68.1617 96.7508 68.3924 96.5231 68.4967 96.2317C68.5249 96.1531 69.185 94.2702 69.185 91.388C69.185 90.8279 68.7304 90.3733 68.1703 90.3733C67.6102 90.3733 67.1556 90.8279 67.1556 91.388C67.1556 92.5839 67.027 93.5832 66.8915 94.3023C64.8266 93.0735 60.4204 90.6121 55.9168 89.1103C56.3599 88.9642 56.6577 88.5263 56.6077 88.0431C56.5505 87.4855 56.054 87.0779 55.4943 87.1378C53.7029 87.3223 51.8717 87.4565 50.0525 87.5355C46.3546 87.6962 42.7166 86.7998 39.5273 84.9464C36.3417 83.0956 33.7552 80.377 32.0479 77.0851C30.2227 73.5654 28.8252 69.8766 27.8938 66.1207C26.8603 61.952 25.8413 53.7596 30.626 45.7282C30.9127 45.2467 30.755 44.6238 30.2735 44.3371C29.792 44.0504 29.1691 44.208 28.8824 44.6896C28.0224 46.1336 27.3392 47.5807 26.7975 49.012C20.8545 41.4438 18.373 35.2709 20.1452 32.3293C21.8645 29.477 29.7433 29.8675 40.9478 33.2898C40.9329 33.2983 40.9167 33.3064 40.9021 33.315C39.2329 34.2716 37.6679 35.3209 36.2511 36.4334C35.8102 36.7795 35.7337 37.4174 36.0798 37.8583C36.2798 38.1134 36.5775 38.2463 36.8783 38.2463C37.0975 38.2463 37.3184 38.1753 37.5042 38.0296C38.8437 36.9773 40.3262 35.9836 41.91 35.0761C44.4342 33.6324 48.6212 32.1935 54.3642 30.7964C60.0859 29.3506 64.4609 28.6674 67.3653 28.7648C69.1901 28.8272 70.9649 29.0135 72.6414 29.3181C73.1934 29.4181 73.7211 29.0523 73.821 28.5008C73.921 27.9496 73.5553 27.4211 73.0041 27.3211C71.2311 26.999 69.3576 26.8025 67.4341 26.7367C67.4187 26.7362 67.4025 26.7362 67.3867 26.7358C75.6988 18.4776 82.4826 14.452 85.331 16.1679C88.2773 17.9435 88.9652 24.5611 87.2391 34.0268C86.092 33.0146 84.8115 32.0537 83.3764 31.1787C82.8987 30.8874 82.2737 31.0382 81.9819 31.5171C81.6901 31.9956 81.8417 32.6198 82.3202 32.9117C90.3029 37.7776 93.2287 45.4975 94.2626 49.6661C95.194 53.4225 95.6815 57.3373 95.7114 61.3013C95.74 65.0094 94.7232 68.6213 92.7711 71.7462Z" fill="#70838E"/>
<path d="M39.0271 73.4935C38.5725 73.4935 38.1589 73.1855 38.0444 72.7241C37.9098 72.181 38.2409 71.632 38.784 71.497L44.8406 69.9957C45.3836 69.8615 45.9326 70.1922 46.0676 70.7352C46.2022 71.2783 45.8711 71.8273 45.3281 71.9619L39.2714 73.4632C39.1898 73.4837 39.1078 73.4935 39.0271 73.4935Z" fill="#95A1B3"/>
<path d="M41.5402 78.91C41.2163 78.91 40.898 78.7549 40.7019 78.4669C40.387 78.0042 40.5067 77.3745 40.9689 77.0596L45.4691 73.9958C45.9318 73.6805 46.5616 73.8005 46.8765 74.2628C47.1913 74.7255 47.0717 75.3553 46.6094 75.6702L42.1093 78.7344C41.9349 78.8532 41.7363 78.91 41.5402 78.91Z" fill="#95A1B3"/>
<path d="M81.3317 63.0052C80.8771 63.0052 80.4636 62.6971 80.3491 62.2357C80.2145 61.6927 80.5456 61.1437 81.0886 61.0091L87.1453 59.5073C87.6883 59.3723 88.2373 59.7038 88.3723 60.2464C88.5069 60.7895 88.1758 61.3389 87.6328 61.4735L81.5761 62.9748C81.4941 62.9953 81.4125 63.0052 81.3317 63.0052Z" fill="#95A1B3"/>
<path d="M87.6996 67.466C87.662 67.466 87.624 67.4639 87.5856 67.4596L82.1753 66.8529C81.6195 66.7906 81.2192 66.2894 81.2816 65.7335C81.3439 65.1777 81.8438 64.7782 82.4009 64.8397L87.8112 65.4464C88.367 65.5088 88.7673 66.01 88.705 66.5658C88.6468 67.0832 88.2081 67.466 87.6996 67.466Z" fill="#95A1B3"/>
<path d="M47.6621 56.3693C47.2075 56.3693 46.7939 56.0608 46.6794 55.5998C46.5448 55.0568 46.8759 54.5077 47.419 54.3732L50.5964 53.5853C51.1394 53.4499 51.6884 53.7819 51.8234 54.3249C51.958 54.8679 51.6269 55.4169 51.0839 55.5515L47.9065 56.3393C47.8244 56.3594 47.7424 56.3693 47.6621 56.3693Z" fill="white"/>
<path d="M68.5767 51.1843C68.1221 51.1843 67.7085 50.8762 67.5944 50.4148C67.4599 49.8718 67.791 49.3227 68.3336 49.1877L71.511 48.3999C72.054 48.2645 72.6031 48.5964 72.7376 49.139C72.8722 49.6821 72.5411 50.2315 71.9985 50.3661L68.8211 51.1539C68.739 51.1744 68.657 51.1843 68.5767 51.1843Z" fill="white"/>
<path d="M68.4626 59.1184C68.4613 59.1184 68.4604 59.1184 68.4596 59.1184C67.9003 59.1184 67.4466 59.5709 67.4448 60.1302C67.4419 61.206 66.7078 62.1391 65.6598 62.3988C64.4033 62.7116 63.1275 61.9412 62.8156 60.6847L62.6182 59.8888L63.3343 59.7115C63.8782 59.5764 64.2102 59.0261 64.0752 58.4823C63.9401 57.9384 63.3899 57.606 62.846 57.7414L59.4438 58.5848C58.8995 58.7198 58.568 59.2701 58.703 59.814C58.8175 60.2758 59.2315 60.5847 59.6869 60.5847C59.7677 60.5847 59.8501 60.5749 59.9317 60.5544L60.6478 60.3771L60.8452 61.1726C60.996 61.781 60.9007 62.4121 60.5764 62.9495C60.2522 63.487 59.7382 63.8664 59.1289 64.0172C58.083 64.277 56.9982 63.7946 56.4928 62.8449C56.2296 62.3501 55.6153 62.1626 55.1205 62.4257C54.6257 62.6889 54.4382 63.3037 54.7014 63.7985C55.4743 65.2503 56.9705 66.1172 58.559 66.1172C58.9093 66.1172 59.2644 66.0749 59.6173 65.9877C60.7525 65.7061 61.7104 64.9995 62.3145 63.9976C62.3833 63.8835 62.4465 63.7669 62.5042 63.649C62.6101 63.7267 62.7204 63.7998 62.8344 63.8686C63.8359 64.4723 65.0125 64.65 66.1473 64.3684C68.0998 63.8844 69.4674 62.1438 69.4734 60.1357C69.476 59.5756 69.0231 59.1201 68.4626 59.1184Z" fill="#70838E"/>
<path d="M73.0429 60.0487C72.8648 60.0487 72.6845 60.0017 72.5208 59.903C72.0419 59.6142 71.8877 58.9917 72.1761 58.5127C74.1367 55.2593 78.3788 54.2074 81.6332 56.168C82.1121 56.4568 82.2663 57.0793 81.9779 57.5583C81.6891 58.0376 81.067 58.1919 80.5877 57.9031C78.2912 56.5188 75.2958 57.2613 73.9115 59.5582C73.721 59.874 73.386 60.0487 73.0429 60.0487Z" fill="#5F5C5D"/>
<path d="M42.9644 67.5064C42.7862 67.5064 42.6059 67.4594 42.4427 67.3611C41.9638 67.0723 41.8095 66.4498 42.0979 65.9708C44.0594 62.7169 48.302 61.6655 51.555 63.6261C52.034 63.9149 52.1882 64.5374 51.8998 65.0164C51.611 65.4953 50.9889 65.6496 50.5096 65.3612C48.2123 63.9769 45.2173 64.7199 43.8334 67.0163C43.6424 67.3316 43.3075 67.5064 42.9644 67.5064Z" fill="#5F5C5D"/>
<path d="M16.9188 53.8029L26.8724 47.1426C27.72 46.5752 28.8672 46.8025 29.4346 47.6506C29.952 48.4239 29.8135 49.4617 29.1107 50.0722L20.9977 57.1213L31.7178 73.1418L41.3282 68.331C42.1605 67.9144 43.1727 68.1819 43.6901 68.9556C44.2574 69.8037 44.0301 70.9509 43.1821 71.5178L35.4574 76.6866L43.8105 89.1703C44.9688 90.9015 44.5044 93.2437 42.7736 94.402C41.0424 95.5602 38.7002 95.0958 37.542 93.3651L15.5815 60.5457C14.0892 58.3142 14.6877 55.2957 16.9188 53.8029Z" fill="#FFFFA1"/>
<path d="M44.6541 88.6059L36.8654 76.9655L43.7466 72.3611C45.0583 71.4835 45.4112 69.7024 44.5336 68.3911C43.7338 67.1957 42.1607 66.7796 40.8742 67.4234L32.0631 71.8339L31.6316 71.1887L40.993 64.9249C41.4587 64.613 41.5839 63.9828 41.272 63.5171C40.9601 63.0514 40.3299 62.9267 39.8642 63.2381L30.5028 69.502L29.057 67.3414L38.4184 61.0775C38.8841 60.7656 39.0093 60.1354 38.6974 59.6697C38.386 59.2036 37.7554 59.0793 37.2897 59.3908L27.9283 65.6546L26.4825 63.494L35.8439 57.2302C36.3095 56.9187 36.4347 56.2881 36.1228 55.8224C35.8114 55.3567 35.1808 55.2319 34.7151 55.5434L25.3537 61.8073L23.9079 59.6467L33.2693 53.3828C33.735 53.0714 33.8601 52.4407 33.5483 51.975C33.2364 51.5093 32.6062 51.3846 32.1405 51.6961L22.7791 57.9599L22.3377 57.3002L29.7752 50.8381C30.8613 49.8948 31.0771 48.2815 30.2768 47.0861C29.8517 46.4508 29.2049 46.0188 28.4546 45.8706C27.7052 45.7219 26.9422 45.8744 26.3069 46.2991L16.3533 52.9594C15.0489 53.8323 14.1628 55.1606 13.8573 56.7C13.5523 58.2393 13.8646 59.8056 14.7375 61.11L36.6975 93.9293C37.6195 95.3072 39.1375 96.0523 40.6824 96.0523C41.5972 96.0523 42.5213 95.7913 43.3369 95.2457C45.5312 93.7772 46.1213 90.7989 44.6541 88.6059ZM42.2094 93.5585C40.9465 94.404 39.2306 94.0635 38.3855 92.8006L16.4255 59.9812C15.8543 59.1276 15.6496 58.1022 15.8492 57.0947C16.0491 56.0873 16.6293 55.2174 17.4829 54.6462L27.4369 47.9858C27.6215 47.8619 27.8432 47.8175 28.0616 47.8611C28.2795 47.9042 28.4679 48.0299 28.5918 48.2149C28.8242 48.5626 28.7618 49.0317 28.4457 49.306L20.3327 56.3547C19.9469 56.6901 19.8704 57.2601 20.1549 57.6852L30.875 73.7056C31.1595 74.1303 31.7158 74.2782 32.1725 74.0487L41.7834 69.2379C42.1577 69.0512 42.6153 69.1717 42.8477 69.5195C42.9716 69.7045 43.0156 69.9262 42.9725 70.1441C42.9293 70.362 42.8037 70.5504 42.6187 70.6739L34.8941 75.8427C34.6706 75.9923 34.5155 76.2247 34.463 76.4887C34.4104 76.7528 34.4656 77.0266 34.6147 77.2505L42.9678 89.7342C43.8124 90.9976 43.4723 92.713 42.2094 93.5585Z" fill="#F9CB71"/>
<path d="M34.936 57.9056C34.302 60.2709 34.5045 62.4058 36.5587 63.4607C42.653 66.5958 48.0786 47.9572 52.2464 47.5911L34.96 45.4446C31.6334 49.4175 29.2413 58.1693 34.936 57.9056Z" fill="#B2B8C4"/>
<path d="M53.0031 47.5199C52.9539 46.9615 52.46 46.5492 51.9033 46.5979C49.662 46.7949 47.7578 50.012 45.3473 54.0854C43.8579 56.6023 42.3177 59.2047 40.7304 60.9431C38.6878 63.1806 37.4915 62.9461 36.7694 62.5744C36.0393 62.1988 35.6227 61.6609 35.4586 60.882C34.7165 57.3637 39.365 50.6401 41.2188 48.3462C41.5708 47.9104 41.5033 47.2712 41.0675 46.9192C40.6313 46.5663 39.993 46.6347 39.6405 47.07C39.5675 47.1602 37.832 49.3148 36.1961 52.0974C35.1634 53.8538 34.4136 55.4487 33.9432 56.877C33.0951 56.7518 32.7657 56.3011 32.5875 55.9418C31.5199 53.7868 33.2887 48.7346 35.4856 46.11C35.8453 45.6802 35.7885 45.0402 35.3591 44.6804C34.9297 44.3211 34.2897 44.3775 33.93 44.8073C32.6422 46.3454 31.4818 48.5564 30.8252 50.7221C30.0694 53.216 30.0493 55.3898 30.7692 56.8428C31.3049 57.9242 32.2385 58.6108 33.4557 58.8471C33.316 59.7537 33.3194 60.5736 33.4724 61.2999C33.7603 62.6649 34.5789 63.7292 35.8406 64.3786C36.4516 64.6931 37.0736 64.8503 37.7042 64.8503C39.1706 64.8503 40.6856 64.0018 42.2288 62.3112C43.957 60.418 45.5515 57.7243 47.0934 55.1189C48.7793 52.2705 50.8775 48.7252 52.0807 48.6196C52.6395 48.5705 53.0522 48.0783 53.0031 47.5199Z" fill="#70838E"/>
<path d="M30.3843 78.1814C33.7881 76.2207 38.1371 77.3905 40.0977 80.7944C42.0583 84.1983 40.8885 88.5468 37.4847 90.5079C34.0808 92.4685 31.3144 90.3874 29.3537 86.9835C27.3931 83.5792 26.9804 80.142 30.3843 78.1814Z" fill="#B2B8C4"/>
<path d="M34.923 92.2703C32.5398 92.2703 30.2878 90.6344 28.4758 87.4886C25.8983 83.014 26.4097 79.3017 29.8785 77.3034C33.7613 75.0668 38.7387 76.4058 40.9749 80.2882C43.2111 84.1706 41.8721 89.1484 37.9898 91.3846C36.9601 91.9785 35.9296 92.2703 34.923 92.2703ZM33.9241 78.246C32.8919 78.246 31.8468 78.5079 30.8898 79.059C28.4327 80.4745 28.2114 82.9704 30.2314 86.4777C32.2518 89.9845 34.5218 91.0454 36.9793 89.6299C39.8936 87.9513 40.8989 84.2142 39.2202 81.2995C38.0923 79.3423 36.0355 78.246 33.9241 78.246Z" fill="#70838E"/>
<circle cx="60.0308" cy="60.0173" r="58.2879" stroke="black" stroke-width="3.4287"/>
<circle cx="60.0308" cy="60.0173" r="54.8592" stroke="white" stroke-width="3.4287"/>
</g>
<defs>
<clipPath id="clip0_2_6503">
<rect x="0.0285645" y="0.0150146" width="120.005" height="120.005" rx="60.0023" fill="white"/>
</clipPath>
</defs>
</svg>
