<svg width="121" height="121" viewBox="0 0 121 121" fill="none" xmlns="http://www.w3.org/2000/svg">
<g clip-path="url(#clip0_2_6316)">
<circle cx="60.0375" cy="60.0075" r="60.0075" fill="#D9D9D9"/>
<path d="M82.4089 95.5105C83.8171 100.742 82.1369 104.24 79.0788 106.315L66.7979 97.7242L82.4089 95.5105Z" fill="#B1B9C6"/>
<path d="M81.9312 104.41C81.7411 104.41 81.5485 104.365 81.369 104.269C80.7834 103.958 80.5605 103.231 80.8719 102.645C81.8468 100.81 81.9737 98.514 81.2491 95.8225C81.0767 95.1819 81.4564 94.523 82.0966 94.3506C82.7377 94.1777 83.3961 94.5579 83.5685 95.198C84.4564 98.4963 84.2627 101.381 82.9931 103.772C82.7772 104.178 82.3615 104.41 81.9312 104.41Z" fill="#678490"/>
<path d="M78.0284 82.7168C78.0284 72.2627 69.5534 63.7877 59.0993 63.7877C48.6452 63.7877 39.3814 82.8381 36.6267 93.6123C36.6267 104.066 48.6452 101.645 59.0993 101.645C69.5534 101.645 78.0284 93.1714 78.0284 82.7168Z" fill="#B1B9C6"/>
<path d="M57.4872 46.7792C66.8103 45.0712 73.2331 37.491 71.8329 29.8484C70.4327 22.2058 61.7399 17.3949 52.4168 19.1029C43.0937 20.8109 36.6709 28.3911 38.0711 36.0337C39.4713 43.6763 48.1641 48.4872 57.4872 46.7792Z" fill="#89D770"/>
<path d="M53.714 48.325C50.3166 48.325 47.0456 47.5216 44.2292 45.9627C40.2413 43.7561 37.6352 40.3061 36.8919 36.2494C35.3745 27.9676 42.2426 19.7454 52.2021 17.92C62.1602 16.0952 71.4983 21.3488 73.0167 29.6296C74.5341 37.9114 67.6661 46.1336 57.7065 47.959C56.3701 48.2037 55.0322 48.3245 53.714 48.325ZM56.1744 19.9577C55.0165 19.9577 53.8313 20.0629 52.635 20.2824C43.9779 21.8685 37.9755 28.8372 39.2543 35.8166C39.8656 39.1523 42.0454 42.0091 45.3917 43.8613C48.8169 45.7564 53.0364 46.3728 57.2732 45.5966C65.9302 44.0104 71.9326 37.0417 70.6539 30.0624C69.5526 24.0478 63.396 19.9577 56.1744 19.9577Z" fill="#6DB850"/>
<path d="M87.9054 17.3195C83.079 13.9883 71.4448 23.7886 66.3814 28.4339C63.4623 28.4819 59.7737 28.9583 55.5931 29.7435C51.4049 30.4913 47.7865 31.3545 45.0399 32.345C38.6557 29.7946 24.3042 24.761 20.9746 29.5842C17.6682 34.3741 24.3269 44.6416 27.608 49.1585C25.6694 54.4146 25.5961 59.7951 26.4152 64.267C27.1236 68.1336 28.2922 71.9112 29.9259 75.6034C33.1154 82.8092 40.1357 87.5051 48.0141 87.6522C54.0979 87.7634 60.0725 87.2816 65.9389 86.2066C71.8053 85.1316 77.563 83.4635 83.212 81.2028C90.5266 78.2721 95.4252 71.3919 95.8525 63.5232C96.0709 59.4917 95.8242 55.5452 95.1158 51.6786C94.2966 47.2082 92.3206 42.2045 88.6461 37.9778C90.1074 32.5963 92.6973 20.6274 87.9054 17.3195Z" fill="#B1B9C6"/>
<path d="M26.6377 49.8667C22.5926 44.2971 16.35 34.1667 19.984 28.9015C23.4972 23.8117 35.7898 27.3588 45.4833 31.2314L44.5924 33.4618C32.5835 28.6643 23.9118 27.4402 21.9606 30.2662C19.9501 33.1792 22.4247 39.979 28.5809 48.4555L26.6377 49.8667Z" fill="#678490"/>
<path d="M89.8036 38.2905L87.4857 37.662C90.2283 27.5498 90.1292 20.3141 87.2213 18.3067C84.3912 16.3524 76.7172 20.573 67.1935 29.3195L65.5688 27.5508C68.3124 25.0312 72.4516 21.4791 76.5912 18.8685C82.1012 15.3932 86.0244 14.563 88.5855 16.3307C93.8431 19.9596 91.6052 31.6469 89.8036 38.2905Z" fill="#678490"/>
<path d="M84.9313 28.0411C84.9313 28.0411 85.8677 29.4195 86.2833 31.081C86.6712 32.6156 85.9522 33.9733 84.818 34.6928C81.7088 32.2384 78.095 30.4288 74.2031 29.4251C74.0828 28.5756 74.284 27.6831 74.8559 26.9348C77.1515 23.9257 80.4645 20.5273 83.3613 21.1316C88.4075 22.1869 84.9313 28.0411 84.9313 28.0411Z" fill="white"/>
<path d="M27.5537 38.5556C27.5537 38.5556 27.1669 40.1766 27.3671 41.8771C27.5486 43.4496 28.702 44.464 30.0181 44.7345C32.0549 41.3371 34.7924 38.3639 38.0755 36.0451C37.8869 35.2082 37.3823 34.4447 36.5818 33.9482C33.3685 31.9489 29.066 29.9461 26.5717 31.5378C22.2278 34.3138 27.5537 38.5556 27.5537 38.5556Z" fill="white"/>
<path d="M49.6978 88.8685C49.1295 88.8685 48.5616 88.8635 47.9928 88.8529C39.7145 88.6986 32.1921 83.6888 28.8286 76.0895C27.1671 72.3347 25.9576 68.4301 25.2345 64.4836C24.4053 59.9597 23.8622 51.1292 29.537 42.8181C29.9112 42.2704 30.658 42.1294 31.2061 42.5035C31.7537 42.8777 31.8948 43.6245 31.5206 44.1727C26.3302 51.7739 26.8344 59.8899 27.5969 64.0508C28.286 67.8117 29.4394 71.5353 31.0246 75.1177C34.0114 81.866 40.6893 86.3146 48.0368 86.4516C54.0119 86.5603 59.9627 86.0809 65.723 85.0252C71.4842 83.9694 77.2182 82.3079 82.766 80.0876C89.5871 77.3546 94.2536 70.8269 94.6536 63.4577C94.8654 59.5466 94.6237 55.6562 93.9345 51.8948C93.172 47.7339 90.7657 39.9663 83.217 34.6995C82.673 34.3198 82.54 33.5714 82.9192 33.0274C83.299 32.4833 84.0468 32.3503 84.5914 32.7296C92.8444 38.4883 95.4676 46.938 96.2969 51.4619C97.0199 55.4084 97.2738 59.4884 97.0518 63.5881C96.6013 71.8862 91.3442 79.2381 83.659 82.3175C77.9624 84.5974 72.0738 86.3034 66.1558 87.388C60.7874 88.3715 55.2588 88.8685 49.6978 88.8685Z" fill="#678490"/>
<path d="M79.7358 57.6504C79.346 55.5222 77.3047 54.113 75.1765 54.5033C73.0483 54.8932 71.6396 56.9344 72.0294 59.0626C72.4193 61.1909 74.4605 62.6001 76.5888 62.2097C78.717 61.8199 80.1262 59.7786 79.7358 57.6504Z" fill="#605C5D"/>
<path d="M50.6207 62.9862C50.2309 60.858 48.1896 59.4488 46.0614 59.8391C43.9332 60.229 42.524 62.2702 42.9143 64.3985C43.3042 66.5267 45.3454 67.9354 47.4737 67.5455C49.6014 67.1557 51.0106 65.1144 50.6207 62.9862Z" fill="#605C5D"/>
<path d="M68.6624 51.9873C68.094 51.9873 67.5889 51.5818 67.4827 51.0028C67.3634 50.3505 67.7952 49.7246 68.4475 49.6052L71.6416 49.0197C72.2928 48.9004 72.9193 49.3322 73.0392 49.9845C73.1585 50.6367 72.7267 51.2627 72.0744 51.382L68.8803 51.9676C68.807 51.9807 68.7342 51.9873 68.6624 51.9873Z" fill="white"/>
<path d="M47.6375 55.8396C47.0691 55.8396 46.564 55.434 46.4578 54.8551C46.3385 54.2028 46.7703 53.5768 47.4226 53.4575L50.6167 52.8725C51.2679 52.7536 51.8949 53.185 52.0143 53.8372C52.1336 54.4895 51.7018 55.1155 51.0495 55.2348L47.8554 55.8198C47.7821 55.833 47.7093 55.8396 47.6375 55.8396Z" fill="white"/>
<path d="M50.7265 71.3892C50.2437 68.7543 46.8271 67.1732 43.0955 67.8568C39.3633 68.541 36.7295 71.231 37.2124 73.8653C37.6952 76.4997 41.1118 78.0813 44.8434 77.3977C48.5756 76.7141 51.2094 74.0236 50.7265 71.3892Z" fill="#FD80A6"/>
<path d="M88.6891 64.4327C88.2062 61.7978 84.7896 60.2167 81.058 60.9003C77.3264 61.5839 74.6925 64.2744 75.1749 66.9088C75.6578 69.5437 79.0744 71.1248 82.806 70.4412C86.5381 69.7576 89.172 67.0676 88.6891 64.4327Z" fill="#FD80A6"/>
<path d="M53.3927 67.1428C52.7384 62.4292 56.9089 64.4174 61.6229 63.7631C66.3365 63.1083 69.8077 60.0588 70.4625 64.7723C71.1173 69.4859 67.8266 73.8379 63.113 74.4922C58.3995 75.1465 54.0475 71.8563 53.3927 67.1428Z" fill="white"/>
<path d="M71.6519 64.607C71.4355 63.0481 70.9005 62.0171 70.0157 61.4538C68.6348 60.575 66.9439 61.0958 64.9851 61.6996C64.26 61.9231 63.4677 62.1653 62.6394 62.3534L62.3821 60.4982L62.9145 60.4244C63.5713 60.3328 64.0299 59.7266 63.9389 59.0697C63.8479 58.4129 63.2401 57.9543 62.5843 58.0453L59.1409 58.5237C58.4841 58.6147 58.0255 59.2214 58.1165 59.8783C58.1999 60.4795 58.7147 60.9143 59.3042 60.9143C59.3593 60.9143 59.415 60.9108 59.4711 60.9027L60.0035 60.8289L60.2614 62.6841C59.4129 62.7291 58.5847 62.7119 57.8263 62.6942C55.7779 62.6476 54.0082 62.6067 52.9195 63.8283C52.2218 64.6115 51.9882 65.7492 52.2046 67.3081C52.5651 69.9056 53.9156 72.2072 56.0075 73.7889C57.7302 75.0914 59.7856 75.7775 61.9083 75.7775C62.3628 75.7775 62.8209 75.7462 63.2791 75.6825C65.8765 75.322 68.1782 73.9714 69.7598 71.8796C71.3399 69.7873 72.0124 67.2045 71.6519 64.607ZM67.8429 70.4299C66.6481 72.01 64.9097 73.0299 62.9479 73.3024C60.9855 73.5745 59.0352 73.0668 57.4551 71.8725C55.875 70.6777 54.8551 68.9393 54.5826 66.9774C54.4299 65.8792 54.622 65.5262 54.712 65.4256C55.0624 65.0327 56.5015 65.0651 57.7706 65.0944C58.9751 65.1222 60.3388 65.1531 61.7884 64.9518C63.2381 64.7506 64.5421 64.3486 65.693 63.9942C66.9065 63.6205 68.2823 63.1968 68.7263 63.4794C68.8401 63.5517 69.1212 63.8389 69.2734 64.9372C69.5454 66.8996 69.0378 68.8503 67.8429 70.4299Z" fill="#678490"/>
<path d="M84.3913 40.4721C84.3913 40.4721 89.7359 40.6819 94.6543 47.283C94.6543 47.283 94.5759 33.431 83.375 30.8169L84.3913 40.4721Z" fill="#FD80A6"/>
<path d="M94.6548 48.4831C94.2826 48.4831 93.9226 48.3097 93.6916 47.9997C89.2197 41.9978 84.5334 41.6818 84.3362 41.6711C83.6774 41.6357 83.1657 41.0755 83.196 40.4161C83.2269 39.7568 83.778 39.2446 84.4384 39.2714C84.6396 39.2795 88.6519 39.4908 92.9923 43.5936C92.7875 42.6126 92.4927 41.5119 92.0669 40.3873C90.3281 35.7951 87.3119 32.9681 83.1025 31.9856C82.4568 31.835 82.0553 31.1893 82.206 30.5431C82.3567 29.8969 83.0024 29.4959 83.6486 29.6466C88.6382 30.811 92.3354 34.256 94.3403 39.6081C95.8183 43.5531 95.8552 47.125 95.8557 47.2751C95.8587 47.7939 95.528 48.2561 95.036 48.4209C94.9106 48.4629 94.7817 48.4831 94.6548 48.4831Z" fill="#F6608E"/>
<path d="M33.1635 50.7175C33.1635 50.7175 28.2406 52.8088 25.9824 60.7251C25.9824 60.7251 21.144 47.7459 30.6904 41.3293L33.1635 50.7175Z" fill="#FD80A6"/>
<path d="M85.4474 39.8573C85.6006 42.1928 84.1307 44.3125 81.9322 45.0017C81.8124 45.0467 81.6854 45.0775 81.559 45.1084C75.2643 46.5747 70.259 46.9029 67.6752 46.9565C66.489 46.9878 65.3634 46.4493 64.6353 45.5154L63.4117 43.9449C62.9996 43.4135 62.5036 42.9781 61.9499 42.6398C60.9128 42.0053 59.6836 41.7302 58.4524 41.8829C58.2152 41.9122 57.9796 41.9562 57.7415 42.0209C56.1168 42.4426 54.7774 43.5874 54.11 45.1311L53.4228 46.7173L52.5405 48.7591C52.139 49.6925 51.3704 50.4201 50.4208 50.7786C49.7256 51.0456 48.9944 51.3014 48.242 51.5502L48.2375 51.5507C45.1652 52.5685 41.7446 53.4433 39.1244 54.0587C36.5724 54.6553 33.9739 53.2097 33.1639 50.7194C32.1046 47.4717 31.2405 43.8584 30.6918 41.3307C30.2514 39.3117 31.066 37.2128 32.7867 36.066C35.4059 34.311 38.1556 32.8765 40.9679 31.71C40.973 31.7094 40.973 31.7094 40.973 31.7094C44.3825 30.2937 47.8704 29.2697 51.3052 28.5482L51.3102 28.5477C53.0618 28.1755 54.7926 27.8808 56.4915 27.6557C65.865 26.4008 74.2799 27.0965 78.7447 27.679C78.9747 27.7109 79.1987 27.7382 79.408 27.7675C81.1758 28.0158 82.6891 29.1691 83.3753 30.816C84.7724 34.1572 85.2846 37.4075 85.4474 39.8573Z" fill="#65E1E9"/>
<path d="M52.5269 37.8961C46.03 39.4732 45.9617 43.222 50.4483 45.1166C51.4125 45.5246 52.4546 46.0733 53.4224 46.7164L52.5401 48.7582C52.1386 49.6916 51.37 50.4192 50.4204 50.7777C49.7252 51.0447 48.994 51.3006 48.2416 51.5493L48.2371 51.5498C45.1345 49.725 38.5789 49.9227 37.0342 45.7719C34.1895 38.1251 47.1955 36.1961 46.7804 33.8525C46.5675 32.6587 43.7243 32.0368 40.9726 31.7096C44.3821 30.2938 47.87 29.2699 51.3048 28.5484L51.3099 28.5479C57.5535 30.4415 58.4439 36.4611 52.5269 37.8961Z" fill="#93F6F8"/>
<path d="M81.9324 45.0017C81.8125 45.0468 81.6856 45.0776 81.5592 45.1084C75.2645 46.5748 70.2592 46.9029 67.6754 46.9565C66.4892 46.9879 65.3636 46.4494 64.6355 45.5155L63.4119 43.945C62.9998 43.4135 62.5037 42.9782 61.9501 42.6399C62.344 34.7843 70.646 36.3928 69.5104 31.1518C69.0143 28.8618 56.8573 27.6917 56.4917 27.6568C65.8652 26.4019 74.28 27.0976 78.7448 27.6801C79.5988 30.1198 78.8095 32.828 75.8814 34.1189C69.7642 36.8185 70.3528 40.5213 75.1093 41.5943C77.4954 42.1317 80.4392 43.364 81.9324 45.0017Z" fill="#93F6F8"/>
<path d="M25.9817 61.9256C25.4821 61.9256 25.0326 61.6151 24.8566 61.1439C24.804 61.0033 23.5718 57.6499 23.5551 53.4375C23.5319 47.7217 25.7673 43.1902 30.0197 40.3318C30.5698 39.9622 31.3161 40.1083 31.6863 40.6585C32.0564 41.2091 31.9098 41.9549 31.3596 42.325C25.6833 46.1401 25.6019 52.6269 26.2325 56.6776C28.836 51.3087 32.5084 49.6902 32.6935 49.6113C33.3038 49.3519 34.0092 49.6366 34.2681 50.2469C34.5264 50.8552 34.2448 51.557 33.6391 51.8189C33.6016 51.8361 32.5014 52.3397 31.1715 53.6984C29.9246 54.9721 28.212 57.2823 27.1365 61.0534C26.9945 61.5524 26.5475 61.9034 26.0292 61.9236C26.0135 61.9256 25.9973 61.9256 25.9817 61.9256Z" fill="#F6608E"/>
<path d="M37.9851 55.3893C35.335 55.3893 32.8675 53.6868 32.0216 51.0893C30.942 47.7744 30.0632 44.0913 29.5166 41.5848C28.964 39.0521 29.9844 36.4936 32.1161 35.0672C39.4898 30.1332 48.6717 27.1221 59.4074 26.1174C68.1828 25.2967 75.8073 26.0537 79.5708 26.5785C81.7566 26.8834 83.6391 28.3301 84.484 30.3536C85.6981 33.262 86.4247 36.4329 86.6436 39.7782C86.8444 42.8479 84.8193 45.5819 81.8279 46.2782C75.3603 47.784 70.2008 48.1035 67.7009 48.1597C66.143 48.1961 64.6428 47.4821 63.6866 46.2539L62.463 44.6824C61.4199 43.3424 59.6835 42.7534 58.0407 43.1811C56.766 43.5128 55.735 44.3967 55.2127 45.6057L53.6416 49.2382C53.1153 50.4553 52.0969 51.4266 50.8475 51.9029C47.2433 53.2767 42.6304 54.4685 39.3953 55.227C38.925 55.3362 38.4523 55.3893 37.9851 55.3893ZM31.8633 41.0731C32.3983 43.5255 33.2563 47.1251 34.305 50.3455C34.9169 52.2245 36.9121 53.3409 38.8477 52.8874C42.0115 52.1461 46.5132 50.9836 49.9925 49.6574C50.6493 49.4071 51.1625 48.9191 51.4376 48.2835L53.0086 44.651C53.8272 42.7584 55.4407 41.3755 57.4359 40.8557C60.0091 40.1857 62.7259 41.1085 64.3586 43.2059L65.5818 44.7774C66.0738 45.409 66.8454 45.7756 67.6468 45.7574C70.0541 45.7033 75.0261 45.3948 81.2834 43.9376C83.1244 43.5088 84.3708 41.825 84.2469 39.9339C84.1084 37.8163 83.6523 34.5954 82.2673 31.2779C81.748 30.0341 80.5876 29.1446 79.2391 28.9565C75.5787 28.4463 68.1641 27.7091 59.6309 28.508C49.2972 29.4753 40.489 32.3534 33.451 37.0629C32.1662 37.9235 31.5276 39.5355 31.8633 41.0731Z" fill="#00D4D7"/>
<path d="M94.0411 65.1844C92.3088 65.8731 89.3518 67.6579 86.4656 72.2562L74.2732 91.6818L53.722 124.424C53.1168 125.389 51.8441 125.68 50.8799 125.075L44.3541 120.978C43.3898 120.373 43.0986 119.101 43.7038 118.136L74.3435 69.32C78.4558 62.7684 86.8767 60.3151 93.7989 63.7696C93.9 63.8186 93.9986 63.8712 94.1008 63.9263C94.6226 64.1979 94.5872 64.9669 94.0411 65.1844Z" fill="#65E1E9"/>
<path d="M78.0288 85.6977L74.2729 91.6819C73.2313 91.0378 72.2159 90.2308 71.3007 88.771C68.8706 84.8907 72.0162 84.1565 69.5871 80.2818C69.2084 79.6771 68.813 79.1886 68.407 78.7781L71.9444 73.1422C73.3344 73.9295 74.7259 74.7137 75.9415 76.6498C78.3736 80.5265 75.2225 81.2617 77.6526 85.1425C77.779 85.3382 77.9024 85.5238 78.0288 85.6977Z" fill="#93F6F8"/>
<path d="M51.9699 126.589C51.3778 126.589 50.7786 126.429 50.2411 126.091L43.7159 121.997C42.9776 121.534 42.4639 120.81 42.2698 119.961C42.0756 119.111 42.2237 118.237 42.6869 117.499L73.3276 68.6812C77.7544 61.6286 86.6754 59.0018 94.0779 62.5701C94.2711 62.6631 94.4653 62.7607 94.6604 62.8624C95.3264 63.2097 95.7162 63.8898 95.6778 64.6376C95.6393 65.386 95.1822 66.0231 94.484 66.3002C93.0596 66.8665 90.2553 68.4765 87.4819 72.8952L54.7388 125.062C54.1204 126.048 53.0565 126.589 51.9699 126.589ZM87.1461 63.3862C82.5155 63.3862 78.0037 65.7495 75.3617 69.9585L44.7211 118.776C44.5987 118.97 44.5598 119.201 44.6109 119.426C44.6624 119.65 44.7979 119.841 44.9926 119.963L51.5179 124.058C51.9199 124.31 52.4523 124.188 52.7046 123.786L85.4477 71.619C87.9754 67.5911 90.588 65.5564 92.5878 64.5284C90.8287 63.7563 88.9771 63.3862 87.1461 63.3862Z" fill="#00D4D7"/>
<path d="M106.075 84.6897C104.221 84.5022 100.774 84.7226 96.0926 87.4723L76.3172 99.0888L42.9845 118.669C42.0025 119.246 40.7389 118.917 40.1625 117.935L36.26 111.291C35.6831 110.309 36.0117 109.046 36.9937 108.469L86.6893 79.2779C93.3592 75.3602 101.963 77.0657 106.513 83.323C106.58 83.4135 106.643 83.5055 106.709 83.6011C107.047 84.082 106.66 84.7484 106.075 84.6897Z" fill="#65E1E9"/>
<path d="M82.4091 95.5104L76.3172 99.0887C75.6897 98.0365 75.1613 96.8528 75.0217 95.1352C74.6546 90.5713 77.784 91.3702 77.4154 86.8124C77.3583 86.1009 77.2329 85.4856 77.0615 84.9339L82.7989 81.5638C83.6691 82.9033 84.5429 84.2407 84.7289 86.5191C85.0996 91.0805 81.9646 90.2805 82.3322 94.8439C82.353 95.076 82.3767 95.298 82.4091 95.5104Z" fill="#93F6F8"/>
<path d="M41.9465 120.152C40.8265 120.152 39.7354 119.576 39.1281 118.543L35.2256 111.901C34.7842 111.15 34.6618 110.271 34.8807 109.428C35.1002 108.584 35.6346 107.876 36.386 107.435L86.0826 78.2423C93.2622 74.0248 102.389 75.8061 107.313 82.3865C107.442 82.5584 107.57 82.7344 107.696 82.9144C108.127 83.5293 108.159 84.312 107.781 84.9582C107.402 85.6044 106.702 85.9578 105.955 85.884C104.43 85.7293 101.199 85.8653 96.7005 88.5078L43.5939 119.704C43.0761 120.008 42.5078 120.152 41.9465 120.152ZM94.4206 78.3662C91.9961 78.3662 89.5377 78.9987 87.2992 80.3134L37.6026 109.505C37.4044 109.622 37.2633 109.809 37.2057 110.031C37.1475 110.254 37.1799 110.486 37.2967 110.684L41.1992 117.326C41.4394 117.735 41.9683 117.872 42.3773 117.632L95.4845 86.4367C99.5513 84.048 102.787 83.4367 105.033 83.4367C105.052 83.4367 105.071 83.4367 105.09 83.4367C102.428 80.1344 98.4728 78.3662 94.4206 78.3662Z" fill="#00D4D7"/>
<path d="M75.7929 121.502C75.2782 121.399 74.7922 121.133 74.4181 120.709L27.7401 67.8639C26.8294 66.8329 26.9265 65.2583 27.958 64.3471C28.9895 63.4365 30.5636 63.5336 31.4742 64.5651L78.1522 117.41C79.0629 118.441 78.9658 120.015 77.9343 120.927C77.327 121.464 76.5306 121.65 75.7929 121.502Z" fill="white"/>
<path d="M79.9289 123.923C83.1306 121.792 84.8326 118.722 83.7313 117.068C82.6295 115.413 79.1416 115.799 75.9399 117.931C72.7388 120.062 71.0363 123.131 72.1375 124.786C73.2393 126.441 76.7272 126.054 79.9289 123.923Z" fill="white"/>
<path d="M84.4939 120.899C85.4405 119.192 85.5249 117.595 84.7306 116.402C83.5777 114.671 80.9509 114.388 78.0551 115.485L32.3748 63.7716C31.7225 63.0319 30.8215 62.5904 29.8375 62.5293C28.8535 62.4681 27.9029 62.7937 27.1642 63.4465C25.6377 64.792 25.4921 67.1306 26.8401 68.6596L72.08 119.877C71.812 120.232 71.5759 120.592 71.3747 120.954C70.4281 122.661 70.3437 124.259 71.1375 125.451C71.8368 126.502 73.0781 127.02 74.593 127.02C76.207 127.02 78.132 126.43 80.0418 125.272L80.9808 126.38C81.2184 126.66 81.5567 126.805 81.8975 126.805C82.1715 126.805 82.4476 126.711 82.6731 126.52C83.1793 126.091 83.2415 125.334 82.8132 124.828L81.9956 123.863C83.0564 122.952 83.92 121.934 84.4939 120.899ZM28.3191 66.134C28.3403 65.7901 28.494 65.4756 28.7534 65.2471C29.0118 65.0185 29.3425 64.9037 29.6878 64.926C30.0312 64.9472 30.3452 65.1014 30.5737 65.3603L75.8217 116.584C75.6392 116.695 75.4567 116.81 75.2746 116.931C74.723 117.298 74.2052 117.696 73.7294 118.116L28.6407 67.0704C28.4121 66.811 28.2978 66.4783 28.3191 66.134ZM80.4407 122.026L78.851 120.15C78.4222 119.644 77.6648 119.58 77.1586 120.01C76.6525 120.438 76.5903 121.196 77.0186 121.702L78.4647 123.409C75.8657 124.87 73.6298 124.858 73.1378 124.119C72.8744 123.723 73.0003 122.975 73.4756 122.118C74.0935 121.004 75.2342 119.842 76.6055 118.929C78.4182 117.722 80.1262 117.239 81.2938 117.239C82.0123 117.239 82.5255 117.422 82.7318 117.732C82.9952 118.128 82.8693 118.876 82.394 119.733C81.9642 120.509 81.2776 121.305 80.4407 122.026Z" fill="#E3E3E3"/>
<path d="M35.6067 95.8777C35.5946 101.044 38.9065 106.376 47.4604 108.586C63.43 112.713 64.4534 101.065 58.0328 98.4483C51.6122 95.8317 42.6073 97.256 42.6073 93.0739C42.6073 93.0739 35.6168 91.3992 35.6067 95.8777Z" fill="#B1B9C6"/>
<path d="M53.5838 110.659C51.7488 110.659 49.6165 110.383 47.1622 109.749C37.863 107.348 35.353 101.729 34.685 98.5939C33.6353 93.6705 35.6124 88.2263 39.6044 85.0459C40.1232 84.6328 40.8791 84.7182 41.2922 85.237C41.7053 85.7558 41.6199 86.5112 41.1011 86.9243C37.8043 89.5506 36.1701 94.0391 37.0342 98.0928C37.9884 102.569 41.7989 105.883 47.7629 107.423C51.5061 108.39 54.6962 108.52 56.9882 107.798C58.7297 107.249 59.886 106.247 60.3325 104.899C61.0232 102.814 59.8153 100.468 57.5824 99.5582C55.2129 98.5934 52.3657 98.1955 49.8532 97.8446C45.5108 97.2383 41.409 96.6654 41.409 93.0703C41.409 92.4069 41.9465 91.8694 42.6099 91.8694C43.2733 91.8694 43.8108 92.4069 43.8108 93.0703C43.8108 94.4745 46.2192 94.9124 50.1854 95.4661C52.8364 95.8362 55.8414 96.2559 58.4885 97.3339C61.8879 98.7193 63.6991 102.374 62.6124 105.655C61.7251 108.333 58.9061 110.659 53.5838 110.659Z" fill="#678490"/>
<path d="M79.079 106.315C73.9822 109.774 65.0576 109.283 60.2242 106.288C52.491 101.497 55.9521 94.4068 59.2888 93.306C64.2142 91.6819 68.3493 99.089 76.3167 99.089L79.079 106.315Z" fill="#B1B9C6"/>
<path d="M69.9483 109.929C66.1595 109.929 62.3389 109.011 59.5918 107.31C55.8046 104.964 53.9175 101.595 54.4151 98.0692C54.81 95.2704 56.7228 92.7817 58.9638 92.1512C62.3981 91.1839 65.0957 92.9349 67.7038 94.6283C70.1728 96.2312 72.7263 97.8886 76.3173 97.8886C76.9807 97.8886 77.5182 98.4261 77.5182 99.0895C77.5182 99.7524 76.9807 100.29 76.3173 100.29C72.0148 100.29 69.0301 98.3523 66.3962 96.6427C63.9418 95.0495 62.0032 93.7909 59.6146 94.4629C58.4551 94.7896 57.0828 96.353 56.7936 98.4049C56.4301 100.982 57.8732 103.42 60.8569 105.268C64.3848 107.454 70.2436 108.148 74.7883 106.921C76.8194 106.372 79.5241 105.184 80.8721 102.646C81.1831 102.061 81.9102 101.838 82.4962 102.149C83.0817 102.46 83.3047 103.187 82.9932 103.773C81.6063 106.384 78.9861 108.274 75.4147 109.24C73.6905 109.704 71.8232 109.929 69.9483 109.929Z" fill="#678490"/>
<circle cx="60.0375" cy="60.0075" r="58.293" stroke="black" stroke-width="3.429"/>
<circle cx="60.0375" cy="60.0075" r="54.864" stroke="white" stroke-width="3.429"/>
</g>
<defs>
<clipPath id="clip0_2_6316">
<rect x="0.0300293" width="120.015" height="120.015" rx="60.0075" fill="white"/>
</clipPath>
</defs>
</svg>
