<svg width="121" height="121" viewBox="0 0 121 121" fill="none" xmlns="http://www.w3.org/2000/svg">
<g clip-path="url(#clip0_2_6372)">
<circle cx="60.0098" cy="60.0248" r="60.0098" fill="#D9D9D9"/>
<path d="M100.962 60.8296C100.962 64.9317 100.713 68.6686 100.21 72.0631C97.0036 94.0097 83.4537 101.727 60.0091 101.727C44.8952 101.727 33.8939 98.5154 27.1219 90.3561C21.7651 83.8991 19.0565 74.3467 19.0565 60.8301C19.0565 46.0313 22.3069 35.9756 28.7254 29.5465C35.5692 22.6805 46.0339 19.933 60.0091 19.933C82.0111 19.933 95.3008 26.7325 99.5079 45.7109C100.475 50.0827 100.962 55.1024 100.962 60.8296Z" fill="#65E1E9"/>
<path d="M77.9279 104.177C85.2913 104.177 91.2606 98.8545 91.2606 92.2887C91.2606 85.7228 85.2913 80.4001 77.9279 80.4001C70.5645 80.4001 64.5953 85.7228 64.5953 92.2887C64.5953 98.8545 70.5645 104.177 77.9279 104.177Z" fill="#B1B9C6"/>
<path d="M77.4462 14.4045C72.9338 17.971 68.4165 23.086 65.7836 26.2574C62.5818 26.7478 58.5978 27.8243 54.1196 29.3152C49.6273 30.7655 45.7791 32.2568 42.9083 33.7573C35.5072 31.9105 18.9752 28.5295 16.0384 34.331C13.1217 40.0929 21.9819 50.3812 26.2665 54.8552C24.9236 60.9239 25.6495 66.8501 27.2212 71.6434C28.58 75.7878 30.4307 79.7656 32.7808 83.5796C37.3679 91.0231 45.7897 95.1328 54.4726 94.1131C61.1772 93.3231 67.6737 91.8973 73.9617 89.8357C80.2496 87.7741 86.329 85.0771 92.2003 81.7443C99.8018 77.4255 104.155 69.1275 103.445 60.4129C103.081 55.9481 102.218 51.6466 100.859 47.5017C99.2883 42.7099 96.3654 37.5053 91.6926 33.41C92.0924 30.3426 92.5553 25.4222 92.1979 20.9039C91.839 16.3857 81.2809 11.3733 77.4462 14.4045Z" fill="#B1B9C6"/>
<path d="M59.5413 30.8135C61.7903 37.6737 61.6164 43.886 59.1632 44.6904C56.7046 45.4963 52.8863 40.5932 50.6373 33.7325C50.329 32.7923 50.066 31.866 49.8522 30.9648C52.7033 29.8843 55.5977 28.9354 58.537 28.1233C58.8983 28.9764 59.2349 29.8786 59.5413 30.8135Z" fill="#91A2B5"/>
<path d="M49.2421 31.6939C51.4897 38.5492 51.3225 44.7649 48.864 45.5708C46.4999 46.3458 42.8603 41.8088 40.5881 35.3398C41.986 34.4395 43.4739 33.6375 45.0384 32.9439C46.3804 32.3528 47.7311 31.7878 49.0938 31.2594C49.1477 31.4054 49.194 31.547 49.2421 31.6939Z" fill="#91A2B5"/>
<path d="M68.5732 26.1012C70.591 32.6825 70.3545 38.5253 67.9797 39.3038C65.5212 40.1096 61.7067 35.1998 59.4592 28.3444C59.411 28.1975 59.3643 28.0554 59.3214 27.9066C60.9404 27.4687 62.5805 27.0766 64.2274 26.7231C65.6787 26.4104 67.1305 26.2076 68.5732 26.1012Z" fill="#91A2B5"/>
<path d="M66.6638 26.9884L64.9022 25.5279C67.8342 21.9923 72.2667 17.0367 76.7349 13.505L78.1534 15.3003C73.6145 18.8883 69.0067 24.1633 66.6638 26.9884Z" fill="#678490"/>
<path d="M86.1172 23.0434C86.1172 23.0434 87.3532 24.4181 88.0599 26.1821C88.7159 27.8111 88.1297 29.4113 86.99 30.3723C83.204 28.1406 78.9598 26.6931 74.5307 26.1729C74.2711 25.2572 74.3583 24.2457 74.8751 23.3372C76.9474 19.6851 80.0802 15.4525 83.3552 15.6818C89.0603 16.0864 86.1172 23.0434 86.1172 23.0434Z" fill="white"/>
<path d="M24.6159 43.2067C24.6159 43.2067 24.4338 45.0468 24.9088 46.8863C25.3442 48.5876 26.7642 49.5298 28.2517 49.63C29.9814 45.5896 32.545 41.9105 35.8065 38.8691C35.4736 37.9775 34.8041 37.214 33.8498 36.7878C30.0175 35.0715 24.9868 33.5152 22.4835 35.6389C18.1247 39.3426 24.6159 43.2067 24.6159 43.2067Z" fill="white"/>
<path d="M104.585 60.3195C104.216 55.7935 103.327 51.3611 101.946 47.1453C100.772 43.5654 98.1922 37.7693 92.9009 32.9486C93.304 29.663 93.6711 25.0764 93.3334 20.8115L91.0522 20.9922C91.3277 24.4738 91.1085 28.2059 90.7959 31.2005C89.464 30.1933 87.9925 29.2521 86.361 28.4159C85.7989 28.1279 85.1091 28.3499 84.8211 28.9121C84.533 29.4742 84.7551 30.164 85.3172 30.452C94.4654 35.1412 98.2996 43.3699 99.7712 47.8573C101.097 51.9025 101.95 56.1577 102.304 60.5044C102.635 64.5675 101.814 68.6093 99.9268 72.1926C98.0376 75.7807 95.1701 78.7392 91.6345 80.7478C91.0849 81.0599 90.8927 81.7584 91.2049 82.308C91.4158 82.6789 91.8026 82.887 92.2005 82.887C92.3922 82.887 92.5863 82.8388 92.7646 82.7377C96.6812 80.5123 99.8579 77.2344 101.951 73.2586C104.041 69.2909 104.952 64.816 104.585 60.3195Z" fill="#678490"/>
<path d="M74.6533 25.0205C72.6803 24.8105 70.6062 24.7464 68.4882 24.8302C65.0783 24.9675 60.1223 26.111 53.7683 28.2256C49.2111 29.6972 45.532 31.1437 42.7671 32.5454C38.7724 31.5632 33.0832 30.3706 27.8695 30.0329C20.741 29.5705 16.5368 30.8075 15.0152 33.8127C11.9454 39.8776 19.7603 49.6328 25.0179 55.202C23.607 62.2202 24.9601 68.419 26.1339 71.9994C27.5164 76.2156 29.4248 80.3133 31.8068 84.1789C34.1738 88.0198 37.5567 91.0867 41.5903 93.0482C44.8003 94.6093 48.3002 95.4104 51.8469 95.4099C52.7645 95.4099 53.6864 95.3564 54.606 95.248C61.3544 94.4528 67.9863 92.9966 74.3171 90.9215C74.9173 90.7245 75.2448 90.0781 75.0478 89.4779C74.8508 88.8772 74.2048 88.5502 73.6042 88.7467C67.4174 90.7751 60.9353 92.1975 54.3381 92.9749C50.2997 93.4499 46.2371 92.7625 42.5903 90.9894C38.9483 89.2183 35.8924 86.4481 33.7542 82.9775C31.4667 79.2647 29.6344 75.3308 28.3078 71.2851C26.8367 66.7977 25.0545 57.8961 29.6507 48.7007C29.9335 48.1357 29.7042 47.4483 29.1387 47.1656C28.5732 46.8828 27.8863 47.1121 27.6036 47.6776C26.7837 49.3182 26.1546 50.9482 25.6773 52.5494C18.5652 44.7552 15.3538 38.2076 17.0556 34.845C18.7001 31.596 27.343 31.3869 39.8741 34.213C38.1222 35.397 36.4917 36.6739 35.0283 38.0092C34.5615 38.435 34.5283 39.159 34.9541 39.6257C35.18 39.8728 35.4893 39.9985 35.7995 39.9985C36.075 39.9985 36.351 39.8998 36.5702 39.6994C37.9545 38.4364 39.5003 37.2264 41.1635 36.1027C43.8147 34.3146 48.2915 32.3966 54.4798 30.398C60.6401 28.348 65.3837 27.243 68.5783 27.1144C70.5855 27.0349 72.5474 27.0951 74.41 27.2936C75.0391 27.3605 75.6017 26.9053 75.6687 26.2767C75.7366 25.651 75.2814 25.0874 74.6533 25.0205Z" fill="#678490"/>
<path d="M53.0938 73.5129C56.4497 72.4128 58.1587 68.4355 56.911 64.6294C55.6632 60.8233 51.9312 58.6296 48.5753 59.7298C45.2194 60.83 43.5104 64.8073 44.7581 68.6134C46.0059 72.4195 49.7379 74.6131 53.0938 73.5129Z" fill="#605C5D"/>
<path d="M85.6937 55.1933C84.4461 51.3871 80.7135 49.1935 77.3576 50.2936C74.0017 51.3938 72.2927 55.3716 73.5403 59.1774C74.7878 62.9837 78.5204 65.1773 81.8763 64.0766C85.2327 62.9769 86.9418 58.9992 85.6937 55.1933Z" fill="#605C5D"/>
<path d="M86.6035 63.6766C86.0785 63.6766 85.59 63.3428 85.4176 62.8168C85.2028 62.1617 85.5597 61.4565 86.2148 61.2422L92.7407 59.1025C93.3958 58.8877 94.101 59.2446 94.3158 59.8997C94.5306 60.5548 94.1737 61.26 93.5186 61.4748L86.9927 63.6145C86.8636 63.6564 86.7321 63.6766 86.6035 63.6766Z" fill="#91A2B5"/>
<path d="M93.9538 68.0561C93.938 68.0561 93.9221 68.0561 93.9057 68.0552L87.9178 67.8283C87.229 67.8023 86.6919 67.2223 86.7179 66.5335C86.744 65.8447 87.321 65.3081 88.0127 65.3336L94.0006 65.5605C94.6894 65.5865 95.2265 66.1665 95.2004 66.8553C95.1744 67.5277 94.621 68.0561 93.9538 68.0561Z" fill="#91A2B5"/>
<path d="M41.0194 78.6211C40.4944 78.6211 40.0059 78.2873 39.8335 77.7613C39.6187 77.1062 39.9756 76.4011 40.6307 76.1867L47.1566 74.047C47.8121 73.8317 48.5168 74.1891 48.7317 74.8442C48.9465 75.4993 48.5896 76.2045 47.9345 76.4194L41.4086 78.559C41.2795 78.6009 41.148 78.6211 41.0194 78.6211Z" fill="#91A2B5"/>
<path d="M44.2168 84.3622C43.8493 84.3622 43.4852 84.2008 43.239 83.8906C42.8103 83.3507 42.8999 82.5655 43.4394 82.1368L48.1305 78.4086C48.67 77.9799 49.4552 78.0695 49.8844 78.6089C50.3131 79.1489 50.2235 79.9341 49.6835 80.3628L44.9923 84.091C44.7631 84.2736 44.489 84.3622 44.2168 84.3622Z" fill="#91A2B5"/>
<path d="M68.2413 44.3868C67.7601 44.3868 67.3126 44.0809 67.1541 43.5987C66.9571 42.9986 67.2846 42.3521 67.8848 42.1551L71.3086 41.0328C71.9083 40.8358 72.5552 41.1629 72.7523 41.7635C72.9493 42.3637 72.6217 43.0101 72.0215 43.2071L68.5977 44.3295C68.4792 44.3685 68.3593 44.3868 68.2413 44.3868Z" fill="white"/>
<path d="M45.7059 51.7752C45.2247 51.7752 44.7772 51.4693 44.6187 50.9871C44.4217 50.3869 44.7492 49.7405 45.3494 49.5435L48.7732 48.4212C49.3734 48.2242 50.0198 48.5517 50.2169 49.1519C50.4139 49.7526 50.0863 50.3985 49.4861 50.5955L46.0623 51.7178C45.9438 51.7564 45.8239 51.7752 45.7059 51.7752Z" fill="white"/>
<path d="M73.4064 69.7376C73.7504 70.7067 73.9161 71.686 73.9127 72.62C73.9185 75.199 72.6868 77.4311 70.6025 78.17C68.5135 78.9113 66.1503 77.9547 64.5295 75.9489C63.9384 75.2259 63.45 74.3608 63.1061 73.3922C61.8103 69.74 63.0685 65.9616 65.9128 64.9525C68.7524 63.9453 72.1107 66.0854 73.4064 69.7376Z" fill="#678490"/>
<path d="M73.9127 72.6203C73.9185 75.1992 72.6868 77.4314 70.6025 78.1703C68.5135 78.9116 66.1503 77.955 64.5294 75.9492C64.5237 73.3703 65.7553 71.1381 67.8444 70.3973C69.9287 69.6579 72.2918 70.614 73.9127 72.6203Z" fill="#FD80A6"/>
<path d="M74.4835 69.3533C73.7725 67.3495 72.484 65.6737 70.855 64.6342C69.5029 63.7715 68.0443 63.4233 66.6489 63.6092L65.9586 61.6642L66.698 61.4016C67.2934 61.1902 67.605 60.536 67.3936 59.9407C67.1821 59.3453 66.5285 59.0341 65.9326 59.2451L62.2968 60.5351C61.7015 60.7465 61.3898 61.4007 61.6013 61.996C61.7679 62.4652 62.2087 62.7581 62.6798 62.7581C62.8069 62.7581 62.936 62.7369 63.0622 62.6921L63.8016 62.4296L64.4928 64.3775C61.7964 66.0465 60.687 69.9882 62.029 73.7718C63.2718 77.2747 66.2308 79.5603 69.1589 79.5603C69.7736 79.5603 70.3872 79.4596 70.9826 79.2481C72.6974 78.6398 73.9965 77.239 74.6401 75.3041C75.2499 73.4703 75.1945 71.3571 74.4835 69.3533ZM72.4686 74.582C72.0529 75.833 71.2533 76.7241 70.2177 77.0916C67.9735 77.8878 65.2674 76.0555 64.1855 73.0069C63.1041 69.9583 64.0502 66.8303 66.2943 66.034C66.6407 65.9112 67.0029 65.8505 67.3738 65.8505C68.1127 65.8505 68.8839 66.0918 69.6238 66.5634C70.8251 67.3302 71.7851 68.5923 72.3265 70.1182C72.8679 71.6447 72.9185 73.2295 72.4686 74.582Z" fill="#678490"/>
<path d="M83.446 53.5866C83.986 55.2335 83.0886 57.0061 81.4422 57.5456C79.7953 58.0856 78.0227 57.1882 77.4832 55.5413C76.9432 53.8944 77.8406 52.1223 79.4875 51.5823C81.1339 51.0429 82.9065 51.9402 83.446 53.5866Z" fill="white"/>
<path d="M80.483 60.3526C80.8221 61.3863 80.2585 62.499 79.2248 62.8381C78.1911 63.1772 77.0784 62.6136 76.7393 61.5799C76.4007 60.5462 76.9638 59.4335 77.9975 59.0944C79.0312 58.7553 80.1439 59.3184 80.483 60.3526Z" fill="white"/>
<path d="M54.7902 63.3045C55.3302 64.9514 54.4328 66.7236 52.7864 67.2635C51.1395 67.8035 49.3669 66.9061 48.8274 65.2592C48.2879 63.6123 49.1848 61.8402 50.8317 61.3002C52.4776 60.7607 54.2502 61.6581 54.7902 63.3045Z" fill="white"/>
<path d="M51.3975 69.8875C51.7366 70.9212 51.173 72.0339 50.1393 72.373C49.1056 72.7121 47.9929 72.1485 47.6538 71.1148C47.3147 70.0811 47.8783 68.9684 48.912 68.6293C49.9461 68.2907 51.0588 68.8538 51.3975 69.8875Z" fill="white"/>
<path d="M60.0091 101.727C57.2982 92.5479 54.1133 80.8916 59.3218 78.4205C64.5303 75.9495 73.7839 100.585 73.7839 100.585L60.0091 101.727Z" fill="#B1B9C6"/>
<path d="M87.9651 94.9342C83.313 82.3502 80.6464 73.0117 84.3057 69.7964C87.9651 66.5812 97.5555 82.3656 97.5555 82.3656L87.9651 94.9342Z" fill="#B1B9C6"/>
<path d="M60.0088 102.871C59.5146 102.871 59.0589 102.549 58.912 102.051C55.6741 91.0877 53.0012 80.1529 58.8311 77.3866C59.6157 77.0142 60.5035 77.0084 61.3985 77.3702C63.9018 78.3827 66.8444 82.4529 70.3939 89.8141C72.9286 95.0702 74.8361 100.132 74.8553 100.182C75.0774 100.774 74.7783 101.433 74.1867 101.656C73.5952 101.878 72.9353 101.579 72.7133 100.987C72.6945 100.938 70.8178 95.9594 68.3266 90.7943C64.0747 81.9799 61.6239 79.9294 60.5411 79.492C60.1543 79.3355 59.9486 79.3899 59.8127 79.454C55.2627 81.6129 59.0647 94.4864 61.107 101.403C61.2862 102.008 60.9399 102.645 60.3339 102.824C60.2251 102.856 60.1162 102.871 60.0088 102.871Z" fill="#678490"/>
<path d="M87.965 96.0786C87.4997 96.0786 87.0623 95.7925 86.8918 95.3306C81.7084 81.3091 79.4998 72.4952 83.5503 68.9365C84.2151 68.3527 85.0541 68.1182 85.9751 68.2598C88.0777 68.582 90.765 70.9274 94.1898 75.4302C96.6031 78.603 98.4556 81.643 98.5332 81.7706C98.8612 82.3106 98.6897 83.0143 98.1498 83.3423C97.6098 83.6709 96.9061 83.4984 96.578 82.9589C93.7895 78.3713 88.3513 70.9384 85.6288 70.5218C85.3181 70.4736 85.1722 70.5579 85.0614 70.6552C81.6824 73.6238 85.3427 84.5389 89.0387 94.5367C89.2578 95.1297 88.9549 95.7877 88.3624 96.0069C88.2309 96.056 88.097 96.0786 87.965 96.0786Z" fill="#678490"/>
<path d="M98.1792 20.826C89.45 12.6773 77.3216 8.87964 60.0127 8.87964C42.6985 8.87964 30.5696 12.672 21.841 20.826C12.5261 29.5161 8.00403 42.6016 8.00403 60.8329C8.00403 79.0595 12.5261 92.1445 21.841 100.835C30.5701 108.989 42.6985 112.781 60.0127 112.781C77.3212 112.781 89.45 108.989 98.1792 100.835C107.494 92.1445 112.016 79.0595 112.016 60.8329C112.016 42.6011 107.494 29.5161 98.1792 20.826ZM96.0675 85.5883C96.0675 85.5936 96.0675 85.5936 96.0675 85.5936C89.8595 97.2913 77.7749 101.725 60.0074 101.725C59.427 101.725 58.8523 101.719 58.2825 101.708C32.3504 101.271 19.0549 90.7731 19.0549 60.8272C19.0549 30.2232 32.9414 19.93 60.0074 19.93C87.0787 19.93 100.96 30.2237 100.96 60.8272C100.96 71.3419 99.3179 79.4627 96.0675 85.5883Z" fill="white"/>
<path d="M60.0094 113.928C42.3903 113.928 30.0128 110.034 21.0573 101.674C11.5026 92.754 6.85815 79.3944 6.85815 60.8317C6.85815 42.2689 11.5031 28.9089 21.0573 19.989C30.0128 11.6288 42.3903 7.73486 60.0094 7.73486C77.6285 7.73486 90.006 11.6288 98.9615 19.989C108.517 28.9093 113.161 42.2689 113.161 60.8317C113.161 79.3944 108.516 92.754 98.9615 101.674C90.006 110.034 77.629 113.928 60.0094 113.928ZM60.0094 10.0229C43.0059 10.0229 31.1246 13.7213 22.6189 21.6614C13.5531 30.1246 9.14617 42.937 9.14617 60.8312C9.14617 78.7254 13.5531 91.5378 22.6189 100.001C31.1246 107.942 43.0054 111.64 60.0094 111.64C77.0134 111.64 88.8942 107.941 97.3999 100.001C106.466 91.5378 110.873 78.7249 110.873 60.8312C110.873 42.9375 106.466 30.1251 97.3999 21.6614C88.8942 13.7208 77.0134 10.0229 60.0094 10.0229Z" fill="#E3E3E3"/>
<path d="M60.0678 108.71C60.049 108.711 60.0283 108.711 60.0095 108.711C59.2065 108.711 58.5534 108.058 58.5534 107.255C58.5534 106.45 59.2065 105.799 60.0095 105.799C60.0283 105.799 60.0471 105.799 60.0659 105.799C60.0846 105.799 60.1034 105.799 60.1222 105.799C60.9252 105.797 61.5784 106.449 61.5803 107.253C61.5803 108.058 60.929 108.71 60.1241 108.711C60.1054 108.712 60.0866 108.712 60.0678 108.71ZM49.398 108.136C48.5993 108.042 48.0271 107.318 48.1205 106.519C48.214 105.721 48.9379 105.148 49.7371 105.244V105.242C50.5362 105.338 51.1079 106.062 51.0145 106.861C50.9273 107.601 50.2968 108.146 49.5685 108.146C49.5126 108.146 49.4543 108.142 49.398 108.136ZM69.1192 106.848C69.0233 106.051 69.5936 105.325 70.3923 105.229C71.1909 105.134 71.9149 105.704 72.0107 106.502C72.1066 107.301 71.5363 108.027 70.7376 108.121C70.6794 108.129 70.6211 108.131 70.5628 108.131C69.8369 108.132 69.2068 107.589 69.1192 106.848ZM38.8986 105.966C38.1308 105.723 37.7045 104.907 37.9458 104.139C38.1872 103.372 39.0046 102.945 39.7724 103.187C40.5378 103.428 40.9665 104.245 40.7252 105.013C40.5296 105.635 39.9535 106.032 39.3355 106.032C39.19 106.032 39.0446 106.01 38.8986 105.966ZM79.4041 104.982C79.1609 104.214 79.5853 103.397 80.3526 103.153C81.1204 102.91 81.9378 103.334 82.1811 104.102C82.4243 104.868 82 105.687 81.2326 105.93C81.2326 105.93 81.2326 105.93 81.2326 105.928C81.0872 105.976 80.9374 105.997 80.7919 105.997C80.1739 105.997 79.6021 105.602 79.4041 104.982ZM29.0838 101.379C28.4138 100.936 28.2288 100.031 28.6719 99.361C29.1151 98.689 30.0178 98.5041 30.6878 98.9472C31.3597 99.3904 31.5447 100.295 31.1016 100.965C30.8207 101.389 30.3569 101.621 29.8848 101.621C29.6103 101.62 29.3314 101.541 29.0838 101.379ZM89.0152 100.907C88.5702 100.237 88.7508 99.334 89.4208 98.8889C90.0909 98.4438 90.9935 98.6245 91.441 99.2945C91.8861 99.9645 91.7031 100.867 91.0335 101.312C90.7859 101.479 90.507 101.558 90.2286 101.558C89.758 101.558 89.2961 101.329 89.0152 100.907ZM21.0873 93.9916C21.0873 93.9916 21.0873 93.9916 21.0873 93.9935C20.5921 93.3572 20.7087 92.4435 21.3431 91.9488C21.9774 91.4555 22.8927 91.5702 23.3859 92.2046V92.2065C23.8791 92.8409 23.7645 93.7541 23.1301 94.2493C22.8637 94.455 22.5497 94.5552 22.2376 94.5552C21.8031 94.5557 21.3744 94.362 21.0873 93.9916ZM96.964 94.1621C96.3273 93.6713 96.2088 92.7556 96.6996 92.1193C97.1904 91.4825 98.1061 91.3659 98.7424 91.8573C99.3787 92.3481 99.4977 93.2614 99.0064 93.8977C98.7193 94.27 98.2867 94.4656 97.8518 94.4656C97.5425 94.4661 97.2285 94.3659 96.964 94.1621ZM15.8094 84.5139C15.5204 83.763 15.8947 82.9205 16.6437 82.6315C17.3947 82.3425 18.2371 82.7148 18.5266 83.4658C18.8156 84.2167 18.4414 85.0592 17.6924 85.3487C17.5199 85.4152 17.3431 85.4465 17.1683 85.4465C16.5835 85.446 16.032 85.092 15.8094 84.5139ZM102.373 85.2442C101.622 84.9571 101.245 84.1146 101.532 83.3637C101.819 82.6127 102.662 82.236 103.413 82.5231C104.164 82.8102 104.54 83.6527 104.251 84.4036C104.031 84.9841 103.477 85.3396 102.893 85.3396C102.72 85.3396 102.543 85.3082 102.373 85.2442ZM13.0658 74.1249C12.9347 73.3321 13.4733 72.5835 14.2661 72.4544C15.0609 72.3234 15.8099 72.8624 15.9385 73.6548H15.9405C16.0696 74.4491 15.5306 75.1981 14.7382 75.3272C14.6573 75.3397 14.5783 75.346 14.5012 75.346C13.7998 75.346 13.1823 74.8402 13.0658 74.1249ZM105.304 75.2169C104.509 75.0878 103.971 74.3393 104.097 73.5464C104.226 72.7516 104.975 72.2131 105.768 72.3417C106.563 72.4689 107.101 73.2174 106.972 74.0103C106.858 74.7261 106.24 75.2357 105.537 75.2357C105.46 75.2357 105.383 75.2294 105.304 75.2169ZM12.1086 63.5153C12.0879 62.7104 12.7223 62.0423 13.5253 62.0196C14.3302 61.9989 15.0002 62.6333 15.0209 63.4387C15.0416 64.2417 14.4073 64.9117 13.6043 64.9324C13.5898 64.9324 13.5773 64.9324 13.5648 64.9324C12.7787 64.9319 12.1294 64.3057 12.1086 63.5153ZM106.421 64.8178C105.616 64.799 104.982 64.1294 105.002 63.326C105.023 62.5211 105.691 61.8862 106.494 61.9069C107.299 61.9276 107.933 62.5957 107.912 63.4006C107.912 63.4006 107.912 63.4006 107.912 63.3982C107.894 64.1911 107.247 64.8192 106.458 64.8192C106.446 64.8197 106.434 64.8197 106.421 64.8178ZM13.7271 54.4721C12.9241 54.4013 12.3312 53.6961 12.402 52.8951C12.4709 52.0945 13.178 51.4991 13.979 51.5699C14.7801 51.6383 15.3726 52.3459 15.3042 53.1465C15.2377 53.9037 14.6009 54.476 13.8543 54.476C13.8124 54.4764 13.7685 54.4745 13.7271 54.4721ZM104.707 53.0367C104.636 52.2337 105.227 51.5285 106.03 51.4577C106.831 51.3869 107.537 51.9779 107.607 52.7785C107.68 53.5815 107.087 54.2866 106.286 54.3575C106.242 54.3618 106.199 54.3637 106.155 54.3637C105.41 54.3642 104.774 53.7939 104.707 53.0367ZM15.1958 44.1187C14.4179 43.9169 13.9497 43.1245 14.1515 42.3442C14.3533 41.5663 15.1481 41.0981 15.926 41.2999C16.7063 41.5017 17.1721 42.2965 16.9703 43.0744C16.8017 43.7319 16.2112 44.1664 15.5619 44.1664C15.4414 44.1664 15.3186 44.152 15.1958 44.1187ZM103.022 42.968C102.818 42.19 103.284 41.3933 104.062 41.1915C104.84 40.9878 105.634 41.4535 105.838 42.2315C106.042 43.0094 105.576 43.8061 104.798 44.0079C104.673 44.0412 104.551 44.0556 104.428 44.0556C103.783 44.0561 103.192 43.6235 103.022 42.968ZM18.6389 34.2581C17.9337 33.8713 17.6755 32.985 18.0628 32.2798C18.452 31.5766 19.3359 31.3189 20.0411 31.7056C20.7463 32.0949 21.002 32.9787 20.6152 33.6839C20.3513 34.1666 19.8518 34.4392 19.3378 34.4392C19.1003 34.4387 18.8595 34.3805 18.6389 34.2581ZM99.3523 33.5881C98.963 32.8848 99.2169 31.9985 99.9202 31.6079C100.623 31.2187 101.509 31.4749 101.9 32.1777C102.29 32.881 102.036 33.7673 101.332 34.156C101.108 34.2807 100.867 34.339 100.627 34.339C100.116 34.339 99.6186 34.0688 99.3523 33.5881ZM24.6614 25.7453C24.1142 25.1547 24.1499 24.2328 24.7404 23.688C24.7404 23.688 24.7404 23.688 24.7404 23.686C25.3314 23.1408 26.2529 23.1764 26.8001 23.767C27.3454 24.358 27.3078 25.2795 26.7187 25.8267C26.4379 26.0844 26.0843 26.2115 25.7308 26.2115C25.3372 26.211 24.9461 26.0555 24.6614 25.7453ZM93.2237 25.7515C92.6308 25.2087 92.5913 24.2872 93.1341 23.6942C93.6789 23.1013 94.6009 23.0637 95.1914 23.6066C95.7844 24.1494 95.8239 25.0714 95.281 25.6639C94.9939 25.976 94.6009 26.1359 94.2074 26.1359C93.8562 26.1364 93.5026 26.0097 93.2237 25.7515ZM33.0842 19.598C32.7451 18.8697 33.0615 18.0021 33.7913 17.6654C34.5196 17.3263 35.3871 17.6423 35.7238 18.3726C36.0629 19.1009 35.7465 19.9684 35.0167 20.3051C34.8192 20.3985 34.6111 20.4424 34.405 20.4424C33.8563 20.4428 33.3298 20.1307 33.0842 19.598ZM84.9045 20.2617V20.2598C84.1724 19.925 83.854 19.0594 84.1912 18.3292C84.5259 17.599 85.3915 17.2786 86.1218 17.6158C86.1218 17.6158 86.1218 17.6158 86.1237 17.6158C86.8539 17.953 87.1723 18.8162 86.8351 19.5484C86.5895 20.0811 86.0635 20.3952 85.5119 20.3952C85.3082 20.3947 85.1001 20.3513 84.9045 20.2617ZM42.9178 16.0927C42.7574 15.3042 43.267 14.5369 44.0536 14.3746C44.8422 14.2142 45.6119 14.7243 45.7718 15.5104C45.9341 16.2989 45.4245 17.0686 44.636 17.2286C44.5382 17.2493 44.4404 17.2579 44.3426 17.2579C43.6668 17.2579 43.0594 16.7835 42.9178 16.0927ZM75.2751 17.2059C74.4866 17.0479 73.977 16.2801 74.135 15.4916C74.2954 14.7031 75.0627 14.1934 75.8512 14.3514C76.6398 14.5118 77.1494 15.2792 76.9914 16.0677C76.8522 16.7584 76.2443 17.2348 75.5641 17.2348C75.4702 17.2348 75.3724 17.2266 75.2751 17.2059ZM53.2693 14.6159C53.2278 13.8129 53.8434 13.1284 54.6464 13.087C55.4494 13.0432 56.1358 13.6612 56.1777 14.4642C56.2191 15.2671 55.6035 15.9516 54.8005 15.9954C54.7736 15.9954 54.7485 15.9974 54.7216 15.9974C53.9538 15.9974 53.3112 15.3938 53.2693 14.6159ZM65.1087 15.9887C64.3057 15.9473 63.6877 15.2628 63.7296 14.4598C63.771 13.6568 64.4555 13.0388 65.2585 13.0807C66.0614 13.1202 66.6794 13.8066 66.6375 14.6096C66.598 15.3875 65.955 15.9911 65.1857 15.9911C65.1607 15.9906 65.1332 15.9887 65.1087 15.9887Z" fill="#E3E3E3"/>
<path d="M60.0089 102.871C59.4236 102.871 58.8365 102.865 58.2623 102.854C44.2404 102.617 34.6698 99.5355 28.1458 93.1537C21.2596 86.4178 17.9124 75.8442 17.9124 60.8296C17.9124 45.4994 21.4089 34.7829 28.6024 28.0681C35.3851 21.7369 45.3647 18.788 60.0089 18.788C74.6555 18.788 84.6361 21.7369 91.4178 28.0681C98.6093 34.7824 102.105 45.4985 102.105 60.8296C102.105 71.444 100.472 79.6992 97.1127 86.0637C97.1021 86.0873 97.0916 86.11 97.0795 86.1321C93.9028 92.1176 89.2396 96.3593 82.823 99.1001C76.8829 101.638 69.4201 102.871 60.0089 102.871ZM60.0089 21.0765C45.9798 21.0765 36.4963 23.8298 30.1636 29.741C23.4595 35.9991 20.2004 46.1685 20.2004 60.8296C20.2004 75.1969 23.3227 85.2352 29.7455 91.5179C35.8253 97.4652 44.8998 100.34 58.3032 100.566C58.8654 100.577 59.4381 100.583 60.0089 100.583C69.1051 100.583 76.2735 99.4093 81.9242 96.9956C87.8191 94.4778 92.1051 90.593 95.0261 85.1201C95.0362 85.0979 95.0468 85.0758 95.0584 85.0541C98.2606 79.02 99.8174 71.0963 99.8174 60.8296C99.8174 46.1675 96.5593 35.9986 89.8561 29.741C83.5244 23.8298 74.04 21.0765 60.0089 21.0765Z" fill="#E3E3E3"/>
<path d="M91.6834 40.6928C91.2595 40.6928 90.852 40.4563 90.654 40.0498C90.011 38.7304 89.2658 37.504 88.4383 36.4048C88.0582 35.9 88.1594 35.1828 88.6642 34.8027C89.169 34.4222 89.8862 34.5238 90.2663 35.0286C91.1815 36.2444 92.0042 37.5965 92.7108 39.0474C92.9878 39.6153 92.7513 40.3002 92.1834 40.5772C92.0225 40.6552 91.8515 40.6928 91.6834 40.6928Z" fill="white"/>
<path d="M92.7742 80.5311C92.6446 80.5311 92.5126 80.5089 92.3835 80.4622C91.7896 80.2464 91.4828 79.5899 91.6986 78.996C93.4423 74.195 94.2901 68.2529 94.2901 60.8296C94.2901 54.8389 93.7732 49.9112 92.7092 45.7653C92.5521 45.1531 92.9211 44.5298 93.5333 44.3728C94.146 44.2162 94.7688 44.5847 94.9259 45.197C96.0381 49.5317 96.5785 54.6452 96.5785 60.8301C96.5785 68.5246 95.686 74.7224 93.8493 79.7777C93.6807 80.2426 93.2419 80.5311 92.7742 80.5311Z" fill="white"/>
<circle cx="60.0098" cy="60.0248" r="58.2952" stroke="black" stroke-width="3.42913"/>
<circle cx="60.0097" cy="60.0247" r="54.8661" stroke="white" stroke-width="3.42913"/>
</g>
<defs>
<clipPath id="clip0_2_6372">
<rect y="0.0150146" width="120.02" height="120.02" rx="60.0098" fill="white"/>
</clipPath>
</defs>
</svg>
