<svg width="121" height="121" viewBox="0 0 121 121" fill="none" xmlns="http://www.w3.org/2000/svg">
<g clip-path="url(#clip0_138_1414)">
<circle cx="60.0113" cy="60.0413" r="60.0023" fill="#D9D9D9"/>
<path d="M119.566 120.387C119.566 120.387 104 126.967 87.2048 126.967L86.8671 101.937L126.124 95.2129L119.566 120.387Z" fill="#B1B9C6"/>
<path d="M87.204 128.998C86.0822 128.998 85.1733 128.089 85.1733 126.967C85.1733 125.845 86.0831 124.936 87.204 124.936C103.369 124.936 118.623 118.58 118.775 118.516C119.808 118.08 120.999 118.564 121.436 119.598C121.872 120.631 121.389 121.822 120.356 122.259C119.705 122.533 104.216 128.998 87.204 128.998Z" fill="#678490"/>
<path d="M-0.404485 115.683C2.16308 99.2589 19.6803 85.2446 44.4574 85.2446C69.2336 85.2446 86.8021 99.2436 89.3192 115.683C95.4325 155.61 69.2344 146.121 44.4574 146.121C19.6803 146.12 -6.64684 155.609 -0.404485 115.683Z" fill="#B1B9C6"/>
<path d="M-21.4948 -4.75782C-14.6565 -14.7408 14.9992 -4.45088 28.1867 0.759495C33.846 -1.30362 41.3058 -3.11109 49.9413 -4.686C58.564 -6.33786 66.1735 -7.34762 72.1961 -7.46817C82.6135 -17.098 106.548 -37.3966 116.525 -30.5617C126.435 -23.7739 121.188 0.927074 118.202 12.054C125.819 20.7494 129.935 31.0624 131.659 40.2836C133.15 48.2573 133.689 56.3986 133.267 64.7195C132.444 80.9602 122.386 95.1934 107.314 101.295C95.6744 106.002 83.8062 109.486 71.7088 111.748C59.6114 114.009 47.2857 115.048 34.7317 114.864C18.4739 114.62 3.95345 104.981 -2.68221 90.1361C-6.08084 82.5292 -8.52014 74.7435 -10.0104 66.7698C-11.7341 57.5512 -11.6229 46.4507 -7.66429 35.5931C-14.4547 26.3035 -28.2843 5.15505 -21.4948 -4.75782Z" fill="#B1B9C6"/>
<path d="M42.4404 2.6073C44.908 15.8059 50.7476 25.7804 55.4672 24.898C60.1971 24.0139 62.0379 12.6031 59.5704 -0.595535C59.2326 -2.40472 58.8325 -4.14977 58.3759 -5.81104C52.7603 -5.02272 47.1917 -3.98133 41.6727 -2.67831C41.8462 -0.963182 42.1036 0.808377 42.4404 2.6073Z" fill="#91A2B5"/>
<path d="M60.0227 -5.16738C62.4885 8.021 68.3196 18.0074 73.0495 17.1233C77.5972 16.2735 79.4756 5.6193 77.3954 -6.96117C74.3114 -7.1792 71.1667 -7.15611 67.9955 -6.88764C65.2784 -6.65166 62.5706 -6.36524 59.8765 -6.00785C59.9192 -5.72313 59.9697 -5.45039 60.0227 -5.16738Z" fill="#91A2B5"/>
<path d="M23.4988 3.0006C26.0937 15.5375 31.7051 24.8535 36.2733 23.9994C41.0032 23.1153 42.832 11.6968 40.3671 -1.49157C40.3141 -1.77458 40.2628 -2.04732 40.2003 -2.32861C37.1685 -1.59417 34.1435 -0.767386 31.1416 0.128654C28.4954 0.915255 25.9466 1.88312 23.4988 3.0006Z" fill="#91A2B5"/>
<path d="M-9.30162 36.7867C-17.6114 25.4117 -30.4612 4.73955 -23.1671 -5.90948C-19.6505 -11.0429 -11.6289 -12.2809 1.36109 -9.69286C11.2329 -7.72636 21.8041 -3.94982 28.9348 -1.12746L27.4403 2.64907C2.42558 -7.25098 -15.6816 -9.65011 -19.8173 -3.6138C-24.0495 2.56528 -18.893 16.7728 -6.02268 34.391L-9.30162 36.7867Z" fill="#678490"/>
<path d="M-7.84553 13.7033C-7.84553 13.7033 -8.63128 17.0506 -8.20634 20.5587C-7.81988 23.8017 -5.43186 25.8871 -2.71467 26.4351C1.46286 19.4096 7.08962 13.2536 13.8475 8.4442C13.4517 6.71881 12.4051 5.14732 10.7499 4.12816C4.1048 0.0258722 -4.78891 -4.07471 -9.92404 -0.771846C-18.8665 4.99086 -7.84553 13.7033 -7.84553 13.7033Z" fill="white"/>
<path d="M110.475 -8.4173C110.475 -8.4173 112.418 -5.57955 113.288 -2.15527C114.1 1.00908 112.627 3.81519 110.291 5.30802C103.857 0.266937 96.3858 -3.44119 88.348 -5.48379C88.0941 -7.23569 88.5019 -9.07906 89.6766 -10.6275C94.3911 -16.8536 101.202 -23.8902 107.184 -22.6659C117.604 -20.5232 110.475 -8.4173 110.475 -8.4173Z" fill="white"/>
<path d="M133.655 39.91C132.369 33.0247 129.03 21.7036 120.443 11.5274C124.032 -2.22528 128.071 -25.1213 117.677 -32.2409C112.544 -35.7575 104.616 -34.0125 93.4421 -26.9074C85.2358 -21.6894 77.0158 -14.6467 71.3831 -9.47311C65.6229 -9.28929 58.3263 -8.35905 49.5771 -6.68325C37.3139 -4.44742 28.2184 -1.88328 22.542 0.939079C19.0186 2.69354 15.6986 4.65063 12.6728 6.75479C11.7519 7.39519 11.5245 8.66059 12.1649 9.58142C12.559 10.1491 13.1917 10.4535 13.8339 10.4535C14.234 10.4535 14.6375 10.3355 14.9915 10.0901C17.8566 8.098 21.0065 6.24265 24.3521 4.57626C29.6864 1.92404 38.4185 -0.519547 50.3235 -2.69039C62.1918 -4.96384 71.2163 -5.84107 77.1466 -5.29473C80.8701 -4.94931 84.4774 -4.35765 87.8692 -3.53514C88.9576 -3.2718 90.0571 -3.94041 90.3213 -5.03053C90.5855 -6.12066 89.916 -7.21848 88.8259 -7.48268C85.2443 -8.35135 81.4404 -8.97636 77.5203 -9.33973C77.4536 -9.34572 77.3817 -9.34914 77.315 -9.35512C95.3402 -25.3052 109.74 -32.7539 115.381 -28.8893C121.215 -24.8939 121.833 -11.2378 117.153 7.9612C114.916 5.73734 112.398 3.60326 109.548 1.62907C108.626 0.990383 107.361 1.22038 106.722 2.14292C106.083 3.06461 106.313 4.33001 107.236 4.9687C122.983 15.8725 128.046 32.0089 129.663 40.6573C131.119 48.448 131.65 56.5098 131.24 64.6169C130.855 72.2068 128.344 79.4751 123.978 85.6354C119.607 91.8034 113.582 96.5674 106.554 99.4129C95.0939 104.048 83.2453 107.527 71.3369 109.753C59.4284 111.98 47.1216 113.016 34.7634 112.835C27.1821 112.721 19.8428 110.455 13.5389 106.283C7.2418 102.116 2.27508 96.246 -0.826003 89.3076C-4.13827 81.8956 -6.55621 74.187 -8.01228 66.3962C-9.62908 57.7479 -10.738 40.8719 0.00679302 25.015C0.636073 24.0865 0.39325 22.8237 -0.53528 22.1944C-1.46381 21.5651 -2.72665 21.8079 -3.35507 22.7365C-14.9147 39.7963 -13.7356 57.8804 -12.0043 67.1417C-10.4892 75.2454 -7.97549 83.2602 -4.53412 90.9638C-1.11754 98.6075 4.35617 105.076 11.2979 109.669C18.2516 114.27 26.3451 116.769 34.7036 116.894C35.6441 116.908 36.5828 116.915 37.5225 116.915C49.2026 116.915 60.8161 115.85 72.0842 113.744C84.2577 111.468 96.367 107.912 108.079 103.177C115.827 100.04 122.471 94.7856 127.292 87.9824C132.105 81.192 134.873 73.1832 135.297 64.8213C135.723 56.3961 135.17 48.0145 133.655 39.91Z" fill="#678490"/>
<path d="M24.0349 66.9174C23.2141 62.5287 26.1065 58.3059 30.4952 57.4859C34.884 56.6651 39.1068 59.5576 39.9267 63.9463C40.7475 68.335 37.8551 72.5579 33.4663 73.3778C29.0776 74.1977 24.8557 71.3053 24.0349 66.9174Z" fill="#605C5D"/>
<path d="M84.0747 55.6923C83.2539 51.3036 86.1463 47.0808 90.5351 46.2608C94.9238 45.44 99.1466 48.3325 99.9666 52.7212C100.787 57.1099 97.8949 61.3319 93.5062 62.1527C89.1183 62.9735 84.8955 60.081 84.0747 55.6923Z" fill="#605C5D"/>
<path d="M14.0254 82.7402C13.0669 82.7402 12.2136 82.0588 12.0315 81.0824C11.8255 79.9795 12.5522 78.9192 13.6543 78.7132L26.21 76.3662C27.3146 76.1593 28.374 76.8869 28.5792 77.989C28.7852 79.092 28.0585 80.1522 26.9564 80.3582L14.4007 82.7052C14.2742 82.7291 14.1485 82.7402 14.0254 82.7402Z" fill="#91A2B5"/>
<path d="M18.5175 94.1083C17.8267 94.1083 17.1538 93.7561 16.7733 93.1208C16.1971 92.1581 16.51 90.9115 17.4727 90.3352L27.0342 84.6101C27.9961 84.0338 29.2435 84.3468 29.8198 85.3095C30.396 86.2722 30.0831 87.5188 29.1204 88.0951L19.5589 93.8202C19.2315 94.0143 18.8724 94.1083 18.5175 94.1083Z" fill="#91A2B5"/>
<path d="M101.724 66.3447C100.765 66.3447 99.9118 65.6633 99.7297 64.6869C99.5237 63.5839 100.25 62.5237 101.353 62.3177L113.908 59.9707C115.012 59.7638 116.072 60.4914 116.277 61.5935C116.483 62.6956 115.757 63.7566 114.655 63.9627L102.099 66.3097C101.972 66.3336 101.847 66.3447 101.724 66.3447Z" fill="#91A2B5"/>
<path d="M114.206 76.2182C114.092 76.2182 113.976 76.2088 113.859 76.1883L102.875 74.3039C101.77 74.1141 101.028 73.0641 101.217 71.9586C101.406 70.8531 102.456 70.1118 103.562 70.2999L114.546 72.1843C115.652 72.3742 116.395 73.4241 116.205 74.5296C116.035 75.5197 115.176 76.2182 114.206 76.2182Z" fill="#91A2B5"/>
<path d="M33.71 48.7756C32.7515 48.7756 31.8983 48.0941 31.7161 47.1177C31.5101 46.0148 32.2368 44.9546 33.3389 44.7485L39.9259 43.5173C41.0314 43.3096 42.0899 44.038 42.2951 45.1401C42.5011 46.2422 41.7744 47.3033 40.6723 47.5093L34.0853 48.7405C33.9588 48.7636 33.834 48.7756 33.71 48.7756Z" fill="white"/>
<path d="M77.0662 40.6691C76.1078 40.6691 75.2545 39.9877 75.0724 39.0113C74.8663 37.9084 75.5931 36.8481 76.6952 36.6421L83.2821 35.4109C84.3859 35.204 85.4461 35.9316 85.6513 37.0337C85.8573 38.1358 85.1306 39.1968 84.0285 39.4029L77.4416 40.6341C77.315 40.658 77.1894 40.6691 77.0662 40.6691Z" fill="white"/>
<path d="M75.7658 56.9553C74.65 56.8912 73.683 57.7393 73.6146 58.8585C73.4787 61.0781 71.8525 62.9146 69.6585 63.325C68.3846 63.5627 67.0944 63.2909 66.0248 62.5581C65.0202 61.8698 64.3293 60.8515 64.0506 59.6759L65.4793 59.4083C66.5823 59.2022 67.309 58.1412 67.1021 57.0391C66.896 55.9361 65.8375 55.2094 64.7329 55.4163L57.6808 56.7347C56.5779 56.9408 55.8511 58.0018 56.058 59.1039C56.2402 60.0803 57.0934 60.7618 58.0519 60.7618C58.1759 60.7618 58.3007 60.7507 58.4272 60.7267L60.0355 60.4257C60.2005 61.6227 59.9244 62.8215 59.2361 63.8261C58.5025 64.8965 57.397 65.6173 56.1213 65.855C53.9274 66.2645 51.7523 65.1394 50.8238 63.119C50.3561 62.1007 49.1505 61.6527 48.1305 62.1221C47.1113 62.5906 46.665 63.7962 47.1336 64.8153C48.6067 68.0207 51.789 70.0009 55.2184 70.0009C55.7639 70.0009 56.3163 69.9505 56.8686 69.8479C59.2096 69.4101 61.2411 68.0874 62.5877 66.1218C62.7519 65.8824 62.9032 65.637 63.0417 65.3865C63.2614 65.5694 63.4914 65.7438 63.73 65.9071C65.6948 67.2529 68.0665 67.754 70.4049 67.3162C74.432 66.5638 77.4185 63.1874 77.6682 59.1056C77.7374 57.9873 76.8859 57.0237 75.7658 56.9553Z" fill="#678490"/>
<path d="M110.946 140.113H139.561V68.1446C139.561 65.7232 137.598 63.7593 135.175 63.7593H115.331C112.91 63.7593 110.946 65.7224 110.946 68.1446V140.113H110.946Z" fill="#6EE3CE"/>
<path d="M24.4016 140.113H53.0159V109.309C53.0159 106.888 51.0529 104.924 48.6307 104.924H28.7861C26.3647 104.924 24.4008 106.887 24.4008 109.309V140.113H24.4016Z" fill="#65E1E9"/>
<path d="M-18.8699 140.113H9.74438V89.629C9.74438 87.2067 7.7813 85.2437 5.35909 85.2437H-14.4855C-16.9077 85.2437 -18.8708 87.2067 -18.8708 89.629V140.113H-18.8699Z" fill="#FFFF9D"/>
<path d="M139.561 142.145H110.946C109.825 142.145 108.916 141.236 108.916 140.114V68.1454C108.916 64.6074 111.794 61.7295 115.332 61.7295H135.176C138.714 61.7295 141.592 64.6074 141.592 68.1454V140.114C141.591 141.235 140.682 142.145 139.561 142.145ZM112.977 138.083H137.529V68.1446C137.529 66.8467 136.473 65.7907 135.175 65.7907H115.33C114.032 65.7907 112.976 66.8467 112.976 68.1446V138.083H112.977Z" fill="#4ECAB3"/>
<path d="M53.016 142.145H24.4017C23.2799 142.145 22.371 141.236 22.371 140.114V109.31C22.371 105.772 25.249 102.895 28.787 102.895H48.6315C52.1695 102.895 55.0474 105.772 55.0474 109.31V140.114C55.0474 141.235 54.1377 142.145 53.016 142.145ZM26.4331 138.083H50.9862V109.31C50.9862 108.012 49.9303 106.956 48.6324 106.956H28.7878C27.4899 106.956 26.4331 108.012 26.4331 109.31V138.083Z" fill="#00D4D7"/>
<path d="M9.74437 142.145H-18.8699C-19.9917 142.145 -20.9005 141.236 -20.9005 140.114V89.6298C-20.9005 86.0918 -18.0217 83.2139 -14.4846 83.2139H5.35994C8.89793 83.2139 11.7759 86.0918 11.7759 89.6298V140.114C11.775 141.235 10.8653 142.145 9.74437 142.145ZM-16.8393 138.083H7.71289V89.6298C7.71289 88.3319 6.65697 87.276 5.35908 87.276H-14.4855C-15.7834 87.276 -16.8401 88.3319 -16.8401 89.6298V138.083H-16.8393Z" fill="#FFCC6B"/>
<path d="M37.9961 113.089C40.4081 105.862 36.505 98.0495 29.2786 95.6375C22.0521 93.2256 17.471 98.2077 15.059 105.433C12.6471 112.66 13.3183 119.395 20.5447 121.806C27.7712 124.218 35.5842 120.315 37.9961 113.089Z" fill="#B1B9C6"/>
<path d="M24.8993 124.548C23.2423 124.548 21.5579 124.285 19.9018 123.733C12.4163 121.234 9.94873 114.33 13.1327 104.791C14.564 100.502 16.575 97.3167 19.1083 95.3254C22.159 92.9271 25.8987 92.3697 29.9215 93.712C38.1988 96.4745 42.685 105.455 39.9225 113.733C37.7123 120.352 31.5229 124.548 24.8993 124.548ZM25.756 97.0534C24.2307 97.0534 22.8626 97.5399 21.6186 98.518C19.747 99.9886 18.1447 102.602 16.9854 106.076C14.5144 113.48 15.9286 118.124 21.1877 119.879C27.3403 121.932 34.0161 118.598 36.0698 112.445C37.0642 109.465 36.8393 106.275 35.4346 103.465C34.0306 100.655 31.6161 98.5582 28.6356 97.5638C27.6164 97.2244 26.6589 97.0534 25.756 97.0534Z" fill="#678490"/>
<circle cx="60.0113" cy="60.0413" r="58.2879" stroke="black" stroke-width="3.4287"/>
<circle cx="60.0112" cy="60.0413" r="54.8592" stroke="white" stroke-width="3.4287"/>
</g>
<defs>
<clipPath id="clip0_138_1414">
<rect x="0.00900269" y="0.0390625" width="120.005" height="120.005" rx="60.0023" fill="white"/>
</clipPath>
</defs>
</svg>
