<svg width="121" height="121" viewBox="0 0 121 121" fill="none" xmlns="http://www.w3.org/2000/svg">
<g clip-path="url(#clip0_138_1064)">
<circle cx="60.0113" cy="60.0367" r="60.0023" fill="#D9D9D9"/>
<path d="M79.2175 98.0731C79.4772 98.0223 79.737 97.9729 79.9967 97.9203C88.8375 96.1292 95.7733 89.3933 97.878 80.6211C98.9558 76.1266 99.4922 71.6317 99.4922 67.1317C99.4922 61.9285 98.2996 55.8867 95.0343 50.3693C97.7903 44.6114 103.176 31.6685 98.4624 26.9555C93.7156 22.2086 78.5929 30.8431 71.9323 35.0294C68.6359 34.4811 64.3838 34.2562 59.5139 34.2781C54.6436 34.2562 50.391 34.4816 47.0941 35.0299C40.4313 30.8404 25.31 22.2118 20.5659 26.9559C15.8542 31.6676 21.2339 44.6027 23.9963 50.3656C20.7291 55.8839 19.5361 61.9276 19.5361 67.1317C19.5361 71.6321 20.0725 76.1266 21.1502 80.6211C23.255 89.3933 30.1908 96.1297 39.0316 97.9203C39.2913 97.9729 39.5511 98.0223 39.8108 98.0731C34.5486 104.161 15.5455 101.828 15.5455 109.605C15.5455 116.74 31.2755 119.634 42.9435 113.286C46.4055 117.867 52.5301 120.913 59.5139 120.913C66.4977 120.913 72.6224 117.867 76.0843 113.286C87.7524 119.634 103.482 116.74 103.482 109.605C103.483 101.828 84.4797 104.161 79.2175 98.0731Z" fill="#B2B8C4"/>
<path d="M64.3486 37.4901C64.3486 44.939 62.1812 48.1568 59.5176 48.1568C56.8481 48.1568 54.6811 44.939 54.6811 37.4901C54.6811 36.469 54.7209 35.4768 54.8009 34.5243C57.9437 34.3816 61.0865 34.3816 64.2293 34.5298C64.3084 35.4827 64.3486 36.475 64.3486 37.4901Z" fill="#95A1B3"/>
<path d="M53.9677 35.0433C53.9677 42.4867 51.8058 48.5267 49.1367 48.5267C46.5701 48.5267 44.4598 42.9087 44.3116 35.8357C45.9715 35.4023 47.6881 35.0945 49.4449 34.9176C50.9507 34.7694 52.4565 34.6496 53.9622 34.5696C53.9677 34.7296 53.9677 34.8837 53.9677 35.0433Z" fill="#95A1B3"/>
<path d="M74.718 35.7734C74.5813 42.8747 72.4705 48.527 69.8925 48.527C67.223 48.527 65.0615 42.487 65.0615 35.0436C65.0615 34.884 65.0615 34.7299 65.067 34.5703C66.795 34.6613 68.5294 34.804 70.2574 34.9864C71.7805 35.146 73.2689 35.414 74.718 35.7734Z" fill="#95A1B3"/>
<path d="M92.9016 38.4145C92.9016 38.4145 93.6716 40.1599 93.7969 42.116C93.9167 43.9241 92.8275 45.3041 91.4013 45.8803C88.4067 42.475 84.7106 39.6916 80.5358 37.7583C80.5755 36.777 80.9862 35.8135 81.785 35.0888C84.9904 32.1742 89.4223 29.0314 92.5596 30.309C98.0234 32.5395 92.9016 38.4145 92.9016 38.4145Z" fill="white"/>
<path d="M26.1235 38.4145C26.1235 38.4145 25.3534 40.1599 25.2281 42.116C25.1083 43.9241 26.1975 45.3041 27.6238 45.8803C30.6184 42.475 34.3145 39.6916 38.4898 37.7583C38.45 36.777 38.0389 35.8135 37.2405 35.0888C34.0351 32.1742 29.6033 29.0314 26.466 30.309C21.0016 32.5395 26.1235 38.4145 26.1235 38.4145Z" fill="white"/>
<path d="M87.8049 74.7068H80.7187C79.8819 74.7068 79.2033 74.0282 79.2033 73.1914C79.2033 72.3546 79.8814 71.676 80.7187 71.676H87.8049C88.6417 71.676 89.3203 72.3546 89.3203 73.1914C89.3203 74.0282 88.6422 74.7068 87.8049 74.7068Z" fill="#95A1B3"/>
<path d="M86.5163 81.3638C86.3417 81.3638 86.1638 81.3332 85.9905 81.2691L80.1928 79.1218C79.4082 78.8315 79.0076 77.9595 79.298 77.1748C79.5883 76.3901 80.4608 75.9896 81.245 76.2804L87.0427 78.4277C87.8273 78.7185 88.2279 79.5901 87.9375 80.3747C87.7112 80.9856 87.1323 81.3638 86.5163 81.3638Z" fill="#95A1B3"/>
<path d="M38.31 74.7068H31.2238C30.387 74.7068 29.7084 74.0282 29.7084 73.1914C29.7084 72.3546 30.3865 71.676 31.2238 71.676H38.31C39.1468 71.676 39.8254 72.3546 39.8254 73.1914C39.8254 74.0282 39.1468 74.7068 38.31 74.7068Z" fill="#95A1B3"/>
<path d="M32.5124 81.3638C31.8964 81.3638 31.3175 80.9857 31.0912 80.3743C30.8008 79.5896 31.2009 78.7176 31.9861 78.4273L37.7837 76.2799C38.5675 75.9896 39.4399 76.3897 39.7308 77.1744C40.0211 77.959 39.621 78.831 38.8359 79.1214L33.0382 81.2687C32.8654 81.3332 32.6875 81.3638 32.5124 81.3638Z" fill="#95A1B3"/>
<path d="M73.6077 58.1919H69.8902C69.0534 58.1919 68.3748 57.5133 68.3748 56.6765C68.3748 55.8397 69.0529 55.1611 69.8902 55.1611H73.6077C74.4445 55.1611 75.1231 55.8397 75.1231 56.6765C75.1231 57.5133 74.445 58.1919 73.6077 58.1919Z" fill="white"/>
<path d="M49.1386 58.1919H45.421C44.5842 58.1919 43.9056 57.5133 43.9056 56.6765C43.9056 55.8397 44.5837 55.1611 45.421 55.1611H49.1386C49.9754 55.1611 50.6539 55.8397 50.6539 56.6765C50.6539 57.5133 49.9754 58.1919 49.1386 58.1919Z" fill="white"/>
<path d="M67.4077 66.1557C66.5965 65.9518 65.7725 66.4447 65.569 67.2564C65.312 68.2797 64.3939 68.9944 63.3357 68.9944C62.0641 68.9944 61.0298 67.961 61.0298 66.6907V66.1228H61.5044C62.3412 66.1228 63.0198 65.4442 63.0198 64.6074C63.0198 63.7706 62.3417 63.092 61.5044 63.092H57.5244C56.6876 63.092 56.009 63.7706 56.009 64.6074C56.009 65.4442 56.6871 66.1228 57.5244 66.1228H57.999V66.6907C57.999 67.961 56.9656 68.9944 55.6953 68.9944C54.6363 68.9944 53.7167 68.2797 53.4597 67.2564C53.2558 66.4447 52.4332 65.9522 51.6211 66.1557C50.8094 66.3597 50.3165 67.1827 50.5204 67.9944C51.1162 70.3676 53.2444 72.0252 55.6953 72.0252C57.191 72.0252 58.545 71.4065 59.5144 70.411C60.4842 71.406 61.8387 72.0252 63.3353 72.0252C65.7849 72.0252 67.9121 70.3676 68.5079 67.9944C68.7118 67.1827 68.2189 66.3597 67.4077 66.1557Z" fill="#70838E"/>
<path d="M77.11 66.1227C74.9224 66.1227 72.8666 65.2708 71.3196 63.7243C70.7279 63.1326 70.7279 62.1732 71.3196 61.5815C71.9113 60.9898 72.8707 60.9903 73.4624 61.5815C74.4364 62.556 75.7318 63.0924 77.1095 63.0924C78.4873 63.0924 79.7827 62.556 80.7571 61.5815C81.3488 60.9898 82.3082 60.9903 82.8999 61.5815C83.4916 62.1732 83.4916 63.1326 82.8999 63.7243C81.3539 65.2712 79.2971 66.1227 77.11 66.1227Z" fill="#5F5C5D"/>
<path d="M41.9188 66.1185C39.8218 66.1185 37.7248 65.3205 36.1284 63.7242C35.5367 63.1325 35.5367 62.1732 36.1284 61.5815C36.7201 60.9898 37.6799 60.9898 38.2712 61.5815C40.2822 63.5925 43.5549 63.5921 45.5659 61.5815C46.1576 60.9898 47.117 60.9902 47.7087 61.5815C48.3004 62.1732 48.3004 63.1325 47.7087 63.7242C46.1128 65.3205 44.0158 66.1185 41.9188 66.1185Z" fill="#5F5C5D"/>
<path d="M91.8285 101.348C88.6418 100.694 85.1848 99.9835 82.7334 98.78C86.3989 97.64 89.7447 95.6628 92.5171 92.9773C95.8867 89.7138 98.2503 85.5632 99.3509 80.9745C100.45 76.3936 101.007 71.7364 101.007 67.1317C101.007 63.2376 100.343 56.7344 96.7431 50.292C98.1895 47.1949 99.9893 42.8692 101.018 38.6244C102.475 32.6132 101.975 28.3263 99.5311 25.8827C94.5327 20.8843 81.6927 27.1539 71.6054 33.4468C68.443 32.9721 64.398 32.7426 59.5204 32.7627C54.6345 32.7431 50.584 32.9726 47.4188 33.4477C37.3292 27.158 24.4856 20.8898 19.4927 25.8827C17.0486 28.3268 16.5488 32.6136 18.0066 38.6249C19.0382 42.877 20.8389 47.1991 22.2857 50.2915C18.6851 56.734 18.0217 63.2381 18.0217 67.1322C18.0217 71.7368 18.5786 76.3941 19.6774 80.975C20.7785 85.5632 23.1417 89.7138 26.5112 92.9778C29.2841 95.6633 32.6299 97.6405 36.2958 98.7805C33.8449 99.9831 30.387 100.693 27.2003 101.348C20.7255 102.678 14.0302 104.054 14.0302 109.606C14.0302 112.567 16.0403 115.064 19.6907 116.637C22.2331 117.733 25.4161 118.316 28.8378 118.316C35.6986 118.316 43.5256 115.97 49.0933 110.706C49.7024 110.133 49.728 109.172 49.1546 108.565C48.5789 107.956 47.6191 107.929 47.0123 108.504C43.5572 111.77 38.7541 114.041 33.4836 114.9C28.8675 115.653 24.1591 115.263 20.8892 113.853C19.4602 113.236 17.0614 111.866 17.0614 109.606C17.0614 106.74 21.3167 105.65 27.809 104.316C32.5956 103.332 37.5099 102.32 40.328 99.7151C41.9737 100.022 43.6281 100.291 45.2651 100.519C45.3355 100.528 45.4055 100.533 45.475 100.533C46.2194 100.533 46.8687 99.984 46.9739 99.2258C47.0891 98.3968 46.5102 97.6318 45.6812 97.517C43.5755 97.2253 41.4396 96.8613 39.333 96.4356C35.2834 95.6153 31.5791 93.6669 28.6197 90.8003C25.6639 87.9373 23.5907 84.2952 22.6245 80.2676C21.581 75.9181 21.0524 71.4981 21.0524 67.1317C21.0524 62.3103 22.154 53.1092 29.5315 45.6567C30.12 45.0618 30.1154 44.1024 29.5205 43.5139C28.9261 42.9254 27.9667 42.93 27.3778 43.5249C26.1843 44.7307 25.1431 45.9772 24.2295 47.2425C23.031 44.5163 21.7443 41.1769 20.9518 37.9106C19.7766 33.0663 20.0135 29.6483 21.6359 28.0259C23.1796 26.4822 27.0536 26.8448 32.5435 29.0474C36.203 30.5157 39.9919 32.5487 43.1402 34.4002C41.2942 34.9585 39.5227 35.6174 37.8656 36.3632L39.1089 39.1269C40.857 38.3404 42.746 37.6564 44.7223 37.0939C47.866 36.2018 52.8498 35.7619 59.5217 35.7939C66.1919 35.7651 71.1637 36.2014 74.3065 37.0935C76.2842 37.6564 78.1727 38.3404 79.9208 39.1269L81.1641 36.3632C79.5056 35.617 77.7332 34.958 75.8854 34.3993C79.0291 32.5492 82.8153 30.5175 86.4798 29.0479C91.9711 26.8452 95.8455 26.4822 97.3897 28.0264C99.9861 30.6227 99.0034 37.7181 94.8011 47.2443C93.8871 45.9786 92.8459 44.7321 91.6524 43.5258C91.0635 42.9309 90.1041 42.9264 89.5097 43.5149C88.9152 44.1034 88.9102 45.0627 89.4987 45.6576C96.8762 53.1101 97.9778 62.3112 97.9778 67.1326C97.9778 71.4991 97.4487 75.919 96.4057 80.2685C95.4395 84.2966 93.3662 87.9387 90.4105 90.8016C87.4511 93.6678 83.7463 95.6162 79.6977 96.4365C77.6075 96.859 75.4894 97.2207 73.4016 97.5111C72.5725 97.6263 71.9941 98.3918 72.1093 99.2208C72.215 99.979 72.8638 100.528 73.6083 100.528C73.6778 100.528 73.7482 100.523 73.819 100.513C75.4373 100.288 77.073 100.021 78.7013 99.7174C81.5203 102.322 86.435 103.333 91.2212 104.317C97.7135 105.652 101.969 106.742 101.969 109.608C101.969 111.868 99.57 113.238 98.141 113.855C94.8711 115.264 90.1626 115.657 85.5465 114.902C80.2761 114.043 75.473 111.772 72.0179 108.506C71.4088 107.93 70.4508 107.958 69.8756 108.567C69.3022 109.175 69.3278 110.134 69.9369 110.708C75.5068 115.972 83.3315 118.318 90.1924 118.318C93.6141 118.318 96.7971 117.734 99.3395 116.639C102.99 115.066 105 112.568 105 109.608C104.999 104.054 98.3033 102.678 91.8285 101.348Z" fill="#70838E"/>
<path d="M82.8466 30C82.8466 36.6541 72.8473 41.6722 59.5872 41.6722C46.3272 41.6722 36.3279 36.6541 36.3279 30C36.3279 23.346 46.3272 18.3279 59.5872 18.3279C72.8473 18.3279 82.8466 23.346 82.8466 30ZM74.0721 30C74.0721 28.3609 68.5728 25.351 59.5872 25.351C50.6016 25.351 45.1023 28.3609 45.1023 30C45.1023 31.6392 50.6016 34.6491 59.5872 34.6491C68.5728 34.6491 74.0721 31.6392 74.0721 30Z" fill="#FFFFA1"/>
<path d="M76.7851 20.4819C72.3111 18.2365 66.2032 17 59.5876 17C52.972 17 46.8641 18.2365 42.3897 20.4819C37.6244 22.8731 35 26.2533 35 30C35 33.7467 37.6244 37.1269 42.3893 39.5181C46.8637 41.7635 52.9712 43 59.5872 43C66.2032 43 72.3107 41.7635 76.7847 39.5181C81.55 37.1269 84.174 33.7467 84.174 30C84.1744 26.2533 81.55 22.8731 76.7851 20.4819ZM59.5872 40.3447C47.2888 40.3447 37.6553 35.8006 37.6553 30C37.6553 24.1994 47.2888 19.6553 59.5872 19.6553C71.8852 19.6553 81.5187 24.199 81.5187 30C81.5191 35.8006 71.8856 40.3447 59.5872 40.3447Z" fill="#F9CB71"/>
<path d="M76.5896 27.097C75.9345 26.7681 75.1363 27.0317 74.807 27.6872C74.7289 27.8423 74.6419 27.991 74.5457 28.1364C72.3689 25.8008 66.3074 24.0234 59.5872 24.0234C52.8671 24.0234 46.8056 25.8008 44.6287 28.1364C44.5325 27.991 44.4456 27.8423 44.3675 27.6872C44.0381 27.0321 43.24 26.7681 42.5848 27.097C41.9297 27.4264 41.6653 28.2245 41.9947 28.8797C42.7331 30.3485 43.8782 31.3366 45.1893 32.386C45.1925 32.3884 45.1961 32.39 45.1989 32.3924C47.7424 34.4619 53.3839 35.9765 59.5868 35.9765C65.7897 35.9765 71.4309 34.4619 73.9748 32.3924C73.978 32.39 73.9812 32.3884 73.9844 32.386C75.2954 31.3366 76.4405 30.3485 77.179 28.8797C77.5088 28.2245 77.2447 27.4264 76.5896 27.097ZM59.5872 33.3212C55.0507 33.3212 51.8613 32.5451 49.985 31.8944C48.3061 31.3122 47.3477 30.7196 46.8513 30.3153C46.8505 30.3145 46.8497 30.3137 46.8489 30.3129C46.8469 30.3113 46.8453 30.3101 46.8433 30.3085C46.6942 30.1867 46.586 30.0813 46.5147 30C46.8216 29.649 47.7873 28.868 49.985 28.1055C51.8617 27.4544 55.0507 26.6787 59.5872 26.6787C64.1237 26.6787 67.3127 27.4548 69.1891 28.1055C71.3868 28.868 72.3524 29.649 72.6593 30C72.5884 30.0813 72.4798 30.1863 72.3312 30.3081C72.3292 30.3097 72.3272 30.3113 72.3252 30.3129C72.3244 30.3137 72.3236 30.3145 72.3224 30.3153C71.8259 30.7196 70.8679 31.3118 69.1891 31.8944C67.3131 32.5451 64.1241 33.3212 59.5872 33.3212Z" fill="#F9CB71"/>
<circle cx="60.0112" cy="60.0367" r="54.8592" stroke="white" stroke-width="3.4287"/>
<circle cx="60.0113" cy="60.0367" r="58.2879" stroke="black" stroke-width="3.4287"/>
</g>
<defs>
<clipPath id="clip0_138_1064">
<rect x="0.00900269" y="0.0344238" width="120.005" height="120.005" rx="60.0023" fill="white"/>
</clipPath>
</defs>
</svg>
